<svg width="13" height="13" viewBox="0 0 13 13" fill="none" xmlns="http://www.w3.org/2000/svg">
<path d="M0.296593 0.296593C0.69205 -0.0988644 1.33267 -0.0988644 1.72812 0.296593L6.5 5.06847L11.2719 0.296593C11.6673 -0.0988644 12.3079 -0.0988644 12.7034 0.296593C13.0989 0.69205 13.0989 1.33267 12.7034 1.72812L7.93153 6.5L12.7034 11.2719C13.0989 11.6673 13.0989 12.3079 12.7034 12.7034C12.3079 13.0989 11.6673 13.0989 11.2719 12.7034L6.5 7.93153L1.72812 12.7034C1.33267 13.0989 0.69205 13.0989 0.296593 12.7034C-0.0988644 12.3079 -0.0988644 11.6673 0.296593 11.2719L5.06847 6.5L0.296593 1.72812C-0.0988644 1.33267 -0.0988644 0.69205 0.296593 0.296593Z" fill="#898989"/>
</svg>
