<svg width="11" height="11" viewBox="0 0 11 11" fill="none" xmlns="http://www.w3.org/2000/svg">
<path d="M7.79254 6.85074C7.71822 6.94829 7.72867 7.0981 7.81693 7.18636L10.8702 10.2385C11.0433 10.4127 11.0433 10.696 10.8702 10.8702C10.696 11.0433 10.4126 11.0433 10.2385 10.8702L7.18635 7.81694C7.09925 7.72984 6.94828 7.71939 6.84957 7.79255C6.84957 7.79255 6.81357 7.8239 6.69976 7.89939C6.01572 8.35581 5.19467 8.62174 4.31088 8.62174C1.93014 8.62174 0 6.6916 0 4.31087C0 1.93014 1.93014 0 4.31088 0C6.69161 0 8.62175 1.93014 8.62175 4.31087C8.62175 5.19814 8.35349 6.02267 7.89476 6.70786C7.82044 6.81819 7.79256 6.85071 7.79256 6.85071L7.79254 6.85074ZM4.31084 7.72986C6.19918 7.72986 7.72981 6.19923 7.72981 4.31089C7.72981 2.42255 6.19918 0.891923 4.31084 0.891923C2.4225 0.891923 0.89187 2.42255 0.89187 4.31089C0.89187 6.19923 2.4225 7.72986 4.31084 7.72986Z" fill="#A0A0A0"/>
</svg>
