<svg width="24" height="24" viewBox="0 0 24 24" fill="none" xmlns="http://www.w3.org/2000/svg">
<path d="M17.0019 14.9471C16.8397 15.1599 16.8626 15.4868 17.0551 15.6793L23.7168 22.3384C24.0944 22.7185 24.0944 23.3368 23.7168 23.7168C23.3368 24.0944 22.7185 24.0944 22.3384 23.7168L15.6793 17.0551C15.4893 16.8651 15.1599 16.8423 14.9445 17.0019C14.9445 17.0019 14.866 17.0703 14.6177 17.235C13.1252 18.2309 11.3338 18.8111 9.40555 18.8111C4.21122 18.8111 0 14.5999 0 9.40554C0 4.21122 4.21122 0 9.40555 0C14.5999 0 18.8111 4.21122 18.8111 9.40554C18.8111 11.3414 18.2258 13.1404 17.2249 14.6353C17.0628 14.8761 17.002 14.947 17.002 14.947L17.0019 14.9471ZM9.40547 16.8651C13.5255 16.8651 16.865 13.5256 16.865 9.40558C16.865 5.28556 13.5255 1.94601 9.40547 1.94601C5.28545 1.94601 1.9459 5.28556 1.9459 9.40558C1.9459 13.5256 5.28545 16.8651 9.40547 16.8651Z" fill="black"/>
</svg>
