<svg width="25" height="18" viewBox="0 0 25 18" fill="none" xmlns="http://www.w3.org/2000/svg">
<path d="M1.21951 0C0.545457 0 0 0.53673 0 1.2C0 1.86327 0.545457 2.4 1.21951 2.4H23.7805C24.4545 2.4 25 1.86327 25 1.2C25 0.53673 24.4545 0 23.7805 0H1.21951ZM1.21951 7.8C0.545457 7.8 0 8.33673 0 9C0 9.66327 0.545457 10.2 1.21951 10.2H16.7805C17.4545 10.2 18 9.66327 18 9C18 8.33673 17.4545 7.8 16.7805 7.8H1.21951ZM1.21951 15.6C0.545457 15.6 0 16.1367 0 16.8C0 17.4633 0.545457 18 1.21951 18H23.7805C24.4545 18 25 17.4633 25 16.8C25 16.1367 24.4545 15.6 23.7805 15.6H1.21951Z" fill="white"/>
</svg>
