<svg width="14" height="14" viewBox="0 0 14 14" fill="none" xmlns="http://www.w3.org/2000/svg">
<path d="M7.18943 13.9974C9.01506 13.9479 10.7494 13.1879 12.0215 11.8796C13.2941 10.5707 14.0043 8.81734 14 6.99306C14 5.13823 13.2624 3.35992 11.9498 2.04802C10.6371 0.736754 8.85683 -4.49631e-07 7 -6.11959e-07C5.14317 -7.74288e-07 3.36295 0.736769 2.05025 2.04802C0.736971 3.35989 1.88945e-05 5.13823 1.87324e-05 6.99306C-0.00416234 8.88301 0.757884 10.6935 2.11232 12.0132C3.46676 13.3329 5.29851 14.0487 7.18927 13.9974L7.18943 13.9974ZM7.00011 13.3495L7.00011 0.63591L7.00011 0.636507C9.25995 0.656194 11.3401 1.87201 12.464 3.83057C13.5886 5.78909 13.5886 8.19632 12.464 10.1548C11.34 12.1134 9.25995 13.3292 7.00011 13.3495L7.00011 13.3495Z" fill="#2a5eac"/>
</svg>
