<svg width="42" height="28" viewBox="0 0 42 28" fill="none" xmlns="http://www.w3.org/2000/svg">
<path d="M3.97386 22.2092C5.83089 20.9651 7.45737 19.5097 9.43758 18.4499C9.6952 18.3011 9.95534 18.1508 10.2129 18.002C10.6959 17.8524 11.1958 17.8645 11.4224 18.3369C11.7008 18.8215 11.2908 19.1457 10.9254 19.2693C9.03185 20.1917 7.47106 21.6092 5.83678 22.854C4.80904 23.6628 4.10628 24.7561 3.46875 25.8134C3.29335 26.0878 3.21238 26.4354 2.84696 26.5591C2.53544 26.6953 2.66151 27.3552 2.20817 27.1431C1.86011 26.9577 1.58172 26.4732 1.63182 26.014C1.69977 25.2437 1.89652 24.399 1.73961 23.6275C1.44079 22.0389 1.32096 20.3855 0.766437 18.6841C0.390252 17.6527 0.479571 16.3121 0.586327 15.1312C0.590317 14.8701 0.756024 14.6466 1.13892 14.6826C1.62755 14.7432 1.78321 15.0415 1.86145 15.4282C2.07191 16.683 2.69039 17.8752 2.73199 19.1419C2.728 19.403 2.81592 19.7388 3.15477 19.9732C3.90936 18.8921 4.65472 17.8599 5.35795 16.7646C7.59945 13.1473 10.0838 9.68867 12.9039 6.46839C16.4863 2.37732 21.114 0.0489221 27.0957 0.549199C30.2648 0.869755 33.4416 1.40089 36.5566 2.44173C37.8065 2.83728 39.1408 3.35893 40.298 4.15259C41.2668 4.79793 41.1588 5.50566 40.9621 6.35035C40.7422 7.29407 40.0839 7.71805 39.1411 7.91812C38.8526 7.95534 38.6642 7.80705 38.4219 7.6462C36.0924 5.63573 33.2503 4.86933 30.2731 4.43791C28.646 4.21653 27.0228 3.73403 25.3495 3.71072C21.409 3.57694 18.2033 5.08422 15.3147 7.39817C11.6789 10.2731 9.12589 14.0264 6.73203 17.8192C5.72509 19.2613 4.87522 20.7421 3.974 22.2088L3.97386 22.2092ZM21.6405 2.58289C24.6779 2.03341 27.7015 2.26477 30.7264 2.96936C33.3803 3.58752 36.0921 3.95713 38.4087 5.54492C38.651 5.70577 39.0064 6.10382 39.2166 5.67988C39.4034 5.35692 39.0249 5.05789 38.6651 4.92292C37.0249 4.27884 35.4827 3.44878 33.7307 3.04069C32.0326 2.64516 30.2689 2.28756 28.5365 2.03962C26.1979 1.75693 23.9051 1.74696 21.6402 2.58285L21.6405 2.58289Z" fill="#7B87B0"/>
</svg>
