<svg width="107" height="92" viewBox="0 0 107 92" fill="none" xmlns="http://www.w3.org/2000/svg">
<path d="M106.134 25.4482C106.134 25.4482 105.866 28.1968 103.763 30.0444C103.763 30.0444 103.184 32.5035 100.553 32.9115C100.553 32.9115 100.423 35.6035 97.4634 35.4875C97.4634 35.4875 96.662 35.509 95.6631 36.3726C94.2822 37.5673 92.4767 38.166 90.6645 37.9356C89.8785 37.8361 89.0042 37.6143 88.0678 37.2039C87.5724 36.9866 87.0041 37.0292 86.5352 37.2981C85.6685 37.7952 84.1126 38.4429 82.3361 38.0522C82.3361 38.0522 79.0853 39.1815 77.2232 37.2788C74.3063 36.5175 72.6986 35.1066 72.3312 33.0787C72.2848 32.8204 72.2581 32.5589 72.2513 32.2965C69.9478 31.8783 68.9132 30.5188 69.1474 28.2181C68.3983 26.5017 68.5573 25.0505 69.9536 24.0248C69.6476 22.9951 70.0015 22.1215 71.2906 21.4712C70.8075 19.9342 71.3088 18.7442 72.9806 18.1925C73.3103 16.8679 73.9243 15.8172 75.4194 15.6192C75.8777 14.1939 76.8318 13.2261 78.2358 12.6733C78.8944 11.5427 79.8316 10.7257 81.4343 10.6556C82.2955 8.85046 83.6973 7.98542 85.9378 8.58306C87.2046 7.67503 88.8068 7.75008 90.0543 8.38269C91.3527 8.27631 92.4856 8.5051 93.2804 9.41841C95.2882 9.33699 97.1512 9.70603 98.7024 11.0569C98.7061 11.0595 98.7096 11.0624 98.7128 11.0656C98.7128 11.0656 98.7763 11.0853 98.8895 11.1255C98.9275 11.1392 98.9654 11.153 99.0033 11.1678C99.3042 11.2839 99.5985 11.4166 99.8847 11.5653L99.8905 11.5687C100.753 12.017 101.898 12.7908 102.634 13.9861C102.634 13.9861 104.824 15.5136 104.822 17.3814C104.822 17.3814 106.434 18.5996 106.238 21.2865C106.237 21.2876 106.936 23.1394 106.134 25.4482Z" fill="black"/>
<path d="M80.2068 38.4247C79.209 38.4247 78.056 38.1891 77.1986 37.3194C74.3101 36.5629 72.6572 35.1388 72.2855 33.0867C72.2408 32.8382 72.2143 32.5868 72.2061 32.3344C69.9144 31.9058 68.8693 30.5236 69.0999 28.2252C68.3115 26.4106 68.5807 24.9915 69.9002 24.007C69.5906 22.9232 70.0401 22.0623 71.2348 21.4479C70.7498 19.8575 71.3547 18.6905 72.9416 18.1573C73.2148 17.0717 73.743 15.809 75.384 15.5781C75.8394 14.1881 76.7866 13.1986 78.2033 12.6369C78.9722 11.3254 79.99 10.6809 81.4042 10.6115C82.3448 8.65938 83.8246 7.97959 85.9277 8.53388C87.0904 7.7111 88.6712 7.63569 90.0625 8.33716C91.522 8.22022 92.5809 8.55902 93.2993 9.37306C95.6082 9.28344 97.3352 9.80749 98.7313 11.0234L98.7342 11.0257C98.7556 11.0326 98.8144 11.0516 98.9038 11.0835C98.9423 11.0975 98.9807 11.1115 99.0189 11.1263C99.3213 11.2431 99.617 11.3764 99.9047 11.5257L99.9127 11.5305C100.756 11.9676 101.919 12.7454 102.667 13.9553C102.812 14.0587 104.852 15.5569 104.866 17.3604C105.044 17.5061 106.463 18.761 106.283 21.2811C106.335 21.4301 106.944 23.2483 106.178 25.458C106.162 25.5986 105.841 28.2708 103.803 30.0692C103.749 30.273 103.091 32.543 100.595 32.9508C100.563 33.2787 100.24 35.641 97.4616 35.5328C97.4568 35.5328 96.6652 35.5656 95.6927 36.4071C94.2751 37.6338 92.4408 38.207 90.6588 37.9809C89.7896 37.8716 88.9117 37.6237 88.0494 37.2458C87.5773 37.0385 87.0195 37.0727 86.5578 37.3369C85.5887 37.8926 84.0709 38.4751 82.3386 38.0984C82.2208 38.1374 81.3082 38.4247 80.2068 38.4247ZM84.6166 8.44007C83.2226 8.44007 82.1882 9.17925 81.4745 10.6754L81.4629 10.7L81.4354 10.7013C80.0361 10.7625 79.031 11.3964 78.274 12.6964L78.2662 12.7101L78.2514 12.7157C76.8448 13.2697 75.9062 14.2513 75.4618 15.6333L75.453 15.6608L75.4245 15.6646C74.1598 15.832 73.4194 16.6152 73.0237 18.2038L73.0177 18.228L72.9939 18.236C71.4092 18.7588 70.835 19.8727 71.333 21.4574L71.3447 21.4938L71.3103 21.512C70.1066 22.1191 69.6769 22.937 69.9964 24.0121L70.0055 24.0429L69.9797 24.0611C68.6746 25.0197 68.4083 26.4121 69.1882 28.1994L69.193 28.2103L69.1917 28.2221C68.9607 30.4843 69.9931 31.8397 72.2585 32.2512L72.2949 32.2577V32.2942C72.3017 32.5543 72.3282 32.8135 72.3742 33.0696C72.7396 35.0865 74.3742 36.4875 77.2328 37.2336L77.245 37.2367L77.2538 37.2458C79.0753 39.1065 82.2871 38.0192 82.3193 38.0079L82.3315 38.0037L82.3441 38.0064C84.053 38.3824 85.553 37.8061 86.5106 37.2574C86.9973 36.9784 87.5853 36.9423 88.0842 37.1611C88.9384 37.5356 89.8078 37.7804 90.6685 37.8897C92.4253 38.113 94.2333 37.5471 95.6313 36.3374C96.6306 35.4731 97.427 35.4421 97.4603 35.4412C100.343 35.556 100.5 33.0168 100.505 32.9093L100.507 32.8729L100.544 32.867C103.112 32.4685 103.711 30.0588 103.717 30.0346L103.72 30.0203L103.731 30.0107C105.796 28.197 106.084 25.4715 106.087 25.4441L106.089 25.4338C106.876 23.1685 106.2 21.3226 106.193 21.3042L106.189 21.2949V21.2849C106.381 18.6557 104.807 17.4313 104.791 17.4193L104.773 17.4056V17.383C104.775 15.56 102.627 14.0402 102.606 14.025L102.593 14.0116C101.856 12.815 100.704 12.0456 99.8668 11.6108L99.8588 11.6062C99.5748 11.4589 99.283 11.3273 98.9845 11.2121C98.9466 11.1973 98.9091 11.1836 98.8714 11.17C98.7601 11.1303 98.6973 11.1108 98.6967 11.1108L98.6774 11.0999L98.6699 11.0928C97.288 9.88946 95.5747 9.37269 93.2796 9.46559H93.2577L93.2434 9.44901C92.533 8.63316 91.5206 8.30874 90.0558 8.42896H90.0428L90.0313 8.42313C88.661 7.72749 87.1017 7.80254 85.962 8.61949L85.9437 8.63188L85.923 8.62642C85.4572 8.50243 85.0217 8.44032 84.6166 8.44007Z" fill="black"/>
<path d="M72.2514 32.2965C69.9476 31.8783 68.913 30.5192 69.1476 28.2191C68.3982 26.5026 68.5572 25.0511 69.9538 24.0257C69.6479 22.9957 70.0018 22.1226 71.2907 21.4722C70.8079 19.935 71.309 18.7457 72.9807 18.1934C73.3106 16.8686 73.9244 15.8183 75.4195 15.6202C75.8776 14.1944 76.8323 13.227 78.2359 12.6742C78.8944 11.5432 79.8323 10.7263 81.4344 10.6565C82.296 8.8512 83.6973 7.98616 85.9379 8.58398C87.2047 7.67596 88.8067 7.75082 90.0545 8.38362C91.353 8.27742 92.4861 8.50602 93.2805 9.41933C95.2921 9.33736 97.1603 9.70859 98.7129 11.0665C98.7129 11.0665 101.323 11.8573 102.635 13.9873C102.635 13.9873 104.825 15.5145 104.821 17.3819C104.821 17.3819 106.433 18.6002 106.237 21.2871C106.237 21.2871 106.935 23.139 106.133 25.4482C106.133 25.4482 105.866 28.1967 103.763 30.0442C103.763 30.0442 103.184 32.5033 100.552 32.9115C100.552 32.9115 100.423 35.6033 97.4632 35.4873C97.4632 35.4873 96.6603 35.5088 95.6625 36.3724C94.2816 37.5673 92.4758 38.166 90.6643 37.9358C89.8774 37.8358 89.0036 37.6141 88.067 37.2035C87.5718 36.9862 87.0031 37.0285 86.5341 37.2977C85.6678 37.795 84.1129 38.4424 82.3355 38.0516C82.3355 38.0516 79.0849 39.181 77.223 37.2782C73.945 36.4228 72.3195 34.7465 72.2514 32.2965Z" fill="white"/>
<path d="M80.2067 38.4247C79.2091 38.4247 78.0563 38.189 77.1991 37.319C73.9699 36.4735 72.2907 34.7967 72.2062 32.3344C69.9149 31.906 68.8698 30.5236 69.1 28.2252C68.3115 26.4105 68.5807 24.9913 69.9004 24.007C69.5907 22.9233 70.0406 22.0625 71.235 21.4479C70.7503 19.8579 71.3552 18.6909 72.9417 18.1573C73.2149 17.0717 73.7432 15.8092 75.3841 15.5782C75.8395 14.1882 76.7867 13.199 78.2034 12.6369C78.9719 11.3254 79.99 10.6805 81.4043 10.6115C82.3455 8.65957 83.8249 7.97959 85.9278 8.53388C87.0905 7.7111 88.6715 7.63569 90.0626 8.33716C91.5222 8.22022 92.5816 8.55938 93.2994 9.37306C95.61 9.28198 97.3376 9.80785 98.7347 11.0259C98.91 11.0816 101.4 11.9059 102.668 13.9556C102.812 14.0591 104.853 15.5569 104.866 17.3601C105.044 17.5058 106.463 18.7606 106.283 21.2807C106.335 21.4299 106.944 23.2479 106.178 25.4582C106.162 25.5988 105.841 28.2708 103.804 30.0692C103.749 30.273 103.091 32.543 100.595 32.9508C100.564 33.2787 100.239 35.6428 97.4621 35.5328C97.4571 35.5328 96.6648 35.5658 95.6928 36.4071C94.2754 37.6339 92.4408 38.2081 90.6592 37.9813C89.789 37.8707 88.9105 37.6232 88.0493 37.2454C87.5766 37.0383 87.0189 37.0727 86.5575 37.3376C85.7646 37.793 84.1641 38.4957 82.339 38.0992C82.2211 38.1372 81.3084 38.4247 80.2067 38.4247ZM84.6167 8.44007C83.2231 8.44007 82.1887 9.17925 81.4747 10.6754L81.463 10.7L81.4355 10.7013C80.036 10.7621 79.0311 11.396 78.2741 12.6962L78.2663 12.7099L78.2515 12.7157C76.8444 13.27 75.9058 14.2516 75.4619 15.6333L75.4532 15.6608L75.4246 15.6646C74.1597 15.8322 73.4195 16.6152 73.0239 18.2038L73.0178 18.228L72.994 18.236C71.4093 18.7592 70.8355 19.8732 71.3331 21.4574L71.3448 21.4938L71.3104 21.512C70.1071 22.1191 69.6774 22.937 69.9965 24.0121L70.0056 24.0429L69.9798 24.0611C68.6743 25.0196 68.408 26.4119 69.1883 28.1994L69.1931 28.2103L69.1918 28.2221C68.9612 30.4843 69.9933 31.8399 72.2586 32.2512L72.2951 32.2577V32.2942C72.3628 34.7341 74.0244 36.3959 77.2333 37.2332L77.2455 37.2365L77.2543 37.2454C79.0745 39.1061 82.2874 38.0188 82.3196 38.0077L82.3317 38.0033L82.3442 38.0063C84.1444 38.4021 85.7273 37.707 86.5103 37.2572C86.9967 36.9782 87.585 36.9421 88.0843 37.1607C88.9377 37.535 89.8072 37.78 90.669 37.8893C92.4242 38.1125 94.2335 37.5465 95.6315 36.3367C96.6302 35.4723 97.4273 35.4414 97.4608 35.4405C100.345 35.5547 100.505 32.9344 100.506 32.9086L100.508 32.8721L100.544 32.8663C103.113 32.4677 103.712 30.0581 103.718 30.0338L103.721 30.0196L103.732 30.01C105.796 28.1963 106.084 25.4711 106.086 25.4438L106.089 25.4332C106.876 23.1676 106.2 21.3215 106.193 21.3031L106.189 21.2938V21.2838C106.381 18.6546 104.807 17.4304 104.791 17.4182L104.773 17.4045V17.3817C104.776 15.5602 102.627 14.0398 102.605 14.0247L102.593 14.0112C101.305 11.9201 98.7222 11.1179 98.6963 11.1101L98.6794 11.1008C97.295 9.89091 95.5785 9.37032 93.2788 9.46486H93.257L93.2426 9.44829C92.5331 8.63261 91.52 8.30838 90.055 8.42823H90.042L90.0306 8.4224C88.6604 7.72677 87.1009 7.80181 85.9612 8.61876L85.943 8.63115L85.9222 8.62569C85.4571 8.50219 85.0219 8.44032 84.6167 8.44007Z" fill="black"/>
<g opacity="0.55">
<path opacity="0.55" d="M72.8021 32.9457L72.2557 32.2464C72.2557 32.2464 72.2351 30.8972 72.9691 29.6672C73.145 29.3714 73.2035 29.0204 73.1331 28.6835C72.9981 28.0243 72.9052 26.883 73.5717 26.0043C73.7566 25.7596 73.8892 25.48 73.9382 25.1775C74.0511 24.4935 74.4076 23.2698 75.5296 22.7685C75.9444 22.5827 76.2438 22.2084 76.3028 21.7574C76.3757 21.1995 76.6442 20.4796 77.4726 20.0269C77.8551 19.8187 78.1313 19.4606 78.2558 19.0433C78.4677 18.3355 79.0054 17.2861 80.3648 16.7431C80.7759 16.5792 81.1323 16.2999 81.3679 15.9249C81.8232 15.2017 82.8387 14.0453 84.8063 13.6926C85.2342 13.6157 85.6223 13.397 85.895 13.0598C86.4975 12.3163 87.8573 11.109 90.1842 11.4268C90.5462 11.4777 90.9151 11.4207 91.2447 11.2629C91.7134 11.0359 92.4972 10.7711 93.4418 10.906C93.7854 10.9541 94.1355 10.9224 94.4649 10.8135C95.1948 10.5738 96.6899 10.2947 98.7068 11.0082C98.7682 11.0297 98.8307 11.0521 98.8939 11.0769C98.9318 11.0906 98.9698 11.1044 99.0077 11.1192C99.2917 11.2319 99.5862 11.3634 99.8891 11.5166L99.895 11.5201C100.107 11.6306 100.337 11.7603 100.572 11.9106L100.326 12.1618C97.7675 10.8975 95.866 11.2328 95.0123 11.5128C94.6828 11.6217 94.3326 11.6534 93.989 11.6053C93.0454 11.4704 92.2607 11.7352 91.793 11.9622C91.4632 12.12 91.0943 12.177 90.7323 12.1261C88.4055 11.8081 87.0447 13.0154 86.4422 13.7589C86.1689 14.0961 85.7813 14.3148 85.3546 14.3908C83.3861 14.7433 82.3711 15.8999 81.9161 16.624C81.6793 16.999 81.3241 17.2772 80.9119 17.4422C79.5527 17.9852 79.0159 19.0337 78.8032 19.7424C78.6788 20.1586 78.4025 20.5177 78.02 20.726C77.1915 21.1787 76.924 21.8986 76.8504 22.4554C76.7914 22.9064 76.4928 23.2818 76.0772 23.4665C74.9551 23.968 74.5987 25.1915 74.4866 25.8768C74.4365 26.1791 74.3045 26.4597 74.1191 26.7034C73.4528 27.5821 73.5466 28.7225 73.6819 29.3826C73.7517 29.7191 73.6932 30.0696 73.518 30.3652C72.7824 31.5965 72.8021 32.9457 72.8021 32.9457Z" fill="white"/>
</g>
<g opacity="0.25">
<path opacity="0.25" d="M85.1536 18.301C85.2811 18.3175 85.4351 18.3602 85.4662 18.4853C85.5094 18.6593 85.2822 18.7654 85.1057 18.7971C84.266 18.9478 83.4163 19.0604 82.5986 19.3035C81.781 19.5467 80.9852 19.9323 80.3965 20.5498C80.2398 20.7138 80.0955 20.8959 79.901 21.0132C79.7065 21.1305 79.4407 21.1658 79.2602 21.0281C78.6526 20.5651 80.45 19.4359 80.7784 19.2389C81.6107 18.7401 82.5377 18.4203 83.5005 18.2997C84.0494 18.2307 84.6048 18.2312 85.1536 18.301Z" fill="white"/>
</g>
<g opacity="0.3">
<path d="M106.24 21.2883C106.436 18.6014 104.824 17.3832 104.824 17.3832C104.826 15.5154 102.637 13.9878 102.637 13.9878C102.098 13.1135 101.341 12.4647 100.636 12.004L100.441 12.27C100.441 12.27 102.779 15.0205 101.633 16.3229C100.487 17.6252 99.5086 16.436 98.5847 18.4025C97.6609 20.369 98.4662 22.0155 97.6376 22.7494C96.809 23.4833 96.547 23.6403 96.0017 24.6009C95.4563 25.5616 94.1492 25.5414 92.9756 27.2815C91.8021 29.0216 88.6196 27.6389 87.4055 27.7004C86.1915 27.762 85.2828 29.1642 85.2995 31.0324C85.3163 32.9005 84.201 33.9104 83.0966 33.2096C81.9922 32.5089 81.7771 32.3031 80.8822 32.4328C79.9995 32.5603 76.1159 36.545 72.334 33.0794C72.7014 35.1073 74.309 36.5182 77.226 37.2795C79.0881 39.1822 82.3389 38.0529 82.3389 38.0529C84.1163 38.4436 85.6722 37.7959 86.538 37.2988C87.0068 37.0299 87.5751 36.9873 88.0706 37.2046C89.007 37.615 89.8813 37.8368 90.6673 37.9363C92.4795 38.1667 94.2849 37.568 95.6658 36.3733C96.6642 35.5097 97.4662 35.4882 97.4662 35.4882C100.426 35.6042 100.555 32.9122 100.555 32.9122C103.187 32.504 103.766 30.0451 103.766 30.0451C105.869 28.1975 106.137 25.4489 106.137 25.4489C106.938 23.1401 106.24 21.2883 106.24 21.2883ZM86.821 34.6612C86.5478 34.9033 86.1835 34.9477 85.9365 35.2399C85.7179 35.4971 85.6046 35.8259 85.3718 36.0732C84.9673 36.5039 84.3108 36.588 83.7232 36.5252C83.1356 36.4623 82.5593 36.282 81.9686 36.2884C81.566 36.2929 81.1693 36.384 80.7684 36.4079C80.2879 36.4377 79.7704 36.359 79.4443 35.9731C79.3229 35.8273 79.2804 35.6259 79.3573 35.4534C79.4873 35.1669 79.8256 35.1774 80.0994 35.1015C80.5547 34.974 80.9041 34.5608 81.3731 34.5091C81.6968 34.4727 82.0123 34.6197 82.2866 34.7958C82.5609 34.972 82.8177 35.1807 83.1214 35.2969C83.7055 35.5197 84.3881 35.3516 84.8904 34.9789C85.2258 34.7312 85.4897 34.4033 85.7023 34.0426C85.9522 33.6187 86.5462 33.5419 86.866 33.9164C87.0554 34.137 87.1055 34.4107 86.821 34.6612ZM91.2312 34.3457C90.9849 34.4989 90.7011 34.6171 90.4115 34.5911C90.1219 34.565 89.835 34.3608 89.7922 34.0736C89.7518 33.8036 89.9252 33.5532 90.0722 33.3217C90.3624 32.8677 90.6063 32.3512 90.7297 31.824C90.8228 31.4255 90.6797 30.9058 91.1669 30.7172C91.4305 30.6154 91.7409 30.6932 91.9622 30.8693C92.1835 31.0455 92.3234 31.3065 92.4035 31.5797C92.7075 32.6105 92.1469 33.7792 91.2312 34.3457ZM102.468 21.083C102.639 20.7189 102.872 20.3867 103.155 20.1007C103.34 19.9131 103.713 19.4061 104.015 19.4371C104.632 19.4981 104.156 20.2497 103.969 20.4603C103.381 21.1316 103.049 21.9889 103.031 22.8811C103.028 23.0858 103.04 23.3 102.95 23.4854C102.86 23.6709 102.625 23.8038 102.447 23.7028C102.329 23.6361 102.277 23.4964 102.242 23.3667C102.039 22.6106 102.138 21.7898 102.468 21.083ZM95.4006 27.3735C95.4667 27.0831 95.7394 26.844 95.9775 26.6653C96.2155 26.4866 96.4851 26.3571 96.7359 26.1973C97.437 25.7492 98.1536 24.9492 98.3634 24.1441C98.419 23.933 98.4769 23.714 98.6173 23.5452C98.7578 23.3763 99.002 23.2761 99.2002 23.3676C99.443 23.4814 99.4927 23.8013 99.4873 24.0689C99.4569 25.7736 98.5013 27.4347 97.0412 28.3156C96.7523 28.4906 96.4354 28.6394 96.0979 28.6578C95.7603 28.6762 95.3988 28.5438 95.2186 28.2586C95.0385 27.9733 95.1028 27.5349 95.3999 27.3735H95.4006ZM102.898 27.8653C102.771 28.4003 102.366 28.864 101.891 29.1425C101.653 29.2804 101.389 29.3693 101.116 29.4041C100.842 29.439 100.565 29.419 100.299 29.3455C100.125 29.9489 99.7064 30.4717 99.174 30.8041C98.634 31.1386 97.9904 31.2642 97.3643 31.1571C97.0678 31.5617 96.6807 31.9428 96.2516 32.2025C95.947 32.3847 95.6126 32.5271 95.2611 32.5745C94.9095 32.6218 94.5372 32.5677 94.2323 32.3863C94.1365 32.3282 94.0447 32.2555 93.9929 32.1568C93.9412 32.0581 93.9383 31.9256 94.0092 31.8388C94.2277 31.5715 94.7112 31.663 95.0359 31.5455C95.6638 31.3182 96.0602 30.7138 96.4117 30.1462C96.9535 30.2236 97.5062 30.15 98.009 29.9336C98.2126 29.8444 98.4111 29.7278 98.5432 29.5484C98.792 29.2114 98.7647 28.7081 99.0678 28.4201C99.6448 28.5883 100.331 28.4644 100.85 28.162C101.11 28.0087 101.336 27.8051 101.516 27.563C101.695 27.321 101.824 27.0455 101.896 26.7527C102.286 26.47 102.825 26.3392 103.197 26.0352C103.541 25.7541 103.764 25.3452 103.895 24.9197C104.027 24.4942 104.11 24.0328 104.156 23.59C104.305 23.5559 104.461 23.6463 104.546 23.7736C104.632 23.9009 104.661 24.057 104.678 24.2093C104.838 25.6312 104.116 27.1163 102.897 27.8657L102.898 27.8653Z" fill="#0038FF"/>
</g>
<g opacity="0.25">
<path opacity="0.25" d="M78.5352 27.8734C78.4987 28.0062 78.4623 28.1423 78.4732 28.2794C78.4842 28.4166 78.551 28.5576 78.6736 28.6193C78.755 28.6603 78.8495 28.6623 78.9406 28.6631C79.6311 28.6687 80.3893 28.6246 80.8964 28.1559C81.1031 27.9649 81.2559 27.6955 81.2399 27.4146C81.2239 27.1337 81.0005 26.8586 80.7193 26.8472C80.5027 27.1832 80.1364 27.4332 79.7623 27.5736C79.3657 27.719 78.9541 27.8196 78.5352 27.8734Z" fill="white"/>
</g>
<g opacity="0.25">
<path opacity="0.25" d="M76.8107 27.7905C76.7628 27.8925 76.7158 28.004 76.7368 28.1148C76.7559 28.2149 76.8298 28.2985 76.9189 28.349C77.008 28.3995 77.1098 28.421 77.2103 28.433C77.3173 28.4459 77.4378 28.4452 77.5174 28.3727C77.5903 28.3071 77.6074 28.2015 77.61 28.1042C77.6238 27.6005 77.0779 27.2226 76.8107 27.7905Z" fill="white"/>
</g>
<g opacity="0.55">
<path opacity="0.55" d="M93.2693 9.40773C92.5711 9.007 91.7237 8.91173 90.7906 8.98878C89.5432 8.35544 87.941 8.28039 86.674 9.18915C84.4336 8.59151 83.0327 9.45673 82.1707 11.2617C80.5687 11.3318 79.6307 12.1488 78.972 13.2794C77.568 13.8322 76.6139 14.8 76.1558 16.2253C74.6605 16.4233 74.0467 17.474 73.7168 18.7986C72.0458 19.35 71.5438 20.54 72.0269 22.0773C70.7378 22.7276 70.3839 23.6012 70.6899 24.6309C69.2935 25.6566 69.1345 27.1082 69.8837 28.8242C69.7573 30.0629 69.9989 31.0286 70.6086 31.7215C69.4658 31.0409 68.9788 29.8738 69.1474 28.2202C68.3983 26.5038 68.5573 25.0526 69.9536 24.0269C69.6476 22.9972 70.0015 22.1236 71.2906 21.4733C70.8075 19.9363 71.3088 18.7463 72.9806 18.1946C73.3103 16.87 73.9243 15.8193 75.4194 15.6213C75.8777 14.196 76.8318 13.2282 78.2358 12.6754C78.8944 11.5447 79.8316 10.7278 81.4343 10.6577C82.2955 8.85253 83.6973 7.98749 85.9378 8.58513C87.2046 7.67711 88.8068 7.75215 90.0543 8.38477C91.3467 8.27803 92.4747 8.50444 93.2693 9.40773Z" fill="white"/>
</g>
<g opacity="0.55">
<path opacity="0.55" d="M101.66 12.8043C100.536 12 99.4493 11.6706 99.4493 11.6706C97.8956 10.3125 96.0289 9.94128 94.0169 10.0234C93.8097 9.78298 93.5639 9.57872 93.2896 9.41905C95.2985 9.33872 97.1612 9.71049 98.7131 11.0666C98.7135 11.0666 100.331 11.5568 101.66 12.8043Z" fill="white"/>
</g>
<g opacity="0.55">
<path opacity="0.55" d="M72.2558 32.297C72.2602 32.4444 72.2697 32.5885 72.2853 32.7304C71.57 32.5111 71.0126 32.1743 70.6132 31.72C71.0598 31.9877 71.6074 32.1801 72.2558 32.297Z" fill="white"/>
<path opacity="0.55" d="M72.3361 32.7947L72.2698 32.7743C71.5492 32.5534 70.9797 32.2096 70.5769 31.7504L70.3848 31.5319L70.6345 31.6816C71.0735 31.9448 71.621 32.137 72.262 32.253L72.2984 32.2596V32.296C72.3028 32.4459 72.3124 32.5865 72.3276 32.7257L72.3361 32.7947ZM70.8562 31.9051C71.2134 32.233 71.6744 32.488 72.2308 32.6667C72.2205 32.559 72.2126 32.4497 72.2095 32.3355C71.6975 32.2399 71.2432 32.0956 70.8569 31.9051H70.8562Z" fill="black"/>
</g>
<g opacity="0.55">
<path opacity="0.55" d="M93.2904 9.4178C93.2877 9.4178 93.2848 9.4178 93.2821 9.4178C93.2789 9.41396 93.2755 9.41031 93.2719 9.40686C93.2781 9.41056 93.2843 9.41376 93.2904 9.4178Z" fill="white"/>
<path opacity="0.55" d="M93.4563 9.4752L93.2901 9.46553H93.2784L93.2602 9.46407L93.2479 9.44966C93.2459 9.44711 93.2437 9.44467 93.2414 9.44236L92.9608 9.19531L93.2925 9.36755C93.3007 9.37193 93.3089 9.37631 93.3169 9.3816L93.4563 9.4752Z" fill="black"/>
</g>
<path d="M80.2019 38.741C79.1683 38.741 77.9702 38.4951 77.043 37.5949C73.8239 36.732 72.1008 35.0488 71.9159 32.5879C69.6631 32.0844 68.5851 30.5995 68.7908 28.2767C67.8367 26.0146 68.6303 24.6592 69.5587 23.8923C69.391 23.0925 69.5416 22.0781 70.8787 21.2999C70.491 19.7227 71.1396 18.511 72.6888 17.9283C72.9695 16.8995 73.5467 15.6233 75.1563 15.3115C75.6498 13.9548 76.6033 12.9756 77.9951 12.3971C78.7807 11.1027 79.809 10.4389 81.2106 10.3231C82.1964 8.41048 83.7629 7.70009 85.8702 8.21012C87.0905 7.41193 88.696 7.34307 90.1228 8.03215C91.5772 7.93161 92.6619 8.27132 93.4284 9.06878C95.7255 9.00248 97.465 9.54238 98.8867 10.7599C99.3348 10.9089 101.629 11.7517 102.894 13.7485C103.257 14.0155 105.062 15.4314 105.165 17.2215C105.572 17.595 106.737 18.8813 106.59 21.244C106.717 21.6289 107.209 23.3819 106.476 25.5293C106.432 25.9033 106.064 28.433 104.073 30.2403C103.923 30.7411 103.192 32.7229 100.864 33.2136C100.728 33.9615 100.117 35.9366 97.4661 35.841C97.3933 35.8471 96.7206 35.9227 95.8911 36.6406C94.4082 37.9237 92.4869 38.5235 90.6202 38.2863C89.7211 38.1721 88.815 37.9168 87.9268 37.5275C87.5419 37.3585 87.0862 37.3876 86.708 37.6047C85.8884 38.0749 84.245 38.7969 82.3547 38.4166C82.0722 38.504 81.2168 38.7408 80.2019 38.741ZM84.6135 8.74546C83.3385 8.74546 82.4128 9.41943 81.7498 10.8092C81.7224 10.8665 81.6801 10.9151 81.6272 10.9501C81.5743 10.9851 81.5129 11.005 81.4496 11.0078C80.1456 11.0644 79.2474 11.6333 78.5376 12.8523C78.498 12.9201 78.4368 12.9726 78.3638 13.0014C77.027 13.5279 76.1727 14.4202 75.7521 15.7292C75.732 15.7921 75.6944 15.8479 75.6437 15.8903C75.5931 15.9327 75.5314 15.9598 75.466 15.9685C74.3277 16.1195 73.686 16.8108 73.3201 18.28C73.3059 18.3373 73.2774 18.39 73.2373 18.4333C73.1972 18.4765 73.1468 18.5089 73.0908 18.5274C71.6726 18.9957 71.1782 19.952 71.6245 21.369C71.6493 21.448 71.6452 21.5332 71.613 21.6095C71.5808 21.6858 71.5226 21.7482 71.4487 21.7855C70.0491 22.4918 70.1166 23.3466 70.2891 23.928C70.3096 23.9969 70.3084 24.0705 70.2856 24.1386C70.2628 24.2068 70.2195 24.2662 70.1616 24.3089C68.9695 25.1832 68.7427 26.418 69.4695 28.0809C69.4935 28.1359 69.5029 28.1962 69.4968 28.256C69.2802 30.3624 70.2019 31.5724 72.3148 31.956C72.3937 31.9703 72.4652 32.0113 72.5174 32.0721C72.5696 32.1329 72.5993 32.2098 72.6015 32.2899C72.666 34.6109 74.207 36.1333 77.3128 36.9435C77.3741 36.9595 77.4299 36.9918 77.4742 37.0371C79.1563 38.7568 82.1918 37.7353 82.223 37.7248C82.2838 37.7037 82.3493 37.6999 82.4122 37.7137C84.1124 38.0876 85.6168 37.4259 86.362 36.998C86.9315 36.6712 87.6221 36.6295 88.2089 36.8869C89.0357 37.2493 89.8772 37.4867 90.71 37.5925C92.3802 37.8049 94.1026 37.2646 95.4355 36.1116C96.5153 35.177 97.4175 35.1424 97.4554 35.1413C97.463 35.1413 97.4709 35.1413 97.4785 35.1413C100.062 35.2426 100.201 32.9934 100.205 32.8976C100.209 32.8173 100.241 32.7408 100.295 32.6811C100.348 32.6213 100.421 32.582 100.501 32.5697C102.858 32.2039 103.403 30.0576 103.425 29.9665C103.442 29.896 103.48 29.8324 103.534 29.7844C105.503 28.0539 105.785 25.4426 105.787 25.4164C105.79 25.389 105.796 25.362 105.805 25.3361C106.552 23.1841 105.918 21.4294 105.912 21.412C105.894 21.3647 105.887 21.3143 105.891 21.264C106.069 18.8154 104.67 17.7079 104.611 17.662C104.569 17.6292 104.534 17.5871 104.51 17.5389C104.486 17.4907 104.474 17.4376 104.474 17.3838C104.476 15.7182 102.457 14.2905 102.437 14.2763C102.397 14.249 102.364 14.2138 102.339 14.173C101.113 12.1859 98.6353 11.4113 98.6111 11.4036C98.5641 11.3891 98.5206 11.3649 98.4836 11.3324C97.1617 10.177 95.5146 9.68045 93.2953 9.77134C93.243 9.77332 93.1909 9.76361 93.1429 9.74291C93.0948 9.7222 93.052 9.69103 93.0175 9.65167C92.3767 8.91486 91.4441 8.62342 90.0834 8.73453C90.0191 8.74003 89.9545 8.72741 89.8969 8.6981C88.9024 8.193 87.3936 7.97314 86.1421 8.87042C86.1001 8.90045 86.0521 8.92083 86.0013 8.93009C85.9505 8.93935 85.8983 8.93726 85.8485 8.92397C85.404 8.80545 84.9924 8.74595 84.6135 8.74546Z" fill="black"/>
<path d="M71.9036 32.3017C71.9036 32.2328 71.9054 32.1809 71.9083 32.1228C71.9112 32.0647 71.9148 32.0104 71.9194 31.9549C71.9285 31.8436 71.9414 31.7335 71.9558 31.6237C71.9872 31.4045 72.0298 31.187 72.0833 30.9721C72.1946 30.5432 72.3456 30.1204 72.5618 29.7249L72.644 29.5772L72.6791 29.5144C72.6892 29.4976 72.6974 29.4801 72.7061 29.4628C72.7402 29.3932 72.766 29.3198 72.7832 29.2442C72.8006 29.1681 72.8091 29.0901 72.8087 29.012C72.8085 28.9728 72.8062 28.9336 72.8017 28.8947C72.7988 28.8754 72.7974 28.8557 72.7932 28.8364L72.7804 28.7674C72.695 28.3291 72.6606 27.877 72.7036 27.4194C72.7465 26.9619 72.8777 26.4985 73.1261 26.0883C73.1561 26.0365 73.1888 25.9863 73.2241 25.938C73.2578 25.8894 73.2952 25.8353 73.3178 25.8058C73.3684 25.7353 73.4137 25.6612 73.4531 25.5839C73.4915 25.5086 73.5235 25.4302 73.5487 25.3495C73.5604 25.3094 73.5717 25.2693 73.5797 25.2289L73.6063 25.0832C73.6873 24.6427 73.8249 24.2088 74.0396 23.7984C74.1505 23.592 74.282 23.3975 74.4323 23.2177C74.5884 23.036 74.7666 22.8745 74.9627 22.737C75.1502 22.6002 75.4207 22.4919 75.5196 22.4257C75.65 22.3431 75.7591 22.2307 75.8378 22.0979C75.8759 22.0328 75.9055 21.9632 75.926 21.8906C75.9361 21.8547 75.944 21.8182 75.9496 21.7813L75.9617 21.7046C75.9664 21.6755 75.9698 21.6463 75.976 21.6174C76.0175 21.3816 76.0898 21.1523 76.1912 20.9354C76.2938 20.7146 76.4284 20.5103 76.5906 20.3288C76.7527 20.1498 76.9385 19.9938 77.1429 19.8652L77.2961 19.7742C77.3349 19.7518 77.3673 19.7328 77.4017 19.7095C77.4692 19.6635 77.532 19.6111 77.5893 19.553C77.7051 19.4344 77.7978 19.2952 77.8626 19.1426C77.8793 19.1044 77.894 19.0653 77.9066 19.0255L77.9551 18.8745C77.9915 18.7663 78.032 18.6596 78.0764 18.5545C78.1665 18.3437 78.2746 18.1411 78.3995 17.949C78.524 17.7551 78.6672 17.5739 78.827 17.408C78.9043 17.3224 78.991 17.2466 79.0755 17.1679L79.2092 17.0586C79.2531 17.0216 79.2989 16.9868 79.3465 16.9546L79.4873 16.8554L79.633 16.7657C79.7294 16.7031 79.8334 16.6564 79.9338 16.6018C80.0345 16.5526 80.1442 16.5076 80.2416 16.4646C80.3235 16.4314 80.403 16.3926 80.4795 16.3484C80.6306 16.2613 80.7678 16.1522 80.8866 16.0246C80.945 15.9616 80.9982 15.8941 81.0458 15.8225L81.1314 15.6919C81.1616 15.6446 81.1944 15.5991 81.227 15.5533C81.7511 14.8212 82.4562 14.2375 83.2733 13.8593C83.6767 13.6726 84.1001 13.5326 84.5352 13.4418L84.8325 13.3792C84.9151 13.3592 84.9959 13.3324 85.074 13.299C85.2286 13.2332 85.3704 13.1407 85.493 13.0258C85.5232 12.997 85.552 12.967 85.5798 12.936L85.6753 12.8231C85.7463 12.736 85.8237 12.6549 85.8995 12.572C86.0555 12.4106 86.2219 12.2596 86.3977 12.1199C87.1057 11.5524 87.9626 11.2013 88.8653 11.1088C89.3091 11.0652 89.7564 11.0722 90.1986 11.1294L90.2685 11.1371C90.2897 11.14 90.3112 11.1407 90.3323 11.1429C90.3749 11.1454 90.4175 11.1469 90.4598 11.1462C90.5447 11.1447 90.6294 11.1363 90.713 11.121C90.7962 11.1058 90.8778 11.0833 90.9571 11.0538C90.9968 11.0396 91.0354 11.0227 91.0735 11.005C91.1159 10.9857 91.1735 10.9569 91.2237 10.9358C91.6408 10.7508 92.0841 10.6318 92.5378 10.5831C92.766 10.5591 92.9959 10.5542 93.225 10.5686C93.2824 10.5707 93.3396 10.5769 93.3968 10.5831L93.5485 10.5997C93.6352 10.6081 93.7223 10.6105 93.8093 10.607C93.9845 10.6003 94.1581 10.5716 94.3261 10.5214C94.4241 10.4933 94.5392 10.4567 94.6465 10.4345C94.7558 10.407 94.8651 10.3891 94.9744 10.368C95.8541 10.2303 96.7432 10.2919 97.578 10.5081C97.9936 10.6137 98.3994 10.7545 98.7911 10.929C98.9877 11.011 99.1754 11.1112 99.3638 11.2075C99.5521 11.3039 99.7305 11.4194 99.9115 11.5261C99.9222 11.5326 99.93 11.5428 99.9335 11.5547C99.9371 11.5667 99.936 11.5795 99.9306 11.5907C99.9252 11.6019 99.9158 11.6107 99.9043 11.6154C99.8927 11.62 99.8798 11.6202 99.8682 11.6159H99.8663C99.0871 11.3157 98.2924 11.0788 97.4878 10.9706C97.0893 10.914 96.6865 10.8926 96.2842 10.9066C95.8888 10.917 95.4956 10.9675 95.1104 11.0575C94.9179 11.103 94.7396 11.1567 94.5474 11.2214C94.3168 11.2983 94.0762 11.3412 93.8332 11.3489C93.7115 11.3518 93.5898 11.3463 93.4689 11.3325L93.3097 11.3114C93.2633 11.3048 93.2166 11.2983 93.1698 11.2952C92.9821 11.2772 92.7931 11.2761 92.6052 11.2919C92.2256 11.3251 91.8542 11.421 91.5061 11.5759C91.46 11.5953 91.4243 11.6137 91.3716 11.6378C91.3152 11.6642 91.258 11.689 91.1993 11.7106C91.0826 11.754 90.9624 11.7872 90.8399 11.8097C90.718 11.832 90.5944 11.8442 90.4704 11.8462C90.4084 11.8473 90.3467 11.8462 90.2849 11.8414C90.2542 11.8387 90.2232 11.8369 90.1926 11.8331L90.1068 11.8234C89.7201 11.7738 89.3291 11.7677 88.941 11.8052C88.1698 11.8835 87.4377 12.1833 86.833 12.6684C86.6817 12.7888 86.5384 12.9189 86.4039 13.0578C86.339 13.1294 86.2716 13.1992 86.2108 13.2742L86.1039 13.4005C86.0622 13.4473 86.0186 13.4924 85.9729 13.5356C85.7906 13.7073 85.5793 13.8454 85.3489 13.9437C85.2349 13.9925 85.117 14.0316 84.9964 14.0606L84.6806 14.1276C84.2972 14.2073 83.9241 14.3305 83.5686 14.4947C82.8608 14.8219 82.2499 15.327 81.7957 15.9608C81.7677 16.0003 81.7392 16.0393 81.7136 16.0801L81.6272 16.2116C81.559 16.3141 81.4828 16.4109 81.3992 16.5012C81.2329 16.6801 81.0408 16.8331 80.8294 16.9552C80.725 17.0156 80.6166 17.0686 80.5048 17.1138C80.4114 17.1555 80.3274 17.1896 80.2405 17.2315C80.1575 17.277 80.0698 17.3155 79.9912 17.3676L79.8702 17.4404L79.7551 17.522C79.716 17.5481 79.6786 17.5765 79.6429 17.6071L79.5336 17.696C79.4657 17.7605 79.3942 17.8213 79.3318 17.8913C79.2015 18.0264 79.0849 18.1739 78.9835 18.3319C78.8807 18.4901 78.7917 18.6569 78.7174 18.8304C78.681 18.9177 78.6467 19.0064 78.6167 19.0964L78.5695 19.2435C78.5504 19.3033 78.5284 19.362 78.5034 19.4195C78.4039 19.6523 78.2618 19.8644 78.0844 20.045C77.995 20.1359 77.8969 20.2177 77.7915 20.2893C77.7394 20.3257 77.6822 20.3587 77.63 20.3882L77.5134 20.457C77.2092 20.6481 76.9688 20.9124 76.8212 21.2326C76.7456 21.3949 76.6917 21.5664 76.6609 21.7427C76.6562 21.7647 76.6536 21.7875 76.65 21.8099L76.6378 21.888C76.6277 21.9542 76.6136 22.0196 76.5953 22.084C76.5589 22.2127 76.5062 22.3363 76.4387 22.4518C76.3042 22.6805 76.1173 22.8741 75.8933 23.0165C75.7872 23.0868 75.6471 23.1469 75.5857 23.1804C75.5046 23.2168 75.4316 23.2669 75.3567 23.3141C75.2107 23.4169 75.078 23.5374 74.9615 23.6728C74.844 23.8139 74.741 23.9665 74.6538 24.1281C74.48 24.4589 74.3607 24.8292 74.291 25.2101L74.2609 25.3741C74.2484 25.4358 74.2316 25.4966 74.2137 25.5562C74.1769 25.6754 74.13 25.7911 74.0735 25.9023C74.0179 26.0112 73.9542 26.1158 73.8828 26.2151C73.8423 26.2697 73.8212 26.3014 73.7955 26.3384C73.769 26.3742 73.7447 26.4116 73.7227 26.4504C73.5372 26.7562 73.4336 27.1151 73.3968 27.4887C73.36 27.8623 73.3892 28.2537 73.4637 28.634L73.4795 28.7191C73.4857 28.751 73.4892 28.7836 73.4935 28.8158C73.5321 29.143 73.4761 29.4745 73.3321 29.7708C73.3174 29.8002 73.303 29.8299 73.2864 29.8581L73.2451 29.931L73.175 30.0572C72.9897 30.3953 72.8571 30.7654 72.7586 31.1443C72.7113 31.3349 72.6736 31.5277 72.6456 31.7221C72.6323 31.8193 72.6209 31.9166 72.613 32.0135C72.609 32.062 72.6056 32.1102 72.6034 32.1581C72.6012 32.206 72.5995 32.2569 72.5995 32.2924V32.3033C72.5995 32.3959 72.5628 32.4847 72.4973 32.5502C72.4318 32.6157 72.343 32.6525 72.2504 32.6525C72.1578 32.6525 72.0689 32.6157 72.0035 32.5502C71.938 32.4847 71.9012 32.3959 71.9012 32.3033L71.9036 32.3017Z" fill="black"/>
<path d="M71.954 32.3018C71.954 32.1759 71.9604 32.0721 71.9697 31.9599C71.979 31.8477 71.9916 31.7413 72.0061 31.632C72.0372 31.4146 72.0793 31.1989 72.1324 30.9857C72.2427 30.5604 72.3927 30.1415 72.606 29.7498L72.6872 29.6041L72.7236 29.5405C72.734 29.5223 72.7427 29.5041 72.752 29.4859C72.7878 29.4126 72.8149 29.3353 72.8327 29.2557C72.8598 29.1356 72.8664 29.0118 72.8522 28.8895C72.8491 28.8691 72.8475 28.8485 72.8433 28.8285L72.8304 28.7582C72.7457 28.3241 72.7118 27.8764 72.7542 27.4247C72.7967 26.9729 72.926 26.517 73.1699 26.1143C73.1993 26.0634 73.2314 26.0142 73.2661 25.9667C73.2992 25.9188 73.3355 25.8664 73.3593 25.835C73.4114 25.7626 73.4579 25.6863 73.4985 25.6068C73.5382 25.529 73.5712 25.4479 73.5972 25.3645C73.6094 25.323 73.6211 25.2815 73.6294 25.2394L73.6562 25.0937C73.7366 24.6574 73.8724 24.2274 74.0846 23.8235C74.1938 23.6203 74.3233 23.4287 74.4713 23.2517C74.6244 23.0733 74.7993 22.9147 74.9919 22.7798C75.1768 22.6448 75.4373 22.5415 75.5473 22.4701C75.6845 22.3833 75.7991 22.2652 75.8819 22.1255C75.942 22.0223 75.982 21.9087 75.9999 21.7907L76.012 21.7138C76.0165 21.6852 76.02 21.6565 76.026 21.6279C76.0668 21.3964 76.1379 21.1713 76.2373 20.9583C76.3378 20.742 76.4697 20.5417 76.6287 20.3639C76.7877 20.1881 76.9699 20.0349 77.1704 19.9085L77.3211 19.8196C77.3608 19.7969 77.395 19.7766 77.4304 19.7526C77.5005 19.7048 77.5659 19.6503 77.6254 19.5898C77.7458 19.4668 77.8422 19.3224 77.9096 19.1641C77.9269 19.1245 77.9421 19.084 77.9551 19.0428L78.0036 18.8919C78.0393 18.7851 78.0792 18.6797 78.1234 18.5759C78.2123 18.3678 78.319 18.1678 78.4424 17.9781C78.5652 17.7868 78.7065 17.608 78.8642 17.4442C78.9405 17.3597 79.0265 17.2848 79.1096 17.2074L79.2413 17.0996C79.2846 17.0629 79.3298 17.0286 79.3768 16.9968L79.5158 16.8988L79.6615 16.8103C79.7564 16.7484 79.8591 16.701 79.9584 16.6484C80.0582 16.5997 80.166 16.5555 80.2631 16.5125C80.3472 16.4785 80.4289 16.4386 80.5074 16.3932C80.6629 16.3037 80.8041 16.1915 80.9263 16.0602C80.9864 15.9953 81.0412 15.9256 81.0903 15.852L81.1759 15.7214C81.2058 15.6742 81.2384 15.6292 81.2706 15.5841C81.7897 14.8591 82.488 14.281 83.2972 13.9064C83.6972 13.7214 84.1171 13.5826 84.5486 13.4926L84.8471 13.4296C84.9324 13.409 85.0159 13.3814 85.0966 13.3469C85.2569 13.2786 85.4039 13.1827 85.5309 13.0634C85.5622 13.0337 85.5921 13.0026 85.6209 12.9705L85.7172 12.8565C85.7875 12.7703 85.8642 12.69 85.9393 12.6081C86.0937 12.4482 86.2585 12.2986 86.4325 12.1603C87.1329 11.5983 87.9807 11.2505 88.874 11.1587C89.3139 11.1156 89.7572 11.1224 90.1955 11.1791L90.2666 11.1871C90.2884 11.1898 90.3103 11.1909 90.3323 11.1929C90.3762 11.1956 90.4201 11.1971 90.464 11.1964C90.5518 11.1948 90.6393 11.1861 90.7256 11.1703C90.8115 11.1546 90.896 11.1313 90.9779 11.1009C91.0188 11.0862 91.0589 11.0687 91.0983 11.0503C91.1414 11.0308 91.1974 11.0027 91.2473 10.9816C91.6595 10.7988 92.0977 10.6816 92.5462 10.6341C92.7715 10.6105 92.9984 10.606 93.2245 10.6206C93.2811 10.623 93.3376 10.6292 93.3939 10.6353L93.5463 10.6523C93.6354 10.6611 93.725 10.6637 93.8145 10.6603C93.9945 10.6535 94.173 10.6237 94.3454 10.5716C94.5562 10.5067 94.7708 10.4553 94.9881 10.4175C95.8595 10.2769 96.7432 10.3326 97.5757 10.5414C98.4106 10.7443 99.1935 11.098 99.9123 11.5328C99.921 11.5384 99.9274 11.5471 99.9303 11.5571C99.9331 11.5671 99.9322 11.5778 99.9277 11.5872C99.9233 11.5965 99.9156 11.604 99.906 11.6081C99.8965 11.6122 99.8857 11.6127 99.8758 11.6095H99.8746L99.582 11.498C99.4848 11.4616 99.3901 11.4188 99.2906 11.3887C99.0935 11.3235 98.8995 11.2521 98.699 11.2013C98.3046 11.0809 97.9013 10.9996 97.4992 10.9381C97.099 10.8778 96.6942 10.853 96.2897 10.8641C95.8912 10.8721 95.4945 10.9206 95.1057 11.0088C94.9114 11.0537 94.7296 11.1073 94.5365 11.1712C94.3103 11.2462 94.0745 11.2883 93.8363 11.2962C93.717 11.2991 93.5976 11.2938 93.479 11.2803L93.3203 11.2596C93.2729 11.253 93.2256 11.2465 93.1779 11.2436C92.9873 11.2259 92.7955 11.2252 92.6048 11.2415C92.22 11.2758 91.8435 11.3733 91.4904 11.5303C91.4442 11.5499 91.4068 11.5691 91.3549 11.5927C91.3003 11.6186 91.2438 11.6428 91.1866 11.6634C91.0726 11.7057 90.9551 11.7381 90.8354 11.7601C90.7162 11.7823 90.5954 11.7944 90.4742 11.7966C90.4136 11.7977 90.3531 11.7966 90.2921 11.792C90.262 11.7893 90.2318 11.7876 90.2019 11.7838L90.1172 11.7743C89.7262 11.7241 89.3309 11.718 88.9385 11.7561C88.1578 11.8354 87.4168 12.139 86.805 12.6305C86.6519 12.7522 86.5069 12.8837 86.371 13.0243C86.3052 13.0971 86.2373 13.1673 86.1755 13.2429L86.0695 13.368C86.0287 13.4137 85.9861 13.458 85.942 13.5001C85.7638 13.6676 85.5575 13.8025 85.3325 13.8984C85.2211 13.9461 85.1059 13.9844 84.9881 14.0128L84.6735 14.0795C84.2864 14.16 83.9097 14.2843 83.5507 14.4502C82.8352 14.781 82.2176 15.2917 81.7584 15.9325C81.73 15.9724 81.7012 16.0119 81.6752 16.0533L81.589 16.1846C81.5222 16.2849 81.4476 16.3797 81.3657 16.468C81.2029 16.6433 81.0149 16.7931 80.8078 16.9127C80.7054 16.9719 80.599 17.024 80.4894 17.0684C80.3956 17.1101 80.3098 17.1449 80.2218 17.1875C80.1376 17.2336 80.0489 17.2726 79.969 17.3254L79.8462 17.4001L79.7293 17.483C79.6896 17.5095 79.6515 17.5384 79.6152 17.5693L79.5045 17.6604C79.4354 17.7258 79.3628 17.7879 79.2994 17.8588C79.167 17.996 79.0484 18.146 78.9455 18.3065C78.841 18.4672 78.7506 18.6367 78.6752 18.8129C78.6387 18.9014 78.6034 18.9912 78.573 19.0826L78.5258 19.23C78.5072 19.2884 78.4856 19.3458 78.4611 19.402C78.3643 19.629 78.2259 19.8359 78.0529 20.012C77.9659 20.1005 77.8704 20.1802 77.7677 20.2499C77.7171 20.2845 77.6611 20.3175 77.6101 20.3464L77.491 20.4167C77.1816 20.6073 76.9346 20.8843 76.7806 21.2135C76.7032 21.3795 76.6481 21.555 76.6167 21.7355C76.6118 21.7581 76.6092 21.7814 76.6054 21.8044L76.5932 21.8823C76.5643 22.0751 76.4989 22.2605 76.4005 22.4288C76.2697 22.6502 76.0884 22.8374 75.8713 22.9752C75.7677 23.0437 75.6345 23.1011 75.5681 23.137C75.4848 23.1745 75.41 23.2257 75.3331 23.2741C75.1835 23.3795 75.0475 23.503 74.9282 23.6417C74.8084 23.7858 74.7033 23.9414 74.6145 24.1064C74.4378 24.4427 74.3172 24.8168 74.2467 25.2026L74.2169 25.3643C74.2047 25.4248 74.1883 25.484 74.171 25.5427C74.1348 25.6588 74.0889 25.7717 74.0336 25.88C73.9793 25.9867 73.9169 26.0891 73.8471 26.1864C73.808 26.2383 73.7855 26.2724 73.7593 26.3103C73.732 26.347 73.707 26.3853 73.6843 26.425C73.4943 26.7383 73.3888 27.1048 73.3515 27.4846C73.3141 27.8644 73.3438 28.2593 73.4192 28.6445L73.4347 28.7285C73.4409 28.7595 73.444 28.791 73.4484 28.8223C73.4556 28.8853 73.4594 28.9487 73.4597 29.0121C73.4609 29.2677 73.4034 29.5201 73.2917 29.75C73.2774 29.7784 73.2635 29.807 73.2473 29.8345L73.2063 29.9074L73.1355 30.0349C72.9478 30.3772 72.8141 30.7509 72.7145 31.1335C72.6668 31.3257 72.6288 31.5203 72.6007 31.7164C72.5872 31.8145 72.5757 31.9127 72.5677 32.0107C72.5597 32.1087 72.5544 32.2111 72.554 32.2945V32.3062C72.5537 32.3855 72.5218 32.4615 72.4655 32.5174C72.4091 32.5733 72.3329 32.6045 72.2535 32.6042C72.1741 32.6038 72.0981 32.572 72.0423 32.5156C71.9864 32.4592 71.9552 32.383 71.9555 32.3036L71.954 32.3018Z" fill="black"/>
<g opacity="0.3">
<path opacity="0.8" d="M86.1393 11.7121C86.1307 11.9015 86.2054 12.2503 86.2078 12.4394C86.618 11.9363 87.2493 11.5427 87.889 11.4317C88.5127 11.3237 89.1517 11.4354 89.7846 11.4275C90.84 11.4144 91.9211 11.0144 92.9198 10.6738C92.6027 10.2922 92.2199 9.97047 91.7894 9.72387C91.4941 9.55483 91.0994 9.43024 90.8336 9.643C90.7138 9.73881 90.6468 9.88653 90.5353 9.99218C90.2857 10.229 89.893 10.1984 89.5517 10.1523L88.0624 9.95083C87.7546 9.9093 87.4351 9.8685 87.1388 9.9614C86.7061 10.0969 86.4003 10.5011 86.263 10.9332C86.177 11.2037 86.2109 11.5106 86.1236 11.7689C86.0295 12.0474 85.7652 12.3643 85.555 12.5638C85.302 12.8035 84.9559 12.9696 84.6103 12.925C83.9816 12.8438 83.5052 12.1108 82.8827 12.2306C82.3635 12.3307 82.1266 12.9671 81.6455 13.186C81.3176 13.3349 80.9277 13.2678 80.5947 13.4017C80.2967 13.5217 80.0812 13.7893 79.9335 14.0744C79.7858 14.3595 79.6921 14.6697 79.555 14.96C79.2093 15.6848 78.6083 16.2566 77.8672 16.5659C77.5559 16.6934 77.289 16.9759 77.1863 17.2965C77.0836 17.6171 77.0723 17.959 77.012 18.2903C76.9517 18.6216 76.8298 18.9626 76.5645 19.1708C76.2632 19.4076 75.8459 19.4235 75.4989 19.5867C75.3024 19.6813 75.1314 19.8217 75.0003 19.996C74.8692 20.1703 74.7818 20.3735 74.7453 20.5885C74.7235 20.7251 74.6617 20.8049 74.537 20.8647C74.4122 20.9244 74.2725 20.9472 74.1457 21.0026C73.8482 21.1324 73.6528 21.4271 73.5435 21.7328C73.4342 22.0384 73.3945 22.364 73.3104 22.6774C73.2262 22.9909 73.0872 23.3059 72.8302 23.5042C72.2856 23.9246 71.6266 24.3461 71.6382 25.0343C71.6444 25.3986 71.7803 25.7658 71.6958 26.1203C71.559 26.6939 70.9126 27.0005 70.6663 27.5363C70.4042 28.107 70.736 28.8701 71.332 29.0675C71.473 29.1141 71.5588 29.2373 71.6284 29.3683C71.698 29.4992 71.7331 29.6455 71.7639 29.7907C71.8839 30.3572 71.9492 30.9339 71.959 31.5129C72.3306 30.8965 72.6998 30.3216 72.9095 29.6333C73.2282 28.5872 73.1446 27.4657 73.0581 26.3762C73.6284 25.5862 73.7989 24.5782 74.2885 23.735C74.6377 23.1366 75.1562 22.655 75.7787 22.3507C76.2559 22.119 76.4002 21.4299 76.6082 20.9419C76.9833 20.0634 77.5384 19.2732 78.2375 18.6222C78.9016 18.0047 79.3881 17.2047 80.1062 16.6509L81.7371 15.3941C82.7056 14.6473 83.7613 13.8669 84.9837 13.8217C85.301 13.3558 85.7903 12.9024 86.2249 12.543C86.3808 12.415 86.1446 11.9141 86.1393 11.7121Z" fill="#0038FF"/>
</g>
<g opacity="0.3">
<path opacity="0.8" d="M89.2322 14.5035C88.8417 14.5642 88.5896 14.9744 88.5486 15.3675C88.5076 15.7606 88.6204 16.1507 88.6788 16.542C88.8373 17.6029 88.5369 18.7845 87.6992 19.4544C86.2796 20.5898 83.9699 19.8945 82.5661 21.0494C81.7745 21.7007 80.8012 22.1027 80.4328 23.0596C80.0448 24.0669 80.1116 25.313 79.3304 26.058C78.8637 26.5032 78.1397 26.6562 77.5328 26.4382C77.2266 26.3289 76.9537 26.1338 76.6402 26.0473C76.3268 25.9607 75.9299 26.0225 75.7758 26.3085C75.8275 26.4629 75.9277 26.5965 76.0614 26.6895C76.7758 27.1618 77.5424 27.7254 78.3945 27.8112C79.2466 27.897 80.1686 27.5841 80.6652 26.8864C81.0278 26.3764 81.1315 25.7321 81.21 25.1115C81.2885 24.4909 81.3581 23.8483 81.6694 23.3059C81.9807 22.7634 82.6091 22.3466 83.2176 22.4915C85.0054 21.7756 86.9377 21.2556 88.8096 20.806C89.8034 20.5674 90.3943 19.5144 90.7116 18.5429C90.9171 17.9147 90.6387 17.1733 90.4326 16.5453C90.1899 15.8043 89.6615 15.1536 89.2322 14.5035Z" fill="#0038FF"/>
</g>
<g opacity="0.3">
<path opacity="0.8" d="M74.5953 28.6129C74.961 28.6717 75.2423 28.9544 75.5191 29.2005C76.004 29.6318 76.5614 29.995 77.1831 30.1812C77.8047 30.3674 78.4958 30.3653 79.0863 30.0963C79.2503 30.0213 79.41 29.9253 79.5885 29.8959C79.767 29.8666 79.9769 29.9234 80.0588 30.0848C80.1803 30.3242 79.959 30.5916 79.7452 30.7537C78.7831 31.4832 77.5339 31.8495 76.339 31.6723C75.4197 31.536 74.5466 31.0665 73.9381 30.3621C73.6771 30.0597 73.4352 29.7513 73.5707 29.342C73.7193 28.8965 74.0973 28.5325 74.5953 28.6129Z" fill="#5278FF"/>
</g>
<g opacity="0.3">
<path opacity="0.8" d="M93.4704 15.3021C93.1498 15.2786 92.8602 15.527 92.7291 15.8205C92.5979 16.1139 92.5905 16.4453 92.5797 16.7664C92.5538 17.5356 92.4968 18.3098 92.2923 19.0517C92.0877 19.7936 91.7265 20.5069 91.1644 21.0326C90.1497 21.9814 88.6675 22.1843 87.4027 22.759C86.3551 23.235 85.444 23.9758 84.4502 24.5496C83.4191 25.1448 82.6998 26.1651 82.5269 27.3431C82.5236 27.3651 82.5205 27.3871 82.5174 27.409C82.3934 28.3157 82.4519 29.2376 82.4963 30.15C82.5013 30.3098 82.5467 30.4657 82.6282 30.6032C82.9994 31.2056 83.6752 30.8311 83.8462 30.3425C83.9814 29.9568 83.9061 29.5342 83.8768 29.1263C83.8183 28.2982 83.9566 27.4681 84.2804 26.7037C84.9819 26.4766 85.642 25.984 86.1983 25.5C86.7546 25.0161 87.2712 24.4851 87.8588 24.0395C88.4464 23.594 89.122 23.2319 89.8548 23.1499C90.4457 23.084 91.1331 23.0188 91.6061 22.6581C91.9522 22.3951 92.163 21.9973 92.3637 21.6122C92.6551 21.0536 92.9461 20.4954 93.2367 19.9377C93.9497 18.571 93.6897 16.8283 93.4704 15.3021Z" fill="#0038FF"/>
</g>
<g opacity="0.3">
<path opacity="0.8" d="M91.9645 12.5723C92.2164 12.6966 92.3682 12.9574 92.4908 13.2099C92.5957 13.4261 92.6911 13.6547 92.6942 13.8951C92.6962 14.0786 92.6185 14.2869 92.444 14.3438C92.29 14.3937 92.1237 14.3048 92.0099 14.1897C91.846 14.0236 91.7481 13.8048 91.6343 13.6006C91.5205 13.3964 91.3758 13.1935 91.1618 13.0995C91.0747 13.0611 90.9775 13.0416 90.9024 12.9827C90.6281 12.7676 90.9951 12.6224 91.1618 12.5716C91.4215 12.4924 91.711 12.447 91.9645 12.5723Z" fill="#5278FF"/>
</g>
<g opacity="0.3">
<path opacity="0.8" d="M94.5351 11.9031C94.3486 12.128 94.3098 12.4457 94.3564 12.7341C94.4031 13.0224 94.5244 13.2924 94.6297 13.565C95.1311 14.8691 95.2641 16.2946 95.1643 17.688C95.0644 19.0815 94.7379 20.4495 94.3446 21.7903C94.1393 22.491 93.8224 23.2559 93.4462 23.8818C93.0701 24.5076 92.6253 25.0916 92.2699 25.7295C92.1579 25.9299 92.0533 26.1428 92.0309 26.3718C92.0085 26.6007 92.0839 26.8519 92.2717 26.9849C92.4595 27.1179 92.7635 27.0816 92.8728 26.8789C93.2759 26.7634 93.651 26.4395 93.8127 26.0527C93.9745 25.6658 94.0282 25.2441 94.1147 24.8339C94.2012 24.4237 94.3295 24.0058 94.6082 23.6925C95.5018 22.6878 95.4149 21.1457 95.8249 19.8651C96.4078 18.0425 96.4298 16.031 95.946 14.1792C95.8204 13.698 95.8481 13.218 95.6497 12.7619C95.4513 12.3058 95.0227 12.0018 94.5351 11.9031Z" fill="#5278FF"/>
</g>
<g opacity="0.3">
<path opacity="0.8" d="M98.448 16.5522C98.9581 16.699 99.3952 16.3544 99.5914 15.9298C99.7371 15.6154 99.7684 15.2611 99.771 14.9149C99.7784 13.9413 99.5404 12.9185 98.9203 12.1826C98.7036 11.9256 98.2936 11.9212 98.0921 12.1902C98.0823 12.2035 98.0739 12.2168 98.065 12.2305C97.9491 12.4208 97.9316 12.658 97.969 12.8777C98.0063 13.0974 98.0941 13.3048 98.1781 13.5112C98.4708 14.2302 98.7276 15.0365 98.467 15.7677C98.4227 15.8919 98.3639 16.0116 98.3356 16.1402C98.3091 16.2612 98.3127 16.3952 98.3766 16.5003C98.3932 16.5259 98.4186 16.5444 98.448 16.5522Z" fill="#5278FF"/>
</g>
<g opacity="0.25">
<path opacity="0.25" d="M78.4674 22.0776C78.3959 22.2146 78.3572 22.3765 78.4013 22.5244C78.4454 22.6723 78.5889 22.7962 78.7427 22.7816C78.878 22.7689 78.9871 22.6556 79.0359 22.5288C79.0848 22.402 79.0853 22.2623 79.0851 22.1263C79.0851 22.0631 79.0837 21.9957 79.0487 21.9441C78.8851 21.7006 78.564 21.8926 78.4674 22.0776Z" fill="white"/>
</g>
<path d="M76.1574 26.6909C77.3386 27.6359 78.9922 28.817 80.4096 26.6909C82.7018 23.2526 80.4096 22.4388 85.3704 21.7301" stroke="black" stroke-width="0.883815" stroke-linecap="square" stroke-linejoin="round"/>
<path d="M80.4085 19.6037C80.8809 18.895 82.2511 17.6193 83.9519 18.1863M84.6606 16.0602C85.3693 16.0602 86.645 15.7767 86.078 14.6428M88.9128 13.9341C90.3301 16.0602 92.031 20.4541 87.4954 21.021M71.9042 28.108C72.6129 27.8717 73.7468 26.8323 72.6129 24.5645M76.1563 20.3124C77.1012 20.3124 78.8493 19.6037 78.2824 16.7689M83.2432 13.2254C83.9519 13.6979 85.6528 13.9341 86.7867 11.0994M93.8736 11.0994C94.5823 11.5718 95.9997 13.0837 95.9997 15.3515M71.1955 29.5253C70.723 29.7616 69.6364 29.8088 69.0694 28.108" stroke="black" stroke-width="0.883815" stroke-linecap="square" stroke-linejoin="round"/>
<path d="M46.7841 17.7971C47.9988 16.9834 49.0626 16.0314 50.3578 15.3382C50.5263 15.2408 50.6965 15.1425 50.865 15.0452C51.1809 14.9474 51.5078 14.9553 51.6561 15.2643C51.8382 15.5812 51.57 15.7933 51.331 15.8742C50.0924 16.4775 49.0716 17.4046 48.0026 18.2189C47.3304 18.7479 46.8707 19.463 46.4537 20.1545C46.339 20.334 46.286 20.5614 46.047 20.6423C45.8432 20.7314 45.9257 21.163 45.6292 21.0243C45.4015 20.903 45.2194 20.5861 45.2522 20.2857C45.2967 19.7819 45.4253 19.2294 45.3227 18.7248C45.1273 17.6857 45.0489 16.6042 44.6862 15.4913C44.4401 14.8167 44.4985 13.9399 44.5684 13.1675C44.571 12.9967 44.6794 12.8505 44.9298 12.874C45.2494 12.9137 45.3512 13.1088 45.4024 13.3617C45.5401 14.1825 45.9446 14.9623 45.9718 15.7908C45.9692 15.9616 46.0267 16.1812 46.2483 16.3346C46.7419 15.6274 47.2294 14.9523 47.6894 14.2359C49.1555 11.8699 50.7805 9.60762 52.6251 7.50128C54.9683 4.82538 57.9952 3.30242 61.9077 3.62964C63.9806 3.83931 66.0584 4.18672 68.0959 4.86751C68.9135 5.12624 69.7862 5.46744 70.5431 5.98655C71.1768 6.40866 71.1062 6.87158 70.9775 7.42408C70.8337 8.04134 70.4031 8.31866 69.7864 8.44953C69.5977 8.47387 69.4745 8.37688 69.316 8.27167C67.7923 6.95665 65.9333 6.45537 63.986 6.17318C62.9217 6.02838 61.86 5.71279 60.7656 5.69754C58.1881 5.61003 56.0914 6.59592 54.202 8.10944C51.8238 9.98988 50.154 12.4449 48.5882 14.9257C47.9295 15.8689 47.3737 16.8375 46.7842 17.7968L46.7841 17.7971ZM58.3396 4.95984C60.3262 4.60044 62.304 4.75177 64.2825 5.21262C66.0183 5.61696 67.7921 5.85871 69.3074 6.89726C69.4659 7.00247 69.6983 7.26282 69.8358 6.98553C69.9579 6.77429 69.7104 6.5787 69.475 6.49042C68.4022 6.06914 67.3935 5.5262 66.2476 5.25928C65.1369 5.00057 63.9832 4.76667 62.8501 4.6045C61.3205 4.4196 59.8208 4.41307 58.3394 4.95982L58.3396 4.95984Z" fill="#5278FF"/>
<path d="M98.834 12.5173C99.3064 13.226 99.9679 15.0686 98.834 16.7695" stroke="black" stroke-width="0.883815" stroke-linecap="square" stroke-linejoin="round"/>
<path d="M93.1666 14.6429C93.639 16.2966 93.8753 20.3125 91.0405 23.1472C90.0956 22.911 87.9223 23.0055 86.7884 25.2733C85.6072 25.5095 83.3866 26.8324 83.9536 30.2342C83.0087 31.4153 81.6858 34.2028 83.9536 35.9037M79.7014 29.5255C80.1739 29.7617 80.9771 30.5176 80.4101 31.6515C79.8432 32.7854 80.6463 33.5414 81.1188 33.7776" stroke="black" stroke-width="0.883815" stroke-linecap="square" stroke-linejoin="round"/>
<path d="M78.283 31.6512C77.3381 32.1237 75.0231 32.3599 73.3222 29.5251" stroke="black" stroke-width="0.883815" stroke-linecap="square" stroke-linejoin="round"/>
<path d="M76.1546 22.4388C75.9183 23.1475 75.8711 24.5649 77.572 24.5649" stroke="black" stroke-width="0.883815" stroke-linecap="square" stroke-linejoin="round"/>
<path d="M87.4965 33.778C87.7328 35.904 88.347 38.5971 91.7487 38.0301" stroke="black" stroke-width="0.883815" stroke-linecap="square" stroke-linejoin="round"/>
<path d="M86.7865 30.9431C86.5503 30.4706 86.9283 29.384 90.33 28.817C93.7317 28.2501 95.0546 23.8562 95.2908 21.7301" stroke="black" stroke-width="0.883815" stroke-linecap="square" stroke-linejoin="round"/>
<path d="M98.8336 22.4388C98.5974 21.4938 98.6919 19.4623 100.96 18.8953C103.228 18.3284 102.85 16.7692 102.377 16.0605" stroke="black" stroke-width="0.883815" stroke-linecap="square" stroke-linejoin="round"/>
<path d="M90.33 33.0691C90.5662 32.5967 91.0387 31.3683 91.0387 30.2344" stroke="black" stroke-width="0.883815" stroke-linecap="square" stroke-linejoin="round"/>
<path d="M95.2916 27.3987C95.2916 27.1625 95.5751 26.5483 96.709 25.9813C97.8429 25.4143 98.1264 24.3277 98.1264 23.8552" stroke="black" stroke-width="0.883815" stroke-linecap="square" stroke-linejoin="round"/>
<path d="M102.379 23.1476C102.142 22.4389 102.095 20.738 103.796 19.6041" stroke="black" stroke-width="0.883815" stroke-linecap="square" stroke-linejoin="round"/>
<path d="M104.504 21.7296C104.74 21.4933 105.354 21.0209 105.921 21.0209M90.33 35.1947C91.2749 35.1947 93.1648 34.486 93.1648 31.6512C94.1097 32.1237 96.1413 32.5017 96.7082 30.2339C97.6532 30.4701 99.543 30.3756 99.543 28.1078C100.252 28.344 101.669 28.3913 101.669 26.6904C102.614 26.6904 104.504 25.9817 104.504 23.1469" stroke="black" stroke-width="0.883815" stroke-linecap="square" stroke-linejoin="round"/>
<path d="M98.1251 33.0687C98.5976 32.8324 99.6842 32.5017 100.251 33.0687" stroke="black" stroke-width="0.883815" stroke-linecap="square" stroke-linejoin="round"/>
<path d="M71.1958 21.0209C71.432 21.0209 71.9045 21.3044 71.9045 22.4383" stroke="black" stroke-width="0.883815" stroke-linecap="square" stroke-linejoin="round"/>
<ellipse cx="35.1631" cy="88.355" rx="32.9091" ry="3.15087" fill="black" fill-opacity="0.1"/>
<ellipse cx="90.0649" cy="46.4199" rx="16.8046" ry="1.75048" fill="black" fill-opacity="0.1"/>
<path d="M66.783 55.7808C66.783 55.7808 66.3127 60.6081 62.6199 63.8528C62.6199 63.8528 61.602 68.1715 56.9812 68.888C56.9812 68.888 56.754 73.6158 51.5558 73.412C51.5558 73.412 50.1483 73.4498 48.394 74.9664C45.9689 77.0646 42.7981 78.1161 39.6155 77.7115C38.2351 77.5368 36.6996 77.1472 35.0551 76.4264C34.185 76.0448 33.1869 76.1196 32.3635 76.5918C30.8414 77.4648 28.1089 78.6024 24.989 77.9162C24.989 77.9162 19.2799 79.8996 16.0096 76.5579C10.8869 75.2211 8.06349 72.7431 7.41826 69.1817C7.3368 68.728 7.28985 68.2688 7.27783 67.8081C3.23247 67.0736 1.41548 64.6861 1.82686 60.6455C0.511139 57.6311 0.790406 55.0825 3.2427 53.2812C2.70528 51.4728 3.32684 49.9385 5.59072 48.7965C4.74236 46.0972 5.62271 44.0073 8.55868 43.0383C9.13769 40.712 10.216 38.8669 12.8417 38.5191C13.6466 36.0159 15.3222 34.3163 17.7879 33.3454C18.9446 31.3598 20.5905 29.9251 23.4052 29.8019C24.9177 26.6317 27.3796 25.1125 31.3142 26.1621C33.5391 24.5674 36.3529 24.6992 38.5438 25.8102C40.824 25.6234 42.8137 26.0252 44.2094 27.6292C47.7356 27.4862 51.0075 28.1343 53.7317 30.5067C53.7382 30.5112 53.7443 30.5163 53.7499 30.522C53.7499 30.522 53.8616 30.5566 54.0602 30.6273C54.1271 30.6512 54.1936 30.6756 54.2601 30.7015C54.7886 30.9054 55.3054 31.1385 55.8081 31.3995L55.8183 31.4056C57.3334 32.1928 59.3445 33.5518 60.6372 35.6509C60.6372 35.6509 64.4826 38.3336 64.4788 41.6138C64.4788 41.6138 67.3095 43.7533 66.965 48.4721C66.9647 48.4741 68.1912 51.7261 66.783 55.7808Z" fill="black"/>
<path d="M21.2502 78.5707C19.4978 78.5707 17.4729 78.1571 15.9671 76.6295C10.8943 75.301 7.99157 72.8 7.33867 69.1961C7.26022 68.7596 7.21361 68.3181 7.19919 67.8749C3.17462 67.1222 1.33908 64.6948 1.74406 60.6583C0.359568 57.4715 0.832369 54.9792 3.14967 53.2501C2.60585 51.3467 3.39535 49.8349 5.49353 48.7559C4.64165 45.9628 5.70402 43.9133 8.49092 42.9769C8.97076 41.0703 9.89845 38.8528 12.7804 38.4472C13.5801 36.006 15.2435 34.2683 17.7317 33.2818C19.0819 30.9785 20.8695 29.8467 23.3531 29.7248C25.0051 26.2965 27.6039 25.1026 31.2974 26.0761C33.3392 24.6311 36.1156 24.4986 38.5589 25.7306C41.1222 25.5252 42.9818 26.1202 44.2434 27.5498C48.2984 27.3924 51.3313 28.3128 53.7833 30.4481L53.7884 30.4523C53.8258 30.4644 53.9291 30.4977 54.0862 30.5537C54.1537 30.5783 54.2212 30.6029 54.2884 30.6288C54.8194 30.834 55.3387 31.0682 55.844 31.3304L55.8581 31.3387C57.3389 32.1065 59.382 33.4724 60.6958 35.5972C60.9495 35.7789 64.5326 38.41 64.5576 41.5774C64.8698 41.8333 67.3614 44.0371 67.0451 48.4628C67.1375 48.7245 68.2056 51.9177 66.8611 55.7984C66.8339 56.0454 66.2687 60.7383 62.6907 63.8966C62.5947 64.2546 61.4393 68.2412 57.0554 68.9574C57.0004 69.5332 56.4333 73.682 51.5533 73.492C51.545 73.492 50.1547 73.5496 48.4468 75.0275C45.9571 77.1817 42.7358 78.1884 39.6062 77.7914C38.0797 77.5995 36.5378 77.1641 35.0235 76.5003C34.1943 76.1363 33.2148 76.1964 32.4039 76.6603C30.702 77.6363 28.0364 78.6593 24.9942 77.9977C24.7872 78.0662 23.1846 78.5707 21.2502 78.5707ZM28.9948 25.9113C26.5466 25.9113 24.73 27.2095 23.4766 29.8371L23.4561 29.8803L23.4078 29.8825C20.9504 29.99 19.1853 31.1033 17.8558 33.3864L17.842 33.4104L17.8161 33.4203C15.3459 34.3931 13.6975 36.117 12.917 38.5441L12.9016 38.5924L12.8514 38.5991C10.6304 38.8931 9.33 40.2687 8.63519 43.0585L8.62464 43.101L8.58273 43.1151C5.79966 44.0332 4.79136 45.9894 5.66595 48.7725L5.68642 48.8365L5.62596 48.8685C3.51211 49.9347 2.75749 51.371 3.31858 53.2591L3.33457 53.3131L3.28915 53.3451C0.997114 55.0287 0.52943 57.474 1.89921 60.6129L1.90753 60.6321L1.90529 60.6529C1.49966 64.6257 3.31282 67.0061 7.29132 67.7287L7.3553 67.7402V67.8042C7.36716 68.261 7.41368 68.7162 7.49445 69.166C8.13616 72.7082 11.0069 75.1686 16.0273 76.4789L16.0487 76.4843L16.0641 76.5003C19.263 79.7681 24.9037 77.8586 24.9603 77.8388L24.9817 77.8314L25.0038 77.8362C28.005 78.4965 30.6393 77.4843 32.321 76.5208C33.1758 76.0307 34.2084 75.9674 35.0846 76.3515C36.5849 77.0093 38.1117 77.4392 39.6232 77.6311C42.7086 78.0233 45.8838 77.0294 48.339 74.905C50.0939 73.3871 51.4925 73.3327 51.551 73.3311C56.613 73.5326 56.8894 69.0732 56.899 68.8845L56.9022 68.8205L56.9662 68.8103C61.4767 68.1103 62.5291 63.8784 62.5394 63.8359L62.5451 63.8109L62.5643 63.794C66.1897 60.6087 66.6957 55.8221 66.7005 55.7741L66.7047 55.7559C68.0863 51.7776 66.8995 48.5358 66.887 48.5035L66.881 48.4872V48.4696C67.2181 43.8521 64.4539 41.7018 64.4261 41.6807L64.3941 41.6567V41.617C64.3979 38.4155 60.6248 35.7463 60.5874 35.7197L60.565 35.696C59.2707 33.5946 57.2471 32.2434 55.7775 31.4798L55.7634 31.4718C55.2646 31.213 54.752 30.9819 54.2279 30.7795C54.1614 30.7536 54.0955 30.7296 54.0293 30.7056C53.8338 30.6359 53.7234 30.6017 53.7225 30.6017L53.6886 30.5825L53.6755 30.57C51.2484 28.4567 48.2395 27.5492 44.2089 27.7123H44.1705L44.1452 27.6832C42.8976 26.2504 41.1197 25.6807 38.5471 25.8918H38.5244L38.5042 25.8816C36.0977 24.6599 33.3591 24.7917 31.3575 26.2264L31.3255 26.2482L31.289 26.2386C30.471 26.0208 29.7062 25.9117 28.9948 25.9113Z" fill="black"/>
<path d="M7.27806 67.8078C3.23205 67.0733 1.41506 64.6863 1.82709 60.6469C0.511047 57.6325 0.790313 55.0832 3.24293 53.2825C2.70583 51.4735 3.32738 49.9402 5.59094 48.7978C4.74291 46.0982 5.62293 44.0096 8.55891 43.0397C9.13824 40.7131 10.2163 38.8685 12.8419 38.5205C13.6465 36.0166 15.323 34.3177 17.7881 33.3468C18.9445 31.3605 20.5917 29.9258 23.4055 29.8033C24.9185 26.6327 27.3795 25.1136 31.3145 26.1635C33.5393 24.5688 36.3528 24.7002 38.544 25.8116C40.8246 25.6251 42.8146 26.0265 44.2097 27.6305C47.7426 27.4866 51.0234 28.1385 53.7502 30.5233C53.7502 30.5233 58.3342 31.912 60.6381 35.6529C60.6381 35.6529 64.4835 38.3349 64.4768 41.6145C64.4768 41.6145 67.3075 43.754 66.9633 48.4728C66.9633 48.4728 68.1901 51.7252 66.7813 55.7806C66.7813 55.7806 66.3117 60.6075 62.6195 63.8523C62.6195 63.8523 61.6016 68.1709 56.9807 68.8878C56.9807 68.8878 56.753 73.6152 51.5554 73.4115C51.5554 73.4115 50.1453 73.4492 48.3929 74.9658C45.9678 77.0644 42.7964 78.1159 39.615 77.7115C38.2331 77.5359 36.6986 77.1466 35.0537 76.4255C34.1839 76.0439 33.1852 76.1181 32.3615 76.5909C30.8401 77.4642 28.1095 78.6012 24.988 77.915C24.988 77.915 19.2792 79.8983 16.0092 76.5567C10.2524 75.0545 7.3977 72.1104 7.27806 67.8078Z" fill="white"/>
<path d="M21.2501 78.5707C19.498 78.5707 17.4734 78.1567 15.968 76.6289C10.2969 75.1439 7.34785 72.1993 7.19942 67.8749C3.17549 67.1225 1.33994 64.6948 1.74429 60.6583C0.359472 57.4712 0.832274 54.9788 3.1499 53.2501C2.60608 51.347 3.39621 49.8352 5.49375 48.7559C4.64252 45.9635 5.70488 43.9139 8.49114 42.9769C8.97098 41.0703 9.89867 38.8531 12.7806 38.4475C13.5803 36.0063 15.2438 34.269 17.7319 33.2818C19.0815 30.9785 20.8694 29.8461 23.3534 29.7248C25.0062 26.2968 27.6044 25.1026 31.2976 26.0761C33.3395 24.6311 36.1161 24.4986 38.5591 25.7306C41.1224 25.5252 42.9829 26.1208 44.2436 27.5498C48.3015 27.3899 51.3357 28.3134 53.7892 30.4526C54.097 30.5505 58.4709 31.998 60.6967 35.5978C60.9503 35.7795 64.5335 38.41 64.5571 41.5767C64.8694 41.8326 67.361 44.0364 67.0449 48.4622C67.1374 48.7242 68.2058 51.9171 66.8607 55.7987C66.8335 56.0457 66.2689 60.7383 62.6915 63.8966C62.5956 64.2546 61.4401 68.2412 57.0563 68.9574C57.0016 69.5332 56.4303 73.6852 51.5541 73.492C51.5455 73.492 50.154 73.5499 48.447 75.0275C45.9576 77.182 42.7357 78.1903 39.6068 77.792C38.0787 77.5979 36.5358 77.1631 35.0234 76.4997C34.1932 76.1359 33.2137 76.1964 32.4034 76.6615C31.011 77.4613 28.2001 78.6954 24.9947 77.999C24.7878 78.0659 23.1848 78.5707 21.2501 78.5707ZM28.995 25.9113C26.5475 25.9113 24.7308 27.2095 23.4768 29.8371L23.4564 29.8803L23.4081 29.8825C20.9503 29.9894 19.1855 31.1026 17.856 33.386L17.8422 33.41L17.8163 33.4203C15.3452 34.3937 13.6968 36.1177 12.9172 38.5441L12.9018 38.5924L12.8516 38.5991C10.6303 38.8934 9.33022 40.2687 8.63542 43.0585L8.62486 43.101L8.58295 43.1151C5.79989 44.0339 4.79223 45.9904 5.66617 48.7725L5.68665 48.8365L5.62619 48.8685C3.51298 49.9347 2.75835 51.371 3.3188 53.2591L3.3348 53.3131L3.28937 53.3451C0.996698 55.0284 0.529015 57.4737 1.89944 60.6129L1.90775 60.6321L1.90551 60.6529C1.50053 64.6257 3.31304 67.0064 7.29155 67.7287L7.35552 67.7402V67.8042C7.47452 72.0892 10.3926 75.0077 16.0281 76.4782L16.0496 76.484L16.0649 76.4997C19.2616 79.7674 24.9042 77.8579 24.9608 77.8384L24.9819 77.8308L25.004 77.8359C28.1655 78.531 30.9454 77.3103 32.3206 76.5205C33.1747 76.0304 34.208 75.967 35.0848 76.3509C36.5835 77.0083 38.1106 77.4386 39.6241 77.6305C42.7065 78.0224 45.884 77.0285 48.3392 74.9037C50.0932 73.3858 51.493 73.3314 51.5519 73.3298C56.6168 73.5304 56.8976 68.9286 56.8999 68.8832L56.9031 68.8192L56.967 68.809C61.4775 68.1091 62.53 63.8771 62.5402 63.8346L62.546 63.8096L62.5652 63.7927C66.1899 60.6075 66.6953 55.8215 66.7001 55.7735L66.7043 55.7549C68.0865 51.776 66.8991 48.5339 66.8869 48.5015L66.8805 48.4852V48.4676C67.2177 43.8502 64.4535 41.7002 64.4257 41.6788L64.3937 41.6548V41.6148C64.3988 38.4158 60.6257 35.7456 60.587 35.7191L60.5646 35.6954C58.3026 32.023 53.7672 30.6141 53.7217 30.6004L53.692 30.5841C51.2608 28.4593 48.2461 27.545 44.2075 27.7111H44.1691L44.1438 27.6819C42.8978 26.2494 41.1186 25.68 38.5457 25.8905H38.523L38.5028 25.8803C36.0966 24.6586 33.3577 24.7904 31.3561 26.2251L31.3241 26.2469L31.2877 26.2373C30.4709 26.0204 29.7066 25.9117 28.995 25.9113Z" fill="black"/>
<g opacity="0.55">
<path opacity="0.55" d="M8.2453 68.9487L7.28562 67.7206C7.28562 67.7206 7.24947 65.3511 8.53864 63.1909C8.84752 62.6714 8.95026 62.055 8.82655 61.4634C8.5895 60.3057 8.42636 58.3012 9.59685 56.758C9.92154 56.3284 10.1544 55.8374 10.2405 55.306C10.4388 54.1048 11.0648 51.9557 13.0354 51.0754C13.7638 50.7491 14.2897 50.0917 14.3933 49.2996C14.5213 48.3198 14.9928 47.0555 16.4477 46.2606C17.1194 45.8949 17.6044 45.266 17.8232 44.5331C18.1952 43.29 19.1396 41.4471 21.5269 40.4935C22.2489 40.2055 22.875 39.7151 23.2886 39.0565C24.0883 37.7865 25.8717 35.7554 29.3272 35.1361C30.0786 35.0011 30.7603 34.6169 31.2392 34.0248C32.2974 32.719 34.6854 30.5987 38.772 31.1569C39.4076 31.2463 40.0555 31.1462 40.6344 30.869C41.4575 30.4704 42.834 30.0053 44.493 30.2423C45.0965 30.3267 45.7113 30.2711 46.2898 30.0798C47.5716 29.6588 50.1973 29.1687 53.7395 30.4218C53.8473 30.4595 53.957 30.4989 54.068 30.5424C54.1345 30.5664 54.2014 30.5907 54.2679 30.6166C54.7667 30.8146 55.2839 31.0456 55.8159 31.3146L55.8261 31.3207C56.1985 31.5149 56.6019 31.7426 57.0149 32.0066L56.5836 32.4477C52.0898 30.2273 48.7504 30.8162 47.2511 31.3079C46.6724 31.4992 46.0575 31.5548 45.4539 31.4704C43.7969 31.2334 42.4188 31.6985 41.5973 32.0971C41.0182 32.3742 40.3703 32.4744 39.7346 32.385C35.6483 31.8265 33.2584 33.9467 32.2001 35.2526C31.7203 35.8447 31.0396 36.2289 30.2901 36.3623C26.833 36.9813 25.0505 39.0126 24.2515 40.2842C23.8356 40.9429 23.2118 41.4314 22.4879 41.7212C20.1008 42.6748 19.1581 44.5162 18.7845 45.7609C18.566 46.4919 18.0807 47.1224 17.4089 47.4883C15.9541 48.2833 15.4842 49.5475 15.3549 50.5255C15.2513 51.3175 14.727 51.9768 13.997 52.3012C12.0264 53.1819 11.4004 55.3307 11.2037 56.5341C11.1157 57.0651 10.8838 57.5578 10.5581 57.9858C9.38796 59.529 9.5527 61.5319 9.79038 62.6912C9.91296 63.2821 9.81028 63.8976 9.50248 64.4167C8.21075 66.5792 8.2453 68.9487 8.2453 68.9487Z" fill="white"/>
</g>
<g opacity="0.25">
<path opacity="0.25" d="M29.9346 43.2288C30.1585 43.258 30.4288 43.3328 30.4835 43.5526C30.5593 43.8581 30.1604 44.0446 29.8504 44.1003C28.3757 44.3648 26.8834 44.5625 25.4474 44.9896C24.0114 45.4166 22.6138 46.0939 21.5799 47.1783C21.3048 47.4662 21.0515 47.7861 20.7098 47.9921C20.3682 48.1982 19.9014 48.2602 19.5844 48.0184C18.5173 47.2052 21.674 45.2221 22.2507 44.876C23.7124 44.0001 25.3405 43.4384 27.0312 43.2266C27.9953 43.1055 28.9707 43.1063 29.9346 43.2288Z" fill="white"/>
</g>
<g opacity="0.3">
<path d="M66.9659 48.4746C67.3104 43.7558 64.4797 41.6163 64.4797 41.6163C64.4835 38.3361 60.6381 35.6534 60.6381 35.6534C59.6925 34.1179 58.363 32.9785 57.1237 32.1694L56.7821 32.6365C56.7821 32.6365 60.8873 37.4669 58.8751 39.7542C56.863 42.0415 55.1446 39.9529 53.5221 43.4065C51.8996 46.8601 53.3138 49.7517 51.8586 51.0406C50.4034 52.3294 49.9434 52.6052 48.9857 54.2923C48.0279 55.9795 45.7323 55.944 43.6713 58.9999C41.6102 62.0559 36.0211 59.6276 33.889 59.7357C31.7569 59.8438 30.1609 62.3064 30.1904 65.5873C30.2198 68.8682 28.2611 70.6417 26.3216 69.411C24.3821 68.1804 24.0043 67.8189 22.4327 68.0467C20.8825 68.2706 14.062 75.2687 7.4201 69.1823C8.06533 72.7437 10.8887 75.2217 16.0115 76.5585C19.2817 79.9002 24.9908 77.9168 24.9908 77.9168C28.1124 78.603 30.8449 77.4654 32.3653 76.5924C33.1887 76.1203 34.1868 76.0454 35.0569 76.427C36.7015 77.1478 38.2369 77.5374 39.6173 77.7121C42.7999 78.1167 45.9707 77.0652 48.3958 74.967C50.1491 73.4504 51.5576 73.4126 51.5576 73.4126C56.7558 73.6164 56.983 68.8886 56.983 68.8886C61.6038 68.1717 62.6217 63.8534 62.6217 63.8534C66.3146 60.6087 66.7848 55.7814 66.7848 55.7814C68.1923 51.7267 66.9659 48.4746 66.9659 48.4746ZM32.8624 71.9603C32.3826 72.3854 31.7428 72.4635 31.309 72.9766C30.9252 73.4283 30.7262 74.0057 30.3174 74.4401C29.6069 75.1964 28.454 75.3442 27.422 75.2338C26.39 75.1234 25.3779 74.8067 24.3405 74.8179C23.6335 74.8259 22.9368 74.9859 22.2327 75.0278C21.3889 75.0803 20.48 74.9421 19.9074 74.2642C19.6941 74.0083 19.6195 73.6545 19.7545 73.3515C19.9829 72.8483 20.577 72.8669 21.0578 72.7335C21.8575 72.5096 22.471 71.784 23.2948 71.6932C23.8632 71.6292 24.4173 71.8874 24.899 72.1967C25.3808 72.506 25.8318 72.8726 26.3651 73.0767C27.391 73.468 28.5896 73.1727 29.4719 72.5182C30.0608 72.0831 30.5243 71.5073 30.8977 70.8739C31.3365 70.1295 32.3797 69.9945 32.9415 70.6522C33.2741 71.0396 33.3621 71.5204 32.8624 71.9603ZM40.6077 71.4062C40.1752 71.6753 39.6768 71.8829 39.1682 71.8371C38.6595 71.7914 38.1557 71.4328 38.0805 70.9283C38.0095 70.4542 38.314 70.0144 38.5722 69.6078C39.0818 68.8106 39.5101 67.9034 39.727 66.9776C39.8905 66.2776 39.639 65.365 40.4948 65.0339C40.9576 64.855 41.5027 64.9916 41.8914 65.301C42.2801 65.6103 42.5257 66.0687 42.6665 66.5486C43.2004 68.3589 42.2158 70.4114 40.6077 71.4062ZM60.3418 48.1141C60.643 47.4746 61.0511 46.8912 61.5485 46.3889C61.8729 46.0594 62.5283 45.1691 63.0584 45.2235C64.1418 45.3307 63.3056 46.6506 62.9781 47.0204C61.9455 48.1993 61.3622 49.7049 61.331 51.2718C61.3255 51.6314 61.3457 52.0076 61.1883 52.3333C61.0309 52.6589 60.617 52.8924 60.3047 52.7149C60.0971 52.5978 60.0063 52.3525 59.9455 52.1247C59.5891 50.7968 59.7628 49.3553 60.3418 48.1141ZM47.93 59.1615C48.0461 58.6516 48.525 58.2315 48.9431 57.9177C49.3612 57.6039 49.8347 57.3765 50.2752 57.0959C51.5064 56.309 52.7649 54.904 53.1334 53.49C53.231 53.1192 53.3327 52.7347 53.5793 52.4382C53.826 52.1416 54.2549 51.9657 54.603 52.1263C55.0294 52.3262 55.1167 52.888 55.1071 53.3579C55.0537 56.3518 53.3755 59.269 50.8113 60.816C50.3039 61.1234 49.7473 61.3848 49.1546 61.4171C48.5618 61.4494 47.9268 61.2168 47.6104 60.7159C47.2941 60.2149 47.407 59.4449 47.9287 59.1615H47.93ZM61.0974 60.0252C60.8735 60.9648 60.1627 61.7792 59.3294 62.2683C58.9102 62.5104 58.447 62.6666 57.9668 62.7277C57.4866 62.7889 56.9991 62.7539 56.5326 62.6247C56.2267 63.6845 55.492 64.6026 54.5569 65.1864C53.6086 65.7739 52.4783 65.9944 51.3788 65.8064C50.858 66.5169 50.1782 67.1861 49.4246 67.6423C48.8897 67.9622 48.3024 68.2124 47.685 68.2955C47.0676 68.3787 46.4137 68.2837 45.8782 67.9651C45.71 67.863 45.5487 67.7354 45.4579 67.562C45.367 67.3886 45.3619 67.1561 45.4864 67.0035C45.8702 66.5342 46.7192 66.6948 47.2896 66.4884C48.3923 66.0892 49.0883 65.0278 49.7057 64.031C50.6573 64.1669 51.628 64.0377 52.5109 63.6577C52.8685 63.5009 53.2172 63.2962 53.4491 62.9811C53.8861 62.3893 53.8381 61.5054 54.3704 60.9996C55.3838 61.2949 56.5892 61.0774 57.5012 60.5463C57.9568 60.2771 58.354 59.9194 58.6693 59.4944C58.9846 59.0693 59.2116 58.5854 59.3371 58.0713C60.0216 57.5748 60.9685 57.3451 61.6217 56.8112C62.227 56.3176 62.6185 55.5994 62.8488 54.8521C63.0792 54.1049 63.226 53.2946 63.3056 52.5169C63.5683 52.4571 63.8415 52.6157 63.9921 52.8393C64.1428 53.0629 64.193 53.3371 64.2225 53.6045C64.5046 56.1017 63.2356 58.7098 61.0962 60.0259L61.0974 60.0252Z" fill="#5278FF"/>
</g>
<g opacity="0.25">
<path opacity="0.25" d="M18.3126 60.0399C18.2486 60.2731 18.1846 60.512 18.2038 60.7529C18.223 60.9938 18.3404 61.2414 18.5557 61.3498C18.6987 61.4218 18.8647 61.4253 19.0247 61.4266C20.2374 61.4365 21.5688 61.3591 22.4594 60.536C22.8225 60.2005 23.0908 59.7273 23.0627 59.234C23.0345 58.7408 22.6424 58.2577 22.1484 58.2375C21.7681 58.8278 21.1248 59.2667 20.4677 59.5133C19.7713 59.7687 19.0484 59.9453 18.3126 60.0399Z" fill="white"/>
</g>
<g opacity="0.25">
<path opacity="0.25" d="M15.2843 59.8944C15.2001 60.0735 15.1176 60.2693 15.1544 60.4638C15.188 60.6398 15.3178 60.7866 15.4743 60.8752C15.6307 60.9638 15.8095 61.0016 15.9861 61.0227C16.1739 61.0454 16.3856 61.0441 16.5254 60.9168C16.6534 60.8016 16.6835 60.6161 16.6879 60.4453C16.7123 59.5607 15.7535 58.897 15.2843 59.8944Z" fill="white"/>
</g>
<g opacity="0.55">
<path opacity="0.55" d="M44.1899 27.6106C42.9638 26.9068 41.4756 26.7395 39.8368 26.8748C37.6462 25.7625 34.8324 25.6307 32.6073 27.2267C28.6726 26.1771 26.2123 27.6966 24.6985 30.8665C21.8851 30.9896 20.2376 32.4244 19.0809 34.41C16.6152 35.3809 14.9396 37.0805 14.1351 39.5837C11.5091 39.9314 10.431 41.7766 9.85169 44.1029C6.91699 45.0712 6.03537 47.1611 6.88372 49.8611C4.61984 51.0031 3.99829 52.5373 4.53571 54.3457C2.08341 56.1471 1.80415 58.6963 3.11987 61.7101C2.89786 63.8854 3.32225 65.5815 4.39304 66.7984C2.38603 65.603 1.53064 63.5533 1.82686 60.6493C0.511139 57.6349 0.790406 55.0863 3.2427 53.2849C2.70528 51.4766 3.32684 49.9423 5.59072 48.8003C4.74236 46.101 5.62271 44.0111 8.55868 43.0421C9.13769 40.7158 10.216 38.8707 12.8417 38.5229C13.6466 36.0197 15.3222 34.3201 17.7879 33.3492C18.9446 31.3636 20.5905 29.9289 23.4052 29.8057C24.9177 26.6355 27.3796 25.1163 31.3143 26.1659C33.5391 24.5712 36.3529 24.703 38.5438 25.814C40.8135 25.6266 42.7946 26.0242 44.1899 27.6106Z" fill="white"/>
</g>
<g opacity="0.55">
<path opacity="0.55" d="M58.9264 33.5756C56.9527 32.1629 55.0445 31.5845 55.0445 31.5845C52.3158 29.1994 49.0375 28.5474 45.504 28.6917C45.1401 28.2694 44.7084 27.9107 44.2267 27.6303C47.7548 27.4892 51.026 28.1421 53.7515 30.5237C53.7521 30.5237 56.5934 31.3846 58.9264 33.5756Z" fill="white"/>
</g>
<g opacity="0.55">
<path opacity="0.55" d="M7.28134 67.8089C7.28902 68.0676 7.30565 68.3207 7.33316 68.5699C6.07684 68.1847 5.09796 67.5932 4.39655 66.7954C5.18092 67.2657 6.14252 67.6035 7.28134 67.8089Z" fill="white"/>
<path opacity="0.55" d="M7.42408 68.6824L7.30764 68.6466C6.04214 68.2586 5.04184 67.6549 4.33456 66.8485L3.99707 66.4646L4.43564 66.7276C5.20658 67.1898 6.16818 67.5273 7.29389 67.7311L7.35787 67.7426V67.8066C7.36554 68.0698 7.3825 68.3168 7.40905 68.5612L7.42408 68.6824ZM4.82495 67.1201C5.45226 67.6959 6.26191 68.1437 7.23918 68.4576C7.22095 68.2685 7.2072 68.0766 7.20176 67.876C6.30254 67.708 5.50473 67.4547 4.82623 67.1201H4.82495Z" fill="black"/>
</g>
<g opacity="0.55">
<path opacity="0.55" d="M44.2262 27.6288C44.2215 27.6288 44.2164 27.6288 44.2117 27.6288C44.206 27.622 44.2 27.6156 44.1935 27.6095C44.2045 27.616 44.2155 27.6217 44.2262 27.6288Z" fill="white"/>
<path opacity="0.55" d="M44.5162 27.728L44.2248 27.7111H44.2043L44.1723 27.7085L44.1509 27.6832C44.1473 27.6788 44.1435 27.6745 44.1394 27.6704L43.6474 27.2373L44.229 27.5393C44.2434 27.547 44.2578 27.5546 44.2718 27.5639L44.5162 27.728Z" fill="black"/>
</g>
<path d="M21.2383 79.1255C19.4232 79.1255 17.3189 78.6937 15.6907 77.1127C10.0372 75.5974 7.01103 72.6412 6.68633 68.3194C2.7299 67.4352 0.836779 64.8274 1.19794 60.748C-0.47766 56.7752 0.916111 54.3948 2.5466 53.0481C2.25198 51.6434 2.51654 49.8619 4.86487 48.4953C4.18382 45.7253 5.32295 43.5973 8.04364 42.574C8.5366 40.7672 9.55033 38.526 12.3772 37.9783C13.2438 35.5957 14.9185 33.8759 17.3628 32.8599C18.7425 30.5867 20.5482 29.421 23.0098 29.2176C24.7411 25.8586 27.4922 24.611 31.193 25.5068C33.3363 24.105 36.1558 23.984 38.6615 25.1942C41.2159 25.0176 43.1208 25.6142 44.4669 27.0148C48.5011 26.8983 51.5561 27.8465 54.0528 29.9847C54.8398 30.2464 58.8692 31.7265 61.0905 35.2333C61.7277 35.7022 64.8972 38.1888 65.0795 41.3328C65.7929 41.9886 67.8393 44.2477 67.5811 48.3971C67.805 49.073 68.6687 52.1517 67.3809 55.923C67.3034 56.5797 66.6582 61.0225 63.1605 64.1965C62.8979 65.0759 61.6135 68.5564 57.5253 69.4182C57.2873 70.7317 56.2137 74.2004 51.558 74.0324C51.43 74.0433 50.2487 74.1761 48.7919 75.4368C46.1876 77.6901 42.8134 78.7436 39.5352 78.3271C37.9562 78.1265 36.3647 77.678 34.8049 76.9944C34.129 76.6975 33.3286 76.7487 32.6645 77.13C31.225 77.9557 28.3389 79.2237 25.0191 78.5558C24.5229 78.7093 23.0207 79.1252 21.2383 79.1255ZM28.9861 26.4469C26.7468 26.4469 25.1211 27.6306 23.9567 30.0714C23.9087 30.1719 23.8343 30.2574 23.7414 30.3188C23.6486 30.3802 23.5408 30.4152 23.4295 30.4201C21.1394 30.5196 19.562 31.5186 18.3154 33.6594C18.246 33.7785 18.1385 33.8708 18.0102 33.9214C15.6625 34.8459 14.1622 36.413 13.4236 38.7118C13.3882 38.8223 13.3222 38.9204 13.2332 38.9948C13.1442 39.0692 13.036 39.1168 12.921 39.1322C10.922 39.3974 9.79505 40.6114 9.15239 43.1917C9.12744 43.2922 9.07741 43.3848 9.00698 43.4608C8.93655 43.5368 8.84802 43.5936 8.74964 43.6261C6.25896 44.4486 5.39077 46.128 6.17451 48.6165C6.21804 48.7553 6.21091 48.905 6.15438 49.039C6.09784 49.1729 5.99558 49.2825 5.86581 49.3481C3.40775 50.5884 3.52644 52.0897 3.82938 53.1108C3.86539 53.2318 3.86322 53.3609 3.82314 53.4806C3.78307 53.6003 3.70705 53.7048 3.60545 53.7797C1.51175 55.3152 1.11348 57.4838 2.38986 60.4041C2.43214 60.5007 2.44867 60.6067 2.43784 60.7116C2.05749 64.4109 3.67615 66.5359 7.3869 67.2096C7.52539 67.2347 7.65104 67.3067 7.74273 67.4135C7.83442 67.5202 7.88657 67.6553 7.89041 67.796C8.00365 71.8722 10.7099 74.5459 16.1644 75.9688C16.2721 75.9968 16.3701 76.0536 16.4479 76.1332C19.4021 79.1534 24.7331 77.3594 24.7878 77.3408C24.8947 77.3039 25.0097 77.2972 25.1201 77.3213C28.106 77.9781 30.748 76.8159 32.0567 76.0644C33.057 75.4905 34.2697 75.4173 35.3004 75.8693C36.7524 76.5059 38.2303 76.9227 39.6929 77.1086C42.626 77.4816 45.6509 76.5327 47.9918 74.5078C49.8882 72.8664 51.4726 72.8056 51.5391 72.8037C51.5526 72.8037 51.5663 72.8037 51.5798 72.8037C56.1168 72.9816 56.3605 69.0315 56.3685 68.8632C56.3755 68.7222 56.4309 68.5879 56.5254 68.483C56.6198 68.3781 56.7476 68.309 56.8871 68.2874C61.0275 67.645 61.9846 63.8757 62.0233 63.7157C62.0528 63.5919 62.1199 63.4802 62.2152 63.3958C65.6723 60.3568 66.1672 55.7707 66.1717 55.7247C66.1769 55.6766 66.1876 55.6292 66.2037 55.5836C67.5152 51.8043 66.402 48.7227 66.3905 48.692C66.3597 48.6091 66.347 48.5205 66.3534 48.4323C66.6672 44.1319 64.2101 42.1869 64.1064 42.1063C64.0315 42.0487 63.9708 41.9747 63.929 41.8901C63.8871 41.8054 63.8652 41.7122 63.8649 41.6178C63.8697 38.6926 60.3231 36.1853 60.2872 36.1603C60.2183 36.1123 60.16 36.0506 60.1161 35.9789C57.9619 32.4892 53.6114 31.1286 53.5688 31.1152C53.4862 31.0898 53.4099 31.0472 53.3449 30.9901C51.0235 28.961 48.1307 28.089 44.2331 28.2486C44.1413 28.2521 44.0498 28.235 43.9654 28.1987C43.881 28.1623 43.8058 28.1076 43.7453 28.0384C42.6199 26.7444 40.982 26.2326 38.5924 26.4277C38.4794 26.4374 38.3659 26.4152 38.2649 26.3638C36.5182 25.4767 33.8686 25.0906 31.6706 26.6664C31.5969 26.7191 31.5125 26.7549 31.4233 26.7712C31.3341 26.7874 31.2425 26.7838 31.1549 26.7604C30.3744 26.5523 29.6514 26.4478 28.9861 26.4469Z" fill="black"/>
<path d="M6.66779 67.8171C6.66779 67.6962 6.67099 67.605 6.67611 67.5029C6.68123 67.4009 6.68763 67.3056 6.69562 67.208C6.71162 67.0125 6.73433 66.8193 6.7596 66.6264C6.81471 66.2414 6.88945 65.8595 6.98353 65.4821C7.17898 64.7288 7.44417 63.9863 7.82389 63.2918L7.96816 63.0324L8.0299 62.922C8.04749 62.8926 8.06189 62.8619 8.07724 62.8315C8.13709 62.7092 8.1825 62.5804 8.21256 62.4476C8.24315 62.3138 8.25818 62.177 8.25734 62.0397C8.25713 61.9709 8.25307 61.9021 8.24519 61.8337C8.24007 61.7998 8.23751 61.7652 8.23015 61.7313L8.20776 61.6101C8.05773 60.8404 7.99727 60.0464 8.07276 59.2429C8.14826 58.4393 8.37858 57.6255 8.81491 56.905C8.86756 56.8141 8.92501 56.726 8.98702 56.6411C9.0462 56.5557 9.11177 56.4607 9.15144 56.4089C9.2404 56.2852 9.31986 56.1549 9.38912 56.0192C9.45663 55.887 9.51281 55.7493 9.55707 55.6075C9.57754 55.5372 9.59737 55.4668 9.61145 55.3958L9.65815 55.1398C9.8005 54.3663 10.042 53.6043 10.4192 52.8836C10.6138 52.5211 10.8449 52.1794 11.1089 51.8638C11.3829 51.5446 11.6958 51.261 12.0404 51.0196C12.3696 50.7793 12.8446 50.589 13.0183 50.4728C13.2474 50.3277 13.4389 50.1304 13.5772 49.897C13.6441 49.7828 13.6961 49.6604 13.732 49.533C13.7498 49.4699 13.7637 49.4058 13.7736 49.341L13.7947 49.2064C13.803 49.1552 13.8091 49.104 13.82 49.0531C13.8927 48.639 14.0197 48.2363 14.1977 47.8554C14.3779 47.4678 14.6143 47.1088 14.8993 46.7902C15.1839 46.4758 15.5102 46.2019 15.8692 45.976L16.1382 45.8161C16.2064 45.7767 16.2633 45.7435 16.3238 45.7025C16.4422 45.6218 16.5526 45.5298 16.6532 45.4277C16.8566 45.2194 17.0193 44.975 17.1331 44.707C17.1625 44.6398 17.1883 44.5712 17.2105 44.5013L17.2956 44.2361C17.3596 44.0461 17.4306 43.8587 17.5086 43.6741C17.6668 43.3039 17.8567 42.9481 18.0761 42.6107C18.2947 42.2702 18.5462 41.952 18.8269 41.6606C18.9626 41.5103 19.1148 41.3772 19.2633 41.239L19.4981 41.0471C19.5752 40.9819 19.6557 40.9209 19.7393 40.8644L19.9865 40.69L20.2424 40.5327C20.4117 40.4226 20.5943 40.3407 20.7706 40.2447C20.9475 40.1584 21.1401 40.0794 21.3112 40.0039C21.455 39.9455 21.5946 39.8773 21.729 39.7998C21.9943 39.6468 22.2353 39.4551 22.4439 39.231C22.5465 39.1204 22.64 39.0018 22.7235 38.8762L22.8739 38.6469C22.927 38.5637 22.9846 38.4837 23.0418 38.4034C23.9623 37.1176 25.2005 36.0926 26.6355 35.4284C27.344 35.1005 28.0875 34.8545 28.8517 34.6952L29.3738 34.5851C29.5188 34.5501 29.6607 34.503 29.798 34.4444C30.0694 34.3288 30.3185 34.1663 30.5337 33.9645C30.5868 33.914 30.6374 33.8612 30.6863 33.8068L30.8539 33.6085C30.9787 33.4555 31.1146 33.3132 31.2477 33.1676C31.5217 32.8842 31.814 32.6189 32.1226 32.3737C33.3661 31.3769 34.8709 30.7603 36.4562 30.5979C37.2356 30.5214 38.0212 30.5335 38.7978 30.634L38.9207 30.6475C38.9578 30.6526 38.9955 30.6539 39.0326 30.6577C39.1075 30.6622 39.1823 30.6648 39.2565 30.6635C39.4057 30.661 39.5544 30.6462 39.7012 30.6193C39.8473 30.5926 39.9907 30.5531 40.1298 30.5013C40.1996 30.4763 40.2674 30.4466 40.3343 30.4156C40.4088 30.3816 40.5099 30.3311 40.5982 30.294C41.3306 29.9691 42.1092 29.7602 42.9059 29.6747C43.3068 29.6324 43.7105 29.6238 44.1128 29.6491C44.2136 29.6529 44.3141 29.6638 44.4145 29.6747L44.681 29.7038C44.8332 29.7184 44.9862 29.7227 45.1391 29.7166C45.4467 29.7049 45.7516 29.6544 46.0466 29.5662C46.2187 29.517 46.4209 29.4527 46.6093 29.4136C46.8012 29.3653 46.9931 29.334 47.1851 29.2969C48.7302 29.055 50.2916 29.1632 51.7576 29.5429C52.4875 29.7283 53.2003 29.9756 53.8881 30.2822C54.2333 30.4261 54.5631 30.6021 54.8939 30.7713C55.2246 30.9405 55.5378 31.1433 55.8558 31.3308C55.8745 31.3421 55.8882 31.36 55.8944 31.381C55.9006 31.402 55.8988 31.4245 55.8893 31.4442C55.8798 31.4639 55.8633 31.4793 55.843 31.4875C55.8228 31.4957 55.8002 31.4961 55.7796 31.4885H55.7764C54.4079 30.9613 53.0123 30.5451 51.5993 30.3551C50.8993 30.2558 50.192 30.2183 49.4854 30.2428C48.7911 30.261 48.1004 30.3498 47.424 30.5077C47.0859 30.5877 46.7727 30.682 46.4353 30.7956C46.0302 30.9306 45.6077 31.006 45.181 31.0195C44.9673 31.0246 44.7535 31.015 44.5412 30.9907L44.2616 30.9536C44.18 30.9421 44.0981 30.9306 44.0159 30.9252C43.6862 30.8936 43.3543 30.8917 43.0242 30.9194C42.3577 30.9777 41.7054 31.1462 41.094 31.4181C41.0131 31.4523 40.9504 31.4847 40.8579 31.5269C40.7588 31.5733 40.6583 31.6168 40.5553 31.6548C40.3504 31.731 40.1392 31.7892 39.9242 31.8289C39.7099 31.868 39.4928 31.8894 39.2751 31.8928C39.1663 31.8948 39.0579 31.8928 38.9494 31.8845C38.8954 31.8797 38.841 31.8765 38.7873 31.8698L38.6366 31.8529C37.9575 31.7658 37.2708 31.7551 36.5893 31.8209C35.2348 31.9584 33.9491 32.4849 32.8872 33.3369C32.6214 33.5483 32.3697 33.7768 32.1335 34.0208C32.0196 34.1465 31.9013 34.269 31.7944 34.4008L31.6066 34.6225C31.5335 34.7049 31.4568 34.784 31.3766 34.8599C31.0563 35.1614 30.6853 35.404 30.2807 35.5765C30.0805 35.6622 29.8734 35.7309 29.6617 35.7818L29.107 35.8996C28.4336 36.0395 27.7784 36.2558 27.154 36.5442C25.911 37.1188 24.8383 38.006 24.0405 39.119C23.9913 39.1884 23.9414 39.2569 23.8963 39.3286L23.7446 39.5595C23.6249 39.7395 23.4909 39.9095 23.3441 40.0682C23.0521 40.3822 22.7148 40.6509 22.3435 40.8653C22.1602 40.9714 21.9697 41.0645 21.7735 41.144C21.6093 41.2172 21.4619 41.2771 21.3093 41.3506C21.1634 41.4306 21.0095 41.4981 20.8714 41.5896L20.6589 41.7176L20.4568 41.8609C20.3882 41.9067 20.3224 41.9566 20.2597 42.0103L20.0678 42.1664C19.9485 42.2796 19.8231 42.3865 19.7133 42.5093C19.4846 42.7466 19.2797 43.0058 19.1017 43.2831C18.9212 43.5611 18.7648 43.854 18.6343 44.1587C18.5704 44.3119 18.5102 44.4677 18.4574 44.6258L18.3746 44.8842C18.3412 44.9891 18.3024 45.0923 18.2585 45.1933C18.0838 45.6021 17.8343 45.9747 17.5227 46.2918C17.3657 46.4513 17.1934 46.595 17.0083 46.7208C16.9168 46.7847 16.8164 46.8426 16.7246 46.8945L16.5198 47.0154C15.9856 47.351 15.5634 47.8151 15.3043 48.3775C15.1715 48.6624 15.0768 48.9636 15.0228 49.2732C15.0144 49.3119 15.01 49.3519 15.0036 49.3913L14.9821 49.5285C14.9645 49.6447 14.9396 49.7596 14.9076 49.8727C14.8435 50.0988 14.7511 50.3158 14.6325 50.5186C14.3962 50.9203 14.068 51.2602 13.6747 51.5103C13.4882 51.6338 13.2422 51.7393 13.1344 51.7982C12.9921 51.8622 12.8638 51.9501 12.7323 52.033C12.4759 52.2136 12.2428 52.4252 12.0382 52.6629C11.8319 52.9108 11.6509 53.1787 11.4979 53.4626C11.1927 54.0436 10.9831 54.6939 10.8606 55.3628L10.8078 55.6507C10.7858 55.7592 10.7563 55.866 10.725 55.9706C10.6603 56.1799 10.5779 56.3832 10.4787 56.5784C10.3811 56.7697 10.2692 56.9534 10.1437 57.1277C10.0727 57.2237 10.0356 57.2793 9.99052 57.3443C9.94394 57.4072 9.90121 57.4729 9.86256 57.541C9.53691 58.0781 9.35489 58.7083 9.29027 59.3644C9.22566 60.0205 9.27684 60.708 9.40768 61.3759L9.43551 61.5253C9.44638 61.5813 9.45246 61.6386 9.46014 61.6952C9.52791 62.2699 9.42955 62.8519 9.17671 63.3724C9.1508 63.4239 9.12553 63.4761 9.09642 63.5257L9.0238 63.6536L8.90065 63.8753C8.57532 64.469 8.34243 65.1191 8.16937 65.7845C8.08634 66.1192 8.02014 66.4578 7.97104 66.7992C7.94768 66.97 7.92753 67.1408 7.91378 67.311C7.90674 67.3961 7.90066 67.4809 7.89682 67.565C7.89298 67.6491 7.89011 67.7384 7.89011 67.8008V67.82C7.89011 67.9826 7.8255 68.1386 7.71049 68.2536C7.59549 68.3686 7.43951 68.4332 7.27687 68.4332C7.11423 68.4332 6.95825 68.3686 6.84325 68.2536C6.72824 68.1386 6.66364 67.9826 6.66364 67.82L6.66779 67.8171Z" fill="black"/>
<path d="M6.75562 67.8163C6.75562 67.5953 6.76681 67.413 6.78313 67.2159C6.79944 67.0188 6.82151 66.832 6.8471 66.6401C6.90162 66.2582 6.97561 65.8794 7.06879 65.5051C7.26265 64.7581 7.52592 64.0224 7.90051 63.3346L8.04318 63.0787L8.10716 62.967C8.1254 62.935 8.14075 62.903 8.15707 62.871C8.2199 62.7422 8.26746 62.6065 8.29878 62.4667C8.34639 62.2558 8.35796 62.0384 8.33301 61.8237C8.32757 61.7879 8.32469 61.7517 8.31733 61.7165L8.29462 61.593C8.14587 60.8307 8.08637 60.0444 8.16091 59.2511C8.23544 58.4577 8.46256 57.657 8.8909 56.9497C8.94255 56.8604 8.99893 56.7739 9.0598 56.6906C9.11802 56.6065 9.18168 56.5143 9.22359 56.4593C9.31507 56.3321 9.39677 56.1981 9.46799 56.0585C9.53774 55.9218 9.59575 55.7795 9.64137 55.633C9.6628 55.5601 9.68327 55.4872 9.69799 55.4133L9.74501 55.1573C9.88609 54.3912 10.1247 53.6359 10.4974 52.9267C10.6891 52.5698 10.9166 52.2333 11.1765 51.9225C11.4454 51.6091 11.7526 51.3306 12.0908 51.0937C12.4155 50.8566 12.8729 50.6752 13.0661 50.5498C13.307 50.3973 13.5084 50.1899 13.6538 49.9446C13.7593 49.7634 13.8296 49.5639 13.8611 49.3566L13.8822 49.2216C13.8902 49.1714 13.8963 49.1209 13.9068 49.0706C13.9786 48.6641 14.1033 48.2688 14.2779 47.8947C14.4545 47.5148 14.6861 47.1631 14.9653 46.8509C15.2445 46.5421 15.5646 46.273 15.9167 46.0511L16.1813 45.895C16.251 45.855 16.3111 45.8195 16.3732 45.7773C16.4965 45.6934 16.6112 45.5976 16.7158 45.4913C16.9272 45.2753 17.0965 45.0218 17.2148 44.7437C17.2452 44.6741 17.2719 44.603 17.2948 44.5306L17.3799 44.2658C17.4426 44.0781 17.5128 43.8931 17.5904 43.7107C17.7465 43.3453 17.9339 42.994 18.1505 42.6608C18.3663 42.3249 18.6144 42.0108 18.8914 41.7232C19.0254 41.5748 19.1764 41.4433 19.3223 41.3073L19.5536 41.118C19.6296 41.0536 19.7091 40.9934 19.7916 40.9375L20.0356 40.7654L20.2916 40.61C20.4582 40.5012 20.6386 40.418 20.813 40.3256C20.9883 40.2402 21.1777 40.1624 21.3482 40.0869C21.4959 40.0272 21.6392 39.9572 21.7771 39.8774C22.0502 39.7202 22.2982 39.5231 22.5129 39.2926C22.6184 39.1786 22.7147 39.0563 22.8008 38.927L22.9511 38.6976C23.0036 38.6148 23.0609 38.5358 23.1175 38.4564C24.0292 37.1832 25.2555 36.168 26.6766 35.5102C27.3792 35.1852 28.1165 34.9414 28.8743 34.7833L29.3986 34.6727C29.5485 34.6366 29.6951 34.588 29.8368 34.5274C30.1183 34.4075 30.3764 34.239 30.5995 34.0297C30.6545 33.9775 30.7069 33.9228 30.7575 33.8665L30.9267 33.6663C31.0502 33.5149 31.1849 33.3739 31.3167 33.2299C31.5879 32.9492 31.8773 32.6865 32.1829 32.4436C33.413 31.4566 34.9019 30.8457 36.4708 30.6845C37.2432 30.6088 38.0218 30.6209 38.7916 30.7203L38.9163 30.7344C38.9547 30.7392 38.9931 30.7411 39.0318 30.7446C39.1089 30.7494 39.186 30.752 39.2631 30.7507C39.4172 30.748 39.5709 30.7327 39.7225 30.705C39.8734 30.6773 40.0217 30.6365 40.1655 30.5831C40.2375 30.5572 40.3079 30.5265 40.377 30.4942C40.4528 30.4599 40.551 30.4107 40.6387 30.3735C41.3626 30.0526 42.1323 29.8466 42.9198 29.7632C43.3155 29.7219 43.714 29.7139 44.1111 29.7395C44.2106 29.7437 44.3097 29.7545 44.4086 29.7654L44.6763 29.7952C44.8328 29.8106 44.9901 29.8153 45.1472 29.8092C45.4634 29.7973 45.7768 29.7449 46.0797 29.6535C46.4498 29.5396 46.8268 29.4492 47.2083 29.3828C48.7387 29.1359 50.2908 29.2338 51.7527 29.6004C53.2191 29.9567 54.594 30.578 55.8563 31.3416C55.8716 31.3515 55.8828 31.3666 55.8878 31.3842C55.8928 31.4017 55.8913 31.4205 55.8834 31.437C55.8756 31.4535 55.862 31.4666 55.8453 31.4738C55.8285 31.481 55.8097 31.4819 55.7923 31.4762H55.79L55.2763 31.2805C55.1055 31.2165 54.9391 31.1413 54.7645 31.0885C54.4184 30.974 54.0777 30.8486 53.7255 30.7593C53.0329 30.5479 52.3246 30.4052 51.6183 30.2971C50.9155 30.1912 50.2047 30.1477 49.4942 30.1672C48.7943 30.1812 48.0976 30.2663 47.4149 30.4212C47.0736 30.5002 46.7544 30.5943 46.4153 30.7066C46.018 30.8383 45.6039 30.9122 45.1856 30.926C44.976 30.9311 44.7663 30.9218 44.558 30.8982L44.2794 30.8617C44.1962 30.8502 44.113 30.8387 44.0292 30.8336C43.6945 30.8025 43.3577 30.8013 43.0228 30.83C42.347 30.8902 41.6857 31.0615 41.0657 31.3371C40.9845 31.3716 40.9189 31.4052 40.8277 31.4468C40.7317 31.4922 40.6326 31.5348 40.5321 31.5709C40.3318 31.6453 40.1255 31.7021 39.9154 31.7408C39.7061 31.7797 39.4939 31.8011 39.281 31.8048C39.1745 31.8067 39.0683 31.8048 38.9611 31.7968C38.9084 31.792 38.8552 31.7891 38.8028 31.7824L38.654 31.7657C37.9674 31.6775 37.273 31.6667 36.584 31.7338C35.2129 31.8729 33.9115 32.4062 32.8371 33.2693C32.5683 33.483 32.3136 33.7141 32.0748 33.9609C31.9593 34.0888 31.84 34.212 31.7316 34.3448L31.5454 34.5645C31.4737 34.6448 31.3989 34.7226 31.3215 34.7965C31.0086 35.0908 30.6462 35.3276 30.2511 35.4961C30.0554 35.5799 29.8531 35.6471 29.6462 35.697L29.0937 35.8141C28.4139 35.9554 27.7523 36.1738 27.1219 36.4651C25.8652 37.0461 24.7807 37.9431 23.9742 39.0684C23.9243 39.1384 23.8737 39.2079 23.828 39.2805L23.6767 39.5111C23.5594 39.6872 23.4283 39.8537 23.2845 40.0089C22.9987 40.3166 22.6684 40.5798 22.3046 40.7898C22.1248 40.8938 21.938 40.9852 21.7455 41.0633C21.5807 41.1365 21.4301 41.1976 21.2755 41.2725C21.1278 41.3534 20.972 41.4219 20.8315 41.5146L20.6159 41.6458L20.4106 41.7914C20.3409 41.838 20.274 41.8886 20.2103 41.943L20.0158 42.1029C19.8946 42.2178 19.7669 42.3269 19.6556 42.4513C19.4231 42.6923 19.2149 42.9557 19.0341 43.2376C18.8506 43.5199 18.6918 43.8174 18.5593 44.1269C18.4954 44.2824 18.4333 44.4401 18.3799 44.6007L18.297 44.8595C18.2643 44.962 18.2264 45.0628 18.1835 45.1615C18.0135 45.5602 17.7703 45.9236 17.4666 46.2328C17.3138 46.3883 17.146 46.5282 16.9656 46.6506C16.8767 46.7114 16.7785 46.7693 16.6889 46.8202L16.4797 46.9436C15.9363 47.2783 15.5026 47.7647 15.2321 48.3429C15.0962 48.6344 14.9994 48.9427 14.9442 49.2597C14.9356 49.2994 14.9311 49.3403 14.9244 49.3806L14.903 49.5175C14.8522 49.856 14.7373 50.1817 14.5645 50.4772C14.3349 50.866 14.0164 51.1949 13.6352 51.4369C13.4532 51.5572 13.2194 51.658 13.1026 51.721C12.9564 51.7869 12.8249 51.8768 12.6899 51.9619C12.4272 52.147 12.1884 52.3638 11.9788 52.6074C11.7685 52.8604 11.5839 53.1338 11.428 53.4235C11.1177 54.014 10.9059 54.6711 10.7821 55.3486L10.7296 55.6327C10.7082 55.7389 10.6794 55.8429 10.649 55.9459C10.5855 56.1498 10.5048 56.348 10.4078 56.5383C10.3123 56.7257 10.2028 56.9055 10.0803 57.0764C10.0115 57.1676 9.97214 57.2274 9.92607 57.2939C9.87813 57.3584 9.83412 57.4257 9.79428 57.4955C9.46063 58.0457 9.27541 58.6893 9.20983 59.3563C9.14426 60.0233 9.1964 60.7168 9.32883 61.3934L9.35602 61.5409C9.3669 61.5953 9.37234 61.6506 9.38002 61.7057C9.3927 61.8163 9.39932 61.9276 9.39985 62.039C9.40197 62.4878 9.30107 62.9312 9.10491 63.3349C9.07964 63.3848 9.05532 63.435 9.02685 63.4833L8.95488 63.6113L8.83044 63.8352C8.50095 64.4363 8.26615 65.0927 8.09117 65.7645C8.00743 66.1022 7.9407 66.4438 7.89123 66.7882C7.86756 66.9606 7.84741 67.133 7.83334 67.3052C7.81926 67.4773 7.80998 67.657 7.80934 67.8035V67.824C7.80875 67.9634 7.7528 68.0969 7.65382 68.195C7.55483 68.2932 7.42091 68.348 7.28152 68.3474C7.14213 68.3468 7.00868 68.2908 6.91053 68.1919C6.81239 68.0929 6.75758 67.9589 6.75818 67.8195L6.75562 67.8163Z" fill="black"/>
<g opacity="0.3">
<path opacity="0.8" d="M31.6642 31.6567C31.6492 31.9894 31.7803 32.602 31.7845 32.9341C32.5049 32.0505 33.6136 31.3592 34.7371 31.1644C35.8324 30.9747 36.9546 31.1708 38.0662 31.157C39.9197 31.134 41.8182 30.4315 43.5722 29.8333C43.0154 29.1631 42.343 28.5981 41.587 28.165C41.0684 27.8681 40.3752 27.6493 39.9085 28.023C39.698 28.1912 39.5803 28.4507 39.3845 28.6362C38.9462 29.0521 38.2566 28.9983 37.6571 28.9174L35.0416 28.5636C34.501 28.4907 33.9399 28.419 33.4195 28.5822C32.6597 28.8202 32.1226 29.53 31.8814 30.2888C31.7304 30.7639 31.7899 31.3029 31.6367 31.7565C31.4713 32.2456 31.0071 32.8023 30.638 33.1525C30.1937 33.5735 29.5859 33.8653 28.979 33.7869C27.8748 33.6442 27.0382 32.357 25.9448 32.5674C25.0331 32.7431 24.617 33.8608 23.7721 34.2453C23.1963 34.5067 22.5114 34.389 21.9267 34.6241C21.4033 34.8349 21.0249 35.3048 20.7655 35.8055C20.506 36.3061 20.3416 36.8509 20.1007 37.3608C19.4936 38.6337 18.4381 39.6379 17.1366 40.181C16.5899 40.405 16.1213 40.9011 15.9408 41.4641C15.7604 42.0272 15.7406 42.6276 15.6347 43.2095C15.5288 43.7914 15.3148 44.3902 14.8487 44.7559C14.3196 45.1718 13.5867 45.1996 12.9774 45.4862C12.6322 45.6524 12.332 45.8989 12.1017 46.205C11.8715 46.5112 11.7179 46.868 11.654 47.2457C11.6156 47.4856 11.5071 47.6257 11.288 47.7306C11.0689 47.8356 10.8235 47.8755 10.6009 47.9728C10.0785 48.2009 9.73524 48.7185 9.54331 49.2553C9.35137 49.792 9.28163 50.3637 9.13384 50.9143C8.98605 51.4648 8.74197 52.0179 8.29061 52.3663C7.33413 53.1046 6.17676 53.8448 6.19723 55.0534C6.20811 55.6932 6.44674 56.3381 6.29831 56.9606C6.05807 57.968 4.92277 58.5064 4.49028 59.4475C4.02995 60.4498 4.6128 61.7898 5.65949 62.1366C5.90708 62.2185 6.05775 62.4347 6.17995 62.6648C6.30215 62.8948 6.36389 63.1516 6.41795 63.4066C6.62865 64.4015 6.74338 65.4144 6.76056 66.4312C7.41314 65.3487 8.06156 64.3391 8.42976 63.1302C8.98957 61.293 8.84274 59.3234 8.69079 57.4101C9.69238 56.0227 9.9918 54.2524 10.8517 52.7716C11.465 51.7207 12.3756 50.8748 13.4687 50.3404C14.3068 49.9334 14.5602 48.7233 14.9255 47.8663C15.5844 46.3234 16.5591 44.9356 17.7869 43.7924C18.9533 42.7079 19.8077 41.3029 21.0687 40.3304L23.933 38.1231C25.6339 36.8115 27.488 35.4411 29.6348 35.3618C30.1921 34.5435 31.0513 33.7472 31.8146 33.1161C32.0884 32.8912 31.6735 32.0115 31.6642 31.6567Z" fill="#5278FF"/>
</g>
<g opacity="0.3">
<path opacity="0.8" d="M37.0978 36.5594C36.4119 36.666 35.9692 37.3864 35.8972 38.0767C35.8252 38.7671 36.0233 39.4523 36.1259 40.1394C36.4042 42.0025 35.8767 44.0777 34.4056 45.2543C31.9123 47.2482 27.8561 46.0272 25.3907 48.0553C24.0004 49.1993 22.2912 49.9053 21.6441 51.5857C20.9627 53.3547 21.0801 55.5432 19.7081 56.8516C18.8885 57.6334 17.617 57.9021 16.5511 57.5192C16.0133 57.3272 15.5341 56.9846 14.9836 56.8327C14.4331 56.6807 13.736 56.7892 13.4654 57.2914C13.5563 57.5626 13.7322 57.7973 13.967 57.9606C15.2216 58.7901 16.568 59.7799 18.0645 59.9306C19.5609 60.0813 21.1802 59.5317 22.0523 58.3065C22.6892 57.4107 22.8712 56.2793 23.0091 55.1894C23.1469 54.0995 23.2691 52.9709 23.8158 52.0182C24.3625 51.0656 25.4662 50.3336 26.5349 50.5879C29.6747 49.3307 33.0681 48.4174 36.3556 47.6279C38.101 47.2089 39.1387 45.3595 39.6959 43.6535C40.0568 42.5502 39.568 41.2482 39.2059 40.1452C38.7798 38.8438 37.8518 37.7012 37.0978 36.5594Z" fill="#5278FF"/>
</g>
<g opacity="0.3">
<path opacity="0.8" d="M11.3938 61.3386C12.0361 61.4419 12.53 61.9384 13.0163 62.3706C13.8678 63.1281 14.8467 63.766 15.9385 64.0929C17.0303 64.4199 18.2439 64.4163 19.281 63.9439C19.5689 63.8121 19.8495 63.6435 20.163 63.592C20.4765 63.5405 20.845 63.6403 20.9889 63.9237C21.2023 64.344 20.8136 64.8137 20.4381 65.0984C18.7484 66.3796 16.5546 67.0229 14.4561 66.7116C12.8416 66.4723 11.3083 65.6476 10.2396 64.4106C9.78118 63.8796 9.35636 63.338 9.59436 62.6192C9.8554 61.8367 10.5192 61.1975 11.3938 61.3386Z" fill="#5278FF"/>
</g>
<g opacity="0.3">
<path opacity="0.8" d="M44.5409 37.9618C43.9779 37.9205 43.4692 38.3569 43.2389 38.8722C43.0086 39.3876 42.9955 39.9695 42.9766 40.5335C42.9312 41.8844 42.8311 43.244 42.4718 44.5469C42.1126 45.8499 41.4782 47.1026 40.491 48.0258C38.7089 49.6921 36.1059 50.0485 33.8846 51.0578C32.0449 51.8937 30.4448 53.1947 28.6995 54.2024C26.8886 55.2478 25.6253 57.0396 25.3217 59.1083C25.316 59.147 25.3105 59.1858 25.3051 59.2241C25.0872 60.8166 25.1899 62.4356 25.268 64.038C25.2768 64.3186 25.3565 64.5924 25.4996 64.8339C26.1515 65.8918 27.3383 65.2341 27.6387 64.3761C27.8761 63.6986 27.7439 62.9564 27.6924 62.2401C27.5896 60.7859 27.8325 59.3279 28.4013 57.9855C29.6332 57.5866 30.7925 56.7216 31.7695 55.8716C32.7464 55.0216 33.6536 54.0891 34.6856 53.3067C35.7176 52.5242 36.9041 51.8882 38.191 51.7443C39.2287 51.6285 40.436 51.514 41.2668 50.8806C41.8746 50.4186 42.2447 49.72 42.5972 49.0437C43.109 48.0627 43.6201 47.0824 44.1305 46.1029C45.3825 43.7027 44.926 40.6422 44.5409 37.9618Z" fill="#5278FF"/>
</g>
<g opacity="0.3">
<path opacity="0.8" d="M41.8967 33.1681C42.3391 33.3862 42.6056 33.8443 42.8209 34.2877C43.0051 34.6674 43.1727 35.0689 43.1782 35.4912C43.1817 35.8133 43.0451 36.1793 42.7386 36.2791C42.4683 36.3667 42.1763 36.2106 41.9763 36.0084C41.6884 35.7167 41.5166 35.3325 41.3167 34.9739C41.1168 34.6153 40.8628 34.2589 40.4869 34.0938C40.334 34.0263 40.1632 33.9921 40.0314 33.8888C39.5496 33.511 40.1942 33.256 40.4869 33.1668C40.9431 33.0276 41.4514 32.948 41.8967 33.1681Z" fill="#5278FF"/>
</g>
<g opacity="0.3">
<path opacity="0.8" d="M46.4112 31.9927C46.0836 32.3878 46.0155 32.9457 46.0974 33.4521C46.1793 33.9585 46.3923 34.4325 46.5772 34.9114C47.4579 37.2016 47.6914 39.7051 47.5161 42.1523C47.3408 44.5995 46.7673 47.002 46.0766 49.3567C45.7161 50.5874 45.1595 51.9307 44.4989 53.0298C43.8383 54.129 43.0571 55.1546 42.433 56.2749C42.2363 56.6268 42.0527 57.0007 42.0133 57.4028C41.974 57.8049 42.1064 58.2461 42.4362 58.4796C42.766 58.7131 43.2999 58.6495 43.4919 58.2934C44.1998 58.0906 44.8584 57.5218 45.1425 56.8424C45.4266 56.1629 45.5209 55.4223 45.6729 54.7019C45.8248 53.9815 46.0501 53.2477 46.5395 52.6974C48.1089 50.9329 47.9563 48.2246 48.6764 45.9757C49.7 42.7748 49.7387 39.2422 48.8891 35.9901C48.6684 35.145 48.717 34.302 48.3686 33.501C48.0203 32.7 47.2676 32.1661 46.4112 31.9927Z" fill="#5278FF"/>
</g>
<g opacity="0.3">
<path opacity="0.8" d="M53.286 40.1581C54.1817 40.4159 54.9494 39.8107 55.2939 39.065C55.5499 38.5128 55.6049 37.8906 55.6093 37.2825C55.6225 35.5726 55.2044 33.7764 54.1155 32.484C53.7348 32.0326 53.0147 32.025 52.6609 32.4975C52.6436 32.5208 52.6289 32.5442 52.6132 32.5682C52.4098 32.9024 52.3791 33.319 52.4447 33.7048C52.5102 34.0906 52.6644 34.4549 52.8119 34.8174C53.326 36.08 53.777 37.4962 53.3192 38.7803C53.2415 38.9984 53.1382 39.2086 53.0886 39.4345C53.0419 39.6469 53.0483 39.8823 53.1606 40.0669C53.1896 40.1118 53.2343 40.1443 53.286 40.1581Z" fill="#5278FF"/>
</g>
<g opacity="0.25">
<path opacity="0.25" d="M18.1926 49.8612C18.0669 50.1018 17.9991 50.3862 18.0765 50.6459C18.1539 50.9057 18.406 51.1232 18.676 51.0976C18.9136 51.0752 19.1053 50.8762 19.191 50.6536C19.2767 50.4309 19.2777 50.1856 19.2774 49.9466C19.2774 49.8356 19.2748 49.7173 19.2134 49.6267C18.9261 49.199 18.3621 49.5362 18.1926 49.8612Z" fill="white"/>
</g>
<path d="M14.135 57.9629C16.2094 59.6224 19.1135 61.6968 21.6027 57.9629C25.6283 51.9245 21.6027 50.4952 30.315 49.2506" stroke="black" stroke-width="0.883815" stroke-linecap="square" stroke-linejoin="round"/>
<path d="M21.6022 45.5164C22.4319 44.2718 24.8382 42.0315 27.8253 43.0272M29.0699 39.2934C30.3145 39.2934 32.5548 38.7955 31.5591 36.8041M36.5376 35.5595C39.0268 39.2934 42.0139 47.01 34.0483 48.0057M6.66681 60.4518C7.91143 60.0369 9.90281 58.2115 7.91143 54.2287M14.1345 46.761C15.794 46.761 18.864 45.5164 17.8683 40.538M26.5806 34.3149C27.8253 35.1446 30.8123 35.5595 32.8037 30.5811M45.2499 30.5811C46.4945 31.4108 48.9837 34.066 48.9837 38.0487M5.4222 62.941C4.59245 63.3559 2.68405 63.4389 1.68835 60.4518" stroke="black" stroke-width="0.883815" stroke-linecap="square" stroke-linejoin="round"/>
<path d="M53.9625 33.0713C54.7923 34.3159 55.9539 37.5519 53.9625 40.539" stroke="black" stroke-width="0.883815" stroke-linecap="square" stroke-linejoin="round"/>
<path d="M44.0086 36.8043C44.8383 39.7084 45.2532 46.7612 40.2747 51.7397C38.6152 51.3248 34.7984 51.4908 32.807 55.4735C30.7327 55.8884 26.8329 58.2117 27.8286 64.1858C26.1691 66.2602 23.8458 71.1557 27.8286 74.1428M20.3608 62.9412C21.1906 63.3561 22.6011 64.6837 21.6055 66.6751C20.6098 68.6665 22.0203 69.994 22.8501 70.4089" stroke="black" stroke-width="0.883815" stroke-linecap="square" stroke-linejoin="round"/>
<path d="M17.8704 66.6744C16.2109 67.5041 12.1452 67.919 9.15808 62.9406" stroke="black" stroke-width="0.883815" stroke-linecap="square" stroke-linejoin="round"/>
<path d="M14.1342 50.4956C13.7193 51.7402 13.6363 54.2294 16.6234 54.2294" stroke="black" stroke-width="0.883815" stroke-linecap="square" stroke-linejoin="round"/>
<path d="M34.0479 70.4094C34.4628 74.1433 35.5414 78.8728 41.5156 77.8771" stroke="black" stroke-width="0.883815" stroke-linecap="square" stroke-linejoin="round"/>
<path d="M32.8032 65.4306C32.3883 64.6009 33.0521 62.6924 39.0262 61.6968C45.0004 60.7011 47.3237 52.9845 47.7386 49.2506" stroke="black" stroke-width="0.883815" stroke-linecap="square" stroke-linejoin="round"/>
<path d="M53.9608 50.4952C53.5459 48.8357 53.7118 45.2679 57.6946 44.2722C61.6774 43.2765 61.0135 40.5383 60.1838 39.2937" stroke="black" stroke-width="0.883815" stroke-linecap="square" stroke-linejoin="round"/>
<path d="M39.0283 69.1645C39.4431 68.3348 40.2729 66.1774 40.2729 64.186" stroke="black" stroke-width="0.883815" stroke-linecap="square" stroke-linejoin="round"/>
<path d="M47.7401 59.2063C47.7401 58.7915 48.2379 57.7128 50.2293 56.7171C52.2207 55.7214 52.7185 53.813 52.7185 52.9833" stroke="black" stroke-width="0.883815" stroke-linecap="square" stroke-linejoin="round"/>
<path d="M60.1876 51.7397C59.7727 50.4951 59.6897 47.508 62.6768 45.5166" stroke="black" stroke-width="0.883815" stroke-linecap="square" stroke-linejoin="round"/>
<path d="M63.9206 49.2496C64.3354 48.8347 65.4141 48.005 66.4098 48.005M39.0283 72.8973C40.6877 72.8973 44.0067 71.6527 44.0067 66.6742C45.6662 67.504 49.2341 68.1678 50.2298 64.185C51.8893 64.5999 55.2082 64.4339 55.2082 60.4511C56.4529 60.866 58.9421 60.949 58.9421 57.9619C60.6016 57.9619 63.9206 56.7173 63.9206 51.7388" stroke="black" stroke-width="0.883815" stroke-linecap="square" stroke-linejoin="round"/>
<path d="M52.7153 69.1642C53.545 68.7493 55.4534 68.1685 56.4491 69.1642" stroke="black" stroke-width="0.883815" stroke-linecap="square" stroke-linejoin="round"/>
<path d="M5.42322 48.005C5.83809 48.005 6.66783 48.5029 6.66783 50.4942" stroke="black" stroke-width="0.883815" stroke-linecap="square" stroke-linejoin="round"/>
</svg>
