<svg width="81" height="81" viewBox="0 0 81 81" fill="none" xmlns="http://www.w3.org/2000/svg">
<path d="M48.1327 62.476C46.9616 63.0986 44.3951 63.4137 40.4981 63.4137C36.6011 63.4137 34.0349 63.0986 32.8635 62.476C32.2193 62.1325 32.2193 61.8613 32.2193 61.1612C32.2193 60.0712 36.4029 57.0102 37.5557 56.4599C37.9574 56.2869 38.247 55.9666 38.3695 55.5558C38.6278 54.6931 38.0879 53.7193 37.4514 52.7713L37.3706 52.6498C36.9585 52.0299 36.862 51.8826 36.7342 51.2421C36.6403 50.7693 36.2882 50.0125 35.8656 49.5811C35.6726 49.2996 35.404 48.2405 35.5109 47.9331C35.6413 47.6722 35.9517 47.06 35.9021 46.4194C35.8343 45.4378 35.9282 44.5466 36.1786 43.7691C36.4707 42.8495 37.3888 41.9712 38.4608 41.5838C39.2016 41.3151 39.8693 41.2919 40.5005 41.2919C41.1213 41.2919 41.7916 41.3151 42.535 41.5838C43.607 41.9712 44.5198 42.8469 44.8093 43.7691C45.0571 44.5466 45.1536 45.4636 45.0858 46.4116C45.0414 47.0342 45.3231 47.6231 45.4822 47.9408C45.5683 48.3128 45.3101 49.3073 45.1588 49.5372C44.6971 50.0125 44.3477 50.7668 44.2537 51.2395C44.1259 51.8801 44.0398 52.0119 43.6147 52.6524L43.5208 52.7945C42.9 53.7166 42.3627 54.6905 42.6183 55.5533C42.7409 55.964 43.0304 56.2843 43.4191 56.4496C45.8317 57.6327 48.7346 60.7247 48.7712 61.2026C48.7764 61.8613 48.7769 62.1324 48.1327 62.476ZM71.8826 40.0925C70.7115 40.715 68.1449 41.0302 64.2506 41.0302C60.354 41.0302 57.7874 40.715 56.6161 40.0925C55.9718 39.7489 55.9718 39.4777 55.9718 38.7751C55.9718 37.6876 60.1554 34.624 61.3057 34.0764C61.71 33.9033 61.9969 33.583 62.1221 33.1749C62.3803 32.3172 61.843 31.346 61.204 30.3877L61.131 30.274C60.7058 29.6334 60.6171 29.5017 60.4893 28.8533C60.3928 28.3832 60.0433 27.6289 59.6182 27.1976C59.4278 26.9186 59.1565 25.8621 59.2661 25.547C59.3965 25.2861 59.7042 24.6764 59.6547 24.0384C59.5869 23.0568 59.6808 22.1631 59.9312 21.3856C60.2233 20.4686 61.1388 19.5904 62.2108 19.2029C62.9542 18.9342 63.6245 18.911 64.2557 18.911C64.8764 18.911 65.5441 18.9342 66.2875 19.2003C67.3595 19.5903 68.275 20.466 68.5645 21.3856C68.8123 22.1631 68.9062 23.0801 68.8358 24.0384C68.794 24.6584 69.0757 25.2447 69.2374 25.5625C69.3235 25.9319 69.0653 26.9264 68.9114 27.1589C68.4498 27.6368 68.1003 28.3936 68.0089 28.8611C67.8811 29.4992 67.7846 29.6464 67.3725 30.2689L67.2682 30.4265C66.65 31.3487 66.1153 32.3199 66.3709 33.1776C66.4935 33.5857 66.7804 33.906 67.1716 34.0739C69.5843 35.2544 72.4872 38.3489 72.5211 38.8243C72.5264 39.4778 72.5268 39.7489 71.8826 40.0925ZM8.47035 38.7751C8.47035 37.7108 12.6853 34.6085 13.8068 34.0764C14.2085 33.9033 14.498 33.583 14.6206 33.1749C14.8788 32.3172 14.3415 31.3434 13.7025 30.3903L13.6269 30.274C13.2044 29.636 13.1157 29.5017 12.9853 28.8559C12.8888 28.3832 12.5366 27.6289 12.1141 27.2027C11.9237 26.9212 11.655 25.8647 11.7672 25.5418C11.9081 25.2602 12.2002 24.6713 12.1506 24.041C12.0854 23.0568 12.1793 22.1657 12.4271 21.3882C12.7192 20.4686 13.6373 19.5929 14.7067 19.2054C15.4527 18.9368 16.1204 18.9135 16.7516 18.9135C17.3749 18.9135 18.0453 18.9368 18.7834 19.2028C19.858 19.5929 20.7735 20.4686 21.0604 21.3882C21.3108 22.1683 21.4047 23.0827 21.3369 24.0307C21.29 24.6532 21.5743 25.2422 21.7334 25.5599C21.8194 25.9319 21.5638 26.9264 21.4099 27.1563C20.9483 27.6316 20.5988 28.3859 20.5049 28.8586C20.3771 29.5043 20.2884 29.6361 19.8606 30.2793L19.7615 30.4265C19.146 31.3486 18.6139 32.3174 18.8695 33.1723C18.9921 33.5805 19.2816 33.9008 19.6702 34.0687C22.0829 35.2518 24.9858 38.3437 25.0223 38.819C25.0223 39.4752 25.0223 39.7489 24.3781 40.0925C23.2096 40.7151 20.6405 41.0302 16.7462 41.0302C12.8495 41.0302 10.2803 40.7151 9.11158 40.0925C8.46995 39.749 8.47035 39.4777 8.47035 38.7751Z" fill="#CBD7FF"/>
<path d="M45.4133 54.9277C45.4987 54.6998 45.7012 54.298 46.16 53.6051L46.2518 53.4659C46.815 52.6084 47.1251 52.137 47.3687 50.903C47.4098 50.7068 47.6471 50.2069 47.8465 49.998C48.5173 49.3146 49.2291 46.9858 48.7704 45.6C48.7545 45.5525 48.7166 45.4607 48.6533 45.3373C48.4571 44.945 48.416 44.7741 48.4192 44.6982C48.5236 43.2174 48.3749 41.8315 47.9825 40.5849C47.4193 38.7688 45.7708 37.1298 43.787 36.4052C42.5846 35.9622 41.5025 35.9021 40.4963 35.9021C39.5059 35.9021 38.4239 35.9622 37.2278 36.402C35.2155 37.1329 33.6049 38.7339 33.0228 40.5754C32.6304 41.8093 32.4817 43.1921 32.583 44.7014C32.5861 44.7741 32.5482 44.945 32.352 45.3373C32.2919 45.4607 32.2539 45.5525 32.2318 45.6095C31.7761 46.97 32.4817 49.3019 33.1493 49.9853C33.3582 50.2005 33.5955 50.6972 33.6366 50.8966C33.8802 52.1274 34.1903 52.5989 34.7472 53.4499L34.8738 53.6398C35.3104 54.2979 35.5034 54.6903 35.5888 54.9117C33.9625 55.8957 28.1153 59.6673 28.1153 62.6384C28.1153 63.5908 28.1121 65.1823 30.134 66.2676C31.947 67.2421 35.2439 67.6946 40.506 67.6946C45.7679 67.6946 49.0612 67.2421 50.8781 66.2676C52.8999 65.1824 52.8999 63.5876 52.8967 62.5846C52.8936 59.8382 47.0333 55.9465 45.4133 54.9277ZM49.7608 64.2078C48.3401 64.9704 45.2266 65.3564 40.4992 65.3564C35.7718 65.3564 32.6587 64.9704 31.2377 64.2078C30.4561 63.787 30.4562 63.4548 30.4562 62.5973C30.4562 61.2621 35.5313 57.5127 36.9298 56.8387C37.4171 56.6267 37.7683 56.2344 37.9171 55.7313C38.2303 54.6745 37.5753 53.4817 36.8033 52.3204L36.7052 52.1717C36.2053 51.4123 36.0882 51.232 35.9332 50.4473C35.8193 49.8683 35.3921 48.9412 34.8796 48.4128C34.6454 48.068 34.3195 46.7707 34.4492 46.3942C34.6074 46.0746 34.984 45.3247 34.9238 44.54C34.8416 43.3376 34.9555 42.2461 35.2592 41.2937C35.6136 40.1673 36.7274 39.0914 38.0278 38.6169C38.9264 38.2878 39.7364 38.2593 40.5021 38.2593C41.2552 38.2593 42.0683 38.2878 42.9701 38.6169C44.2706 39.0915 45.378 40.1641 45.7291 41.2937C46.0297 42.2461 46.1468 43.3693 46.0645 44.5305C46.0107 45.2931 46.3525 46.0144 46.5455 46.4036C46.6499 46.8593 46.3366 48.0774 46.1531 48.3591C45.5931 48.9412 45.1691 49.8652 45.0552 50.4442C44.9001 51.2288 44.7957 51.3902 44.28 52.1749L44.1661 52.3489C43.413 53.4785 42.7612 54.6713 43.0713 55.7281C43.22 56.2312 43.5712 56.6236 44.0426 56.8261C46.9694 58.2753 50.491 62.0626 50.5353 62.648C50.5416 63.4548 50.5423 63.787 49.7608 64.2078ZM69.4729 32.3141C69.5583 32.0863 69.7608 31.6844 70.2228 30.9884L70.3177 30.8428C70.8778 29.9885 71.1847 29.5171 71.4283 28.283C71.4663 28.0932 71.7099 27.5869 71.9029 27.3844C72.5737 26.7042 73.2887 24.3722 72.83 22.9895C72.8141 22.9421 72.7762 22.8503 72.7129 22.7269C72.5009 22.3029 72.4724 22.1384 72.4756 22.0846C72.58 20.6038 72.4345 19.2179 72.0421 17.9713C71.4662 16.1331 69.8589 14.532 67.8434 13.7916C66.641 13.3518 65.5589 13.2917 64.5528 13.2917C63.5655 13.2917 62.4835 13.3518 61.2811 13.7916C59.2687 14.5288 57.6582 16.1298 57.0792 17.9649C56.69 19.1957 56.5413 20.5817 56.6426 22.0877C56.6457 22.1605 56.6078 22.3313 56.4116 22.7237C56.3483 22.8534 56.3072 22.9515 56.2914 22.9989C55.8357 24.3627 56.5445 26.6946 57.2089 27.3716C57.4178 27.5868 57.6582 28.0899 57.6962 28.2797C57.9398 29.52 58.2499 29.9915 58.8131 30.8521L58.9365 31.042C59.3668 31.6938 59.5598 32.0798 59.6453 32.3044C58.0221 33.2853 52.1685 37.0569 52.1685 40.028C52.1685 40.9804 52.1654 42.5718 54.1872 43.6603C56.0034 44.6348 59.3004 45.0905 64.5625 45.0905C69.8244 45.0905 73.121 44.638 74.9346 43.6603C76.9564 42.5718 76.9533 40.9804 76.9533 39.9742C76.9501 37.2183 71.0961 33.3329 69.4729 32.3141ZM73.8172 41.591C72.3965 42.3536 69.2831 42.7396 64.5589 42.7396C59.8318 42.7396 56.7183 42.3536 55.2973 41.591C54.5158 41.1702 54.5158 40.838 54.5158 39.9773C54.5158 38.6453 59.591 34.8927 60.9863 34.2219C61.4768 34.0099 61.8249 33.6175 61.9767 33.1176C62.29 32.0671 61.6382 30.8775 60.863 29.7036L60.7744 29.5644C60.2586 28.7797 60.1511 28.6183 59.996 27.8242C59.879 27.2483 59.455 26.3244 58.9392 25.796C58.7082 25.4543 58.3792 24.1602 58.5121 23.7742C58.6703 23.4546 59.0436 22.7079 58.9835 21.9264C58.9013 20.7241 59.0152 19.6293 59.3189 18.6769C59.6733 17.5537 60.7839 16.478 62.0843 16.0033C62.9861 15.6742 63.7993 15.6457 64.565 15.6457C65.318 15.6457 66.128 15.6742 67.0298 16.0001C68.3302 16.4779 69.4408 17.5505 69.792 18.6769C70.0926 19.6293 70.2065 20.7526 70.1211 21.9264C70.0705 22.6858 70.4122 23.404 70.6084 23.7932C70.7128 24.2457 70.3995 25.4638 70.2129 25.7486C69.6528 26.334 69.2289 27.2611 69.1181 27.8337C68.963 28.6153 68.846 28.7956 68.346 29.5581L68.2195 29.7512C67.4696 30.8807 66.8209 32.0704 67.131 33.1209C67.2797 33.6208 67.6278 34.0132 68.1023 34.2189C71.0291 35.6649 74.5507 39.4554 74.5918 40.0376C74.5982 40.8381 74.5987 41.1701 73.8172 41.591ZM26.8153 43.6635C28.8372 42.575 28.834 40.9835 28.834 39.9773C28.834 37.2215 22.9773 33.3328 21.3541 32.314C21.4396 32.0862 21.6421 31.6875 22.1009 30.9914L22.1863 30.8617C22.7527 30.0011 23.0659 29.5265 23.3095 28.2861C23.3475 28.0868 23.5879 27.5901 23.7841 27.3844C24.4549 26.7041 25.1668 24.3754 24.708 22.9926C24.6922 22.9452 24.6511 22.8503 24.5909 22.7237C24.3948 22.3282 24.3568 22.1573 24.3568 22.0814C24.4612 20.6196 24.3093 19.1958 23.9202 17.9681C23.357 16.1583 21.7085 14.5161 19.7214 13.7852C18.5222 13.3454 17.4402 13.2853 16.434 13.2853C15.4468 13.2853 14.3678 13.3454 13.1623 13.7852C11.1531 14.5224 9.54258 16.1203 8.96043 17.9586C8.57125 19.1894 8.42254 20.5721 8.52063 22.0845C8.52379 22.1573 8.48582 22.325 8.29281 22.7142C8.22637 22.8502 8.18207 22.9547 8.17258 22.9926C7.71695 24.3532 8.42254 26.6819 9.08699 27.3685C9.29581 27.5837 9.53629 28.0836 9.57425 28.2766C9.81788 29.5137 10.128 29.9852 10.6912 30.8427L10.8177 31.0325C11.248 31.6843 11.441 32.0703 11.5296 32.2981C9.90016 33.2917 4.04977 37.0569 4.04977 40.0311C4.04977 40.9835 4.04661 42.575 6.06846 43.6635C7.88148 44.638 11.1784 45.0936 16.4437 45.0936C21.7056 45.0936 25.0017 44.638 26.8153 43.6635ZM6.40088 39.9773C6.40088 38.6737 11.514 34.8737 12.8746 34.2219C13.3618 34.0099 13.7131 33.6175 13.8618 33.1176C14.175 32.0671 13.5232 30.8743 12.748 29.7068L12.6563 29.5644C12.1437 28.7829 12.0361 28.6183 11.8779 27.8273C11.7609 27.2483 11.3337 26.3244 10.8211 25.8023C10.5901 25.4575 10.2642 24.1634 10.4003 23.7679C10.5712 23.423 10.9255 22.7016 10.8654 21.9296C10.7863 20.7241 10.9002 19.6325 11.2008 18.6801C11.5552 17.5537 12.6689 16.4811 13.9662 16.0064C14.8712 15.6774 15.6812 15.6489 16.4468 15.6489C17.2031 15.6489 18.0162 15.6774 18.9117 16.0033C20.2153 16.4811 21.3259 17.5537 21.6739 18.6801C21.9777 19.6356 22.0916 20.7557 22.0093 21.9169C21.9524 22.6795 22.2973 23.4009 22.4903 23.7901C22.5947 24.2457 22.2846 25.4638 22.0979 25.7455C21.5379 26.3277 21.1139 27.2516 21 27.8306C20.8449 28.6216 20.7373 28.783 20.2184 29.5708L20.0982 29.7511C19.3515 30.8807 18.706 32.0673 19.0161 33.1145C19.1648 33.6144 19.5161 34.0068 19.9875 34.2125C22.9143 35.6616 26.4358 39.4489 26.4801 40.0312C26.4801 40.8348 26.4801 41.1702 25.6986 41.5911C24.2811 42.3536 21.1645 42.7397 16.4403 42.7397C11.7132 42.7397 8.59658 42.3536 7.17876 41.5911C6.40039 41.1703 6.40088 40.838 6.40088 39.9773ZM65.2336 49.963C62.6201 52.4563 58.4372 54.5509 53.4603 55.8672C52.8338 56.0317 52.4572 56.6772 52.625 57.3036C52.7642 57.832 53.242 58.1801 53.7609 58.1801C53.8589 58.1801 53.9602 58.1674 54.0614 58.1421C59.4941 56.7088 63.9175 54.4686 66.857 51.6652C67.3253 51.216 67.3443 50.4724 66.8981 50.0041C66.4488 49.5327 65.705 49.5137 65.2336 49.963ZM27.5435 55.8672C22.5665 54.5541 18.3864 52.4564 15.7702 49.963C15.3019 49.5169 14.5552 49.5327 14.109 50.0041C13.6597 50.4724 13.6787 51.216 14.1501 51.6653C17.0895 54.4686 21.5129 56.7057 26.9457 58.1421C27.047 58.1674 27.1482 58.1801 27.2463 58.1801C27.7684 58.1801 28.243 57.8321 28.3822 57.3037C28.5435 56.674 28.17 56.0317 27.5435 55.8672ZM27.4739 31.7065C35.4441 29.5834 45.5596 29.5834 53.5267 31.7065C53.628 31.735 53.7292 31.7476 53.8305 31.7476C54.3494 31.7476 54.8272 31.3996 54.9664 30.8744C55.134 30.2479 54.7607 29.6024 54.1342 29.4348C49.8944 28.3052 45.3093 27.7325 40.5036 27.7325C35.6978 27.7325 31.1092 28.3052 26.8696 29.4348C26.2431 29.6025 25.8698 30.2448 26.0375 30.8744C26.202 31.5009 26.8474 31.8743 27.4739 31.7065Z" fill="black"/>
</svg>
