<svg width="83" height="77" viewBox="0 0 83 77" fill="none" xmlns="http://www.w3.org/2000/svg">
<path d="M15.7026 21.6606L25.2987 17.2987V57.4278H15.7026V21.6606Z" fill="#CBD7FF"/>
<path d="M68.045 21.6606L56.7042 17.2987V57.4278H68.045V21.6606Z" fill="#CBD7FF"/>
<path d="M68.751 56.4496C68.7064 56.4666 68.6424 56.4911 68.568 56.5282L42.1471 66.1199L42.0034 66.1721V66.3249V66.8054H40.6961L40.6983 66.4147L40.6991 66.261L40.5546 66.2085L14.1315 56.6163C14.0612 56.5825 13.9988 56.5588 13.9557 56.5424C13.9426 56.5374 13.9312 56.5331 13.922 56.5294C13.8809 56.5129 13.8679 56.5042 13.8531 56.4894L13.7645 56.4008L13.5021 56.1384C13.4809 56.1172 13.4499 56.0739 13.4238 56.0221C13.4115 55.9975 13.4025 55.9755 13.397 55.9582C13.3938 55.9482 13.3926 55.9425 13.3922 55.9405V55.8565V55.7636L13.3271 55.701C13.3273 55.7008 13.3184 55.6877 13.3116 55.6474C13.304 55.6028 13.3036 55.5546 13.3036 55.5089V54.8103L12.8829 54.7296C12.6203 55.3885 12.405 56.0501 12.2044 56.6665C12.1603 56.8019 12.1169 56.9353 12.0739 57.0659L10.8341 56.673C11.1465 55.7434 11.5219 54.6943 11.9014 53.698L13.0043 54.1403L13.3036 54.2604L13.3036 53.9379L13.3002 30.0332L13.3002 29.9943L13.2867 29.9578L12.7472 28.493C12.7822 28.4786 12.8193 28.4639 12.8578 28.4485L12.8637 28.4462C12.9684 28.4044 13.0852 28.3579 13.1811 28.309L13.3002 28.2483V28.1147V21.1405C13.3005 21.1386 13.3019 21.1313 13.3059 21.1167C13.3123 21.094 13.3212 21.0676 13.3329 21.0334L13.3333 21.0321C13.3439 21.001 13.3569 20.9627 13.3671 20.9259C13.3766 20.8914 13.3888 20.8408 13.3888 20.7881V20.7482C13.4137 20.6929 13.4322 20.6443 13.4457 20.6088C13.4507 20.5957 13.455 20.5843 13.4587 20.5751C13.4752 20.534 13.4839 20.521 13.4987 20.5062L13.6972 20.3077H13.746L13.7915 20.2854C13.8707 20.2465 13.9374 20.2049 13.984 20.1759C13.9953 20.1689 14.0055 20.1626 14.0143 20.1572C14.0372 20.1433 14.0503 20.1367 14.0563 20.1339H14.0801L14.1151 20.1216L31.3034 14.1036L31.3902 14.0733L31.4291 13.9899L31.9388 12.8965C32.0932 12.9811 32.246 13.0576 32.3949 13.132L32.3981 13.1336C32.6172 13.2432 32.8278 13.3486 33.0375 13.4747L33.1251 13.5274L33.2217 13.4938L40.9824 10.7887C40.9827 10.7886 40.983 10.7885 40.9834 10.7884C41.2 10.7155 41.4972 10.7155 41.714 10.7883C41.7144 10.7884 41.7148 10.7886 41.7152 10.7887L49.3901 13.4935L49.4673 13.5207L49.5433 13.4904C49.77 13.4001 49.9949 13.2876 50.2101 13.18L50.2144 13.1779C50.3677 13.1012 50.5161 13.0271 50.6625 12.9611L51.1834 14.0785L51.2225 14.1624L51.3099 14.1926L68.4825 20.1211C68.5521 20.1545 68.6139 20.178 68.6567 20.1942C68.6698 20.1992 68.6812 20.2035 68.6904 20.2072C68.7315 20.2237 68.7445 20.2324 68.7593 20.2472L68.8232 20.3111H68.9118L69.0857 20.485C69.1193 20.5496 69.1534 20.6042 69.1782 20.644C69.1852 20.6553 69.1915 20.6654 69.1969 20.6742C69.2108 20.6972 69.2174 20.7103 69.2202 20.7162V20.7916V20.8844L69.2854 20.9471C69.2853 20.9471 69.2853 20.9471 69.2854 20.9472C69.2859 20.9486 69.2943 20.9623 69.3008 21.0006C69.3084 21.0453 69.3088 21.0935 69.3088 21.1392V28.1182V28.2518L69.4279 28.3125C69.5238 28.3614 69.6406 28.4079 69.7453 28.4496L69.7512 28.4519C69.7897 28.4673 69.8267 28.4821 69.8618 28.4964L69.3223 29.9613L69.3088 29.9978V30.0367V53.9379V54.253L69.6038 54.142L70.8063 53.6892C71.2452 54.6765 71.5606 55.6684 71.8688 56.6713L70.6291 57.0641C70.3862 56.2704 70.1368 55.5378 69.8147 54.7295L69.3941 54.8115L69.3974 55.4156C69.397 55.4177 69.3957 55.425 69.3917 55.4392C69.3853 55.462 69.3764 55.4884 69.3648 55.5226L69.3643 55.5239C69.3537 55.555 69.3407 55.5933 69.3306 55.6301C69.3211 55.6645 69.3089 55.7152 69.3089 55.7678V55.8078C69.2839 55.8631 69.2654 55.9116 69.252 55.9471C69.247 55.9603 69.2427 55.9717 69.2389 55.9809C69.2225 56.022 69.2138 56.035 69.1989 56.0498L68.9366 56.3122L68.8479 56.4008C68.8365 56.4123 68.8254 56.4203 68.7809 56.438C68.7722 56.4415 68.7622 56.4453 68.751 56.4496ZM15.6002 49.0274L15.569 49.0793V49.1399V53.5912V53.8973L15.8583 53.7974L40.1111 45.4212L40.258 45.3705V45.2151V31.8669V31.7141L40.1144 31.6619L15.8616 22.8527L15.569 22.7464V23.0577V47.3951V47.5161L15.6716 47.5801L16.1917 47.9048C16.1017 48.0674 16.0212 48.2283 15.9429 48.3849L15.9414 48.388C15.8318 48.6072 15.7264 48.8178 15.6002 49.0274ZM67.1279 23.0577V22.7465L66.8354 22.8527L42.5826 31.661L42.4389 31.7132V31.866V45.2141V45.3696L42.5859 45.4203L66.8387 53.793L67.1279 53.8929V53.5869V49.0513V49.0094L67.1124 48.9705C66.959 48.5854 66.7407 48.2032 66.5197 47.8328L67.007 47.5904L67.1279 47.5302V47.3951V23.0577ZM42.4389 63.3604V63.6715L42.7314 63.5654L64.3671 55.7137L64.9449 55.504L64.3642 55.3026L42.7285 47.7989L42.4389 47.6984V48.0049V63.3604ZM40.6942 13.5462V13.2395L40.4045 13.3402L18.333 21.0145L17.752 21.2165L18.3305 21.4256L31.8523 26.3122L31.9826 26.3593L32.0806 26.2613C32.4634 25.8786 32.8377 25.5046 33.2093 25.1905L34.0654 26.1778C34.0227 26.2135 33.9768 26.2504 33.9284 26.2892L33.9165 26.2987C33.8134 26.3812 33.6991 26.4728 33.6055 26.5663L33.3644 26.8075L33.6845 26.9252L41.2734 29.7161L41.3475 29.7434L41.4218 29.7169L49.0108 27.0145L49.2733 26.921L49.1194 26.6887C49.0175 26.5347 48.8925 26.4112 48.7784 26.3086C48.7297 26.2649 48.6862 26.2276 48.6464 26.1934C48.6416 26.1892 48.6368 26.1851 48.632 26.181L49.4756 25.2082C49.6415 25.3668 49.8065 25.515 49.9689 25.6609L49.9709 25.6627C50.1896 25.8592 50.4034 26.0514 50.6168 26.2647L50.7147 26.3627L50.8451 26.3156L64.3668 21.4289L64.9453 21.2199L64.3644 21.0178L42.2925 13.3402L42.0028 13.2395V13.5462V16.0339H40.6942V13.5462ZM40.258 48.0049V47.6984L39.9685 47.7989L18.3328 55.303L17.7521 55.5044L18.3299 55.7141L39.9655 63.5654L40.258 63.6715V63.3604V48.0049Z" fill="black" stroke="#F2F5FF" stroke-width="0.436186"/>
<path d="M40.4767 69.552H42.2214V72.0805H40.4767V69.552Z" fill="black"/>
<path d="M40.4767 74.6128H42.2214V76.3575H40.4767V74.6128Z" fill="black"/>
<path d="M40.4767 0.723633H42.2214V2.46838H40.4767V0.723633Z" fill="black"/>
<path d="M40.4767 5.8689H42.2214V9.26975H40.4767V5.8689Z" fill="black"/>
<path d="M40.4767 19.6534H42.2214V21.3982H40.4767V19.6534Z" fill="black"/>
<path d="M69.9636 51.3212L70.6621 52.8922C71.7969 52.456 72.8431 51.9312 73.8892 51.4098L73.1054 49.8389C72.0559 50.4488 71.0097 50.885 69.9635 51.3212H69.9636Z" fill="black"/>
<path d="M53.5622 57.1654L53.2998 55.4207C52.165 55.5944 51.0302 55.6831 49.8989 55.7682L50.0727 57.513C51.2926 57.4278 52.4274 57.3392 53.5622 57.1654H53.5622Z" fill="black"/>
<path d="M60.5412 56.0301L60.1936 54.2854C59.0588 54.5478 57.924 54.7216 56.7927 54.8954L57.0551 56.6401C58.1865 56.4663 59.4064 56.2925 60.5412 56.0301H60.5412Z" fill="black"/>
<path d="M43.0938 57.953C44.2285 57.953 45.4485 57.8644 46.5832 57.8644L46.4946 56.1196C45.3599 56.2082 44.2251 56.2082 43.0938 56.2082L43.0938 57.953Z" fill="black"/>
<path d="M3.31229 33.9628C2.35128 34.9238 1.56754 35.8813 1.04272 36.9274L2.61369 37.7112C3.04988 36.8388 3.74847 35.9665 4.53221 35.1827L3.31229 33.9628Z" fill="black"/>
<path d="M1.74474 40.679H0V40.8528C0 42.0727 0.262392 43.2961 0.872371 44.4309L2.44334 43.6471C2.00715 42.6861 1.74476 41.8137 1.74476 40.8562L1.74474 40.679Z" fill="black"/>
<path d="M12.8232 51.4102C11.6884 50.9741 10.7309 50.4492 9.76986 50.0131L8.98608 51.584C9.94709 52.1088 11.0784 52.6302 12.2132 53.0664L12.8232 51.4102Z" fill="black"/>
<path d="M79.3858 33.9629L78.1658 35.1828C79.0382 35.9666 79.6482 36.8389 80.173 37.7113L81.744 36.8389C81.042 35.8813 80.3434 34.8351 79.3858 33.9628L79.3858 33.9629Z" fill="black"/>
<path d="M3.05334 47.3955C3.83712 48.1793 4.79809 48.9665 5.84423 49.7502L6.80524 48.353C5.84423 47.6545 4.97186 46.9558 4.27676 46.2607L3.05334 47.3955Z" fill="black"/>
<path d="M9.24507 29.859C8.11029 30.469 7.06414 30.9938 6.19177 31.6924L7.15278 33.1747C8.02515 32.5647 8.98615 32.0399 10.0323 31.5186L9.24507 29.859Z" fill="black"/>
<path d="M82.6981 40.5903L80.9533 40.6789V40.8527C80.9533 41.8137 80.6909 42.6861 80.2548 43.6436L81.8257 44.4274C82.3505 43.2926 82.6981 42.0727 82.6981 40.9379L82.6981 40.5903Z" fill="black"/>
<path d="M22.2455 56.0302C23.3803 56.2926 24.515 56.4664 25.6463 56.7287L25.9087 54.984C24.7739 54.8102 23.6392 54.5478 22.5079 54.374L22.2455 56.0302Z" fill="black"/>
<path d="M29.1359 57.1654C30.2706 57.3392 31.4054 57.4278 32.6253 57.513L32.7991 55.7682C31.6644 55.6796 30.5296 55.5059 29.3983 55.4207L29.1359 57.1654Z" fill="black"/>
<path d="M36.2033 56.0302L36.1147 57.7749C37.2495 57.8635 38.4695 57.8635 39.6042 57.8635V56.1187C38.4695 56.1187 37.3347 56.1187 36.2034 56.0302H36.2033Z" fill="black"/>
<path d="M73.453 29.859L72.6692 31.43C73.7153 31.9548 74.6763 32.5648 75.5487 33.0861L76.5097 31.6038C75.6339 31.0824 74.5878 30.4724 73.453 29.859H73.453Z" fill="black"/>
<path d="M75.8963 48.1788L76.8573 49.576C77.9035 48.7923 78.8645 48.0937 79.6482 47.2213L78.4249 46.0865C77.7263 46.7851 76.8539 47.5689 75.8964 48.1788H75.8963Z" fill="black"/>
<path d="M69.3535 68.7685C69.0911 69.0309 68.8288 69.2933 68.5698 69.4671L69.5308 70.8643C69.8784 70.6019 70.3145 70.3395 70.5769 69.9919C71.1869 69.3819 71.7117 68.6834 72.0592 67.8996L70.4883 67.1158C70.2259 67.7224 69.7897 68.3324 69.3535 68.7686L69.3535 68.7685Z" fill="black"/>
<path d="M28.5259 11.1922C27.306 10.756 26.1712 10.3198 25.125 10.0574L24.6888 11.7135C25.735 11.9759 26.8698 12.4121 28.0046 12.8483L28.5259 11.1922Z" fill="black"/>
<path d="M48.4166 67.7225C49.4628 68.3325 50.5976 68.8573 51.6437 69.3786L52.3423 67.8077C51.2961 67.3715 50.25 66.7615 49.2003 66.2367L48.4166 67.7225Z" fill="black"/>
<path d="M13.3446 12.763C13.7808 12.3268 14.3056 11.9792 14.8269 11.7168L14.0432 10.1459C13.3446 10.4935 12.646 11.0182 12.1246 11.5431C11.7771 11.8907 11.4261 12.3268 11.0785 12.763L12.5608 13.724C12.8232 13.373 13.0856 13.1106 13.3446 12.763Z" fill="black"/>
<path d="M71.0983 60.6548C71.1869 61.4386 71.2721 62.311 71.2721 63.0096V63.9706L73.0168 64.1444V63.0096C73.0168 62.2258 72.9282 61.2648 72.843 60.3925L71.0983 60.6548Z" fill="black"/>
<path d="M55.0446 70.6871C56.2645 71.1233 57.3993 71.4709 58.534 71.7333L58.9702 70.0772C57.9241 69.8148 56.7893 69.4672 55.6545 69.031L55.0446 70.6871Z" fill="black"/>
<path d="M42.92 21.6606C43.7924 22.3592 44.7534 23.143 45.6258 23.8415L46.7606 22.533C45.7996 21.7492 44.9272 21.0507 43.9697 20.2634L42.92 21.6606Z" fill="black"/>
<path d="M10.3799 23.8415C10.6423 24.9763 11.0785 26.111 11.5147 27.331L13.1708 26.721C12.7346 25.5862 12.387 24.4514 12.1246 23.4053L10.3799 23.8415Z" fill="black"/>
<path d="M62.286 70.6871L62.1122 72.4319C62.637 72.5205 63.1583 72.5205 63.5945 72.5205C64.3783 72.5205 65.1655 72.4319 65.8641 72.3467L65.6017 70.6019C64.5555 70.7757 63.506 70.7757 62.286 70.6871Z" fill="black"/>
<path d="M11.426 20.0049C11.3374 19.4801 11.3374 18.9587 11.3374 18.5225C11.3374 17.9125 11.426 17.3026 11.5112 16.6892L9.76645 16.4268C9.67785 17.0367 9.59265 17.8239 9.59265 18.5191C9.59265 19.0438 9.59265 19.6538 9.68125 20.1752L11.426 20.0049Z" fill="black"/>
<path d="M19.1036 10.845C19.8022 10.845 20.5008 10.9336 21.2845 11.0188L21.5469 9.27401C20.6746 9.18542 19.8908 9.10022 19.1036 9.10022C18.6674 9.10022 18.2312 9.10022 17.795 9.18882L17.9688 10.9336C18.3198 10.845 18.6674 10.845 19.1036 10.845Z" fill="black"/>
<path d="M41.0867 18.1711C40.1257 17.4725 39.0795 16.7739 38.122 16.1639L37.161 17.6463C38.122 18.2563 39.0795 18.9548 40.0405 19.5648L41.0867 18.1711Z" fill="black"/>
<path d="M61.676 37.9731C60.9774 37.0121 60.1937 36.1398 59.4065 35.1823L58.0979 36.317C58.8817 37.1894 59.5802 38.1504 60.2788 39.0228L61.676 37.9731Z" fill="black"/>
<path d="M65.8641 43.817C65.2541 42.856 64.5555 41.8098 63.8569 40.8523L62.4597 41.8984C63.1583 42.8594 63.7683 43.817 64.3782 44.778L65.8641 43.817Z" fill="black"/>
<path d="M55.8318 33.6114L57.1403 32.4766C56.3565 31.6042 55.4842 30.7319 54.697 29.8595L53.4771 31.0794C54.2608 31.8666 55.0446 32.7389 55.8318 33.6113V33.6114Z" fill="black"/>
<path d="M45.4485 17.6458L44.4875 16.1635C43.5265 16.7734 42.4803 17.472 41.5228 18.1706L42.569 19.5678C43.53 18.9544 44.4909 18.2592 45.4485 17.6459V17.6458Z" fill="black"/>
<path d="M71.3573 18.5182C71.3573 18.9544 71.3573 19.4792 71.2687 20.0005L73.0134 20.1743C73.102 19.6495 73.102 19.0395 73.102 18.5182C73.102 17.8196 73.0134 17.0359 72.9282 16.4259L71.1835 16.6883C71.2721 17.2983 71.3573 17.9082 71.3573 18.5183V18.5182Z" fill="black"/>
<path d="M69.6125 26.6324L71.2686 27.2423C71.7048 26.0224 72.0524 24.8876 72.4034 23.7529L70.662 23.4053C70.3996 24.4514 70.0487 25.4976 69.6125 26.6323V26.6324Z" fill="black"/>
<path d="M12.2132 67.1129L10.6422 67.8967C10.9898 68.6805 11.5146 69.3791 12.1245 69.989C12.4721 70.3366 12.8231 70.599 13.2593 70.8614L14.2203 69.3791C13.9579 69.2053 13.6104 68.9429 13.348 68.6805C12.9084 68.3329 12.4722 67.7229 12.2132 67.1129V67.1129Z" fill="black"/>
<path d="M58.0126 11.7173L57.5764 10.0612C56.4417 10.4087 55.3069 10.7597 54.1756 11.2811L54.7856 12.9372C55.917 12.3272 56.9631 11.9762 58.0127 11.7173H58.0126Z" fill="black"/>
<path d="M64.7293 10.8448L64.9031 9.10007C63.7683 9.01147 62.4597 9.01147 61.1512 9.18866L61.4136 10.9334C62.5484 10.8448 63.6831 10.7562 64.7293 10.8448Z" fill="black"/>
<path d="M70.1373 13.7202L71.6197 12.7592C71.3573 12.323 71.0097 11.8868 70.6587 11.5393C70.0487 10.9293 69.4387 10.4931 68.6515 10.1421L67.8677 11.7131C68.4777 11.9754 68.9139 12.4116 69.3501 12.8478C69.6125 13.1102 69.8749 13.3726 70.1372 13.7202H70.1373Z" fill="black"/>
<path d="M39.6929 21.6606L38.6467 20.2634C37.6857 20.962 36.8133 21.7458 35.8558 22.533L36.9906 23.8415C37.8596 23.143 38.8206 22.3592 39.693 21.6606H39.6929Z" fill="black"/>
<path d="M17.185 70.6024L16.9226 72.3472C17.6212 72.4358 18.4049 72.521 19.1922 72.521C19.717 72.521 20.1532 72.521 20.6745 72.4324L20.5007 70.6876C19.2774 70.7762 18.1426 70.7762 17.185 70.6024V70.6024Z" fill="black"/>
<path d="M28.0011 29.859C27.1287 30.7314 26.345 31.6038 25.5577 32.4761L26.8663 33.6109C27.6501 32.7385 28.4373 31.8662 29.3096 31.0824L28.0011 29.859Z" fill="black"/>
<path d="M11.3408 63.0092C11.3408 62.3106 11.4294 61.5269 11.5146 60.6545L9.76986 60.3921C9.68126 61.2645 9.59607 62.1368 9.59607 63.0092C9.59607 63.4454 9.59607 63.793 9.68467 64.144L11.4294 63.9702C11.426 63.7078 11.3408 63.3602 11.3408 63.0092Z" fill="black"/>
<path d="M23.813 70.0772L24.2492 71.7333C25.384 71.4709 26.5188 71.1233 27.7387 70.6871L27.1287 69.031C25.9939 69.4672 24.8625 69.8148 23.813 70.0772H23.813Z" fill="black"/>
<path d="M20.9369 37.9728L22.3341 39.019C23.0327 38.1466 23.8164 37.1856 24.515 36.3132L23.2065 35.1785C22.4193 36.1429 21.7207 37.1004 20.9369 37.9728V37.9728Z" fill="black"/>
<path d="M16.8341 43.817L18.3164 44.778C18.9264 43.817 19.625 42.8594 20.2349 41.8984L18.8411 40.8523C18.1426 41.8984 17.4473 42.8594 16.834 43.817H16.8341Z" fill="black"/>
<path d="M30.3559 67.7228L31.0544 69.2937C32.1006 68.7689 33.1467 68.2476 34.2815 67.6376L33.4091 66.0667C32.363 66.6766 31.3168 67.198 30.3558 67.7228H30.3559Z" fill="black"/>
</svg>
