<svg width="50" height="36" viewBox="0 0 50 36" fill="none" xmlns="http://www.w3.org/2000/svg">
<path fill-rule="evenodd" clip-rule="evenodd" d="M6.3048 19.7753L2.51615 24.5838H6.27863V33.8387H13.0722L13.0746 24.5838H16.8394L13.239 19.7753C9.33364 14.3902 10.2081 14.3473 6.30517 19.7753H6.3048Z" fill="#5278FF"/>
<path fill-rule="evenodd" clip-rule="evenodd" d="M51.4734 0.746391H1.85603C0.833797 0.746391 -0.000195503 1.58276 -0.000195503 2.605V10.1922C-0.000195503 11.212 0.836176 12.0484 1.85603 12.0484H21.4572V34.3445C21.4572 34.9831 22.0457 35.5049 22.7629 35.5049H43.9964C44.716 35.5049 45.3022 34.9831 45.3022 34.3445V12.0508H51.476C52.5006 12.0508 53.337 11.2145 53.337 10.1946L53.3346 2.60744C53.3346 1.58282 52.4982 0.746452 51.4736 0.746452L51.4734 0.746391ZM48.3424 6.92752C48.1995 8.43587 46.8437 9.35563 45.3019 9.47238V5.54551H40.5792V27.8105C40.4648 27.801 40.3481 27.7962 40.2313 27.7962C38.3894 27.7962 36.893 29.1306 36.893 30.7747C36.893 30.9058 36.9025 31.0368 36.9216 31.1655L29.568 31.1631C29.5871 31.0344 29.5966 30.9034 29.5966 30.7723C29.5966 29.1282 28.1026 27.7938 26.2606 27.7938H26.1796V5.54286H21.4569V9.47687C19.9295 9.36964 18.619 8.43798 18.4498 6.96538C18.252 5.18302 19.858 3.82485 21.7475 3.82485H44.9538C46.8338 3.82723 48.5137 5.12348 48.3421 6.92725L48.3424 6.92752Z" fill="#5278FF"/>
<path fill-rule="evenodd" clip-rule="evenodd" d="M36.7335 15.9586C36.7335 18.7965 35.2585 21.0959 33.4381 21.0959C31.6176 21.0959 30.1403 18.7965 30.1403 15.9586C30.1403 13.1207 31.6177 10.8212 33.4381 10.8212C35.2586 10.8212 36.7335 13.1206 36.7335 15.9586Z" fill="#5278FF"/>
</svg>
