<svg width="44" height="44" viewBox="0 0 44 44" fill="none" xmlns="http://www.w3.org/2000/svg">
<path d="M32.5546 35.1779C32.5546 37.1252 30.9462 38.6906 29.0419 38.6906H8.72917C6.78186 38.6906 5.21642 37.1252 5.21642 35.1779V14.8651C5.21642 12.9178 6.78186 11.3524 8.72917 11.3524H20.0709L23.4133 8.00993H8.68618C4.92053 8.00993 1.83105 11.0565 1.83105 14.8651V35.1778C1.83105 38.9864 4.92062 42.0329 8.68618 42.0329H28.9989C32.7645 42.0329 35.854 38.9863 35.854 35.1778V20.4938L32.5116 23.8363V35.1779L32.5546 35.1779Z" fill="#5278FF"/>
<path d="M40.9318 5.38458L38.477 2.92979C36.9958 1.44866 34.584 1.44866 33.144 2.92979L15.5405 20.535C14.8215 21.2541 14.228 22.1004 13.8478 23.0311L9.91187 32.2137C9.70028 32.7212 9.82756 33.3147 10.2078 33.6949C10.4623 33.9494 10.7995 34.0751 11.1384 34.0751C11.307 34.0751 11.4773 34.0321 11.6459 33.9478L20.8285 30.0118C21.7592 29.6316 22.6056 29.0382 23.3246 28.3191L40.9298 10.7139C42.4126 9.27907 42.4126 6.86558 40.9315 5.38436L40.9318 5.38458ZM19.7727 27.5602L15.2861 29.4645L14.3554 28.5338L16.2598 24.0472C16.3441 23.8356 16.4714 23.6241 16.5986 23.4125L20.3643 27.1781C20.2386 27.3484 20.0271 27.4757 19.7725 27.56L19.7727 27.5602Z" fill="#5278FF"/>
</svg>
