<svg width="45" height="46" viewBox="0 0 45 46" fill="none" xmlns="http://www.w3.org/2000/svg">
<path d="M25.2566 35.9915C25.5366 36.6083 26.0966 36.943 26.7135 36.943C26.9366 36.943 27.1619 36.8861 27.385 36.7746C28.225 36.383 28.5619 35.4315 28.1681 34.5915C28.1681 34.5915 25.0881 27.5343 24.5281 24.96C24.305 24.0631 24.1913 21.6569 24.1366 20.5369C24.1366 20.1454 24.3597 19.8085 24.6966 19.6969L31.5851 17.6254C32.4251 17.4022 32.9282 16.4485 32.7051 15.6085C32.482 14.7685 31.5282 14.2654 30.6882 14.4885C30.6882 14.4885 24.3054 16.56 22.0082 16.56C19.7682 16.56 13.4397 14.5431 13.4397 14.5431C12.5997 14.32 11.6481 14.7116 11.3681 15.5516C11.0881 16.4485 11.5912 17.4 12.4881 17.6231L19.3767 19.6947C19.7136 19.8062 19.9936 20.1431 19.9367 20.5347C19.8798 21.6547 19.7682 24.0631 19.5451 24.9578C18.9851 27.5347 15.9051 34.5892 15.9051 34.5892C15.5136 35.4292 15.9051 36.3808 16.6882 36.7723C16.9113 36.8839 17.1367 36.9408 17.3598 36.9408C17.9767 36.9408 18.5913 36.6039 18.8167 35.9892L22.1198 29.2715L25.2566 35.9915Z" fill="#5278FF"/>
<path d="M25.2564 11.8C25.2564 13.5325 23.852 14.9369 22.1195 14.9369C20.387 14.9369 18.9826 13.5325 18.9826 11.8C18.9826 10.0675 20.387 8.66309 22.1195 8.66309C23.852 8.66309 25.2564 10.0675 25.2564 11.8Z" fill="#5278FF"/>
<path d="M44.2391 23C44.2391 10.7914 34.3277 0.879997 22.1191 0.879997C9.91059 0.879997 -0.000854492 10.7914 -0.000854492 23C-0.000854492 35.2086 9.91059 45.12 22.1191 45.12C34.3277 45.12 44.2391 35.2086 44.2391 23ZM3.69627 23C3.69627 12.8086 11.9848 4.57712 22.1191 4.57712C32.2563 4.57712 40.542 12.8086 40.542 23C40.542 33.1914 32.3106 41.4229 22.1191 41.4229C11.9277 41.4229 3.69627 33.1914 3.69627 23Z" fill="#5278FF"/>
</svg>
