<svg width="45" height="45" viewBox="0 0 45 45" fill="none" xmlns="http://www.w3.org/2000/svg">
<path d="M42.6674 22.5C42.6674 24.75 42.3071 26.9104 41.6321 28.9791L32.5425 24.6602C32.6779 23.9852 32.7675 23.2644 32.7675 22.4998C32.7675 17.3248 29.2132 13.0039 24.4425 11.7894V1.75391C34.703 3.05994 42.6675 11.8789 42.6675 22.4998L42.6674 22.5ZM19.0424 11.7896V1.75413C8.78196 3.06017 0.817413 11.8791 0.817413 22.5C0.817413 33.1209 8.78196 41.9396 19.0424 43.2459V33.2105C14.2715 31.9958 10.7174 27.675 10.7174 22.5C10.7174 17.325 14.2717 13.0041 19.0424 11.7896ZM30.2465 29.5205C28.7612 31.2748 26.7362 32.6248 24.4424 33.1662V43.2016C30.6965 42.3913 36.0529 38.837 39.3383 33.7975L30.2465 29.5205Z" fill="#5278FF"/>
</svg>
