<svg width="435" height="725" viewBox="0 0 435 725" fill="none" xmlns="http://www.w3.org/2000/svg">
<path opacity="0.8" d="M0.0742188 484.281C0.0742188 440.625 35.4645 405.234 79.1206 405.234H205.933C249.589 405.234 284.979 440.625 284.979 484.281C284.979 527.937 249.589 563.327 205.933 563.327H79.1206C35.4644 563.327 0.0742188 527.937 0.0742188 484.281Z" fill="#FBFCFF"/>
<rect x="132" y="563" width="151" height="162" rx="75.5" fill="#DCE4FF"/>
<path d="M133.34 366.466C133.34 345.222 150.562 328 171.806 328H276.993C280.766 328 283.824 331.058 283.824 334.83C283.824 373.547 252.438 404.933 213.721 404.933H146.701C139.322 404.933 133.34 398.951 133.34 391.572V366.466Z" fill="#DCE4FF"/>
<path d="M430 366.5C430 345.237 412.763 328 391.5 328H290.836C287.061 328 284 331.061 284 334.836C284 373.587 315.413 405 354.164 405H417.037C424.196 405 430 399.196 430 392.037V366.5Z" fill="#DCE4FF"/>
<rect opacity="0.8" x="285" y="405" width="151" height="320" rx="75.5" fill="#FBFCFF"/>
<rect opacity="0.8" x="209" y="-316" width="226" height="645" rx="113" fill="white" fill-opacity="0.69"/>
</svg>
