<svg width="306" height="425" viewBox="0 0 306 425" fill="none" xmlns="http://www.w3.org/2000/svg">
<path opacity="0.8" d="M305.551 140.392C305.551 171.651 280.211 196.99 248.953 196.99L161.63 196.99C130.372 196.99 105.032 171.651 105.032 140.392C105.032 109.134 130.372 83.7943 161.63 83.7943L248.953 83.7943C280.211 83.7943 305.551 109.134 305.551 140.392Z" fill="#FBFCFF"/>
<rect x="213.377" y="83.7942" width="106.728" height="114.813" rx="53.3639" transform="rotate(-180 213.377 83.7942)" fill="#DCE4FF"/>
<path d="M211.76 226.098C211.76 241.281 199.452 253.589 184.269 253.589L111.53 253.589C108.834 253.589 106.649 251.403 106.649 248.707C106.649 221.038 129.079 198.608 156.748 198.608L202.427 198.608C207.581 198.608 211.76 202.786 211.76 207.94L211.76 226.098Z" fill="#DCE4FF"/>
<path d="M4.77234 225.29C4.77234 240.919 17.4423 253.589 33.0714 253.589L101.624 253.589C104.399 253.589 106.649 251.339 106.649 248.564C106.649 220.081 83.5589 196.991 55.0759 196.991L13.8175 196.991C8.82199 196.991 4.77234 201.04 4.77234 206.036L4.77234 225.29Z" fill="#DCE4FF"/>
<rect opacity="0.8" x="105.032" y="196.99" width="105.111" height="228.009" rx="52.5554" transform="rotate(-180 105.032 196.99)" fill="#FBFCFF"/>
<rect opacity="0.8" x="158.396" y="425" width="158.475" height="173.028" rx="79.2373" transform="rotate(-180 158.396 425)" fill="white" fill-opacity="0.69"/>
</svg>
