<svg width="109" height="51" viewBox="0 0 109 51" fill="none" xmlns="http://www.w3.org/2000/svg">
<path fill-rule="evenodd" clip-rule="evenodd" d="M2.34326 8.50269H30.5786C31.8696 8.50269 32.9219 9.57735 32.9219 10.896V39.8592C32.9219 41.1778 31.8696 42.2525 30.5786 42.2525H2.34326C1.05221 42.2525 0 41.1778 0 39.8592V10.896C0 9.58395 1.05221 8.50269 2.34326 8.50269ZM18.0812 19.0648H23.8974V16.0122H9.01801V19.0648H10.8513H14.1693H14.8342H17.4809L15.8219 19.9021L14.8342 20.4031V34.743H18.0812V19.0648Z" fill="url(#paint0_linear)"/>
<path fill-rule="evenodd" clip-rule="evenodd" d="M53.1269 19.3327H57.284V17.1504H46.6522V19.3327H50.8094V30.5409H53.1333V19.3327H53.1269ZM60.6085 26.6971C60.6085 26.0312 60.6924 25.451 60.8538 24.95C61.0152 24.4489 61.2476 24.0269 61.5445 23.6973C61.8415 23.3676 62.1965 23.1171 62.6096 22.9523C63.0228 22.7874 63.4746 22.7017 63.9782 22.7017H64.1073V20.2557C63.2358 20.2162 62.5064 20.4271 61.9383 20.8886C61.3638 21.3502 60.9184 21.9567 60.6085 22.7215V20.4469H58.3233V30.5475H60.6085V26.6971ZM67.6577 26.3147H74.9198C74.9327 26.2026 74.9392 26.0906 74.9457 25.9917C74.9521 25.8928 74.9521 25.7873 74.9521 25.6884C74.9521 24.9632 74.8553 24.2643 74.6552 23.605C74.4551 22.9391 74.1581 22.3589 73.7643 21.8644C73.3706 21.3699 72.88 20.9744 72.2861 20.6777C71.6922 20.3876 71.0015 20.2359 70.2139 20.2359C69.5039 20.2359 68.8519 20.3744 68.2645 20.6579C67.677 20.9414 67.1671 21.3172 66.741 21.7985C66.3085 22.2798 65.9793 22.8336 65.7404 23.4731C65.5016 24.1127 65.3854 24.7917 65.3854 25.517C65.3854 26.3081 65.5145 27.0268 65.7792 27.6663C66.0438 28.3124 66.3989 28.8596 66.8572 29.3212C67.3155 29.7827 67.8513 30.1387 68.4646 30.3892C69.0843 30.6464 69.7492 30.7716 70.4592 30.7716C71.3694 30.7716 72.1505 30.6002 72.809 30.2574C73.4674 29.9145 74.029 29.453 74.5002 28.8794L73.1705 27.6729C72.7702 28.0685 72.3636 28.3652 71.9504 28.5696C71.5373 28.7739 71.0531 28.8728 70.4915 28.8728C69.7556 28.8728 69.1295 28.6553 68.6195 28.2135C68.116 27.7784 67.7932 27.1389 67.6577 26.3147ZM67.6383 24.7851C67.7351 23.994 68.0127 23.3544 68.471 22.86C68.9293 22.3721 69.5039 22.1216 70.201 22.1216C70.5754 22.1216 70.9111 22.1941 71.2016 22.3325C71.4921 22.471 71.7503 22.6622 71.9569 22.8995C72.1699 23.1369 72.3377 23.4138 72.4604 23.7434C72.583 24.0665 72.6669 24.4159 72.7057 24.7851H67.6383ZM87.6754 25.4906C87.6754 24.6467 87.5463 23.9017 87.2817 23.2556C87.017 22.6028 86.6749 22.0556 86.2424 21.6007C85.8099 21.1458 85.3257 20.8095 84.777 20.5788C84.2283 20.348 83.6603 20.2359 83.0793 20.2359C82.2853 20.2359 81.6204 20.4205 81.0846 20.7832C80.5488 21.1458 80.1034 21.5941 79.7419 22.1347V20.4535H77.4568V33.6132H79.7419L79.7226 28.9849C80.0711 29.4596 80.5166 29.8684 81.0523 30.231C81.5881 30.587 82.2659 30.765 83.0728 30.765C83.6603 30.765 84.2283 30.653 84.7835 30.4222C85.3386 30.1914 85.8292 29.8486 86.2617 29.4003C86.6942 28.9454 87.0364 28.3981 87.2946 27.7454C87.5528 27.0795 87.6754 26.3345 87.6754 25.4906ZM85.3967 25.4906C85.3967 25.9851 85.3193 26.44 85.1708 26.8422C85.0223 27.2443 84.8158 27.5872 84.564 27.8641C84.3058 28.1476 84.0089 28.3586 83.6667 28.5168C83.3246 28.6684 82.9566 28.7476 82.5693 28.7476C82.182 28.7476 81.8141 28.6684 81.4655 28.5168C81.1169 28.3652 80.807 28.141 80.5488 27.8575C80.2842 27.5674 80.0776 27.2312 79.9227 26.8356C79.7677 26.44 79.6903 25.9917 79.6903 25.4972C79.6903 25.0027 79.7677 24.5544 79.9227 24.1588C80.0776 23.7632 80.2906 23.4204 80.5488 23.1369C80.8135 22.8534 81.1169 22.6292 81.4655 22.4776C81.8141 22.3259 82.182 22.2468 82.5693 22.2468C82.9566 22.2468 83.3246 22.3259 83.6667 22.4776C84.0089 22.6292 84.3122 22.8468 84.564 23.1303C84.8222 23.4138 85.0223 23.75 85.1708 24.1522C85.3193 24.5412 85.3967 24.9961 85.3967 25.4906ZM100.438 25.4906C100.438 24.6467 100.308 23.9017 100.044 23.2556C99.7791 22.6028 99.4369 22.0556 99.0044 21.6007C98.5719 21.1458 98.0878 20.8095 97.5391 20.5788C96.9904 20.348 96.4223 20.2359 95.8414 20.2359C95.0474 20.2359 94.3825 20.4205 93.8467 20.7832C93.3109 21.1458 92.8655 21.5941 92.504 22.1347V20.4535H90.2188V33.6132H92.504L92.4846 28.9849C92.8332 29.4596 93.2786 29.8684 93.8144 30.231C94.3502 30.587 95.028 30.765 95.8349 30.765C96.4223 30.765 96.9904 30.653 97.5455 30.4222C98.1007 30.1914 98.5913 29.8486 99.0238 29.4003C99.4563 28.9454 99.7984 28.3981 100.057 27.7454C100.308 27.0795 100.438 26.3345 100.438 25.4906ZM98.1523 25.4906C98.1523 25.9851 98.0749 26.44 97.9264 26.8422C97.7779 27.2443 97.5714 27.5872 97.3196 27.8641C97.0614 28.1476 96.7645 28.3586 96.4223 28.5168C96.0802 28.6684 95.7122 28.7476 95.3249 28.7476C94.9376 28.7476 94.5697 28.6684 94.2211 28.5168C93.8725 28.3652 93.5626 28.141 93.3044 27.8575C93.0398 27.5674 92.8332 27.2312 92.6783 26.8356C92.5234 26.44 92.4459 25.9917 92.4459 25.4972C92.4459 25.0027 92.5234 24.5544 92.6783 24.1588C92.8332 23.7632 93.0462 23.4204 93.3044 23.1369C93.5691 22.8534 93.8725 22.6292 94.2211 22.4776C94.5697 22.3259 94.9376 22.2468 95.3249 22.2468C95.7122 22.2468 96.0802 22.3259 96.4223 22.4776C96.7645 22.6292 97.0679 22.8468 97.3196 23.1303C97.5778 23.4138 97.7779 23.75 97.9264 24.1522C98.0749 24.5412 98.1523 24.9961 98.1523 25.4906ZM105.26 26.6971C105.26 26.0312 105.344 25.451 105.505 24.95C105.666 24.4489 105.899 24.0269 106.196 23.6973C106.493 23.3676 106.854 23.1171 107.261 22.9523C107.674 22.7874 108.126 22.7017 108.629 22.7017H108.758V20.2557C107.887 20.2162 107.157 20.4271 106.589 20.8886C106.015 21.3502 105.569 21.9567 105.26 22.7215V20.4469H102.974V30.5475H105.26V26.6971Z" fill="url(#paint1_linear)"/>
<path d="M40.0351 0.386475H39.5316V50.3684H40.0351V0.386475Z" fill="url(#paint2_linear)"/>
<defs>
<linearGradient id="paint0_linear" x1="10.9919" y1="36.0837" x2="20.5751" y2="18.092" gradientUnits="userSpaceOnUse">
<stop stop-color="#194BA0"/>
<stop offset="1" stop-color="#3469B3"/>
</linearGradient>
<linearGradient id="paint1_linear" x1="76.3805" y1="29.9612" x2="77.5333" y2="21.581" gradientUnits="userSpaceOnUse">
<stop stop-color="#194BA0"/>
<stop offset="1" stop-color="#3469B3"/>
</linearGradient>
<linearGradient id="paint2_linear" x1="39.3793" y1="25.3857" x2="40.0637" y2="25.3725" gradientUnits="userSpaceOnUse">
<stop stop-color="#194BA0"/>
<stop offset="1" stop-color="#3469B3"/>
</linearGradient>
</defs>
</svg>
