<svg width="703" height="798" viewBox="0 0 703 798" fill="none" xmlns="http://www.w3.org/2000/svg">
<g filter="url(#filter0_d)">
<path d="M24 20H725V770H24V20Z" fill="white"/>
</g>
<rect x="24" y="20" width="701" height="95" fill="#F2F5FF"/>
<rect opacity="0.7" x="350" y="176" width="375" height="594" fill="#F2F2F2" fill-opacity="0.6"/>
<path fill-rule="evenodd" clip-rule="evenodd" d="M67.8314 57.2107H89.8987C90.9077 57.2107 91.7301 58.033 91.7301 59.0421V81.2052C91.7301 82.2143 90.9077 83.0366 89.8987 83.0366H67.8314C66.8224 83.0366 66 82.2143 66 81.2052V59.0421C66 58.0381 66.8224 57.2107 67.8314 57.2107ZM80.1314 65.293H84.677V62.9571H73.048V65.293H74.4808H77.074H77.5937H79.6622L78.3656 65.9337L77.5937 66.3171V77.2902H80.1314V65.293Z" fill="url(#paint0_linear)"/>
<path fill-rule="evenodd" clip-rule="evenodd" d="M107.521 65.4981H110.77V63.8281H102.461V65.4981H105.71V74.0747H107.526V65.4981H107.521ZM113.368 71.1334C113.368 70.6239 113.434 70.1799 113.56 69.7965C113.686 69.4131 113.868 69.0902 114.1 68.8379C114.332 68.5857 114.61 68.3939 114.932 68.2678C115.255 68.1417 115.608 68.0761 116.002 68.0761H116.103V66.2044C115.422 66.1741 114.852 66.3355 114.408 66.6887C113.959 67.0419 113.611 67.506 113.368 68.0912V66.3507H111.582V74.0798H113.368V71.1334ZM118.878 70.8408H124.553C124.564 70.7551 124.569 70.6693 124.574 70.5936C124.579 70.5179 124.579 70.4372 124.579 70.3615C124.579 69.8066 124.503 69.2718 124.347 68.7673C124.19 68.2577 123.958 67.8138 123.65 67.4354C123.343 67.057 122.959 66.7543 122.495 66.5273C122.031 66.3053 121.491 66.1892 120.876 66.1892C120.321 66.1892 119.811 66.2952 119.352 66.5121C118.893 66.7291 118.494 67.0166 118.161 67.3849C117.823 67.7532 117.566 68.177 117.379 68.6664C117.193 69.1558 117.102 69.6754 117.102 70.2304C117.102 70.8358 117.203 71.3857 117.41 71.8751C117.616 72.3695 117.894 72.7882 118.252 73.1414C118.61 73.4946 119.029 73.767 119.508 73.9587C119.993 74.1555 120.512 74.2513 121.067 74.2513C121.779 74.2513 122.389 74.1201 122.904 73.8578C123.418 73.5955 123.857 73.2423 124.226 72.8034L123.186 71.8801C122.873 72.1828 122.556 72.4099 122.233 72.5663C121.91 72.7227 121.531 72.7983 121.093 72.7983C120.517 72.7983 120.028 72.6318 119.629 72.2938C119.236 71.9608 118.984 71.4715 118.878 70.8408ZM118.863 69.6704C118.938 69.0649 119.155 68.5756 119.513 68.1972C119.872 67.8239 120.321 67.6321 120.865 67.6321C121.158 67.6321 121.42 67.6876 121.647 67.7936C121.875 67.8995 122.076 68.0458 122.238 68.2275C122.404 68.4091 122.535 68.621 122.631 68.8732C122.727 69.1204 122.793 69.3878 122.823 69.6704H118.863ZM134.523 70.2102C134.523 69.5644 134.422 68.9943 134.215 68.4999C134.008 68.0004 133.741 67.5817 133.403 67.2336C133.065 66.8855 132.686 66.6282 132.257 66.4516C131.829 66.275 131.385 66.1892 130.93 66.1892C130.31 66.1892 129.79 66.3305 129.372 66.608C128.953 66.8855 128.605 67.2285 128.322 67.6422V66.3557H126.536V76.4258H128.322L128.307 72.8841C128.579 73.2473 128.928 73.5601 129.346 73.8376C129.765 74.1101 130.295 74.2463 130.925 74.2463C131.385 74.2463 131.829 74.1605 132.262 73.9839C132.696 73.8074 133.08 73.545 133.418 73.2019C133.756 72.8538 134.023 72.4351 134.225 71.9356C134.427 71.4261 134.523 70.856 134.523 70.2102ZM132.742 70.2102C132.742 70.5886 132.681 70.9367 132.565 71.2444C132.449 71.5522 132.288 71.8145 132.091 72.0264C131.889 72.2434 131.657 72.4048 131.39 72.5259C131.122 72.6419 130.835 72.7025 130.532 72.7025C130.229 72.7025 129.942 72.6419 129.669 72.5259C129.397 72.4099 129.155 72.2383 128.953 72.0214C128.746 71.7994 128.585 71.5421 128.463 71.2394C128.342 70.9367 128.282 70.5936 128.282 70.2152C128.282 69.8369 128.342 69.4938 128.463 69.1911C128.585 68.8884 128.751 68.626 128.953 68.4091C129.16 68.1921 129.397 68.0206 129.669 67.9046C129.942 67.7885 130.229 67.728 130.532 67.728C130.835 67.728 131.122 67.7885 131.39 67.9046C131.657 68.0206 131.894 68.1871 132.091 68.404C132.293 68.621 132.449 68.8783 132.565 69.186C132.681 69.4837 132.742 69.8318 132.742 70.2102ZM144.497 70.2102C144.497 69.5644 144.396 68.9943 144.189 68.4999C143.982 68.0004 143.715 67.5817 143.377 67.2336C143.039 66.8855 142.66 66.6282 142.232 66.4516C141.803 66.275 141.359 66.1892 140.905 66.1892C140.284 66.1892 139.764 66.3305 139.346 66.608C138.927 66.8855 138.579 67.2285 138.296 67.6422V66.3557H136.51V76.4258H138.296L138.281 72.8841C138.554 73.2473 138.902 73.5601 139.321 73.8376C139.739 74.1101 140.269 74.2463 140.9 74.2463C141.359 74.2463 141.803 74.1605 142.237 73.9839C142.67 73.8074 143.054 73.545 143.392 73.2019C143.73 72.8538 143.997 72.4351 144.199 71.9356C144.396 71.4261 144.497 70.856 144.497 70.2102ZM142.711 70.2102C142.711 70.5886 142.65 70.9367 142.534 71.2444C142.418 71.5522 142.257 71.8145 142.06 72.0264C141.858 72.2434 141.626 72.4048 141.359 72.5259C141.091 72.6419 140.804 72.7025 140.501 72.7025C140.198 72.7025 139.911 72.6419 139.638 72.5259C139.366 72.4099 139.124 72.2383 138.922 72.0214C138.715 71.7994 138.554 71.5421 138.433 71.2394C138.311 70.9367 138.251 70.5936 138.251 70.2152C138.251 69.8369 138.311 69.4938 138.433 69.1911C138.554 68.8884 138.72 68.626 138.922 68.4091C139.129 68.1921 139.366 68.0206 139.638 67.9046C139.911 67.7885 140.198 67.728 140.501 67.728C140.804 67.728 141.091 67.7885 141.359 67.9046C141.626 68.0206 141.863 68.1871 142.06 68.404C142.262 68.621 142.418 68.8783 142.534 69.186C142.65 69.4837 142.711 69.8318 142.711 70.2102ZM148.265 71.1334C148.265 70.6239 148.331 70.1799 148.457 69.7965C148.583 69.4131 148.765 69.0902 148.997 68.8379C149.229 68.5857 149.512 68.3939 149.829 68.2678C150.152 68.1417 150.506 68.0761 150.899 68.0761H151V66.2044C150.319 66.1741 149.749 66.3355 149.305 66.6887C148.856 67.0419 148.508 67.506 148.265 68.0912V66.3507H146.48V74.0798H148.265V71.1334Z" fill="url(#paint1_linear)"/>
<path d="M97.2893 51H96.8958V89.247H97.2893V51Z" fill="url(#paint2_linear)"/>
<rect x="376" y="281" width="285" height="13" fill="#F4F4F4"/>
<rect x="376" y="319" width="152" height="13" fill="#F4F4F4"/>
<g clip-path="url(#clip0)" filter="url(#filter1_dddddd)">
<rect width="770" height="48.3951" transform="translate(294 145)" fill="white"/>
<path d="M321.006 169.025C321.429 168.767 321.787 168.414 322.049 167.994C322.312 167.574 322.472 167.098 322.519 166.605C322.527 166.159 322.447 165.716 322.283 165.301C322.12 164.885 321.877 164.507 321.567 164.186C321.257 163.864 320.887 163.608 320.478 163.43C320.069 163.252 319.629 163.156 319.183 163.148H313.574V175.247H319.624C320.048 175.242 320.467 175.154 320.858 174.988C321.248 174.821 321.602 174.579 321.899 174.276C322.196 173.973 322.43 173.614 322.588 173.22C322.747 172.826 322.826 172.405 322.821 171.98V171.877C322.821 171.278 322.651 170.691 322.329 170.186C322.008 169.681 321.549 169.278 321.006 169.025ZM315.303 164.877H318.932C319.301 164.865 319.664 164.967 319.972 165.167C320.281 165.368 320.522 165.659 320.661 166C320.801 166.456 320.756 166.949 320.534 167.372C320.312 167.795 319.932 168.112 319.477 168.256C319.3 168.307 319.117 168.334 318.932 168.333H315.303V164.877ZM319.278 173.519H315.303V170.062H319.278C319.646 170.05 320.009 170.152 320.318 170.353C320.627 170.553 320.867 170.844 321.006 171.185C321.147 171.641 321.102 172.135 320.88 172.557C320.658 172.98 320.278 173.298 319.822 173.441C319.646 173.493 319.462 173.519 319.278 173.519Z" fill="black"/>
<path d="M359.473 166.605H361.201L359.3 175.247H357.571L359.473 166.605ZM360.924 163.148C360.753 163.148 360.586 163.199 360.444 163.294C360.302 163.389 360.191 163.524 360.126 163.682C360.061 163.84 360.043 164.013 360.077 164.181C360.11 164.349 360.192 164.503 360.313 164.623C360.434 164.744 360.588 164.827 360.756 164.86C360.923 164.893 361.097 164.876 361.255 164.811C361.413 164.745 361.548 164.635 361.643 164.493C361.738 164.35 361.789 164.183 361.789 164.012C361.789 163.783 361.698 163.563 361.535 163.401C361.373 163.239 361.154 163.148 360.924 163.148Z" fill="black"/>
<path d="M407.209 176.111V177.839H395.11V176.111H407.209ZM404.617 170.248C404.588 170.818 404.419 171.372 404.124 171.861C403.829 172.35 403.417 172.758 402.926 173.049C402.435 173.34 401.879 173.505 401.308 173.529C400.738 173.553 400.17 173.435 399.656 173.186C399.064 172.93 398.562 172.502 398.214 171.959C397.866 171.415 397.688 170.78 397.703 170.135V163.152H395.975V170.248C396.004 171.061 396.224 171.856 396.618 172.569C397.012 173.281 397.568 173.891 398.241 174.349C398.914 174.807 399.686 175.1 400.493 175.204C401.3 175.308 402.121 175.221 402.888 174.949C403.909 174.609 404.795 173.952 405.416 173.073C406.038 172.195 406.363 171.142 406.345 170.066V163.152H404.617V170.248ZM404.617 163.148H406.345H404.617ZM397.703 163.148H395.975H397.703Z" fill="black"/>
<path d="M443.983 175.247H445.711L441.39 163.148H439.662L435.341 175.247H437.069L438.279 171.79H442.686L443.983 175.247ZM438.884 170.062L440.526 165.568L442.168 170.062H438.884ZM449.946 173.951C449.946 174.207 449.87 174.458 449.727 174.671C449.585 174.884 449.382 175.05 449.145 175.148C448.909 175.246 448.648 175.272 448.396 175.222C448.145 175.172 447.914 175.049 447.733 174.867C447.551 174.686 447.428 174.455 447.378 174.203C447.328 173.952 447.354 173.691 447.452 173.455C447.55 173.218 447.716 173.015 447.929 172.873C448.142 172.73 448.393 172.654 448.649 172.654C448.993 172.654 449.323 172.791 449.566 173.034C449.809 173.277 449.946 173.607 449.946 173.951ZM449.946 170.494C449.946 170.75 449.87 171.001 449.727 171.214C449.585 171.427 449.382 171.593 449.145 171.691C448.909 171.79 448.648 171.815 448.396 171.765C448.145 171.715 447.914 171.592 447.733 171.41C447.551 171.229 447.428 170.998 447.378 170.747C447.328 170.495 447.354 170.235 447.452 169.998C447.55 169.761 447.716 169.558 447.929 169.416C448.142 169.274 448.393 169.198 448.649 169.198C448.993 169.198 449.323 169.334 449.566 169.577C449.809 169.82 449.946 170.15 449.946 170.494ZM449.946 167.037C449.946 167.293 449.87 167.544 449.727 167.757C449.585 167.97 449.382 168.137 449.145 168.235C448.909 168.333 448.648 168.358 448.396 168.308C448.145 168.258 447.914 168.135 447.733 167.954C447.551 167.772 447.428 167.541 447.378 167.29C447.328 167.038 447.354 166.778 447.452 166.541C447.55 166.304 447.716 166.102 447.929 165.959C448.142 165.817 448.393 165.741 448.649 165.741C448.993 165.741 449.323 165.877 449.566 166.12C449.809 166.364 449.946 166.693 449.946 167.037Z" fill="black"/>
<path d="M497.086 174.383H502.271V172.654H497.086V174.383ZM497.086 168.333V170.062H507.457V168.333H497.086ZM497.086 164.012V165.741H512.642V164.012H497.086Z" fill="black"/>
<path d="M543.752 174.383H548.938V172.654H543.752V174.383ZM541.16 168.333V170.062H551.53V168.333H541.16ZM538.567 164.012V165.741H554.123V164.012H538.567Z" fill="black"/>
<path d="M579.617 172.654H581.346V173.086H580.482V173.951H581.346V174.383H579.617V175.247H582.21V171.79H579.617V172.654ZM580.482 166.605H581.346V163.148H579.617V164.012H580.482V166.605ZM579.617 168.333H581.173L579.617 170.148V170.926H582.21V170.062H580.654L582.21 168.247V167.469H579.617V168.333ZM583.938 164.012V165.741H596.037V164.012H583.938ZM583.938 174.383H596.037V172.654H583.938V174.383ZM583.938 170.062H596.037V168.333H583.938V170.062Z" fill="black"/>
<path d="M625.576 163.148C624.764 163.135 623.972 163.401 623.332 163.901C622.692 164.401 622.242 165.105 622.059 165.896C621.874 166.794 622.053 167.729 622.557 168.495C623.061 169.26 623.848 169.794 624.746 169.98L624.77 169.984C625.002 170.036 625.24 170.062 625.478 170.062V175.247H627.207V164.877H628.935V175.247H630.664V164.877H632.392V163.148H625.576ZM623.718 166.605C623.718 166.147 623.9 165.707 624.224 165.383C624.548 165.059 624.988 164.877 625.446 164.877V168.333C624.988 168.333 624.548 168.151 624.224 167.827C623.9 167.503 623.718 167.063 623.718 166.605ZM636.629 173.943C636.629 174.199 636.553 174.45 636.411 174.663C636.268 174.876 636.066 175.042 635.829 175.14C635.592 175.239 635.331 175.264 635.08 175.214C634.828 175.164 634.597 175.041 634.416 174.859C634.235 174.678 634.111 174.447 634.061 174.196C634.011 173.944 634.037 173.684 634.135 173.447C634.233 173.21 634.399 173.007 634.613 172.865C634.826 172.723 635.076 172.647 635.333 172.647C635.677 172.647 636.006 172.783 636.249 173.026C636.493 173.269 636.629 173.599 636.629 173.943ZM636.629 170.486C636.629 170.742 636.553 170.993 636.411 171.206C636.268 171.419 636.066 171.586 635.829 171.684C635.592 171.782 635.331 171.807 635.08 171.757C634.828 171.707 634.597 171.584 634.416 171.403C634.235 171.221 634.111 170.99 634.061 170.739C634.011 170.487 634.037 170.227 634.135 169.99C634.233 169.753 634.399 169.551 634.613 169.408C634.826 169.266 635.076 169.19 635.333 169.19C635.677 169.19 636.006 169.326 636.249 169.569C636.493 169.812 636.629 170.142 636.629 170.486ZM636.629 167.029C636.629 167.286 636.553 167.536 636.411 167.749C636.268 167.963 636.066 168.129 635.829 168.227C635.592 168.325 635.331 168.351 635.08 168.301C634.828 168.251 634.597 168.127 634.416 167.946C634.235 167.765 634.111 167.534 634.061 167.282C634.011 167.031 634.037 166.77 634.135 166.533C634.233 166.296 634.399 166.094 634.613 165.951C634.826 165.809 635.076 165.733 635.333 165.733C635.677 165.733 636.006 165.869 636.249 166.113C636.493 166.356 636.629 166.685 636.629 167.029Z" fill="black"/>
<path d="M690.668 173.518H687.211C686.065 173.518 684.966 173.063 684.155 172.253C683.345 171.443 682.89 170.343 682.89 169.197C682.89 168.051 683.345 166.952 684.155 166.142C684.966 165.332 686.065 164.876 687.211 164.876H690.668V166.605H687.211C686.523 166.605 685.864 166.878 685.378 167.364C684.891 167.85 684.618 168.51 684.618 169.197C684.618 169.885 684.891 170.544 685.378 171.031C685.864 171.517 686.523 171.79 687.211 171.79H690.668V173.518ZM695.853 164.876H692.396V166.605H695.853C696.54 166.605 697.2 166.878 697.686 167.364C698.172 167.85 698.445 168.51 698.445 169.197C698.445 169.885 698.172 170.544 697.686 171.031C697.2 171.517 696.54 171.79 695.853 171.79H692.396V173.518H695.853C696.999 173.518 698.098 173.063 698.908 172.253C699.718 171.443 700.174 170.343 700.174 169.197C700.174 168.051 699.718 166.952 698.908 166.142C698.098 165.332 696.999 164.876 695.853 164.876ZM694.989 168.333H688.075V170.062H694.989V168.333Z" fill="black"/>
</g>
<rect x="518" y="88" width="195" height="5" fill="black" fill-opacity="0.13"/>
<rect x="518" y="88" width="59" height="5" fill="#FF8552"/>
<path d="M564.228 79V77.398H560.124L562.518 73.42C563.508 71.782 563.814 71.134 563.814 69.982C563.814 68.11 562.392 66.652 560.412 66.652C559.098 66.652 558.09 67.228 557.244 68.146V70.504C558.036 69.28 559.044 68.308 560.286 68.308C561.204 68.308 561.978 68.92 561.978 70.072C561.978 70.954 561.42 71.8 560.502 73.348L557.154 79H564.228ZM573.754 71.35C573.754 68.398 571.99 66.652 569.83 66.652C567.13 66.652 565.78 68.776 565.78 70.45C565.78 72.556 567.292 74.23 569.344 74.23C570.136 74.23 570.892 73.996 571.468 73.636C570.838 75.4 569.074 77.398 567.31 79H569.722C572.332 76.57 573.754 73.816 573.754 71.35ZM571.936 71.062C571.936 71.296 571.9 71.584 571.864 71.818C571.468 72.178 570.64 72.628 569.776 72.628C568.534 72.628 567.616 71.818 567.616 70.45C567.616 69.46 568.372 68.308 569.74 68.308C571.018 68.308 571.936 69.442 571.936 71.062ZM575.776 79V77.002H573.868V79H575.776ZM586.048 66.904H580.054L579.55 73.276C579.928 73.132 580.738 72.97 581.53 72.97C583.366 72.97 584.158 74.248 584.158 75.166C584.158 76.786 582.97 77.524 581.998 77.524C580.756 77.524 579.874 76.624 579.514 75.94L578.326 77.38C579.064 78.226 580.27 79.216 581.944 79.216C583.996 79.216 585.994 77.56 585.994 75.166C585.994 72.934 584.23 71.494 582.286 71.494C581.998 71.494 581.62 71.53 581.242 71.566L581.476 68.506H585.112L586.048 66.904ZM594.192 69.514C594.192 67.966 592.95 66.724 591.402 66.724C589.854 66.724 588.594 67.966 588.594 69.514C588.594 71.062 589.854 72.322 591.402 72.322C592.95 72.322 594.192 71.062 594.192 69.514ZM599.286 66.904H597.54L589.602 79H591.348L599.286 66.904ZM600.33 76.354C600.33 74.806 599.088 73.564 597.54 73.564C595.992 73.564 594.732 74.806 594.732 76.354C594.732 77.902 595.992 79.162 597.54 79.162C599.088 79.162 600.33 77.902 600.33 76.354ZM592.824 69.514C592.824 70.306 592.194 70.954 591.402 70.954C590.61 70.954 589.962 70.306 589.962 69.514C589.962 68.722 590.61 68.092 591.402 68.092C592.194 68.092 592.824 68.722 592.824 69.514ZM598.962 76.354C598.962 77.146 598.332 77.794 597.54 77.794C596.748 77.794 596.1 77.146 596.1 76.354C596.1 75.562 596.748 74.932 597.54 74.932C598.332 74.932 598.962 75.562 598.962 76.354Z" fill="#FF8552"/>
<path d="M612.988 73.5218V72.3778C612.174 71.9048 611.327 71.6298 610.392 71.6298C608.236 71.6298 606.465 73.2138 606.465 75.4798C606.465 77.7458 608.236 79.3298 610.392 79.3298C611.305 79.3298 612.207 79.0658 612.977 78.6038V77.4598C612.207 78.0098 611.338 78.3398 610.392 78.3398C608.83 78.3398 607.587 77.1078 607.587 75.4798C607.587 73.8518 608.83 72.6198 610.392 72.6198C611.206 72.6198 612.185 72.9938 612.988 73.5218ZM622.926 75.4798C622.926 73.2138 621.155 71.6298 618.999 71.6298C616.843 71.6298 615.072 73.2138 615.072 75.4798C615.072 77.7458 616.843 79.3298 618.999 79.3298C621.155 79.3298 622.926 77.7458 622.926 75.4798ZM621.804 75.4798C621.804 77.1078 620.561 78.3398 618.999 78.3398C617.437 78.3398 616.194 77.1078 616.194 75.4798C616.194 73.8518 617.437 72.6198 618.999 72.6198C620.561 72.6198 621.804 73.8518 621.804 75.4798ZM632.783 79.1758V71.7838H631.727L629.087 75.2048L626.447 71.7838H625.391V79.1758H626.447V73.3458L629.087 76.6898L631.727 73.3458V79.1758H632.783ZM640.265 73.9838C640.265 72.9278 639.572 71.7838 637.702 71.7838H635.469V79.1758H636.525V76.2278H637.768C639.022 76.2278 640.265 75.5128 640.265 73.9838ZM639.121 74.0058C639.121 74.8308 638.538 75.2708 637.669 75.2708H636.525V72.7408H637.625C638.78 72.7408 639.121 73.3678 639.121 74.0058ZM646.921 79.1758V78.2188H643.445V71.7838H642.389V79.1758H646.921ZM653.575 79.1758V78.2188H649.956V75.6888H652.783V74.7318H649.956V72.7408H653.575V71.7838H648.9V79.1758H653.575ZM660.926 72.7408V71.7838H655.184V72.7408H657.527V79.1758H658.583V72.7408H660.926ZM667.479 79.1758V78.2188H663.86V75.6888H666.687V74.7318H663.86V72.7408H667.479V71.7838H662.804V79.1758H667.479ZM676.135 75.4798C676.135 73.2688 674.287 71.7838 672.142 71.7838H669.799V79.1758H672.197C674.386 79.1758 676.135 77.6468 676.135 75.4798ZM675.013 75.4798C675.013 76.9758 674.001 78.2188 672.087 78.2188H670.855V72.7408H672.164C673.704 72.7408 675.013 73.8738 675.013 75.4798Z" fill="#111111" fill-opacity="0.56"/>
<rect opacity="0.6" x="379" y="377" width="427" height="256" fill="#F4F4F4"/>
<path d="M611 464C590.587 464 574 480.587 574 501C574 521.413 590.587 538 611 538C631.413 538 648 521.413 648 501C648 480.587 631.413 464 611 464ZM625.476 502.382L604.171 514.662C603.926 514.824 603.602 514.907 603.358 514.907C603.113 514.907 602.789 514.824 602.544 514.662C602.055 514.338 601.731 513.849 601.731 513.281V488.72C601.731 488.151 602.055 487.583 602.544 487.338C603.034 487.014 603.682 487.014 604.171 487.338L625.476 499.619C625.965 499.943 626.289 500.432 626.289 501.001C626.289 501.569 625.962 502.138 625.476 502.382V502.382Z" fill="white"/>
<path d="M71.121 236V225.264L69.5785 226.313V236H71.121ZM74.6769 236V234.288H73.0419V236H74.6769ZM88.861 230.817C88.861 227.717 86.2697 225.635 83.2618 225.635H79.9764V236H83.339C86.4085 236 88.861 233.856 88.861 230.817ZM87.2877 230.817C87.2877 232.915 85.8686 234.658 83.1847 234.658H81.4571V226.977H83.2927C85.4522 226.977 87.2877 228.565 87.2877 230.817ZM97.4828 236V234.658H92.4081V231.11H96.3723V229.768H92.4081V226.977H97.4828V225.635H90.9273V236H97.4828ZM106.403 226.977V225.635H98.3508V226.977H101.636V236H103.117V226.977H106.403ZM115.602 236L111.299 225.527H109.91L105.607 236H107.196L108.245 233.378H112.965L114.013 236H115.602ZM112.425 232.036H108.784L110.605 227.239L112.425 232.036ZM118.302 236V225.635H116.821V236H118.302ZM127.032 236V234.658H122.158V225.635H120.677V236H127.032ZM134.8 233.023C134.8 229.691 129.833 229.969 129.833 228.133C129.833 227.609 130.172 226.822 131.36 226.822C132.178 226.822 132.949 227.254 133.412 228.118L134.568 227.192C133.782 225.989 132.625 225.419 131.329 225.419C129.586 225.419 128.244 226.575 128.244 228.288C128.244 231.434 133.211 230.941 133.211 233.193C133.211 234.149 132.347 234.812 131.422 234.812C129.864 234.812 129.232 233.717 128.892 232.745L127.566 233.578C128.306 235.167 129.355 236.185 131.514 236.185C133.242 236.185 134.8 234.889 134.8 233.023Z" fill="#949DA9"/>
<path d="M73.2022 278V276.627H69.6854L71.7368 273.218C72.5852 271.815 72.8474 271.259 72.8474 270.272C72.8474 268.668 71.6289 267.419 69.9322 267.419C68.8061 267.419 67.9424 267.912 67.2174 268.699V270.72C67.8961 269.671 68.7599 268.838 69.8242 268.838C70.6108 268.838 71.2741 269.362 71.2741 270.349C71.2741 271.105 70.7959 271.83 70.0093 273.157L67.1403 278H73.2022ZM76.5902 278V276.288H74.9552V278H76.5902ZM92.2551 278V267.635H90.7743L87.0724 272.432L83.3705 267.635H81.8897V278H83.3705V269.825L87.0724 274.514L90.7743 269.825V278H92.2551ZM103.477 278L99.1731 267.527H97.7849L93.4814 278H95.0701L96.119 275.378H100.839L101.888 278H103.477ZM100.299 274.036H96.6589L98.479 269.239L100.299 274.036ZM112.773 278L109.318 273.095C110.351 272.678 111.153 271.815 111.153 270.504C111.153 269.285 110.259 267.635 107.868 267.635H104.906V278H106.387V273.373H107.744L110.984 278H112.773ZM109.58 270.457C109.58 271.29 109.056 272.031 107.683 272.031H106.387V268.977H107.667C108.87 268.977 109.58 269.547 109.58 270.457ZM122.485 278L116.87 272.139L121.868 267.635H119.863L115.621 271.645V267.635H114.14V278H115.621V272.74L120.464 278H122.485ZM130.17 278V276.658H125.096V273.11H129.06V271.768H125.096V268.977H130.17V267.635H123.615V278H130.17ZM139.09 268.977V267.635H131.038V268.977H134.324V278H135.805V268.977H139.09Z" fill="#949DA9"/>
<path d="M73.4336 316.715C73.4336 314.802 71.9374 313.799 70.8576 313.768L73.3564 309.635H67.2174V311.007H70.8576L68.4977 314.941C68.7445 314.91 69.238 314.864 69.5928 314.864C71.1199 314.864 71.8602 315.712 71.8602 316.715C71.8602 318.288 70.7034 318.735 69.963 318.735C68.8987 318.735 68.1583 317.918 67.8498 317.332L66.8318 318.565C67.5105 319.352 68.5131 320.185 69.9167 320.185C71.8448 320.185 73.4336 318.735 73.4336 316.715ZM76.7107 320V318.288H75.0757V320H76.7107ZM88.5657 320V318.658H83.491V315.11H87.4551V313.768H83.491V310.977H88.5657V309.635H82.0102V320H88.5657ZM99.0279 320L95.1563 314.555L98.6577 309.635H96.8684L94.2617 313.46L91.6549 309.635H89.8656L93.367 314.555L89.4954 320H91.3001L94.2617 315.681L97.2232 320H99.0279ZM107.259 320V318.658H102.184V315.11H106.149V313.768H102.184V310.977H107.259V309.635H100.704V320H107.259ZM117.42 312.072V310.468C116.279 309.804 115.091 309.419 113.78 309.419C110.757 309.419 108.273 311.64 108.273 314.817C108.273 317.995 110.757 320.216 113.78 320.216C115.06 320.216 116.325 319.846 117.405 319.198V317.594C116.325 318.365 115.106 318.828 113.78 318.828C111.59 318.828 109.847 317.1 109.847 314.817C109.847 312.534 111.59 310.807 113.78 310.807C114.921 310.807 116.294 311.331 117.42 312.072ZM128.439 315.573V309.635H126.958V315.635C126.958 318.103 125.077 318.828 123.812 318.828C122.547 318.828 120.665 318.103 120.665 315.635V309.635H119.184V315.573C119.184 318.766 121.606 320.216 123.812 320.216C126.018 320.216 128.439 318.766 128.439 315.573ZM137.795 310.977V309.635H129.743V310.977H133.028V320H134.509V310.977H137.795ZM140.671 320V309.635H139.19V320H140.671ZM153.751 314.817C153.751 311.64 151.268 309.419 148.244 309.419C145.221 309.419 142.738 311.64 142.738 314.817C142.738 317.995 145.221 320.216 148.244 320.216C151.268 320.216 153.751 317.995 153.751 314.817ZM152.178 314.817C152.178 317.1 150.435 318.828 148.244 318.828C146.054 318.828 144.311 317.1 144.311 314.817C144.311 312.534 146.054 310.807 148.244 310.807C150.435 310.807 152.178 312.534 152.178 314.817ZM165.26 320V309.635H163.779V317.794L157.301 309.635H155.82V320H157.301V311.84L163.779 320H165.26ZM174.711 320V309.264L173.169 310.313V320H174.711ZM183.856 314.802C183.856 312.303 182.792 309.419 180.432 309.419C178.072 309.419 177.008 312.303 177.008 314.802C177.008 317.301 178.072 320.185 180.432 320.185C182.792 320.185 183.856 317.301 183.856 314.802ZM182.283 314.802C182.283 317.27 181.481 318.766 180.432 318.766C179.383 318.766 178.581 317.27 178.581 314.802C178.581 312.334 179.383 310.838 180.432 310.838C181.481 310.838 182.283 312.334 182.283 314.802ZM187.696 320V309.264L186.153 310.313V320H187.696Z" fill="#FF8552"/>
<path d="M74.6058 359.254V358.02H72.8629V351.419L66.0605 359.254H71.3204V362H72.8629V359.254H74.6058ZM71.3204 358.02H68.6519L71.3204 354.951V358.02ZM77.1174 362V360.288H75.4824V362H77.1174ZM89.2038 359.023C89.2038 355.691 84.237 355.969 84.237 354.133C84.237 353.609 84.5764 352.822 85.7641 352.822C86.5816 352.822 87.3528 353.254 87.8156 354.118L88.9724 353.192C88.1858 351.989 87.0289 351.419 85.7332 351.419C83.9902 351.419 82.6483 352.575 82.6483 354.288C82.6483 357.434 87.615 356.941 87.615 359.193C87.615 360.149 86.7513 360.812 85.8258 360.812C84.2679 360.812 83.6355 359.717 83.2961 358.745L81.9696 359.578C82.71 361.167 83.7589 362.185 85.9183 362.185C87.6459 362.185 89.2038 360.889 89.2038 359.023ZM97.6963 352.977V351.635H89.6446V352.977H92.9301V362H94.4108V352.977H97.6963ZM106.896 362L102.592 351.527H101.204L96.9007 362H98.4895L99.5384 359.378H104.258L105.307 362H106.896ZM103.718 358.036H100.078L101.898 353.239L103.718 358.036ZM116.192 362L112.737 357.095C113.771 356.678 114.573 355.815 114.573 354.504C114.573 353.285 113.678 351.635 111.287 351.635H108.326V362H109.806V357.373H111.164L114.403 362H116.192ZM112.999 354.457C112.999 355.29 112.475 356.031 111.102 356.031H109.806V352.977H111.087C112.29 352.977 112.999 353.547 112.999 354.457ZM123.56 352.977V351.635H115.508V352.977H118.794V362H120.274V352.977H123.56ZM134.118 357.573V351.635H132.637V357.635C132.637 360.103 130.755 360.828 129.491 360.828C128.226 360.828 126.344 360.103 126.344 357.635V351.635H124.863V357.573C124.863 360.766 127.285 362.216 129.491 362.216C131.696 362.216 134.118 360.766 134.118 357.573ZM143.144 354.72C143.144 353.239 142.172 351.635 139.55 351.635H136.419V362H137.899V357.866H139.642C141.401 357.866 143.144 356.864 143.144 354.72ZM141.54 354.75C141.54 355.907 140.722 356.524 139.503 356.524H137.899V352.977H139.442C141.061 352.977 141.54 353.856 141.54 354.75ZM156.72 354.072V352.468C155.579 351.804 154.391 351.419 153.08 351.419C150.057 351.419 147.573 353.64 147.573 356.817C147.573 359.995 150.057 362.216 153.08 362.216C154.36 362.216 155.625 361.846 156.705 361.198V359.594C155.625 360.365 154.406 360.828 153.08 360.828C150.889 360.828 149.146 359.1 149.146 356.817C149.146 354.534 150.889 352.807 153.08 352.807C154.221 352.807 155.594 353.331 156.72 354.072ZM169.266 356.817C169.266 353.64 166.783 351.419 163.76 351.419C160.736 351.419 158.253 353.64 158.253 356.817C158.253 359.995 160.736 362.216 163.76 362.216C166.783 362.216 169.266 359.995 169.266 356.817ZM167.693 356.817C167.693 359.1 165.95 360.828 163.76 360.828C161.569 360.828 159.826 359.1 159.826 356.817C159.826 354.534 161.569 352.807 163.76 352.807C165.95 352.807 167.693 354.534 167.693 356.817ZM177.745 359.023C177.745 355.691 172.779 355.969 172.779 354.133C172.779 353.609 173.118 352.822 174.306 352.822C175.123 352.822 175.894 353.254 176.357 354.118L177.514 353.192C176.727 351.989 175.57 351.419 174.275 351.419C172.532 351.419 171.19 352.575 171.19 354.288C171.19 357.434 176.157 356.941 176.157 359.193C176.157 360.149 175.293 360.812 174.367 360.812C172.809 360.812 172.177 359.717 171.838 358.745L170.511 359.578C171.252 361.167 172.3 362.185 174.46 362.185C176.187 362.185 177.745 360.889 177.745 359.023ZM186.238 352.977V351.635H178.186V352.977H181.472V362H182.952V352.977H186.238Z" fill="#949DA9"/>
<path d="M73.4027 393.635H68.2663L67.8344 399.095C68.1583 398.972 68.8524 398.833 69.5311 398.833C71.1044 398.833 71.7831 399.928 71.7831 400.715C71.7831 402.103 70.7651 402.735 69.9322 402.735C68.8678 402.735 68.112 401.964 67.8035 401.378L66.7855 402.612C67.4179 403.337 68.4514 404.185 69.8859 404.185C71.6443 404.185 73.3564 402.766 73.3564 400.715C73.3564 398.802 71.8448 397.568 70.179 397.568C69.9322 397.568 69.6082 397.599 69.2843 397.63L69.4848 395.007H72.6006L73.4027 393.635ZM76.7258 404V402.288H75.0908V404H76.7258ZM88.7504 396.72C88.7504 395.239 87.7787 393.635 85.1565 393.635H82.0253V404H83.506V399.866H85.249C87.0075 399.866 88.7504 398.864 88.7504 396.72ZM87.1463 396.75C87.1463 397.907 86.3288 398.524 85.1102 398.524H83.506V394.977H85.0485C86.6681 394.977 87.1463 395.856 87.1463 396.75ZM96.8957 404V402.658H91.8209V399.11H95.7851V397.768H91.8209V394.977H96.8957V393.635H90.3402V404H96.8957ZM106.627 404L103.172 399.095C104.205 398.678 105.008 397.815 105.008 396.504C105.008 395.285 104.113 393.635 101.722 393.635H98.7605V404H100.241V399.373H101.599L104.838 404H106.627ZM103.434 396.457C103.434 397.29 102.91 398.031 101.537 398.031H100.241V394.977H101.522C102.725 394.977 103.434 395.547 103.434 396.457ZM114.349 394.977V393.635H107.994V404H109.475V399.11H113.239V397.768H109.475V394.977H114.349ZM125.839 398.817C125.839 395.64 123.356 393.419 120.332 393.419C117.309 393.419 114.826 395.64 114.826 398.817C114.826 401.995 117.309 404.216 120.332 404.216C123.356 404.216 125.839 401.995 125.839 398.817ZM124.266 398.817C124.266 401.1 122.523 402.828 120.332 402.828C118.142 402.828 116.399 401.1 116.399 398.817C116.399 396.534 118.142 394.807 120.332 394.807C122.523 394.807 124.266 396.534 124.266 398.817ZM135.88 404L132.425 399.095C133.458 398.678 134.26 397.815 134.26 396.504C134.26 395.285 133.366 393.635 130.975 393.635H128.013V404H129.494V399.373H130.851L134.091 404H135.88ZM132.687 396.457C132.687 397.29 132.163 398.031 130.79 398.031H129.494V394.977H130.774C131.977 394.977 132.687 395.547 132.687 396.457ZM147.612 404V393.635H146.132L142.43 398.432L138.728 393.635H137.247V404H138.728V395.825L142.43 400.514L146.132 395.825V404H147.612ZM158.834 404L154.53 393.527H153.142L148.839 404H150.427L151.476 401.378H156.196L157.245 404H158.834ZM155.656 400.036H152.016L153.836 395.239L155.656 400.036ZM169.493 404V393.635H168.012V401.794L161.533 393.635H160.053V404H161.533V395.84L168.012 404H169.493ZM180.701 396.072V394.468C179.559 393.804 178.372 393.419 177.06 393.419C174.037 393.419 171.554 395.64 171.554 398.817C171.554 401.995 174.037 404.216 177.06 404.216C178.341 404.216 179.605 403.846 180.685 403.198V401.594C179.605 402.365 178.387 402.828 177.06 402.828C174.87 402.828 173.127 401.1 173.127 398.817C173.127 396.534 174.87 394.807 177.06 394.807C178.202 394.807 179.575 395.331 180.701 396.072ZM189.339 404V402.658H184.264V399.11H188.228V397.768H184.264V394.977H189.339V393.635H182.783V404H189.339Z" fill="#949DA9"/>
<defs>
<filter id="filter0_d" x="0" y="0" width="749" height="798" filterUnits="userSpaceOnUse" color-interpolation-filters="sRGB">
<feFlood flood-opacity="0" result="BackgroundImageFix"/>
<feColorMatrix in="SourceAlpha" type="matrix" values="0 0 0 0 0 0 0 0 0 0 0 0 0 0 0 0 0 0 127 0" result="hardAlpha"/>
<feOffset dy="4"/>
<feGaussianBlur stdDeviation="12"/>
<feComposite in2="hardAlpha" operator="out"/>
<feColorMatrix type="matrix" values="0 0 0 0 0 0 0 0 0 0 0 0 0 0 0 0 0 0 0.05 0"/>
<feBlend mode="normal" in2="BackgroundImageFix" result="effect1_dropShadow"/>
<feBlend mode="normal" in="SourceGraphic" in2="effect1_dropShadow" result="shape"/>
</filter>
<filter id="filter1_dddddd" x="253.976" y="145" width="850.048" height="138.449" filterUnits="userSpaceOnUse" color-interpolation-filters="sRGB">
<feFlood flood-opacity="0" result="BackgroundImageFix"/>
<feColorMatrix in="SourceAlpha" type="matrix" values="0 0 0 0 0 0 0 0 0 0 0 0 0 0 0 0 0 0 127 0" result="hardAlpha"/>
<feOffset dy="1.38446"/>
<feGaussianBlur stdDeviation="0.553783"/>
<feColorMatrix type="matrix" values="0 0 0 0 0 0 0 0 0 0 0 0 0 0 0 0 0 0 0.0196802 0"/>
<feBlend mode="normal" in2="BackgroundImageFix" result="effect1_dropShadow"/>
<feColorMatrix in="SourceAlpha" type="matrix" values="0 0 0 0 0 0 0 0 0 0 0 0 0 0 0 0 0 0 127 0" result="hardAlpha"/>
<feOffset dy="3.32705"/>
<feGaussianBlur stdDeviation="1.33082"/>
<feColorMatrix type="matrix" values="0 0 0 0 0 0 0 0 0 0 0 0 0 0 0 0 0 0 0.0282725 0"/>
<feBlend mode="normal" in2="effect1_dropShadow" result="effect2_dropShadow"/>
<feColorMatrix in="SourceAlpha" type="matrix" values="0 0 0 0 0 0 0 0 0 0 0 0 0 0 0 0 0 0 127 0" result="hardAlpha"/>
<feOffset dy="6.26453"/>
<feGaussianBlur stdDeviation="2.50581"/>
<feColorMatrix type="matrix" values="0 0 0 0 0 0 0 0 0 0 0 0 0 0 0 0 0 0 0.035 0"/>
<feBlend mode="normal" in2="effect2_dropShadow" result="effect3_dropShadow"/>
<feColorMatrix in="SourceAlpha" type="matrix" values="0 0 0 0 0 0 0 0 0 0 0 0 0 0 0 0 0 0 127 0" result="hardAlpha"/>
<feOffset dy="11.1749"/>
<feGaussianBlur stdDeviation="4.46994"/>
<feColorMatrix type="matrix" values="0 0 0 0 0 0 0 0 0 0 0 0 0 0 0 0 0 0 0.0417275 0"/>
<feBlend mode="normal" in2="effect3_dropShadow" result="effect4_dropShadow"/>
<feColorMatrix in="SourceAlpha" type="matrix" values="0 0 0 0 0 0 0 0 0 0 0 0 0 0 0 0 0 0 127 0" result="hardAlpha"/>
<feOffset dy="20.9013"/>
<feGaussianBlur stdDeviation="8.36054"/>
<feColorMatrix type="matrix" values="0 0 0 0 0 0 0 0 0 0 0 0 0 0 0 0 0 0 0.0503198 0"/>
<feBlend mode="normal" in2="effect4_dropShadow" result="effect5_dropShadow"/>
<feColorMatrix in="SourceAlpha" type="matrix" values="0 0 0 0 0 0 0 0 0 0 0 0 0 0 0 0 0 0 127 0" result="hardAlpha"/>
<feOffset dy="50.03"/>
<feGaussianBlur stdDeviation="20.012"/>
<feColorMatrix type="matrix" values="0 0 0 0 0 0 0 0 0 0 0 0 0 0 0 0 0 0 0.07 0"/>
<feBlend mode="normal" in2="effect5_dropShadow" result="effect6_dropShadow"/>
<feBlend mode="normal" in="SourceGraphic" in2="effect6_dropShadow" result="shape"/>
</filter>
<linearGradient id="paint0_linear" x1="74.5907" y1="78.3161" x2="81.8369" y2="64.4216" gradientUnits="userSpaceOnUse">
<stop stop-color="#194BA0"/>
<stop offset="1" stop-color="#3469B3"/>
</linearGradient>
<linearGradient id="paint1_linear" x1="125.695" y1="73.6312" x2="126.559" y2="67.2135" gradientUnits="userSpaceOnUse">
<stop stop-color="#194BA0"/>
<stop offset="1" stop-color="#3469B3"/>
</linearGradient>
<linearGradient id="paint2_linear" x1="96.7767" y1="70.1298" x2="97.3116" y2="70.1192" gradientUnits="userSpaceOnUse">
<stop stop-color="#194BA0"/>
<stop offset="1" stop-color="#3469B3"/>
</linearGradient>
<clipPath id="clip0">
<rect width="770" height="48.3951" fill="white" transform="translate(294 145)"/>
</clipPath>
</defs>
</svg>
