<svg width="61" height="22" viewBox="0 0 61 22" fill="none" xmlns="http://www.w3.org/2000/svg">
<path d="M5.40625 5.19614H7.52158L6.46391 2.50391L5.40625 5.19614Z" fill="#A6A6A6"/>
<path d="M31.6571 2.88521C31.4648 2.78906 31.1763 2.78906 30.8879 2.78906H28.9648V4.32748H30.8879C31.1763 4.32748 31.4648 4.32748 31.6571 4.23133C31.8494 4.13518 31.9455 3.84673 31.9455 3.55827C32.0417 3.17367 31.8494 2.98136 31.6571 2.88521Z" fill="#A6A6A6"/>
<path d="M52.2327 0V1.15382L51.6558 0H47.1367V1.15382L46.5598 0H40.4061C39.3484 0 38.4831 0.192303 37.7138 0.576908V0H33.387V0.576908C32.9063 0.192303 32.3294 0 31.5602 0H16.0798L15.0221 2.40378L13.9645 0H9.06076V1.15382L8.48385 0H4.34935L2.42632 4.51911L0.214844 9.51898H2.42632H5.11856L5.69547 7.98056H7.04158L7.61849 9.51898H13.1953V8.36516L13.676 9.51898H16.4644L16.9452 8.36516V9.51898H30.3102V7.01904H30.5025C30.6948 7.01904 30.6948 7.01904 30.6948 7.3075V9.42283H37.6177V8.84592C38.1946 9.13437 39.06 9.42283 40.2138 9.42283H43.0983L43.6752 7.88441H45.0213L45.5983 9.42283H51.175V7.98056L52.0404 9.42283H56.5595V0H52.2327ZM19.7336 8.07671H18.099V2.78839L15.7914 8.07671H14.3491L12.0415 2.78839V8.07671H8.77231L8.09925 6.63444H4.83011L4.2532 8.17286H2.42632L5.31086 1.34612H7.71464L10.4069 7.78825V1.34612H13.003L15.1183 5.96138L17.0413 1.34612H19.7336V8.07671ZM26.2718 2.78839H22.5219V4.03835H26.1757V5.38447H22.5219V6.73059H26.2718V8.17286H20.8874V1.34612H26.2718V2.78839ZM33.4832 5.57678C33.6755 5.96138 33.7716 6.24983 33.7716 6.82674V8.17286H32.1371V7.3075C32.1371 6.92289 32.1371 6.34599 31.8486 5.96138C31.5602 5.67293 31.2717 5.67293 30.6948 5.67293H28.9641V8.17286H27.3295V1.34612H30.9833C31.8486 1.34612 32.4255 1.34612 32.9063 1.63457C33.387 1.92303 33.6755 2.40378 33.6755 3.17299C33.6755 4.23066 33.0024 4.80757 32.5217 4.99987C33.0024 5.09602 33.2909 5.38447 33.4832 5.57678ZM36.3677 8.07671H34.7332V1.24997H36.3677V8.07671ZM55.3095 8.07671H53.0019L49.9251 2.98069V8.07671H46.6559L46.079 6.63444H42.7137L42.1368 8.17286H40.3099C39.5407 8.17286 38.5792 7.98056 38.0023 7.40365C37.4254 6.82674 37.1369 6.05753 37.1369 4.80756C37.1369 3.84605 37.3292 2.88454 38.0023 2.11533C38.4831 1.53842 39.3484 1.34612 40.4061 1.34612H41.9445V2.78839H40.4061C39.8292 2.78839 39.5407 2.88454 39.1561 3.17299C38.8677 3.46145 38.6754 4.03836 38.6754 4.71141C38.6754 5.48062 38.7715 5.96138 39.1561 6.34599C39.4446 6.63444 39.8292 6.73059 40.3099 6.73059H40.983L43.1945 1.44227H45.5983L48.2905 7.88441V1.44227H50.6943L53.4827 6.15368V1.44227H55.1172V8.07671H55.3095Z" fill="#A6A6A6"/>
<path d="M43.291 5.19224H45.5025L44.4448 2.5L43.291 5.19224Z" fill="#A6A6A6"/>
<path d="M26.9452 19.0392V13.5586L24.4453 16.2508L26.9452 19.0392Z" fill="#A6A6A6"/>
<path d="M16.6562 14.2305V15.4804H20.2138V16.8266H16.6562V18.2688H20.5985L22.4253 16.2496L20.6946 14.2305H16.6562Z" fill="#A6A6A6"/>
<path d="M30.5993 14.2305H28.5801V15.9612H30.6954C31.2723 15.9612 31.6569 15.6727 31.6569 15.0958C31.5608 14.5189 31.1762 14.2305 30.5993 14.2305Z" fill="#A6A6A6"/>
<path d="M60.3096 15.862V11.5352H59.1558H56.2713C55.4059 11.5352 54.7328 11.7275 54.2521 12.1121V11.5352H49.8291C49.1561 11.5352 48.2907 11.7275 47.9061 12.1121V11.5352H40.1178V12.1121C39.5409 11.6313 38.4833 11.5352 38.0025 11.5352H32.8103V12.1121C32.3296 11.6313 31.1758 11.5352 30.5989 11.5352H24.8298L23.4837 12.9774L22.2337 11.5352H13.5801V20.958H22.0414L23.3875 19.5157L24.6375 20.958H29.8296V18.7465H30.5027C31.1758 18.7465 32.0411 18.7465 32.7142 18.458V21.0541H37.041V18.5542H37.2333C37.5217 18.5542 37.5217 18.5542 37.5217 18.8427V21.0541H50.5983C51.4637 21.0541 52.329 20.8618 52.8098 20.4772V21.0541H56.9443C57.8097 21.0541 58.675 20.958 59.2519 20.5734C60.2135 19.9965 60.7904 18.9388 60.7904 17.6888C60.7904 17.0158 60.5981 16.3427 60.3096 15.862ZM30.5027 17.4004H28.5797V19.708H25.5028L23.5798 17.4965L21.5606 19.708H15.2147V12.8813H21.6568L23.5798 15.0928L25.599 12.8813H30.695C31.945 12.8813 33.3872 13.2659 33.3872 15.0928C33.2911 17.0158 31.945 17.4004 30.5027 17.4004ZM40.1178 17.0158C40.3101 17.3042 40.4063 17.6888 40.4063 18.2657V19.6119H38.7717V18.7465C38.7717 18.3619 38.7717 17.6888 38.4833 17.4004C38.291 17.1119 37.9064 17.1119 37.3294 17.1119H35.5987V19.6119H33.9641V12.7851H37.6179C38.3871 12.7851 39.0602 12.7851 39.5409 13.0736C40.0217 13.362 40.4063 13.8428 40.4063 14.612C40.4063 15.6697 39.7332 16.2466 39.2525 16.4389C39.7332 16.6312 40.0217 16.8235 40.1178 17.0158ZM46.7523 14.2274H43.0024V15.4774H46.6561V16.8235H43.0024V18.1696H46.7523V19.6119H41.3678V12.7851H46.7523V14.2274ZM50.7906 19.6119H47.7138V18.1696H50.7906C51.0791 18.1696 51.2714 18.1696 51.4637 17.9773C51.5598 17.8811 51.656 17.6888 51.656 17.4965C51.656 17.3042 51.5598 17.1119 51.4637 17.0158C51.3675 16.9196 51.1752 16.8235 50.8868 16.8235C49.3484 16.7273 47.5215 16.8235 47.5215 14.7081C47.5215 13.7466 48.0984 12.689 49.8291 12.689H53.0021V14.3235H50.0214C49.733 14.3235 49.5407 14.3235 49.3484 14.4197C49.1561 14.5158 49.1561 14.7081 49.1561 14.9005C49.1561 15.1889 49.3484 15.2851 49.5407 15.3812C49.733 15.4774 49.9253 15.4774 50.1176 15.4774H50.9829C51.8483 15.4774 52.4252 15.6697 52.8098 16.0543C53.0983 16.3427 53.2906 16.8235 53.2906 17.4965C53.2906 18.9388 52.4252 19.6119 50.7906 19.6119ZM59.0596 18.9388C58.675 19.3234 58.002 19.6119 57.0405 19.6119H53.9636V18.1696H57.0405C57.3289 18.1696 57.5212 18.1696 57.7135 17.9773C57.8097 17.8811 57.9058 17.6888 57.9058 17.4965C57.9058 17.3042 57.8097 17.1119 57.7135 17.0158C57.6174 16.9196 57.4251 16.8235 57.1366 16.8235C55.5982 16.7273 53.7713 16.8235 53.7713 14.7081C53.7713 13.7466 54.3482 12.689 56.0789 12.689H59.2519V14.3235H56.3674C56.0789 14.3235 55.8866 14.3235 55.6943 14.4197C55.502 14.5158 55.502 14.7081 55.502 14.9005C55.502 15.1889 55.5982 15.2851 55.8866 15.3812C56.0789 15.4774 56.2712 15.4774 56.4636 15.4774H57.3289C58.1943 15.4774 58.7712 15.6697 59.1558 16.0543C59.2519 16.0543 59.2519 16.1504 59.2519 16.1504C59.5404 16.535 59.6365 17.0158 59.6365 17.4965C59.6365 18.0734 59.4442 18.5542 59.0596 18.9388Z" fill="#A6A6A6"/>
<path d="M38.3875 14.4204C38.1952 14.3242 37.9068 14.3242 37.6183 14.3242H35.6953V15.8626H37.6183C37.9068 15.8626 38.1952 15.8626 38.3875 15.7665C38.5799 15.6703 38.676 15.3819 38.676 15.0934C38.7722 14.7088 38.5799 14.5165 38.3875 14.4204Z" fill="#A6A6A6"/>
<path d="M31.6571 2.88131C31.4648 2.78515 31.1763 2.78516 30.8879 2.78516H28.9648V4.32358H30.8879C31.1763 4.32358 31.4648 4.32358 31.6571 4.22743C31.8494 4.13127 31.9455 3.84282 31.9455 3.55437C32.0417 3.16976 31.8494 2.97746 31.6571 2.88131Z" fill="#A6A6A6"/>
<path d="M43.291 5.19224H45.5025L44.4448 2.5L43.291 5.19224Z" fill="#A6A6A6"/>
<path d="M26.9452 19.0392V13.5586L24.4453 16.2508L26.9452 19.0392Z" fill="#A6A6A6"/>
<path d="M30.5993 14.2305H28.5801V15.9612H30.6954C31.2723 15.9612 31.6569 15.6727 31.6569 15.0958C31.5608 14.5189 31.1762 14.2305 30.5993 14.2305Z" fill="#A6A6A6"/>
<path d="M38.3875 14.4243C38.1952 14.3281 37.9068 14.3281 37.6183 14.3281H35.6953V15.8665H37.6183C37.9068 15.8665 38.1952 15.8665 38.3875 15.7704C38.5799 15.6742 38.676 15.3858 38.676 15.0973C38.7722 14.7127 38.5799 14.5204 38.3875 14.4243Z" fill="#A6A6A6"/>
<path d="M29.9258 19.4196L28.5797 17.9773V19.6119H25.4067L23.4837 17.4004L21.3683 19.6119H15.0223V12.8813H21.4645L23.4837 15.0928L24.4452 13.9389L22.0414 11.5352H13.5801V20.958H22.0414L23.4837 19.5157L24.7336 20.958H29.9258V19.4196Z" fill="#A6A6A6"/>
<path d="M19.9259 9.42283L18.6759 8.07671H18.099V7.4998L16.6567 6.05753L15.6952 8.07671H14.3491L12.0415 2.78839V8.07671H8.77231L8.09925 6.63444H4.83011L4.15705 8.07671H2.42632L5.31086 1.34612H7.71464L10.4069 7.78826V1.34612H11.8491L10.503 0H9.06076V1.15382L8.58001 0H4.34935L2.42632 4.51911L0.214844 9.42283H2.42632H5.21471L5.79162 7.98056H7.13774L7.8108 9.42283H13.1953V8.26901L13.676 9.42283H16.4644L16.9452 8.26901V9.42283H19.9259Z" fill="#A6A6A6"/>
<path d="M15.5033 4.99936L13.9648 3.46094L15.1187 5.96087L15.5033 4.99936Z" fill="#A6A6A6"/>
<path d="M59.2517 20.4844C60.1171 19.9075 60.694 18.946 60.7901 17.8883L59.444 16.5422C59.5401 16.8307 59.6363 17.1191 59.6363 17.5037C59.6363 18.0806 59.444 18.5614 59.0594 18.946C58.6748 19.3306 58.0017 19.6191 57.0402 19.6191H53.9634V18.1768H57.0402C57.3287 18.1768 57.521 18.1768 57.7133 17.9845C57.8094 17.8883 57.9056 17.696 57.9056 17.5037C57.9056 17.3114 57.8094 17.1191 57.7133 17.023C57.6171 16.9268 57.4248 16.8307 57.1364 16.8307C55.5979 16.7345 53.7711 16.8307 53.7711 14.7154C53.7711 13.7538 54.348 12.8885 55.7902 12.6962L54.7326 11.6385C54.5403 11.7347 54.4441 11.8308 54.348 11.8308V11.2539H49.925C49.252 11.2539 48.3866 11.4462 48.002 11.8308V11.2539H40.1176V11.8308C39.5407 11.3501 38.483 11.2539 38.0023 11.2539H32.8101V11.8308C32.3293 11.3501 31.1755 11.2539 30.5986 11.2539H24.8295L23.4834 12.6962L22.2334 11.2539H21.1758L24.0603 14.1384L25.5026 12.6H30.5986C31.8486 12.6 33.2908 12.9846 33.2908 14.8115C33.2908 16.7345 31.9447 17.1191 30.5025 17.1191H28.5794V18.5614L30.0217 20.0037V18.5614H30.5025C31.1755 18.5614 32.0409 18.5614 32.7139 18.2729V20.869H37.0407V18.3691H37.233C37.5215 18.3691 37.5215 18.3691 37.5215 18.6576V20.869H50.5981C51.4634 20.869 52.3288 20.6767 52.8096 20.2921V20.869H56.9441C57.7133 20.9652 58.5786 20.869 59.2517 20.4844ZM40.1176 17.023C40.3099 17.3114 40.406 17.696 40.406 18.2729V19.6191H38.7715V18.7537C38.7715 18.3691 38.7715 17.696 38.483 17.4076C38.2907 17.1191 37.9061 17.1191 37.3292 17.1191H35.5985V19.6191H33.9639V12.7923H37.6177C38.3869 12.7923 39.0599 12.7923 39.5407 13.0808C40.0214 13.3692 40.406 13.85 40.406 14.6192C40.406 15.6769 39.733 16.2538 39.2522 16.4461C39.733 16.6384 40.0214 16.8307 40.1176 17.023ZM46.752 14.2346H43.0021V15.4846H46.6559V16.8307H43.0021V18.1768H46.752V19.6191H41.3676V12.7923H46.752V14.2346ZM50.7904 19.6191H47.7135V18.1768H50.7904C51.0788 18.1768 51.2711 18.1768 51.4634 17.9845C51.5596 17.8883 51.6557 17.696 51.6557 17.5037C51.6557 17.3114 51.5596 17.1191 51.4634 17.023C51.3673 16.9268 51.175 16.8307 50.8865 16.8307C49.3481 16.7345 47.5212 16.8307 47.5212 14.7154C47.5212 13.7538 48.0981 12.6962 49.8289 12.6962H53.0019V14.3307H50.0212C49.7327 14.3307 49.5404 14.3307 49.3481 14.4269C49.1558 14.523 49.1558 14.7154 49.1558 14.9077C49.1558 15.1961 49.3481 15.2923 49.5404 15.3884C49.7327 15.4846 49.925 15.4846 50.1173 15.4846H50.9827C51.848 15.4846 52.425 15.6769 52.8096 16.0615C53.098 16.3499 53.2903 16.8307 53.2903 17.5037C53.2903 18.946 52.4249 19.6191 50.7904 19.6191Z" fill="#A6A6A6"/>
<path d="M55.4062 14.905C55.4062 15.1935 55.5024 15.2896 55.7909 15.3858C55.9832 15.4819 56.1755 15.4819 56.3678 15.4819H57.2331C57.81 15.4819 58.1946 15.5781 58.5792 15.7704L57.137 14.3281H56.2716C55.9832 14.3281 55.7909 14.3281 55.5985 14.4243C55.5024 14.5204 55.4062 14.7127 55.4062 14.905Z" fill="#A6A6A6"/>
<path d="M52.041 9.13672L52.2333 9.42517H52.3295L52.041 9.13672Z" fill="#A6A6A6"/>
<path d="M46.752 3.84766L48.3865 7.78986V5.48223L46.752 3.84766Z" fill="#A6A6A6"/>
<path d="M30.3107 7.02055H30.5031C30.6954 7.02055 30.6954 7.02055 30.6954 7.309V9.42433H37.6182V8.84742C38.1952 9.13588 39.0605 9.42433 40.2143 9.42433H43.0989L43.6758 7.88591H45.0219L45.5988 9.42433H51.1756V8.46282L49.8295 7.1167V8.17436H46.5603L46.0796 6.63595H42.7143L42.1374 8.17436H40.3105C39.5413 8.17436 38.5798 7.98206 38.0029 7.40515C37.4259 6.82825 37.1375 6.05904 37.1375 4.80907C37.1375 3.84756 37.3298 2.88604 38.0029 2.11683C38.4836 1.53993 39.349 1.34762 40.4066 1.34762H41.9451V2.78989H40.4066C39.8297 2.78989 39.5413 2.88604 39.1567 3.1745C38.8682 3.46295 38.6759 4.03986 38.6759 4.71292C38.6759 5.48213 38.7721 5.96288 39.1567 6.34749C39.4451 6.63594 39.8297 6.7321 40.3105 6.7321H40.9835L43.195 1.44377H44.1565L42.8104 0.0976562H40.3105C39.2528 0.0976562 38.3875 0.289959 37.6182 0.674564V0.0976562H33.3876V0.674564C32.9068 0.289959 32.3299 0.0976562 31.5607 0.0976562H16.0804L15.0227 2.50144L13.965 0.0976562H9.73438L11.0805 1.44377H13.0035L14.6381 5.00137L15.215 5.57828L16.9457 1.34762H19.638V8.17436H18.0034V2.88604L16.3688 6.7321L19.1572 9.52048H30.2146L30.3107 7.02055ZM34.7337 1.34762H36.3683V8.17436H34.7337V1.34762ZM26.2724 2.78989H22.5225V4.03986H26.1762V5.38598H22.5225V6.7321H26.2724V8.17436H20.8879V1.34762H26.2724V2.78989ZM28.9646 8.07821H27.3301V1.25147H30.9838C31.8492 1.25147 32.4261 1.25147 32.9068 1.53993C33.3876 1.82838 33.676 2.30914 33.676 3.07835C33.676 4.13601 33.003 4.71292 32.5222 4.90522C32.9068 5.00137 33.1953 5.28983 33.2914 5.48213C33.4837 5.86673 33.5799 6.15519 33.5799 6.7321V8.07821H31.9453V7.21285C31.9453 6.82825 31.9453 6.25134 31.6569 5.86673C31.5607 5.67443 31.2723 5.67443 30.6954 5.67443H28.9646V8.07821Z" fill="#A6A6A6"/>
</svg>
