<svg width="28" height="22" viewBox="0 0 28 22" fill="none" xmlns="http://www.w3.org/2000/svg">
<path d="M5.58412 21.0081V19.6104C5.58412 19.0747 5.25956 18.7253 4.70317 18.7253C4.42497 18.7253 4.12359 18.8185 3.91494 19.1213C3.75266 18.865 3.52083 18.7253 3.17308 18.7253C2.94125 18.7253 2.70942 18.7952 2.52396 19.0514V18.7719H2.03711V21.0081H2.52396V19.7735C2.52396 19.3775 2.7326 19.1912 3.05716 19.1912C3.38173 19.1912 3.54401 19.4008 3.54401 19.7735V21.0081H4.03086V19.7735C4.03086 19.3775 4.26269 19.1912 4.56407 19.1912C4.88863 19.1912 5.05091 19.4008 5.05091 19.7735V21.0081H5.58412ZM12.7941 18.7719H12.0058V18.0964H11.519V18.7719H11.0785V19.2144H11.519V20.2394C11.519 20.7518 11.7276 21.0546 12.284 21.0546C12.4927 21.0546 12.7245 20.9848 12.8868 20.8916L12.7477 20.4723C12.6086 20.5655 12.4463 20.5888 12.3304 20.5888C12.0986 20.5888 12.0058 20.449 12.0058 20.2161V19.2144H12.7941V18.7719ZM16.9207 18.7253C16.6425 18.7253 16.457 18.865 16.3411 19.0514V18.7719H15.8542V21.0081H16.3411V19.7502C16.3411 19.3775 16.5034 19.1679 16.8047 19.1679C16.8975 19.1679 17.0134 19.1912 17.1061 19.2144L17.2452 18.7486C17.1525 18.7253 17.0134 18.7253 16.9207 18.7253ZM10.6844 18.9582C10.4526 18.7952 10.128 18.7253 9.78027 18.7253C9.22387 18.7253 8.85294 19.0048 8.85294 19.4474C8.85294 19.8201 9.13114 20.0297 9.61798 20.0996L9.84981 20.1229C10.1048 20.1695 10.2439 20.2394 10.2439 20.3558C10.2439 20.5189 10.0585 20.6354 9.7339 20.6354C9.40933 20.6354 9.15432 20.5189 8.99204 20.4024L8.76021 20.7751C9.01523 20.9615 9.36297 21.0546 9.71072 21.0546C10.3598 21.0546 10.7308 20.7518 10.7308 20.3325C10.7308 19.9365 10.4294 19.7269 9.96573 19.657L9.7339 19.6337C9.52525 19.6104 9.36297 19.5638 9.36297 19.4241C9.36297 19.261 9.52525 19.1679 9.78027 19.1679C10.0585 19.1679 10.3367 19.2843 10.4758 19.3542L10.6844 18.9582ZM23.6206 18.7253C23.3424 18.7253 23.1569 18.865 23.041 19.0514V18.7719H22.5542V21.0081H23.041V19.7502C23.041 19.3775 23.2033 19.1679 23.5047 19.1679C23.5974 19.1679 23.7133 19.1912 23.806 19.2144L23.9452 18.7486C23.8524 18.7253 23.7133 18.7253 23.6206 18.7253ZM17.4075 19.89C17.4075 20.5655 17.8712 21.0546 18.5898 21.0546C18.9144 21.0546 19.1462 20.9848 19.3781 20.7984L19.1462 20.4024C18.9608 20.5422 18.7753 20.6121 18.5667 20.6121C18.1726 20.6121 17.8944 20.3325 17.8944 19.89C17.8944 19.4707 18.1726 19.1912 18.5667 19.1679C18.7753 19.1679 18.9608 19.2377 19.1462 19.3775L19.3781 18.9815C19.1462 18.7952 18.9144 18.7253 18.5898 18.7253C17.8712 18.7253 17.4075 19.2144 17.4075 19.89ZM21.905 19.89V18.7719H21.4182V19.0514C21.2559 18.8418 21.0241 18.7253 20.7227 18.7253C20.0968 18.7253 19.6099 19.2144 19.6099 19.89C19.6099 20.5655 20.0968 21.0546 20.7227 21.0546C21.0473 21.0546 21.2791 20.9382 21.4182 20.7285V21.0081H21.905V19.89ZM20.1199 19.89C20.1199 19.494 20.3749 19.1679 20.7922 19.1679C21.1864 19.1679 21.4646 19.4707 21.4646 19.89C21.4646 20.2859 21.1864 20.6121 20.7922 20.6121C20.3749 20.5888 20.1199 20.2859 20.1199 19.89ZM14.301 18.7253C13.6518 18.7253 13.1882 19.1912 13.1882 19.89C13.1882 20.5888 13.6518 21.0546 14.3242 21.0546C14.6487 21.0546 14.9733 20.9615 15.2283 20.7518L14.9965 20.4024C14.811 20.5422 14.5792 20.6354 14.3473 20.6354C14.046 20.6354 13.7446 20.4956 13.675 20.0996H15.321C15.321 20.0297 15.321 19.9831 15.321 19.9133C15.3442 19.1912 14.9269 18.7253 14.301 18.7253ZM14.301 19.1446C14.6024 19.1446 14.811 19.3309 14.8574 19.6803H13.6982C13.7446 19.3775 13.9532 19.1446 14.301 19.1446ZM26.3794 19.89V17.8867H25.8925V19.0514C25.7302 18.8418 25.4984 18.7253 25.197 18.7253C24.5711 18.7253 24.0842 19.2144 24.0842 19.89C24.0842 20.5655 24.5711 21.0546 25.197 21.0546C25.5216 21.0546 25.7534 20.9382 25.8925 20.7285V21.0081H26.3794V19.89ZM24.5943 19.89C24.5943 19.494 24.8493 19.1679 25.2666 19.1679C25.6607 19.1679 25.9389 19.4707 25.9389 19.89C25.9389 20.2859 25.6607 20.6121 25.2666 20.6121C24.8493 20.5888 24.5943 20.2859 24.5943 19.89ZM8.31973 19.89V18.7719H7.83289V19.0514C7.67061 18.8418 7.43877 18.7253 7.13739 18.7253C6.51145 18.7253 6.0246 19.2144 6.0246 19.89C6.0246 20.5655 6.51145 21.0546 7.13739 21.0546C7.46196 21.0546 7.69379 20.9382 7.83289 20.7285V21.0081H8.31973V19.89ZM6.51145 19.89C6.51145 19.494 6.76646 19.1679 7.18376 19.1679C7.57787 19.1679 7.85607 19.4707 7.85607 19.89C7.85607 20.2859 7.57787 20.6121 7.18376 20.6121C6.76646 20.5888 6.51145 20.2859 6.51145 19.89Z" fill="#898989"/>
<path d="M17.8242 1.79297H10.5215V14.9771H17.8242V1.79297Z" fill="#898989"/>
<path d="M10.9845 8.38566C10.9845 5.70691 12.2363 3.33098 14.1605 1.7936C12.7464 0.675515 10.9613 0 9.01389 0C4.40045 0 0.667969 3.75026 0.667969 8.38566C0.667969 13.0211 4.40045 16.7713 9.01389 16.7713C10.9613 16.7713 12.7464 16.0958 14.1605 14.9777C12.2363 13.4637 10.9845 11.0644 10.9845 8.38566Z" fill="#A6A6A6"/>
<path d="M27.6762 8.38566C27.6762 13.0211 23.9437 16.7713 19.3302 16.7713C17.3829 16.7713 15.5978 16.0958 14.1836 14.9777C16.131 13.4404 17.3597 11.0644 17.3597 8.38566C17.3597 5.70691 16.1078 3.33098 14.1836 1.7936C15.5978 0.675515 17.3829 0 19.3302 0C23.9437 0 27.6762 3.77355 27.6762 8.38566Z" fill="#A6A6A6"/>
</svg>
