<svg width="84" height="22" viewBox="0 0 84 22" fill="none" xmlns="http://www.w3.org/2000/svg">
<path d="M64.5986 5.52344H60.1262C59.8631 5.52344 59.6 5.78652 59.4685 6.0496L57.627 17.6251C57.627 17.8882 57.7585 18.0197 58.0216 18.0197H60.3893C60.6524 18.0197 60.7839 17.8882 60.7839 17.6251L61.3101 14.3366C61.3101 14.0735 61.5731 13.8104 61.9678 13.8104H63.4147C66.4401 13.8104 68.1501 12.3635 68.5448 9.46963C68.8078 8.28577 68.5448 7.23346 68.0186 6.57576C67.2294 5.91806 66.0455 5.52344 64.5986 5.52344ZM65.1247 9.86425C64.8616 11.4427 63.6778 11.4427 62.4939 11.4427H61.7047L62.2308 8.41732C62.2308 8.28578 62.3624 8.15423 62.6255 8.15423H62.8885C63.6778 8.15423 64.467 8.15423 64.8616 8.68039C65.1247 8.81193 65.1247 9.20655 65.1247 9.86425Z" fill="#A6A6A6"/>
<path d="M32.372 5.52344H27.8996C27.6366 5.52344 27.3735 5.78652 27.2419 6.0496L25.4004 17.6251C25.4004 17.8882 25.5319 18.0197 25.795 18.0197H27.8996C28.1627 18.0197 28.4258 17.7566 28.5573 17.4936L29.0835 14.3366C29.0835 14.0735 29.3466 13.8104 29.7412 13.8104H31.1881C34.2136 13.8104 35.9236 12.3635 36.3182 9.46963C36.5813 8.28577 36.3182 7.23346 35.792 6.57576C35.0028 5.91806 33.9505 5.52344 32.372 5.52344ZM32.8982 9.86425C32.6351 11.4427 31.4512 11.4427 30.2674 11.4427H29.6097L30.1358 8.41732C30.1358 8.28578 30.2674 8.15423 30.5304 8.15423H30.7935C31.5828 8.15423 32.372 8.15423 32.7666 8.68039C32.8982 8.81193 33.0297 9.20655 32.8982 9.86425Z" fill="#898989"/>
<path d="M45.9219 9.73183H43.8173C43.6857 9.73183 43.4227 9.86337 43.4227 9.99491L43.2911 10.6526L43.1596 10.3895C42.6334 9.73183 41.7126 9.46875 40.6603 9.46875C38.2926 9.46875 36.188 11.3103 35.7933 13.8096C35.5303 15.125 35.9249 16.3088 36.5826 17.0981C37.2403 17.8873 38.1611 18.1504 39.3449 18.1504C41.318 18.1504 42.3703 16.9665 42.3703 16.9665L42.2388 17.6242C42.2388 17.8873 42.3703 18.0188 42.6334 18.0188H44.6065C44.8696 18.0188 45.1327 17.7558 45.2642 17.4927L46.4481 10.1264C46.3165 9.99491 46.0535 9.73183 45.9219 9.73183ZM42.8965 13.9411C42.6334 15.125 41.7126 16.0457 40.3972 16.0457C39.7395 16.0457 39.2134 15.7827 38.9503 15.5196C38.6872 15.125 38.5557 14.5988 38.5557 13.9411C38.6872 12.7572 39.7395 11.8365 40.9234 11.8365C41.5811 11.8365 41.9757 12.0995 42.3703 12.3626C42.765 12.7572 42.8965 13.4149 42.8965 13.9411Z" fill="#898989"/>
<path d="M78.0157 9.73183H75.911C75.7795 9.73183 75.5164 9.86337 75.5164 9.99491L75.3849 10.6526L75.2533 10.3895C74.7272 9.73183 73.8064 9.46875 72.7541 9.46875C70.3864 9.46875 68.2817 11.3103 67.8871 13.8096C67.624 15.125 68.0186 16.3088 68.6763 17.0981C69.334 17.8873 70.2548 18.1504 71.4387 18.1504C73.4118 18.1504 74.4641 16.9665 74.4641 16.9665L74.3325 17.6242C74.3325 17.8873 74.4641 18.0188 74.7272 18.0188H76.7003C76.9633 18.0188 77.2264 17.7558 77.358 17.4927L78.5418 10.1264C78.4103 9.99491 78.2787 9.73183 78.0157 9.73183ZM74.9902 13.9411C74.7272 15.125 73.8064 16.0457 72.491 16.0457C71.8333 16.0457 71.3071 15.7827 71.044 15.5196C70.781 15.125 70.6494 14.5988 70.6494 13.9411C70.781 12.7572 71.8333 11.8365 73.0171 11.8365C73.6748 11.8365 74.0695 12.0995 74.4641 12.3626C74.9902 12.7572 75.1218 13.4149 74.9902 13.9411Z" fill="#A6A6A6"/>
<path d="M57.3649 9.73438H55.1287C54.8656 9.73438 54.7341 9.86591 54.6026 9.99745L51.7087 14.4698L50.3933 10.2605C50.2617 9.99745 50.1302 9.86592 49.7356 9.86592H47.6309C47.3679 9.86592 47.2363 10.129 47.2363 10.3921L49.604 17.3637L47.3679 20.5206C47.2363 20.7837 47.3679 21.1783 47.6309 21.1783H49.7356C49.9987 21.1783 50.1302 21.0468 50.2617 20.9153L57.4964 10.5236C57.8911 10.129 57.628 9.73438 57.3649 9.73438Z" fill="#898989"/>
<path d="M80.5154 5.92015L78.6738 17.7587C78.6738 18.0218 78.8054 18.1534 79.0684 18.1534H80.91C81.1731 18.1534 81.4362 17.8903 81.5677 17.6272L83.4093 6.05169C83.4093 5.78861 83.2777 5.65707 83.0146 5.65707H80.91C80.7785 5.52553 80.6469 5.65707 80.5154 5.92015Z" fill="#A6A6A6"/>
<path d="M15.6661 1.57848C14.7454 0.526158 13.0353 0 10.6676 0H4.09064C3.69602 0 3.3014 0.394618 3.16986 0.789237L0.539062 18.021C0.539062 18.4156 0.802142 18.6787 1.06522 18.6787H5.14296L6.19528 12.2332V12.4963C6.32682 12.1017 6.72144 11.707 7.11605 11.707H9.08915C12.9038 11.707 15.7977 10.1286 16.7185 5.78775C16.7185 5.65621 16.7185 5.52467 16.7185 5.39313C16.5869 5.39313 16.5869 5.39313 16.7185 5.39313C16.85 3.68311 16.5869 2.6308 15.6661 1.57848Z" fill="#898989"/>
<path d="M16.5886 5.39062C16.5886 5.52216 16.5886 5.65371 16.5886 5.78525C15.6678 10.2576 12.7739 11.7045 8.95928 11.7045H6.98618C6.59156 11.7045 6.19694 12.0992 6.0654 12.4938L4.75 20.5177C4.75 20.7808 4.88154 21.0439 5.27616 21.0439H8.6962C9.09081 21.0439 9.48543 20.7808 9.48543 20.3862V20.2546L10.1431 16.1769V15.9138C10.1431 15.5192 10.5378 15.2561 10.9324 15.2561H11.4585C14.747 15.2561 17.3778 13.9407 18.0355 9.99452C18.2986 8.41604 18.1671 6.9691 17.3778 6.04832C17.2463 5.78524 16.9832 5.52216 16.5886 5.39062Z" fill="#898989"/>
<path d="M15.6662 5.00009C15.5346 5.00009 15.4031 4.86855 15.2716 4.86855C15.14 4.86855 15.0085 4.86855 14.8769 4.73701C14.3508 4.60547 13.8246 4.60547 13.1669 4.60547H8.03687C7.90533 4.60547 7.77379 4.60547 7.64225 4.73701C7.37917 4.86855 7.24763 5.13163 7.24763 5.39471L6.19531 12.2348V12.4979C6.32685 12.1032 6.72147 11.7086 7.11609 11.7086H9.08919C12.9038 11.7086 15.7977 10.1301 16.7185 5.78933C16.7185 5.65779 16.7185 5.52625 16.85 5.39471C16.587 5.26317 16.4554 5.13163 16.1923 5.13163C15.7977 5.00009 15.7977 5.00009 15.6662 5.00009Z" fill="#A6A6A6"/>
</svg>
