<svg width="42" height="21" viewBox="0 0 42 21" fill="none" xmlns="http://www.w3.org/2000/svg">
<path d="M0.726562 20.3557H14.8655V10.3867H0.726562V20.3557ZM5.72816 14.5907L7.06117 15.9237L10.1487 12.8362L11.1399 13.8274L7.06117 17.9061L4.73696 15.5819L5.72816 14.5907ZM4.89646 5.96611C4.89646 4.37107 6.19528 3.07225 7.80172 3.07225C9.39677 3.07225 10.6956 4.37107 10.6956 5.96611V8.96251H13.0882V5.96611C13.0768 3.04946 10.707 0.679688 7.80172 0.679688C4.88507 0.679688 2.51529 3.04946 2.51529 5.96611V8.96251H4.90786V5.96611H4.89646ZM26.4523 9.52077C26.4523 8.08524 25.6092 7.26493 24.2762 6.76363L23.0458 6.23955C22.066 5.88636 21.3824 5.6471 21.3824 5.04326C21.3824 4.45082 21.8951 4.12042 22.6584 4.12042C23.6496 4.12042 24.2876 4.41664 24.994 4.92933L26.1561 3.4824C25.2333 2.61652 24.0142 2.1494 22.7837 2.1494C20.5963 2.1494 19.0696 3.4824 19.0696 5.16859C19.0696 6.6497 20.095 7.51558 21.2343 7.93712L22.5445 8.49539C23.5129 8.89415 24.1167 9.08783 24.1167 9.8056C24.1167 10.3183 23.661 10.6943 22.6926 10.6943C21.7128 10.6943 20.7672 10.2613 20.0038 9.6347L18.6822 11.207C19.7646 12.1754 21.1659 12.6653 22.5331 12.6653C25.0396 12.6653 26.4523 11.1956 26.4523 9.52077ZM32.0464 6.76363L30.8159 6.23955C29.8361 5.88636 29.1525 5.6471 29.1525 5.04326C29.1525 4.45082 29.6652 4.12042 30.4286 4.12042C31.4198 4.12042 32.0578 4.41664 32.7642 4.92933L33.9263 3.4824C33.0034 2.61652 31.7843 2.1494 30.5539 2.1494C28.3664 2.1494 26.8397 3.4824 26.8397 5.16859C26.8397 6.6497 27.8651 7.51558 29.0044 7.93712L30.3146 8.49539C31.283 8.89415 31.8869 9.08783 31.8869 9.8056C31.8869 10.3183 31.4312 10.6943 30.4627 10.6943C29.4829 10.6943 28.5373 10.2613 27.774 9.6347L26.4523 11.207C27.5347 12.1754 28.9361 12.6653 30.3032 12.6653C32.8211 12.6653 34.2339 11.207 34.2339 9.52077C34.2225 8.08524 33.3908 7.26493 32.0464 6.76363Z" fill="#A6A6A6"/>
<path d="M0.726562 20.3557H14.8655V10.3867H0.726562V20.3557ZM5.72816 14.5907L7.06117 15.9237L10.1487 12.8362L11.1399 13.8274L7.06117 17.9061L4.73696 15.5819L5.72816 14.5907ZM4.89646 5.96611C4.89646 4.37107 6.19528 3.07225 7.80172 3.07225C9.39677 3.07225 10.6956 4.37107 10.6956 5.96611V8.96251H13.0882V5.96611C13.0768 3.04946 10.707 0.679688 7.80172 0.679688C4.88507 0.679688 2.51529 3.04946 2.51529 5.96611V8.96251H4.90786V5.96611H4.89646Z" fill="#898989"/>
<path d="M37.2786 10.8512V2.63672H35V12.7766H41.7903V10.8512H37.2786Z" fill="#A6A6A6"/>
<path d="M20.7347 16.3766L20.1195 16.1146C19.7435 15.9551 19.3333 15.807 19.3333 15.3854C19.3333 14.9866 19.6751 14.7474 20.1878 14.7474C20.6435 14.7474 20.9739 14.9069 21.2702 15.1575L21.5664 14.793C21.2474 14.474 20.7689 14.2461 20.2106 14.2461C19.3789 14.2461 18.7751 14.736 18.7751 15.4082C18.7751 16.0462 19.2878 16.3652 19.7207 16.5361L20.3473 16.8096C20.7917 17.0032 21.1334 17.14 21.1334 17.6071C21.1334 18.0172 20.7803 18.3021 20.1764 18.3021C19.6751 18.3021 19.2194 18.0856 18.889 17.7552L18.5586 18.1426C18.9574 18.5413 19.5042 18.792 20.1536 18.792C21.1221 18.792 21.7031 18.2337 21.7031 17.5387C21.7031 16.8893 21.2702 16.5931 20.7347 16.3766Z" fill="#A0A2A2"/>
<path d="M23.4469 16.6484H25.2698V16.1699H23.4469V14.7913H25.6002V14.3242H22.8887V18.7106H25.6686V18.2321H23.4469V16.6484Z" fill="#A0A2A2"/>
<path d="M28.5277 18.3017C27.6846 18.3017 27.1377 17.6067 27.1377 16.5016C27.1377 15.4079 27.6846 14.7243 28.5277 14.7243C28.8922 14.7243 29.1885 14.8838 29.4049 15.123L29.7239 14.7699C29.4733 14.485 29.0517 14.2344 28.5277 14.2344C27.3883 14.2344 26.5566 15.1003 26.5566 16.513C26.5566 17.9485 27.3883 18.7916 28.4707 18.7916C29.0517 18.7916 29.4847 18.5524 29.8265 18.1536L29.5075 17.8118C29.2454 18.1308 28.9378 18.3017 28.5277 18.3017ZM33.0849 17.0713C33.0849 17.9827 32.6862 18.3131 32.1507 18.3131C31.6266 18.3131 31.2278 17.9827 31.2278 17.0713V14.3255H30.6696V17.0599C30.6696 18.3131 31.2962 18.803 32.1507 18.803C33.0052 18.803 33.6204 18.3245 33.6204 17.0599V14.3255H33.0735V17.0713H33.0849ZM37.7219 15.556C37.7219 14.6445 37.0839 14.3255 36.1952 14.3255H34.8281V18.7119H35.3863V16.8548H36.1725L37.232 18.7119H37.87L36.7535 16.7978C37.3232 16.6497 37.7219 16.2396 37.7219 15.556ZM36.1041 16.3991H35.3749V14.7699H36.1041C36.7877 14.7699 37.1637 14.9749 37.1637 15.556C37.1637 16.1256 36.7877 16.3991 36.1041 16.3991Z" fill="#A0A2A2"/>
<path d="M39.4896 16.6484H41.3125V16.1699H39.4896V14.7913H41.6429V14.3242H38.9199V18.7106H41.7112V18.2321H39.4896V16.6484Z" fill="#A0A2A2"/>
</svg>
