<svg width="55" height="18" viewBox="0 0 55 18" fill="none" xmlns="http://www.w3.org/2000/svg">
<path d="M22.0791 0.0351562L19.3177 17.2188H23.7314L26.491 0.0351562H22.0791ZM35.3923 7.03479C33.8499 6.27313 32.9044 5.75906 32.9044 4.98005C32.9232 4.27175 33.704 3.5461 35.4474 3.5461C36.8813 3.51008 37.9353 3.84707 38.7348 4.18236L39.1354 4.36113L39.7354 0.765896C38.8636 0.428907 37.4814 0.0575962 35.774 0.0575962C31.4154 0.0575962 28.3463 2.32374 28.3272 5.56482C28.2912 7.95656 30.5245 9.28377 32.1959 10.0799C33.9033 10.8967 34.4845 11.4262 34.4845 12.1519C34.4656 13.266 33.1039 13.78 31.8333 13.78C30.0727 13.78 29.127 13.5153 27.6913 12.8945L27.1101 12.6297L26.4929 16.366C27.5297 16.8269 29.4364 17.2325 31.4156 17.2533C36.0476 17.2533 39.0616 15.0214 39.0996 11.5673C39.1146 9.67243 37.937 8.22114 35.3923 7.03479ZM51.0507 0.0883348H47.6359C46.5836 0.0883348 45.7841 0.391003 45.3285 1.4708L38.7724 17.2188H43.4044L44.6801 13.8093H49.8624L50.5244 17.2325H54.6097L51.0507 0.0883348ZM45.9647 10.3685C46.0541 10.3771 47.7426 4.80278 47.7426 4.80278L49.0872 10.3685C49.0872 10.3685 46.8365 10.3685 45.9647 10.3685ZM15.6297 0.0351562L11.3054 11.7098L10.8344 9.40748C10.0348 6.75098 7.52802 3.86423 4.73047 2.43028L8.69023 17.2016H13.3602L20.2997 0.037041H15.6297V0.0351562Z" fill="#898989"/>
<path d="M8.67856 1.8635C8.37983 0.760075 7.42716 0.0158812 6.1333 0H0.0625199L0 0.267757C4.73563 1.3769 8.71049 4.78977 10 8L8.67856 1.8635Z" fill="#A6A6A6"/>
</svg>
