<svg width="475" height="164" viewBox="0 0 475 164" fill="none" xmlns="http://www.w3.org/2000/svg">
<path d="M315.653 101.499C315.835 102.137 315.897 102.765 315.834 103.381L315.29 103.403C315.26 103.695 315.198 103.982 315.105 104.264C315.011 104.547 314.887 104.824 314.731 105.095L315.206 105.283C314.877 105.855 314.427 106.4 313.863 106.917L313.508 106.581C313.054 106.997 312.512 107.401 311.883 107.789L312.139 108.2C311.561 108.557 310.92 108.897 310.218 109.221L310.033 108.771C309.435 109.047 308.789 109.312 308.096 109.564L308.231 110.034C307.589 110.269 306.909 110.493 306.193 110.706L306.095 110.224C305.447 110.417 304.769 110.602 304.06 110.777L304.13 111.267C303.462 111.433 302.77 111.59 302.054 111.74L302.007 111.245C301.341 111.384 300.653 111.516 299.944 111.641L299.972 112.14C299.295 112.259 298.599 112.373 297.885 112.479L297.874 111.978C297.198 112.079 296.506 112.174 295.797 112.264L295.795 112.768C295.111 112.854 294.413 112.935 293.701 113.011L293.715 112.506C293.036 112.578 292.345 112.645 291.641 112.707L291.616 113.213C290.935 113.273 290.243 113.329 289.54 113.38L289.574 112.873C288.893 112.922 288.202 112.967 287.5 113.008L287.457 113.515C286.77 113.554 286.074 113.59 285.368 113.621L285.419 113.113C284.74 113.143 284.052 113.169 283.356 113.191L283.298 113.699C282.616 113.721 281.925 113.739 281.227 113.753L281.292 113.245C280.608 113.258 279.917 113.268 279.218 113.275L279.147 113.783C278.466 113.789 277.779 113.792 277.086 113.791L277.163 113.283C276.483 113.283 275.797 113.279 275.105 113.271L275.022 113.779C274.337 113.772 273.647 113.761 272.95 113.748L273.038 113.239C272.363 113.226 271.682 113.209 270.995 113.19L270.902 113.698C270.221 113.678 269.534 113.655 268.842 113.63L268.94 113.122C268.263 113.097 267.581 113.069 266.895 113.037L266.792 113.545C266.114 113.514 265.432 113.481 264.745 113.444L264.852 112.937C264.174 112.901 263.491 112.862 262.805 112.82L262.694 113.327C262.019 113.286 261.341 113.242 260.658 113.196L260.774 112.689C260.096 112.643 259.415 112.594 258.73 112.542L258.61 113.049C257.938 112.998 257.263 112.945 256.584 112.889L256.707 112.383C256.032 112.327 255.354 112.269 254.673 112.208L254.546 112.714C253.875 112.654 253.2 112.591 252.523 112.526L252.653 112.021C251.981 111.956 251.306 111.889 250.628 111.819L250.494 112.325C249.824 112.256 249.15 112.184 248.475 112.111L248.612 111.606C247.943 111.532 247.271 111.457 246.596 111.379L246.455 111.883C245.786 111.806 245.115 111.726 244.441 111.644L244.585 111.14C243.918 111.058 243.249 110.975 242.577 110.888L242.429 111.392C241.762 111.307 241.093 111.219 240.422 111.128L240.573 110.625C239.908 110.536 239.241 110.444 238.572 110.35L238.418 110.852C237.752 110.759 237.085 110.663 236.417 110.565L236.574 110.062C235.911 109.965 235.247 109.865 234.581 109.763L234.42 110.265C233.757 110.164 233.093 110.06 232.427 109.954L232.591 109.453C232.259 109.4 231.926 109.347 231.593 109.293C231.26 109.239 230.927 109.184 230.596 109.129L230.429 109.63C229.764 109.52 229.102 109.409 228.443 109.296L228.613 108.796C227.951 108.682 227.292 108.567 226.635 108.451L226.462 108.95C225.799 108.833 225.14 108.714 224.484 108.593L224.66 108.094C224.001 107.973 223.344 107.85 222.69 107.725L222.511 108.224C221.851 108.099 221.195 107.972 220.542 107.843L220.724 107.345C220.067 107.216 219.413 107.085 218.763 106.953L218.576 107.45C217.92 107.317 217.267 107.182 216.617 107.045L216.807 106.549C216.152 106.411 215.501 106.272 214.853 106.132L214.66 106.628C214.007 106.486 213.358 106.343 212.712 106.198L212.908 105.703C212.256 105.557 211.607 105.409 210.963 105.261L210.763 105.755C210.114 105.605 209.469 105.453 208.828 105.301L209.031 104.807C208.381 104.652 207.735 104.496 207.094 104.338L206.887 104.831C206.243 104.672 205.602 104.512 204.967 104.351L205.177 103.859C204.529 103.694 203.887 103.529 203.249 103.361L203.035 103.852C202.393 103.684 201.756 103.515 201.124 103.344L201.342 102.854C200.699 102.68 200.062 102.505 199.43 102.329L199.208 102.817C198.568 102.639 197.934 102.459 197.305 102.278L197.532 101.79C196.895 101.607 196.265 101.422 195.641 101.237L195.411 101.723C194.773 101.533 194.142 101.342 193.517 101.15L193.752 100.665C193.123 100.471 192.501 100.276 191.886 100.081L191.646 100.564C191.012 100.362 190.385 100.159 189.766 99.955L190.01 99.4731C189.383 99.2666 188.764 99.059 188.153 98.8504L187.904 99.3307C187.28 99.1178 186.665 98.9037 186.058 98.6887L186.312 98.2102C185.689 97.9894 185.074 97.7675 184.468 97.5446L184.208 98.021C183.589 97.7935 182.98 97.565 182.381 97.3355L182.647 96.8613C182.036 96.6272 181.434 96.3922 180.843 96.1564L180.571 96.6281C179.956 96.3829 179.352 96.1367 178.76 95.8897L179.04 95.4208C178.435 95.1685 177.841 94.9154 177.261 94.6617L176.974 95.1274C176.374 94.8652 175.787 94.6023 175.213 94.3387L175.508 93.8766C174.914 93.604 174.335 93.3308 173.771 93.0572L173.467 93.5152C172.875 93.2279 172.298 92.94 171.738 92.6518L172.052 92.1988C171.472 91.9003 170.909 91.6015 170.366 91.3026L170.041 91.7496C169.467 91.434 168.913 91.1182 168.38 90.8023L168.717 90.3625C168.159 90.0318 167.624 89.7013 167.112 89.3714L166.76 89.8021C166.21 89.4473 165.687 89.0927 165.191 88.7388L165.561 88.3198C165.035 87.9439 164.541 87.5693 164.08 87.1964L163.689 87.5995C163.18 87.1877 162.71 86.7771 162.28 86.3684L162.695 85.9878C162.232 85.5474 161.817 85.111 161.453 84.6794L161.005 85.0262C160.577 84.5194 160.215 84.0163 159.919 83.5179L160.407 83.2269C160.085 82.6846 159.851 82.1557 159.704 81.6417L159.174 81.8346C158.992 81.1965 158.929 80.5685 158.993 79.9529L159.537 79.9304C159.567 79.6391 159.629 79.3522 159.722 79.0694C159.816 78.7865 159.94 78.5098 160.096 78.2388L159.621 78.0512C159.95 77.4786 160.399 76.9335 160.964 76.4165L161.319 76.7529C161.773 76.3365 162.315 75.9332 162.943 75.5451L162.688 75.1336C163.266 74.7768 163.907 74.4366 164.609 74.1129L164.794 74.5624C165.392 74.2868 166.038 74.0223 166.73 73.7694L166.595 73.2995C167.238 73.0648 167.918 72.8407 168.634 72.6275L168.732 73.1097C169.38 72.9166 170.058 72.7322 170.767 72.5565L170.697 72.0664C171.364 71.901 172.057 71.7435 172.773 71.594L172.819 72.0893C173.486 71.9503 174.174 71.8181 174.883 71.6929L174.855 71.194C175.532 71.0744 176.228 70.9612 176.941 70.8544L176.953 71.3559C177.629 71.2548 178.321 71.1594 179.029 71.0697L179.032 70.5663C179.715 70.4797 180.414 70.3986 181.126 70.3229L181.112 70.8278C181.79 70.7557 182.482 70.6885 183.186 70.6263L183.211 70.1205C183.892 70.0603 184.584 70.0048 185.287 69.954L185.253 70.4607C185.934 70.4115 186.625 70.3667 187.327 70.3262L187.37 69.819C188.057 69.7795 188.753 69.7441 189.459 69.713L189.408 70.2206C190.087 70.1907 190.775 70.1647 191.471 70.1426L191.529 69.6348C192.211 69.6131 192.902 69.5953 193.6 69.5812L193.535 70.0893C194.219 70.0755 194.91 70.0654 195.609 70.059L195.68 69.5508C196.36 69.5446 197.048 69.5418 197.741 69.5424L197.664 70.0506C198.344 70.0513 199.03 70.0553 199.722 70.0627L199.805 69.5545C200.49 69.5619 201.18 69.5724 201.877 69.5863L201.789 70.0944C202.464 70.1079 203.145 70.1244 203.831 70.1441L203.924 69.6362C204.606 69.6558 205.293 69.6784 205.985 69.7041L205.887 70.2119C206.564 70.2371 207.246 70.2652 207.932 70.2964L208.035 69.7888C208.713 69.8195 209.395 69.8531 210.082 69.8896L209.975 70.397C210.653 70.4331 211.335 70.472 212.022 70.5137L212.133 70.0066C212.808 70.0476 213.486 70.0914 214.168 70.1379L214.053 70.6448C214.731 70.691 215.412 70.7399 216.097 70.7916L216.216 70.285C216.889 70.3357 217.564 70.389 218.243 70.445L218.12 70.9513C218.795 71.0069 219.473 71.0652 220.154 71.126L220.281 70.62C220.952 70.68 221.627 70.7426 222.304 70.8077L222.174 71.3133C222.846 71.3779 223.521 71.445 224.199 71.5146L224.333 71.0093C225.003 71.0782 225.676 71.1495 226.352 71.2233L226.215 71.7282C226.884 71.8014 227.556 71.8769 228.231 71.955L228.372 71.4505C229.041 71.5279 229.712 71.6077 230.386 71.6899L230.241 72.1939C230.909 72.2754 231.578 72.3592 232.25 72.4454L232.398 71.9417C233.065 72.0273 233.734 72.1153 234.405 72.2056L234.254 72.7088C234.919 72.7983 235.586 72.8901 236.255 72.9842L236.409 72.4814C237.075 72.5751 237.741 72.671 238.41 72.7692L238.252 73.2715C238.915 73.3689 239.58 73.4685 240.246 73.5704L240.407 73.0686C241.07 73.17 241.734 73.2737 242.4 73.3796L242.236 73.881C242.568 73.9338 242.901 73.9873 243.234 74.0413C243.567 74.0953 243.9 74.1497 244.231 74.2045L244.398 73.7036C245.063 73.8134 245.725 73.9248 246.384 74.0377L246.214 74.5381C246.876 74.6515 247.535 74.7666 248.192 74.8832L248.365 74.3834C249.027 74.501 249.687 74.6201 250.343 74.7408L250.166 75.24C250.826 75.3613 251.483 75.4841 252.137 75.6084L252.316 75.1098C252.976 75.2353 253.632 75.3623 254.285 75.4908L254.102 75.9887C254.76 76.118 255.414 76.2488 256.064 76.3811L256.25 75.8838C256.907 76.0172 257.56 76.1522 258.21 76.2886L258.02 76.7853C258.675 76.9228 259.326 77.0618 259.974 77.2022L260.167 76.7063C260.82 76.848 261.469 76.9911 262.115 77.1356L261.919 77.6308C262.571 77.7769 263.219 77.9244 263.864 78.0733L264.063 77.5789C264.713 77.7289 265.358 77.8804 265.999 78.0332L265.796 78.5268C266.446 78.6818 267.092 78.8382 267.733 78.9959L267.939 78.5032C268.584 78.6619 269.225 78.822 269.86 78.9833L269.65 79.4751C270.297 79.6395 270.94 79.8053 271.578 79.9724L271.792 79.4816C272.434 79.6498 273.071 79.8193 273.703 79.9901L273.485 80.4799C274.128 80.6537 274.765 80.8288 275.397 81.0051L275.619 80.5164C276.259 80.695 276.893 80.8749 277.521 81.056L277.295 81.5435C277.931 81.7268 278.562 81.9114 279.185 82.0972L279.416 81.6109C280.054 81.8008 280.685 81.9918 281.309 82.1841L281.075 82.669C281.703 82.8626 282.326 83.0573 282.941 83.2532L283.18 82.7697C283.815 82.9715 284.442 83.1746 285.061 83.3788L284.817 83.8607C285.444 84.0672 286.063 84.2748 286.674 84.4834L286.923 84.0031C287.546 84.2161 288.162 84.4301 288.769 84.6451L288.515 85.1236C289.138 85.3445 289.753 85.5664 290.359 85.7892L290.619 85.3128C291.237 85.5403 291.846 85.7689 292.446 85.9983L292.18 86.4725C292.791 86.7066 293.393 86.9416 293.984 87.1774L294.256 86.7057C294.871 86.951 295.474 87.1971 296.067 87.4441L295.787 87.913C296.392 88.1653 296.985 88.4184 297.566 88.6721L297.853 88.2064C298.453 88.4686 299.04 88.7315 299.614 88.9951L299.319 89.4572C299.913 89.7298 300.492 90.003 301.056 90.2766L301.36 89.8187C301.952 90.1059 302.529 90.3938 303.089 90.682L302.775 91.135C303.355 91.4335 303.917 91.7323 304.461 92.0313L304.786 91.5842C305.36 91.8998 305.914 92.2156 306.447 92.5315L306.11 92.9713C306.668 93.302 307.203 93.6325 307.715 93.9624L308.067 93.5317C308.617 93.8866 309.14 94.2411 309.635 94.5951L309.266 95.014C309.792 95.3899 310.286 95.7645 310.747 96.1374L311.137 95.7343C311.647 96.1461 312.117 96.5567 312.547 96.9654L312.131 97.3461C312.595 97.7865 313.01 98.2229 313.374 98.6545L313.822 98.3076C314.249 98.8144 314.612 99.3175 314.908 99.8159L314.42 100.107C314.742 100.649 314.976 101.178 315.123 101.692L315.653 101.499Z" stroke="#B3B3B3" stroke-width="1.05547" stroke-dasharray="2.11 2.11 2.11 2.11 2.11 2.11"/>
<path d="M357.503 108.064C357.638 108.749 357.662 109.422 357.57 110.084L357.028 110.089C356.984 110.406 356.911 110.718 356.809 111.027C356.707 111.336 356.576 111.639 356.418 111.937L356.901 112.108C356.569 112.731 356.125 113.329 355.575 113.902L355.19 113.595C354.728 114.076 354.179 114.545 353.544 114.999L353.837 115.385C353.247 115.807 352.592 116.212 351.874 116.602L351.65 116.172C351.028 116.509 350.353 116.836 349.628 117.152L349.8 117.607C349.13 117.899 348.419 118.18 347.67 118.45L347.537 117.979C346.86 118.224 346.149 118.46 345.406 118.688L345.509 119.169C344.807 119.384 344.078 119.591 343.322 119.791L343.244 119.303C342.538 119.489 341.809 119.669 341.055 119.842L341.114 120.334C340.391 120.5 339.646 120.659 338.882 120.813L338.84 120.316C338.132 120.458 337.406 120.594 336.662 120.726L336.689 121.225C335.966 121.352 335.227 121.474 334.472 121.591L334.457 121.09C333.728 121.203 332.985 121.311 332.226 121.415L332.229 121.917C331.51 122.015 330.778 122.109 330.033 122.198L330.04 121.694C329.312 121.781 328.572 121.865 327.819 121.944L327.804 122.448C327.077 122.525 326.338 122.597 325.589 122.666L325.612 122.16C324.886 122.226 324.151 122.289 323.405 122.348L323.374 122.854C322.642 122.912 321.901 122.967 321.149 123.018L321.186 122.511C320.463 122.56 319.731 122.605 318.99 122.648L318.946 123.155C318.213 123.197 317.47 123.236 316.72 123.271L316.769 122.764C316.047 122.798 315.316 122.829 314.579 122.857L314.524 123.365C313.791 123.393 313.05 123.418 312.302 123.44L312.362 122.932C311.639 122.953 310.91 122.971 310.174 122.987L310.11 123.495C309.378 123.51 308.64 123.523 307.896 123.533L307.965 123.025C307.241 123.035 306.512 123.042 305.777 123.046L305.703 123.554C304.975 123.559 304.24 123.56 303.5 123.56L303.577 123.051C302.852 123.051 302.121 123.047 301.385 123.042L301.304 123.55C300.579 123.544 299.848 123.536 299.113 123.525L299.198 123.017C298.47 123.007 297.738 122.994 297.001 122.979L296.912 123.487C296.19 123.472 295.464 123.455 294.733 123.435L294.825 122.927C294.096 122.908 293.362 122.886 292.623 122.862L292.528 123.37C291.81 123.347 291.087 123.321 290.36 123.294L290.459 122.786C289.734 122.758 289.005 122.729 288.272 122.697L288.171 123.204C287.448 123.173 286.722 123.139 285.993 123.103L286.097 122.596C285.377 122.561 284.653 122.523 283.926 122.484L283.818 122.991C283.092 122.952 282.363 122.911 281.63 122.867L281.74 122.36C281.024 122.318 280.305 122.274 279.583 122.227L279.47 122.734C278.747 122.688 278.021 122.64 277.292 122.589L277.407 122.083C276.689 122.033 275.968 121.982 275.244 121.928L275.126 122.435C274.408 122.382 273.687 122.327 272.963 122.271L273.084 121.764C272.362 121.708 271.636 121.649 270.908 121.589L270.785 122.095C270.071 122.036 269.356 121.975 268.637 121.912L268.763 121.406C268.046 121.344 267.326 121.279 266.603 121.213L266.475 121.719C265.757 121.653 265.037 121.585 264.314 121.516L264.445 121.01C263.732 120.941 263.017 120.871 262.3 120.799L262.167 121.305C261.449 121.233 260.729 121.159 260.007 121.083L260.142 120.578C259.429 120.503 258.715 120.427 257.998 120.349L257.861 120.854C257.148 120.777 256.433 120.697 255.716 120.616L255.856 120.112C255.14 120.031 254.422 119.948 253.702 119.864L253.56 120.368C252.851 120.285 252.14 120.201 251.427 120.114L251.571 119.61C250.86 119.524 250.147 119.436 249.433 119.347L249.286 119.851C248.573 119.762 247.857 119.671 247.14 119.578L247.288 119.075C246.582 118.983 245.874 118.891 245.164 118.796L245.014 119.299C244.303 119.205 243.591 119.109 242.878 119.011L243.031 118.508C242.321 118.411 241.61 118.312 240.897 118.212L240.743 118.714C240.037 118.615 239.33 118.514 238.621 118.411L238.778 117.909C238.07 117.806 237.361 117.702 236.651 117.597L236.492 118.099C235.785 117.994 235.076 117.887 234.367 117.779L234.527 117.277C233.824 117.17 233.119 117.061 232.414 116.951L232.251 117.452C231.545 117.342 230.837 117.23 230.129 117.116L230.293 116.615C229.939 116.558 229.585 116.501 229.231 116.444C228.876 116.386 228.522 116.328 228.169 116.27L228.002 116.771C227.295 116.655 226.589 116.538 225.885 116.42L226.053 115.919C225.35 115.801 224.649 115.682 223.95 115.562L223.779 116.062C223.074 115.941 222.371 115.819 221.67 115.696L221.842 115.196C221.138 115.072 220.435 114.947 219.735 114.821L219.561 115.321C218.86 115.195 218.161 115.068 217.465 114.94L217.641 114.441C216.938 114.312 216.238 114.182 215.539 114.05L215.361 114.549C214.659 114.417 213.959 114.285 213.262 114.151L213.442 113.652C212.745 113.519 212.051 113.384 211.359 113.249L211.177 113.747C210.474 113.609 209.775 113.471 209.078 113.331L209.262 112.834C208.564 112.694 207.869 112.553 207.176 112.412L206.989 112.909C206.295 112.767 205.603 112.624 204.914 112.481L205.103 111.984C204.403 111.838 203.706 111.691 203.012 111.543L202.821 112.04C202.127 111.892 201.435 111.743 200.746 111.593L200.939 111.097C200.246 110.947 199.556 110.795 198.87 110.643L198.674 111.138C197.978 110.984 197.285 110.828 196.595 110.672L196.792 110.177C196.103 110.021 195.417 109.864 194.734 109.706L194.534 110.201C193.841 110.041 193.152 109.88 192.465 109.718L192.667 109.224C191.977 109.061 191.29 108.898 190.606 108.733L190.401 109.226C189.717 109.062 189.036 108.896 188.358 108.73L188.564 108.237C187.872 108.067 187.184 107.896 186.499 107.725L186.291 108.217C185.605 108.045 184.923 107.872 184.245 107.699L184.456 107.207C183.772 107.032 183.092 106.856 182.416 106.68L182.202 107.171C181.516 106.991 180.833 106.811 180.154 106.63L180.371 106.14C179.693 105.959 179.019 105.778 178.35 105.596L178.131 106.085C177.445 105.899 176.764 105.711 176.087 105.523L176.309 105.034C175.631 104.846 174.957 104.656 174.288 104.466L174.064 104.954C173.386 104.762 172.712 104.568 172.044 104.374L172.271 103.887C171.593 103.69 170.919 103.493 170.251 103.294L170.021 103.781C169.35 103.582 168.685 103.382 168.025 103.182L168.258 102.697C167.58 102.491 166.907 102.284 166.239 102.077L166.003 102.562C165.335 102.354 164.671 102.146 164.014 101.938L164.253 101.454C163.581 101.241 162.915 101.027 162.255 100.812L162.012 101.295C161.345 101.078 160.684 100.86 160.029 100.642L160.274 100.161C159.609 99.9392 158.951 99.7173 158.299 99.4947L158.05 99.975C157.385 99.7479 156.726 99.5202 156.074 99.292L156.327 98.8129C155.669 98.5826 155.018 98.3517 154.374 98.1203L154.117 98.598C153.455 98.36 152.8 98.1213 152.153 97.8822L152.413 97.406C151.762 97.1655 151.118 96.9245 150.483 96.683L150.218 97.1576C149.56 96.9077 148.91 96.6573 148.268 96.4064L148.538 95.9335C147.893 95.6812 147.256 95.4285 146.629 95.1754L146.355 95.6465C145.703 95.3836 145.06 95.1204 144.427 94.8568L144.706 94.3879C144.067 94.1217 143.438 93.8553 142.819 93.5886L142.534 94.0553C141.892 93.7784 141.259 93.5013 140.638 93.2238L140.928 92.7596C140.295 92.477 139.673 92.1942 139.063 91.9113L138.767 92.3727C138.137 92.0805 137.518 91.7881 136.913 91.4956L137.216 91.0373C136.59 90.7349 135.977 90.4324 135.378 90.1299L135.067 90.5845C134.454 90.2751 133.855 89.9656 133.271 89.6563L133.589 89.2057C132.972 88.8794 132.372 88.5532 131.788 88.2274L131.46 88.6731C130.855 88.3354 130.268 87.998 129.698 87.6611L130.035 87.2211C129.449 86.8745 128.883 86.5284 128.335 86.1831L127.987 86.6162C127.396 86.2432 126.828 85.8709 126.282 85.4994L126.643 85.0748C126.075 84.6877 125.531 84.3018 125.014 83.9174L124.638 84.3314C124.084 83.9196 123.559 83.509 123.064 83.1L123.458 82.6997C122.933 82.2661 122.442 81.835 121.987 81.4068L121.573 81.7887C121.069 81.3151 120.608 80.8439 120.188 80.3757L120.628 80.0196C120.174 79.5128 119.773 79.0116 119.426 78.5166L118.955 78.8343C118.554 78.2632 118.22 77.6972 117.955 77.1371L118.46 76.88C118.174 76.2766 117.975 75.6869 117.861 75.1118L117.323 75.2698C117.188 74.5854 117.164 73.9117 117.256 73.2502L117.798 73.2447C117.842 72.9284 117.915 72.6159 118.017 72.3071C118.119 71.9982 118.249 71.6951 118.408 71.3973L117.925 71.2256C118.257 70.603 118.7 70.005 119.251 69.4318L119.635 69.7394C120.098 69.2579 120.647 68.7894 121.282 68.3353L120.989 67.9488C121.579 67.5273 122.234 67.1218 122.952 66.7322L123.175 67.1624C123.798 66.8247 124.473 66.4979 125.198 66.1823L125.026 65.727C125.696 65.4355 126.406 65.1544 127.155 64.8838L127.288 65.3545C127.966 65.1098 128.677 64.8735 129.42 64.6456L129.317 64.1648C130.019 63.9498 130.747 63.7426 131.503 63.5431L131.582 64.0308C132.287 63.8447 133.017 63.6652 133.771 63.4925L133.712 62.9998C134.435 62.834 135.179 62.6746 135.944 62.5214L135.986 63.0177C136.694 62.8759 137.42 62.7395 138.163 62.6085L138.136 62.1095C138.859 61.9821 139.599 61.8599 140.354 61.7428L140.369 62.2439C141.097 62.131 141.841 62.0228 142.6 61.9194L142.596 61.4167C143.315 61.3188 144.048 61.2251 144.792 61.1358L144.786 61.6398C145.514 61.5525 146.254 61.4694 147.006 61.3905L147.021 60.8855C147.749 60.8092 148.487 60.7368 149.237 60.6682L149.214 61.174C149.939 61.1076 150.675 61.0449 151.421 60.9859L151.451 60.4796C152.183 60.4216 152.925 60.3673 153.676 60.3164L153.639 60.8233C154.363 60.7743 155.095 60.7286 155.836 60.6863L155.879 60.1791C156.613 60.1371 157.355 60.0984 158.106 60.0629L158.057 60.5705C158.779 60.5363 159.509 60.5052 160.247 60.4771L160.301 59.9693C161.035 59.9414 161.776 59.9164 162.523 59.8945L162.464 60.4024C163.186 60.3812 163.916 60.3628 164.652 60.3472L164.716 59.8391C165.447 59.8236 166.185 59.8109 166.93 59.8009L166.861 60.3091C167.584 60.2994 168.314 60.2923 169.049 60.2879L169.122 59.7797C169.851 59.7754 170.586 59.7736 171.326 59.7744L171.249 60.2825C171.974 60.2833 172.704 60.2866 173.44 60.2924L173.521 59.7842C174.247 59.7899 174.977 59.798 175.713 59.8086L175.628 60.3167C176.356 60.3271 177.088 60.3399 177.825 60.3551L177.914 59.8471C178.635 59.8619 179.362 59.8791 180.092 59.8985L180 60.4065C180.73 60.4259 181.464 60.4476 182.202 60.4716L182.298 59.9638C183.016 59.9871 183.739 60.0126 184.465 60.0403L184.367 60.5481C185.092 60.5757 185.821 60.6055 186.554 60.6374L186.655 60.1298C187.377 60.1612 188.103 60.1948 188.833 60.2305L188.729 60.738C189.449 60.7733 190.173 60.8105 190.9 60.8499L191.007 60.3425C191.734 60.3818 192.463 60.4231 193.196 60.4665L193.086 60.9737C193.802 61.0161 194.521 61.0604 195.243 61.1067L195.356 60.5996C196.079 60.646 196.805 60.6943 197.534 60.7445L197.418 61.2514C198.136 61.3009 198.858 61.3523 199.582 61.4057L199.7 60.899C200.418 60.9519 201.139 61.0067 201.862 61.0633L201.742 61.5698C202.464 61.6264 203.19 61.6849 203.918 61.7452L204.041 61.239C204.754 61.2981 205.47 61.359 206.188 61.4218L206.063 61.9278C206.78 61.9905 207.5 62.055 208.223 62.1213L208.351 61.6154C209.069 61.6813 209.789 61.749 210.512 61.8184L210.381 62.324C211.094 62.3925 211.809 62.4628 212.526 62.5348L212.659 62.0294C213.377 62.1014 214.097 62.1753 214.819 62.2508L214.684 62.756C215.396 62.8305 216.111 62.9068 216.827 62.9847L216.965 62.4798C217.678 62.5574 218.393 62.6367 219.109 62.7176L218.97 63.2223C219.686 63.3031 220.404 63.3857 221.124 63.47L221.266 62.9655C221.975 63.0485 222.686 63.1332 223.399 63.2195L223.255 63.7237C223.966 63.8098 224.679 63.8975 225.393 63.9869L225.539 63.483C226.253 63.5723 226.969 63.6632 227.686 63.7558L227.537 64.2594C228.244 64.3506 228.952 64.4435 229.662 64.5379L229.812 64.0345C230.522 64.129 231.234 64.2251 231.948 64.3228L231.795 64.8259C232.505 64.9231 233.216 65.0219 233.928 65.1223L234.083 64.6195C234.789 64.719 235.496 64.82 236.204 64.9226L236.048 65.4251C236.756 65.5275 237.465 65.6316 238.175 65.7372L238.334 65.235C239.041 65.3401 239.749 65.4468 240.459 65.555L240.298 66.0569C241.002 66.1642 241.706 66.2731 242.412 66.3834L242.575 65.8818C243.281 65.9923 243.989 66.1043 244.697 66.2178L244.533 66.7191C244.886 66.7758 245.241 66.8329 245.595 66.8903C245.95 66.9478 246.304 67.0055 246.657 67.0636L246.824 66.5626C247.531 66.6787 248.237 66.7959 248.941 66.9141L248.772 67.4147C249.475 67.5328 250.177 67.6519 250.876 67.7721L251.046 67.2718C251.752 67.393 252.455 67.5152 253.156 67.6384L252.984 68.1384C253.688 68.2622 254.39 68.387 255.09 68.5128L255.265 68.0132C255.966 68.1391 256.664 68.2661 257.361 68.394L257.184 68.8932C257.887 69.0224 258.588 69.1525 259.286 69.2836L259.465 68.7847C260.167 68.9165 260.867 69.0493 261.564 69.1831L261.384 69.6815C262.08 69.8152 262.775 69.9498 263.467 70.0853L263.649 69.5872C264.351 69.7248 265.051 69.8633 265.748 70.0028L265.564 70.5005C266.262 70.6401 266.957 70.7807 267.65 70.9223L267.837 70.4251C268.531 70.5669 269.223 70.7097 269.912 70.8535L269.723 71.3503C270.423 71.4962 271.119 71.643 271.813 71.7908L272.004 71.2945C272.699 71.4424 273.391 71.5912 274.08 71.741L273.887 72.2369C274.58 72.3874 275.269 72.5389 275.956 72.6912L276.151 72.1958C276.847 72.3502 277.541 72.5056 278.231 72.6618L278.033 73.1567C278.723 73.3128 279.409 73.4697 280.092 73.6276L280.292 73.1332C280.984 73.2932 281.674 73.4542 282.36 73.616L282.158 74.1098C282.849 74.2727 283.536 74.4364 284.22 74.601L284.424 74.1076C285.109 74.2724 285.79 74.438 286.468 74.6044L286.261 75.0972C286.953 75.2671 287.642 75.4378 288.326 75.6094L288.535 75.1173C289.221 75.2891 289.903 75.4618 290.581 75.6353L290.369 76.1268C291.053 76.3018 291.734 76.4776 292.41 76.6542L292.624 76.1633C293.31 76.3426 293.993 76.5227 294.671 76.7036L294.455 77.1938C295.133 77.3745 295.806 77.556 296.476 77.7383L296.695 77.2487C297.38 77.4354 298.062 77.6228 298.739 77.8111L298.517 78.2999C299.195 78.4884 299.869 78.6777 300.538 78.8678L300.762 78.3797C301.44 78.5723 302.113 78.7656 302.782 78.9596L302.555 79.4469C303.233 79.6438 303.907 79.8414 304.575 80.0397L304.805 79.5533C305.475 79.7521 306.14 79.9516 306.801 80.1518L306.568 80.6373C307.246 80.8431 307.919 81.0495 308.587 81.2567L308.823 80.772C309.491 80.9795 310.154 81.1876 310.812 81.3964L310.573 81.8801C311.245 82.0933 311.911 82.3073 312.571 82.5219L312.813 82.0393C313.481 82.2562 314.142 82.4738 314.797 82.692L314.552 83.1734C315.216 83.3948 315.875 83.6167 316.527 83.8393L316.776 83.359C317.441 83.5861 318.1 83.8137 318.752 84.042L318.499 84.521C319.157 84.7514 319.808 84.9823 320.452 85.2137L320.708 84.736C321.371 84.974 322.026 85.2126 322.673 85.4518L322.412 85.928C323.064 86.1685 323.707 86.4095 324.343 86.651L324.608 86.1764C325.266 86.4263 325.916 86.6767 326.557 86.9275L326.288 87.4005C326.933 87.6528 327.569 87.9055 328.197 88.1586L328.471 87.6875C329.123 87.9503 329.765 88.2136 330.398 88.4771L330.119 88.9461C330.758 89.2123 331.388 89.4787 332.007 89.7454L332.291 89.2787C332.934 89.5556 333.567 89.8327 334.188 90.1101L333.898 90.5744C334.531 90.857 335.152 91.1397 335.763 91.4227L336.059 90.9612C336.689 91.2535 337.307 91.5459 337.913 91.8384L337.61 92.2967C338.236 92.5991 338.849 92.9016 339.448 93.2041L339.759 92.7494C340.372 93.0589 340.971 93.3684 341.555 93.6777L341.237 94.1282C341.854 94.4546 342.454 94.7808 343.038 95.1066L343.365 94.6609C343.97 94.9986 344.558 95.336 345.128 95.6729L344.79 96.1128C345.376 96.4595 345.943 96.8055 346.49 97.1509L346.839 96.7177C347.43 97.0907 347.998 97.4631 348.544 97.8345L348.183 98.2592C348.751 98.6463 349.294 99.0322 349.811 99.4166L350.188 99.0026C350.742 99.4144 351.266 99.825 351.762 100.234L351.368 100.634C351.893 101.068 352.383 101.499 352.838 101.927L353.253 101.545C353.756 102.019 354.218 102.49 354.637 102.958L354.198 103.314C354.651 103.821 355.052 104.322 355.4 104.817L355.87 104.5C356.272 105.071 356.606 105.637 356.871 106.197L356.366 106.454C356.652 107.057 356.851 107.647 356.965 108.222L357.503 108.064Z" stroke="#B3B3B3" stroke-width="1.05547" stroke-dasharray="2.11 2.11 2.11 2.11 2.11 2.11"/>
<path d="M463.49 125.342C463.605 126.007 463.617 126.66 463.522 127.3L462.981 127.302C462.935 127.607 462.863 127.909 462.765 128.207C462.666 128.506 462.542 128.799 462.391 129.088L462.876 129.255C462.56 129.86 462.141 130.443 461.62 131.005L461.228 130.706C460.789 131.18 460.268 131.643 459.664 132.094L459.969 132.472C459.408 132.892 458.784 133.299 458.098 133.691L457.861 133.269C457.259 133.613 456.605 133.949 455.9 134.275L456.086 134.724C455.447 135.019 454.769 135.306 454.053 135.584L453.905 135.119C453.256 135.371 452.574 135.616 451.86 135.855L451.978 136.331C451.287 136.561 450.567 136.785 449.819 137.002L449.726 136.518C449.063 136.71 448.377 136.898 447.667 137.08L447.742 137.568C447.034 137.75 446.303 137.927 445.551 138.098L445.494 137.605C444.819 137.759 444.127 137.908 443.417 138.053L443.461 138.549C442.747 138.695 442.016 138.837 441.267 138.974L441.236 138.476C440.551 138.602 439.852 138.724 439.139 138.842L439.16 139.342C438.451 139.46 437.727 139.575 436.99 139.685L436.978 139.184C436.277 139.289 435.564 139.391 434.838 139.49L434.841 139.993C434.14 140.088 433.427 140.181 432.703 140.271L432.707 139.767C431.986 139.856 431.254 139.942 430.51 140.026L430.499 140.53C429.808 140.607 429.107 140.682 428.397 140.755L428.414 140.249C427.706 140.321 426.988 140.391 426.261 140.458L426.238 140.964C425.522 141.03 424.797 141.093 424.062 141.154L424.09 140.648C423.395 140.706 422.692 140.761 421.981 140.815L421.948 141.321C421.235 141.375 420.515 141.426 419.786 141.475L419.823 140.968C419.11 141.016 418.389 141.062 417.661 141.106L417.619 141.613C416.922 141.655 416.217 141.695 415.506 141.733L415.551 141.225C414.841 141.263 414.124 141.299 413.401 141.333L413.352 141.841C412.633 141.875 411.909 141.906 411.177 141.936L411.23 141.429C410.535 141.457 409.835 141.484 409.128 141.509L409.072 142.017C408.364 142.042 407.651 142.065 406.932 142.086L406.991 141.579C406.273 141.6 405.549 141.62 404.819 141.638L404.757 142.146C404.058 142.163 403.354 142.179 402.644 142.193L402.709 141.685C402.007 141.699 401.301 141.711 400.589 141.722L400.521 142.23C399.808 142.241 399.091 142.25 398.368 142.258L398.439 141.75C397.728 141.758 397.012 141.764 396.291 141.768L396.218 142.277C395.521 142.281 394.82 142.284 394.114 142.286L394.189 141.777C393.484 141.779 392.775 141.779 392.061 141.778L391.984 142.286C391.269 142.285 390.551 142.282 389.828 142.278L389.908 141.77C389.205 141.766 388.498 141.761 387.787 141.754L387.705 142.263C387.006 142.256 386.304 142.248 385.597 142.239L385.681 141.731C384.976 141.722 384.266 141.712 383.553 141.7L383.467 142.208C382.753 142.197 382.035 142.184 381.314 142.169L381.402 141.661C380.703 141.648 380 141.633 379.294 141.616L379.205 142.124C378.506 142.108 377.804 142.091 377.098 142.073L377.19 141.565C376.485 141.546 375.777 141.527 375.066 141.506L374.972 142.014C374.26 141.993 373.545 141.971 372.826 141.948L372.921 141.44C372.222 141.418 371.52 141.394 370.815 141.37L370.719 141.877C370.021 141.853 369.321 141.827 368.617 141.801L368.716 141.293C368.013 141.266 367.307 141.238 366.598 141.21L366.498 141.717C365.789 141.689 365.077 141.659 364.362 141.627L364.463 141.12C363.762 141.089 363.057 141.058 362.35 141.025L362.247 141.533C361.552 141.501 360.854 141.468 360.153 141.434L360.257 140.926C359.557 140.892 358.854 140.857 358.149 140.821L358.043 141.328C357.337 141.292 356.629 141.255 355.918 141.217L356.025 140.71C355.318 140.672 354.609 140.633 353.897 140.593L353.789 141.1C353.096 141.061 352.401 141.021 351.703 140.981L351.813 140.473C351.116 140.433 350.417 140.391 349.715 140.348L349.604 140.856C348.902 140.813 348.197 140.769 347.491 140.725L347.603 140.218C346.897 140.173 346.188 140.128 345.477 140.081L345.364 140.588C344.667 140.542 343.968 140.496 343.267 140.449L343.381 139.942C342.688 139.895 341.992 139.847 341.294 139.798L341.178 140.305C340.48 140.257 339.779 140.207 339.077 140.156L339.194 139.65C338.492 139.599 337.788 139.548 337.082 139.496L336.964 140.002C336.258 139.95 335.55 139.897 334.841 139.843L334.96 139.336C334.27 139.284 333.578 139.231 332.884 139.176L332.763 139.683C332.069 139.629 331.372 139.574 330.674 139.518L330.796 139.011C330.098 138.955 329.399 138.899 328.697 138.841L328.574 139.347C327.873 139.29 327.169 139.231 326.464 139.172L326.588 138.666C325.888 138.607 325.186 138.547 324.482 138.487L324.357 138.993C323.667 138.933 322.974 138.873 322.281 138.812L322.407 138.306C321.713 138.245 321.018 138.183 320.321 138.121L320.194 138.627C319.496 138.564 318.798 138.501 318.097 138.436L318.225 137.93C317.525 137.866 316.823 137.801 316.12 137.735L315.991 138.241C315.294 138.176 314.595 138.11 313.895 138.043L314.025 137.538C313.335 137.472 312.644 137.405 311.951 137.338L311.82 137.844C311.127 137.776 310.433 137.708 309.737 137.639L309.869 137.134C309.173 137.065 308.476 136.995 307.778 136.925L307.645 137.43C306.946 137.36 306.246 137.289 305.544 137.217L305.678 136.712C304.983 136.64 304.286 136.568 303.588 136.496L303.453 137.001C302.764 136.929 302.074 136.857 301.382 136.783L301.518 136.278C300.827 136.205 300.134 136.131 299.441 136.056L299.304 136.561C298.61 136.487 297.914 136.411 297.217 136.335L297.355 135.83C296.659 135.754 295.961 135.677 295.262 135.6L295.123 136.104C294.428 136.027 293.731 135.949 293.033 135.871L293.172 135.366C292.485 135.288 291.797 135.21 291.107 135.131L290.967 135.636C290.277 135.557 289.586 135.478 288.894 135.397L289.035 134.893C288.343 134.813 287.65 134.732 286.956 134.65L286.813 135.155C286.119 135.073 285.423 134.991 284.726 134.908L284.869 134.403C284.173 134.32 283.476 134.237 282.778 134.152L282.634 134.656C281.948 134.574 281.261 134.49 280.573 134.406L280.718 133.902C280.03 133.818 279.341 133.733 278.651 133.647L278.506 134.151C277.816 134.066 277.124 133.979 276.432 133.893L276.579 133.389C275.887 133.302 275.194 133.214 274.5 133.126L274.353 133.63C273.659 133.542 272.963 133.453 272.267 133.363L272.415 132.86C271.728 132.771 271.039 132.682 270.35 132.592L270.201 133.096C269.515 133.006 268.828 132.916 268.14 132.826L268.29 132.322C267.602 132.232 266.913 132.141 266.224 132.049L266.073 132.552C265.384 132.46 264.693 132.367 264.001 132.274L264.153 131.771C263.461 131.678 262.769 131.584 262.076 131.49L261.924 131.993C261.234 131.899 260.542 131.804 259.85 131.708L260.003 131.205C259.319 131.111 258.635 131.016 257.949 130.921L257.796 131.424C257.11 131.328 256.423 131.232 255.736 131.135L255.89 130.632C255.203 130.536 254.515 130.438 253.827 130.34L253.672 130.843C252.983 130.745 252.293 130.646 251.602 130.547L251.758 130.044C251.068 129.945 250.377 129.845 249.685 129.744L249.529 130.247C248.844 130.147 248.159 130.047 247.473 129.947L247.63 129.444C246.947 129.344 246.263 129.243 245.578 129.142L245.42 129.644C244.735 129.542 244.049 129.44 243.363 129.337L243.522 128.835C242.836 128.732 242.149 128.629 241.462 128.525L241.302 129.027C240.614 128.923 239.926 128.818 239.236 128.713L239.397 128.211C238.71 128.106 238.022 128.001 237.333 127.895L237.172 128.396C236.49 128.291 235.808 128.186 235.125 128.08L235.288 127.578C234.605 127.472 233.922 127.365 233.238 127.258L233.076 127.759C232.392 127.652 231.707 127.544 231.022 127.435L231.186 126.934C230.501 126.825 229.815 126.716 229.129 126.606L228.965 127.108C228.279 126.998 227.592 126.887 226.904 126.776L227.069 126.275C226.726 126.22 226.382 126.164 226.038 126.108C225.694 126.053 225.351 125.997 225.008 125.941L224.842 126.442C224.155 126.33 223.468 126.218 222.783 126.105L222.95 125.604C222.264 125.492 221.58 125.379 220.897 125.265L220.73 125.766C220.046 125.653 219.363 125.539 218.682 125.425L218.85 124.924C218.168 124.811 217.488 124.696 216.808 124.582L216.639 125.082C215.959 124.967 215.28 124.852 214.602 124.737L214.772 124.236C214.087 124.12 213.403 124.003 212.719 123.886L212.549 124.386C211.864 124.268 211.18 124.15 210.497 124.032L210.668 123.532C209.985 123.414 209.303 123.295 208.623 123.176L208.451 123.676C207.77 123.557 207.09 123.438 206.411 123.318L206.583 122.819C205.904 122.699 205.227 122.579 204.55 122.459L204.377 122.959C203.697 122.838 203.019 122.717 202.342 122.596L202.516 122.096C201.831 121.973 201.148 121.85 200.466 121.727L200.291 122.227C199.608 122.103 198.927 121.98 198.246 121.856L198.422 121.356C197.742 121.232 197.063 121.108 196.385 120.983L196.208 121.483C195.53 121.358 194.853 121.233 194.177 121.108L194.354 120.609C193.679 120.484 193.004 120.358 192.331 120.232L192.153 120.731C191.471 120.604 190.791 120.476 190.112 120.348L190.29 119.85C189.609 119.721 188.928 119.592 188.249 119.463L188.069 119.962C187.389 119.833 186.711 119.703 186.034 119.574L186.214 119.075C185.537 118.945 184.861 118.815 184.187 118.685L184.005 119.183C183.331 119.053 182.657 118.922 181.985 118.792L182.167 118.293C181.491 118.162 180.817 118.03 180.143 117.898L179.961 118.396C179.279 118.262 178.599 118.128 177.92 117.993L178.103 117.496C177.425 117.361 176.747 117.227 176.072 117.092L175.887 117.589C175.211 117.454 174.536 117.319 173.862 117.183L174.048 116.686C173.374 116.55 172.702 116.415 172.032 116.278L171.846 116.776C171.175 116.64 170.505 116.503 169.837 116.367L170.024 115.869C169.344 115.73 168.665 115.591 167.987 115.451L167.8 115.948C167.122 115.808 166.445 115.668 165.77 115.528L165.959 115.031C165.284 114.89 164.61 114.75 163.939 114.609L163.749 115.105C163.077 114.964 162.406 114.823 161.737 114.682L161.927 114.185C161.259 114.044 160.591 113.902 159.925 113.76L159.734 114.256C159.058 114.112 158.383 113.968 157.709 113.823L157.901 113.327C157.225 113.181 156.55 113.036 155.877 112.89L155.684 113.385C155.01 113.239 154.338 113.093 153.668 112.947L153.861 112.451C153.191 112.304 152.523 112.158 151.856 112.011L151.661 112.506C150.994 112.359 150.329 112.212 149.665 112.064L149.86 111.569C149.187 111.419 148.516 111.27 147.847 111.119L147.65 111.615C146.975 111.463 146.301 111.312 145.629 111.16L145.827 110.665C145.155 110.513 144.485 110.361 143.817 110.209L143.619 110.703C142.951 110.551 142.284 110.398 141.62 110.246L141.819 109.751C141.154 109.598 140.492 109.445 139.831 109.292L139.631 109.787C138.96 109.631 138.291 109.475 137.624 109.319L137.825 108.825C137.152 108.668 136.48 108.51 135.811 108.352L135.609 108.846C134.94 108.688 134.272 108.53 133.606 108.372L133.809 107.878C133.144 107.72 132.481 107.561 131.819 107.402L131.615 107.896C130.954 107.737 130.294 107.578 129.636 107.419L129.841 106.926C129.172 106.764 128.504 106.601 127.838 106.439L127.632 106.932C126.961 106.768 126.292 106.604 125.626 106.439L125.833 105.947C125.167 105.783 124.503 105.618 123.841 105.454L123.633 105.946C122.97 105.781 122.31 105.617 121.653 105.452L121.862 104.959C121.204 104.794 120.549 104.629 119.896 104.464L119.686 104.956C119.014 104.786 118.345 104.616 117.679 104.446L117.89 103.954C117.223 103.784 116.558 103.613 115.896 103.442L115.684 103.934C115.021 103.763 114.361 103.592 113.703 103.42L113.916 102.929C113.259 102.758 112.604 102.587 111.951 102.416L111.737 102.906C111.077 102.733 110.42 102.56 109.765 102.386L109.981 101.896C109.313 101.719 108.648 101.541 107.986 101.364L107.769 101.854C107.106 101.677 106.446 101.499 105.788 101.321L106.007 100.831C105.349 100.654 104.695 100.476 104.043 100.298L103.824 100.787C103.172 100.609 102.522 100.431 101.876 100.253L102.096 99.7636C101.432 99.5804 100.77 99.397 100.111 99.2135L99.8896 99.7023C99.227 99.5177 98.5673 99.333 97.9105 99.1482L98.1337 98.6598C97.4774 98.4751 96.824 98.2902 96.1737 98.1053L95.9492 98.5933C95.2985 98.4083 94.6507 98.2231 94.0059 98.0378L94.2317 97.5502C93.5759 97.3618 92.9233 97.1732 92.2738 96.9846L92.0466 97.4718C91.3848 97.2796 90.7262 97.0873 90.071 96.8949L90.2996 96.4081C89.6449 96.2159 88.9934 96.0235 88.3453 95.8311L88.1153 96.3175C87.4667 96.125 86.8214 95.9323 86.1795 95.7396L86.4111 95.2537C85.7622 95.0589 85.1167 94.864 84.4747 94.6691L84.2417 95.1546C83.5816 94.9542 82.9252 94.7537 82.2726 94.5532L82.5072 94.0682C81.855 93.8678 81.2066 93.6674 80.5619 93.4669L80.3256 93.9515C79.6804 93.7509 79.0389 93.5502 78.4012 93.3495L78.639 92.8655C77.9947 92.6628 77.3542 92.46 76.7176 92.2572L76.4781 92.7407C75.8211 92.5314 75.1683 92.3221 74.5196 92.1128L74.761 91.6299C74.1129 91.4208 73.469 91.2116 72.8294 91.0025L72.5863 91.4849C71.946 91.2756 71.31 91.0663 70.6782 90.857L70.9232 90.3753C70.2804 90.1624 69.6422 89.9496 69.0083 89.7367L68.7614 90.2178C68.1095 89.9989 67.4622 89.7801 66.8197 89.5612L67.0686 89.0808C66.4268 88.8623 65.7897 88.6437 65.1574 88.4253L64.9065 88.905C64.2735 88.6863 63.6453 88.4677 63.022 88.2492L63.275 87.7702C62.6305 87.5442 61.9912 87.3184 61.3571 87.0926L61.1017 87.5708C60.4575 87.3414 59.8187 87.1122 59.1853 86.8831L59.443 86.4057C58.8104 86.1769 58.1832 85.9482 57.5616 85.7197L57.3015 86.1961C56.673 85.965 56.05 85.7341 55.4327 85.5033L55.6953 85.0278C55.0512 84.787 54.4133 84.5464 53.7817 84.3061L53.5165 84.7806C52.8839 84.5399 52.2576 84.2993 51.6376 84.059L51.9056 83.5856C51.2865 83.3456 50.6737 83.1059 50.0673 82.8665L49.7964 83.3388C49.1583 83.0868 48.5272 82.8351 47.9032 82.5837L48.1772 82.1126C47.5485 81.8593 46.9271 81.6064 46.313 81.3537L46.0358 81.8235C45.4206 81.5704 44.8127 81.3176 44.2121 81.0652L44.4927 80.5968C43.8658 80.3334 43.247 80.0703 42.6364 79.8076L42.3521 80.2744C41.7284 80.0061 41.1131 79.7383 40.5064 79.4709L40.7945 79.0057C40.1891 78.7389 39.5922 78.4725 39.004 78.2066L38.7118 78.67C38.0904 78.3891 37.4787 78.1088 36.8766 77.8291L37.1732 77.3678C36.5619 77.0838 35.9607 76.8004 35.3696 76.5177L35.0682 76.9767C34.4754 76.6931 33.8928 76.4102 33.3205 76.128L33.6269 75.6714C33.0111 75.3677 32.4072 75.0648 31.8153 74.7627L31.5031 75.2164C30.9088 74.9131 30.3266 74.6105 29.7565 74.3089L30.0748 73.8584C29.4847 73.546 28.9077 73.2347 28.3442 72.9244L28.0192 73.3713C27.4262 73.0447 26.8478 72.7193 26.2842 72.3949L26.6168 71.9523C26.0503 71.6263 25.499 71.3015 24.9631 70.978L24.6224 71.4158C24.036 71.0619 23.4677 70.7094 22.9178 70.3583L23.2681 69.9264C22.7215 69.5776 22.1933 69.2303 21.6839 68.8848L21.3232 69.3099C20.755 68.9246 20.2096 68.5412 19.6873 68.1598L20.0605 67.7436C19.5375 67.3618 19.0384 66.9824 18.5632 66.6055L18.1761 67.0112C17.6402 66.586 17.134 66.1636 16.658 65.7441L17.0623 65.3528C16.5698 64.9187 16.1109 64.4884 15.6859 64.0623L15.2617 64.4349C14.7927 63.9646 14.3635 63.4983 13.9747 63.0361L14.4229 62.6897C13.9939 62.1798 13.617 61.6772 13.2923 61.1824L12.8147 61.4892C12.4446 60.9252 12.1385 60.3681 11.8976 59.8182L12.4083 59.5723C12.1492 58.9809 11.9718 58.4046 11.8745 57.8437L11.3345 57.9917C11.219 57.3264 11.2075 56.6733 11.3025 56.0332L11.8439 56.0321C11.8893 55.7262 11.9611 55.4243 12.0596 55.1261C12.1581 54.8279 12.2828 54.5346 12.4337 54.246L11.9481 54.0784C12.264 53.474 12.6838 52.8908 13.2045 52.3287L13.5969 52.6279C14.0359 52.154 14.5566 51.6908 15.1601 51.2393L14.8554 50.8612C15.4165 50.4414 16.0408 50.0351 16.7268 49.6423L16.9635 50.065C17.5654 49.7204 18.2191 49.3849 18.9242 49.0588L18.7387 48.6097C19.3777 48.3142 20.0557 48.0274 20.7718 47.7493L20.9193 48.2146C21.5682 47.9626 22.2502 47.7173 22.9648 47.4789L22.8469 47.003C23.5375 46.7726 24.257 46.5489 25.005 46.332L25.0985 46.8156C25.7616 46.6232 26.4478 46.436 27.157 46.254L27.0827 45.7652C27.791 45.5834 28.5213 45.4069 29.2733 45.2356L29.3309 45.7285C30.0051 45.5749 30.6972 45.4256 31.407 45.2804L31.3631 44.7846C32.0772 44.6385 32.8087 44.4968 33.5573 44.3593L33.5889 44.8575C34.2732 44.7319 34.972 44.6098 35.6853 44.4913L35.664 43.9913C36.3737 43.8734 37.0973 43.759 37.8347 43.6482L37.8465 44.1497C38.5473 44.0444 39.2608 43.9423 39.9868 43.8434L39.9832 43.3407C40.6845 43.2451 41.3972 43.1526 42.1212 43.063L42.1173 43.5667C42.8383 43.4775 43.5707 43.3913 44.3144 43.308L44.3253 42.8036C45.0164 42.7262 45.7172 42.6513 46.4274 42.5791L46.4105 43.0842C47.1187 43.0122 47.8365 42.9426 48.5637 42.8757L48.5864 42.37C49.3026 42.304 50.028 42.2405 50.7622 42.1795L50.7342 42.6856C51.4293 42.6278 52.1325 42.5723 52.8437 42.5189L52.8765 42.0124C53.5892 41.9589 54.3098 41.9077 55.0383 41.8587L55.001 42.3655C55.7143 42.3175 56.4351 42.2716 57.1634 42.2279L57.205 41.7208C57.9028 41.6789 58.6074 41.6389 59.3187 41.6009L59.2732 42.1083C59.9833 42.0704 60.7001 42.0344 61.4236 42.0004L61.4729 41.4928C62.1911 41.459 62.9158 41.4272 63.647 41.3972L63.5942 41.9049C64.2891 41.8765 64.9899 41.8498 65.6965 41.8248L65.7526 41.317C66.4602 41.2919 67.1736 41.2686 67.8928 41.2471L67.8336 41.755C68.5517 41.7335 69.2756 41.7137 70.0051 41.6957L70.0673 41.1877C70.7666 41.1704 71.471 41.1547 72.1805 41.1405L72.1154 41.6486C72.8171 41.6347 73.5239 41.6223 74.2357 41.6114L74.3035 41.1033C75.0161 41.0924 75.7337 41.0831 76.4562 41.0754L76.3858 41.5835C77.097 41.5759 77.8129 41.5698 78.5336 41.5652L78.6065 41.057C79.3035 41.0526 80.0049 41.0496 80.7106 41.048L80.6353 41.5561C81.3403 41.5545 82.0496 41.5543 82.7632 41.5555L82.8408 41.0473C83.5551 41.0485 84.2738 41.0512 84.9967 41.0552L84.9169 41.5634C85.6197 41.5673 86.3266 41.5725 87.0374 41.5791L87.1194 41.071C87.8181 41.0775 88.5207 41.0852 89.2271 41.0943L89.1431 41.6024C89.8488 41.6115 90.5583 41.6218 91.2716 41.6334L91.3576 41.1253C92.0715 41.137 92.7892 41.1499 93.5105 41.1641L93.4226 41.6722C94.1216 41.6859 94.8242 41.7009 95.5301 41.7171L95.6199 41.2091C96.3186 41.2251 97.0207 41.2423 97.7261 41.2607L97.6345 41.7687C98.3393 41.7871 99.0475 41.8067 99.759 41.8274L99.8523 41.3195C100.564 41.3402 101.28 41.3622 101.998 41.3853L101.903 41.8932C102.602 41.9157 103.304 41.9393 104.009 41.9641L104.106 41.4562C104.803 41.4807 105.504 41.5063 106.207 41.5329L106.109 42.0407C106.812 42.0674 107.518 42.0951 108.226 42.1239L108.326 41.6162C109.035 41.6451 109.747 41.675 110.462 41.7061L110.361 42.2137C111.063 42.2442 111.767 42.2757 112.475 42.3083L112.577 41.8007C113.273 41.8328 113.971 41.8658 114.671 41.8999L114.567 42.4074C115.267 42.4415 115.97 42.4765 116.676 42.5126L116.781 42.0052C117.487 42.0413 118.196 42.0784 118.907 42.1165L118.799 42.6239C119.506 42.6618 120.215 42.7008 120.927 42.7407L121.036 42.2334C121.728 42.2723 122.424 42.3121 123.121 42.3529L123.011 42.8601C123.708 42.9008 124.408 42.9425 125.109 42.9852L125.221 42.478C125.923 42.5207 126.627 42.5644 127.334 42.6089L127.222 43.116C127.928 43.1606 128.636 43.2061 129.347 43.2525L129.461 42.7456C130.158 42.7911 130.857 42.8376 131.558 42.8849L131.443 43.3918C132.137 43.4387 132.833 43.4865 133.53 43.5352L133.647 43.0283C134.345 43.077 135.045 43.1266 135.748 43.1771L135.63 43.6838C136.332 43.7343 137.036 43.7856 137.743 43.8379L137.861 43.3312C138.567 43.3834 139.274 43.4365 139.984 43.4905L139.864 43.9971C140.555 44.0496 141.247 44.103 141.941 44.1572L142.062 43.6507C142.756 43.705 143.452 43.7601 144.15 43.816L144.029 44.3224C144.726 44.3783 145.426 44.435 146.127 44.4926L146.25 43.9863C146.952 44.044 147.656 44.1024 148.361 44.1617L148.237 44.668C148.937 44.7268 149.639 44.7865 150.342 44.847L150.467 44.3409C151.158 44.4003 151.85 44.4605 152.544 44.5216L152.418 45.0276C153.112 45.0886 153.807 45.1504 154.504 45.213L154.631 44.707C155.328 44.7696 156.027 44.8331 156.727 44.8973L156.599 45.4031C157.299 45.4673 158.001 45.5323 158.705 45.5981L158.834 45.0924C159.531 45.1576 160.23 45.2236 160.93 45.2904L160.8 45.796C161.489 45.8618 162.181 45.9283 162.873 45.9956L163.004 45.4901C163.697 45.5574 164.392 45.6255 165.088 45.6943L164.955 46.1998C165.651 46.2686 166.348 46.3382 167.046 46.4086L167.18 45.9032C167.878 45.9736 168.579 46.0447 169.28 46.1166L169.146 46.6219C169.842 46.6931 170.538 46.7652 171.237 46.8379L171.372 46.3328C172.06 46.4045 172.751 46.4771 173.442 46.5503L173.306 47.0554C173.998 47.1286 174.69 47.2026 175.384 47.2772L175.521 46.7722C176.215 46.847 176.91 46.9224 177.607 46.9986L177.469 47.5034C178.166 47.5796 178.864 47.6564 179.563 47.734L179.701 47.2292C180.397 47.3065 181.094 47.3844 181.792 47.463L181.652 47.9677C182.34 48.0452 183.028 48.1233 183.718 48.2021L183.858 47.6975C184.548 47.7764 185.239 47.8559 185.931 47.9362L185.79 48.4407C186.482 48.5209 187.175 48.6018 187.869 48.6834L188.011 48.179C188.706 48.2607 189.401 48.343 190.098 48.4261L189.955 48.9303C190.651 49.0133 191.349 49.097 192.047 49.1814L192.191 48.6772C192.877 48.76 193.564 48.8436 194.252 48.9278L194.107 49.4318C194.795 49.516 195.483 49.6008 196.173 49.6863L196.319 49.1824C197.009 49.2679 197.7 49.3541 198.392 49.441L198.246 49.9449C198.938 50.0317 199.631 50.1193 200.324 50.2074L200.472 49.7037C201.166 49.7919 201.861 49.8808 202.557 49.9704L202.409 50.474C203.097 50.5625 203.785 50.6516 204.475 50.7414L204.624 50.2379C205.31 50.3272 205.997 50.4172 206.685 50.5078L206.535 51.0112C207.223 51.1018 207.911 51.1931 208.601 51.285L208.751 50.7816C209.441 50.8736 210.132 50.9661 210.823 51.0593L210.672 51.5626C211.363 51.6558 212.055 51.7496 212.748 51.8441L212.9 51.341C213.591 51.4351 214.282 51.5298 214.974 51.6252L214.821 52.1282C215.505 52.2225 216.19 52.3174 216.875 52.4129L217.029 51.91C217.715 52.0055 218.401 52.1017 219.088 52.1985L218.934 52.7013C219.621 52.7981 220.309 52.8955 220.998 52.9935L221.153 52.4908C221.842 52.5889 222.532 52.6876 223.222 52.7869L223.066 53.2895C223.756 53.3887 224.447 53.4886 225.139 53.5892L225.296 53.0867C225.98 53.1862 226.666 53.2863 227.352 53.387L227.194 53.8893C227.877 53.9896 228.561 54.0905 229.246 54.1921L229.404 53.6898C230.089 53.7914 230.775 53.8936 231.461 53.9963L231.302 54.4985C231.989 54.6012 232.675 54.7045 233.363 54.8085L233.523 54.3065C234.21 54.4105 234.899 54.5151 235.588 54.6203L235.427 55.1222C236.115 55.2272 236.803 55.3327 237.492 55.4389L237.653 54.9371C238.334 55.0421 239.016 55.1478 239.699 55.254L239.537 55.7557C240.219 55.8618 240.902 55.9686 241.586 56.076L241.749 55.5745C242.433 55.6819 243.117 55.7899 243.802 55.8985L243.639 56.3999C244.324 56.5084 245.009 56.6176 245.695 56.7273L245.86 56.226C246.546 56.3358 247.233 56.4462 247.92 56.5572L247.755 57.0583C248.099 57.1138 248.442 57.1694 248.786 57.2252C249.13 57.2809 249.474 57.3368 249.817 57.3927L249.983 56.8916C250.67 57.0035 251.356 57.1158 252.042 57.2284L251.875 57.7294C252.56 57.842 253.244 57.9549 253.928 58.0682L254.095 57.5674C254.778 57.6807 255.461 57.7944 256.143 57.9084L255.975 58.4091C256.656 58.5231 257.337 58.6374 258.016 58.7521L258.185 58.2515C258.865 58.3662 259.544 58.4813 260.222 58.5967L260.052 59.0971C260.738 59.2137 261.422 59.3307 262.105 59.448L262.276 58.9477C262.961 59.0653 263.645 59.1832 264.328 59.3015L264.157 59.8017C264.839 59.9199 265.521 60.0385 266.202 60.1574L266.374 59.6573C267.055 59.7763 267.735 59.8956 268.414 60.0152L268.241 60.5151C268.92 60.6346 269.598 60.7545 270.275 60.8748L270.448 60.375C271.127 60.4957 271.806 60.6167 272.483 60.738L272.309 61.2377C272.993 61.3603 273.677 61.4832 274.359 61.6065L274.534 61.107C275.216 61.2304 275.898 61.354 276.578 61.478L276.403 61.9774C277.083 62.1013 277.762 62.2255 278.44 62.3501L278.616 61.8509C279.294 61.9755 279.971 62.1004 280.647 62.2257L280.47 62.7247C281.146 62.8499 281.82 62.9754 282.494 63.1012L282.672 62.6023C283.353 62.7296 284.034 62.8573 284.713 62.9853L284.534 63.484C285.216 63.6125 285.896 63.7413 286.576 63.8703L286.756 63.3717C287.435 63.5008 288.114 63.6303 288.791 63.76L288.611 64.2585C289.288 64.3882 289.963 64.5182 290.638 64.6484L290.819 64.1501C291.494 64.2805 292.167 64.4111 292.84 64.542L292.658 65.0402C293.334 65.1718 294.008 65.3037 294.681 65.4358L294.864 64.9378C295.545 65.0716 296.226 65.2058 296.905 65.3402L296.721 65.838C297.4 65.9724 298.077 66.1071 298.753 66.242L298.937 65.7443C299.614 65.8793 300.289 66.0146 300.962 66.1502L300.777 66.6477C301.45 66.7832 302.122 66.919 302.793 67.0551L302.979 66.5578C303.65 66.6939 304.319 66.8303 304.987 66.967L304.8 67.4642C305.481 67.6034 306.16 67.7429 306.837 67.8826L307.025 67.3856C307.703 67.5255 308.379 67.6656 309.054 67.8061L308.866 68.3029C309.541 68.4433 310.214 68.584 310.886 68.7249L311.075 68.2282C311.747 68.3692 312.418 68.5104 313.087 68.6519L312.897 69.1484C313.566 69.2899 314.233 69.4316 314.899 69.5736L315.09 69.0772C315.767 69.2215 316.442 69.366 317.115 69.5107L316.923 70.0069C317.6 70.1523 318.275 70.2981 318.948 70.444L319.141 69.9481C319.814 70.0941 320.487 70.2405 321.157 70.387L320.963 70.8828C321.633 71.0293 322.302 71.176 322.969 71.323L323.163 70.8274C323.83 70.9745 324.496 71.1218 325.16 71.2693L324.964 71.7647C325.637 71.9143 326.308 72.0641 326.978 72.2141L327.174 71.719C327.85 71.8703 328.523 72.022 329.195 72.1738L328.998 72.6688C329.669 72.8206 330.339 72.9726 331.007 73.1249L331.205 72.6302C331.874 72.7825 332.54 72.9351 333.205 73.0879L333.006 73.5824C333.67 73.7352 334.333 73.8882 334.993 74.0413L335.194 73.547C335.865 73.7026 336.534 73.8584 337.201 74.0144L337 74.5085C337.673 74.6659 338.344 74.8235 339.013 74.9814L339.215 74.4875C339.885 74.6454 340.552 74.8036 341.218 74.962L341.015 75.4556C341.68 75.6139 342.344 75.7724 343.005 75.9311L343.209 75.4377C343.871 75.5965 344.53 75.7555 345.188 75.9147L344.983 76.4079C345.653 76.57 346.321 76.7324 346.986 76.895L347.192 76.4021C347.863 76.5659 348.532 76.73 349.199 76.8942L348.992 77.3869C349.658 77.551 350.322 77.7154 350.984 77.88L351.192 77.3876C351.854 77.5522 352.514 77.717 353.172 77.8821L352.963 78.3742C353.62 78.5391 354.276 78.7042 354.929 78.8695L355.139 78.3777C355.81 78.5476 356.479 78.7177 357.146 78.888L356.934 79.3796C357.602 79.55 358.266 79.7206 358.929 79.8914L359.141 79.4001C359.804 79.5709 360.464 79.742 361.122 79.9132L360.908 80.4042C361.566 80.5753 362.221 80.7466 362.873 80.918L363.088 80.4273C363.747 80.6005 364.404 80.774 365.059 80.9475L364.843 81.438C365.511 81.615 366.176 81.7923 366.839 81.9697L367.056 81.4796C367.718 81.657 368.379 81.8347 369.036 82.0125L368.818 82.5023C369.475 82.6799 370.13 82.8578 370.781 83.0357L371.001 82.5463C371.653 82.7243 372.302 82.9025 372.949 83.0809L372.728 83.57C373.393 83.7532 374.054 83.9366 374.713 84.12L374.935 83.6313C375.598 83.8159 376.257 84.0006 376.914 84.1854L376.691 84.6738C377.347 84.8585 378 85.0433 378.651 85.2283L378.875 84.7403C379.526 84.9253 380.174 85.1105 380.819 85.2957L380.593 85.7834C381.249 85.9718 381.901 86.1604 382.551 86.349L382.778 85.8618C383.44 86.054 384.098 86.2463 384.753 86.4386L384.525 86.9255C385.18 87.1177 385.831 87.3101 386.479 87.5025L386.709 87.0161C387.358 87.2086 388.003 87.4012 388.645 87.5939L388.413 88.0799C389.062 88.2747 389.708 88.4696 390.35 88.6645L390.583 88.179C391.243 88.3794 391.899 88.5799 392.552 88.7804L392.317 89.2654C392.969 89.4658 393.618 89.6662 394.263 89.8666L394.499 89.3821C395.144 89.5827 395.786 89.7834 396.423 89.984L396.185 90.4681C396.83 90.6708 397.47 90.8736 398.107 91.0764L398.346 90.5929C399.003 90.8022 399.656 91.0115 400.305 91.2208L400.064 91.7037C400.712 91.9128 401.355 92.1219 401.995 92.331L402.238 91.8487C402.878 92.058 403.515 92.2673 404.146 92.4766L403.901 92.9583C404.544 93.1712 405.182 93.384 405.816 93.5968L406.063 93.1158C406.715 93.3347 407.362 93.5535 408.005 93.7723L407.756 94.2527C408.398 94.4713 409.035 94.6898 409.667 94.9083L409.918 94.4286C410.551 94.6473 411.179 94.8659 411.803 95.0844L411.549 95.5634C412.194 95.7893 412.833 96.0152 413.467 96.241L413.723 95.7628C414.367 95.9922 415.006 96.2214 415.639 96.4505L415.382 96.9278C416.014 97.1567 416.641 97.3854 417.263 97.6139L417.523 97.1375C418.152 97.3685 418.774 97.5995 419.392 97.8302L419.129 98.3058C419.773 98.5466 420.411 98.7871 421.043 99.0275L421.308 98.553C421.941 98.7937 422.567 99.0342 423.187 99.2745L422.919 99.748C423.538 99.9879 424.151 100.228 424.757 100.467L425.028 99.9948C425.666 100.247 426.297 100.498 426.921 100.75L426.647 101.221C427.276 101.474 427.897 101.727 428.511 101.98L428.789 101.51C429.404 101.763 430.012 102.016 430.612 102.268L430.332 102.737C430.959 103 431.577 103.263 432.188 103.526L432.472 103.059C433.096 103.327 433.711 103.595 434.318 103.863L434.03 104.328C434.635 104.595 435.232 104.861 435.821 105.127L436.113 104.664C436.734 104.944 437.346 105.225 437.948 105.505L437.651 105.966C438.263 106.25 438.864 106.533 439.455 106.816L439.756 106.357C440.349 106.64 440.932 106.923 441.504 107.206L441.198 107.662C441.813 107.966 442.417 108.269 443.009 108.571L443.321 108.117C443.916 108.421 444.498 108.723 445.068 109.025L444.75 109.475C445.34 109.788 445.917 110.099 446.48 110.409L446.805 109.962C447.398 110.289 447.977 110.614 448.54 110.939L448.208 111.381C448.774 111.707 449.325 112.032 449.861 112.356L450.202 111.918C450.788 112.272 451.357 112.624 451.907 112.975L451.556 113.407C452.103 113.756 452.631 114.103 453.141 114.449L453.501 114.024C454.069 114.409 454.615 114.792 455.137 115.174L454.764 115.59C455.287 115.972 455.786 116.351 456.261 116.728L456.648 116.322C457.184 116.748 457.69 117.17 458.166 117.589L457.762 117.981C458.255 118.415 458.714 118.845 459.139 119.271L459.563 118.899C460.032 119.369 460.461 119.835 460.85 120.297L460.402 120.644C460.831 121.154 461.208 121.656 461.532 122.151L462.01 121.844C462.38 122.408 462.686 122.966 462.927 123.515L462.416 123.761C462.675 124.353 462.853 124.929 462.95 125.49L463.49 125.342Z" stroke="#B3B3B3" stroke-width="1.05547" stroke-dasharray="2.11 2.11 2.11 2.11 2.11 2.11"/>
<path d="M206.841 5.94409C206.01 12.7309 206.256 14.7277 200.449 15.4846C206.156 16.411 206.238 18.5007 206.841 25.0251C207.635 18.4636 207.48 16.4969 213.233 15.4846C207.436 14.7393 207.631 12.7216 206.841 5.94409Z" fill="#3E4343"/>
<path d="M302.541 0C301.709 6.7868 301.955 8.7836 296.148 9.54053C301.856 10.4669 301.937 12.5566 302.541 19.081C303.335 12.5195 303.179 10.5529 308.933 9.54053C303.135 8.79521 303.33 6.77751 302.541 0Z" fill="white"/>
<path d="M277.646 7.08342L274.389 5.67681L274.388 5.67664C274.388 5.67658 274.388 5.67652 274.388 5.67646C274.383 5.67489 274.375 5.67217 274.366 5.66902C274.353 5.66439 274.333 5.6567 274.31 5.64513C274.307 5.64397 274.305 5.64291 274.303 5.64202L274.294 5.63832L274.288 5.63665L274.269 5.62918C273.671 5.39033 272.986 5.46123 272.32 5.95569C272.32 5.95583 272.32 5.95596 272.319 5.95609L272.106 6.11545L272.106 6.11614L246.147 25.4086L246.147 25.4086L220.186 44.7092L220.185 44.7099L219.972 44.8692C219.295 45.3765 218.772 46.2207 218.482 47.2191L218.482 47.2214C218.476 47.2413 218.47 47.2595 218.465 47.2731L218.465 47.2745C218.46 47.2893 218.457 47.2991 218.454 47.3091L218.451 47.319L218.449 47.3247C218.449 47.3228 218.449 47.3247 218.447 47.3287L218.448 47.3253L277.646 7.08342ZM277.646 7.08342L276.247 7.87708L276 8.01697L276.084 8.28773L287.952 46.3967C288.232 47.3021 288.201 48.3587 287.911 49.3504C287.909 49.3571 287.895 49.4006 287.884 49.448C287.883 49.4533 287.881 49.4582 287.88 49.4626C287.877 49.4737 287.874 49.4844 287.872 49.4909L287.872 49.4917L287.869 49.5042L287.869 49.5048L287.866 49.5116L287.863 49.5227C287.573 50.5221 287.051 51.3693 286.374 51.8718L286.374 51.8719L234.594 90.3648L234.389 90.5168L234.47 90.7586L235.017 92.3948L232.029 91.0979L232.019 91.0936L232.009 91.0901C232.009 91.0901 232.008 91.0898 232.006 91.0888L231.994 91.084L231.992 91.0832C231.984 91.08 231.971 91.0744 231.956 91.0691C231.354 90.8308 230.827 90.2684 230.544 89.3672L218.389 50.3449L218.389 50.3446C218.117 49.4759 218.137 48.467 218.397 47.5077L277.646 7.08342ZM218.427 47.4014C218.427 47.3998 218.428 47.3982 218.428 47.3967L218.092 47.2918L218.423 47.4118C218.424 47.4083 218.426 47.4048 218.427 47.4014Z" fill="black" stroke="white" stroke-width="0.703646"/>
<path d="M238.088 92.7432L290.441 53.8247C292.024 52.6477 292.75 49.9007 292.058 47.6859L280.081 9.22117C279.393 7.00586 277.55 6.16717 275.966 7.34416L223.613 46.2585C222.029 47.4355 221.304 50.1825 221.996 52.3973L233.973 90.8621C234.661 93.0774 236.505 93.9202 238.088 92.7432Z" fill="url(#paint0_linear)"/>
<path d="M234.396 91.0348L234.396 91.0346L222.241 52.016C221.946 51.0667 221.992 49.9528 222.322 48.9189C222.652 47.8847 223.255 46.9619 224.037 46.3807L223.827 46.0984L224.037 46.3807L249.601 27.3755L263.465 71.8929L238.086 92.3006C237.313 92.8748 236.534 92.9899 235.897 92.7735C235.256 92.5561 234.69 91.9805 234.396 91.0348Z" fill="black" stroke="white" stroke-width="0.703646"/>
<path d="M250.2 26.9348L263.981 71.1804L290.028 53.697C290.804 53.1158 291.404 52.1955 291.733 51.1642C292.062 50.1304 292.108 49.0165 291.813 48.0672C291.813 48.0672 291.813 48.0671 291.813 48.0671L279.662 9.0442C279.366 8.09867 278.799 7.52396 278.158 7.30698C277.518 7.09053 276.737 7.20671 275.962 7.78231L250.2 26.9348ZM250.2 26.9348L275.961 7.78247L250.2 26.9348Z" fill="black" stroke="white" stroke-width="0.703646"/>
<path d="M291.686 51.2775L255.429 44.5977L236.067 92.8171C236.675 92.9614 237.386 92.82 238.091 92.2966L291.686 51.2775ZM291.686 51.2775C291.351 52.2632 290.766 53.1416 290.016 53.698L290.016 53.6982L238.092 92.2964L291.686 51.2775Z" fill="black" stroke="white" stroke-width="0.703646"/>
<path d="M222.362 48.8062C222.697 47.8205 223.282 46.9422 224.032 46.3858L224.032 46.3856L275.96 7.7827L222.362 48.8062ZM222.362 48.8062L258.623 55.4814L277.984 7.26197C277.377 7.11774 276.666 7.25908 275.96 7.78249L222.362 48.8062Z" fill="#171717" stroke="white" stroke-width="0.703646"/>
<defs>
<linearGradient id="paint0_linear" x1="286.069" y1="28.4517" x2="220.859" y2="48.7606" gradientUnits="userSpaceOnUse">
<stop stop-color="#7BDAFF"/>
<stop offset="1" stop-color="#59BDEF"/>
</linearGradient>
</defs>
</svg>
