<svg width="74" height="54" viewBox="0 0 74 54" fill="none" xmlns="http://www.w3.org/2000/svg">
<path d="M72.4027 4.99997H67.6019C67.5667 4.99997 67.5394 5.01559 67.5081 5.0195V1.1992C67.5081 0.53514 66.9691 0 66.3089 0C47.8169 0 39.196 4.1289 36.801 5.5273C34.4104 4.1289 25.789 0 7.29295 0C6.62889 0 6.09375 0.53906 6.09375 1.1992V5.0195C6.0625 5.01559 6.03516 4.99997 6 4.99997H1.1992C0.535141 4.99997 0 5.53903 0 6.19917V52.7972C0 53.4612 0.539061 53.9964 1.1992 53.9964H22.3982C23.0623 53.9964 23.5974 53.4573 23.5974 52.7972C23.5974 52.1331 23.0583 51.598 22.3982 51.598H2.4022V7.39897H6.0038C6.03896 7.39897 6.0663 7.38334 6.09755 7.37944V45.8524C6.09755 46.5165 6.63661 47.0516 7.29675 47.0516C28.1058 47.0516 35.9728 52.4813 36.0978 52.5711C36.1368 52.6024 36.1837 52.6141 36.2267 52.6375C36.2501 52.6493 36.2696 52.6688 36.2931 52.6766C36.3204 52.6922 36.3517 52.7039 36.379 52.7157C36.5157 52.7664 36.6563 52.8016 36.8009 52.8016C36.8165 52.8016 36.8282 52.7938 36.8399 52.7938C36.9689 52.7899 37.0939 52.7625 37.2189 52.7157C37.2462 52.7039 37.2735 52.6961 37.3048 52.6805C37.336 52.6649 37.3595 52.6454 37.3907 52.6297C37.4298 52.6063 37.4728 52.5985 37.5079 52.5711C37.586 52.5164 45.4376 47.0516 66.3089 47.0516C66.973 47.0516 67.5081 46.5126 67.5081 45.8524V7.37944C67.5394 7.38334 67.5667 7.39897 67.6019 7.39897H71.2035V51.598H48.8015C48.1374 51.598 47.6023 52.137 47.6023 52.7972C47.6023 53.4612 48.1413 53.9964 48.8015 53.9964H72.4035C73.0675 53.9964 73.6027 53.4573 73.6027 52.7972V6.19917C73.6027 5.53511 73.0636 4.99997 72.4035 4.99997H72.4027ZM8.4967 2.40617C25.6687 2.58195 33.6527 6.48817 35.6017 7.61317V49.5392C32.1837 47.8556 23.9067 44.8087 8.4967 44.6564V2.40617ZM65.1057 44.6562C49.6957 44.8085 41.4177 47.8515 38.0007 49.539V7.60497C39.9382 6.47217 47.8366 2.57767 65.1057 2.40187V44.6562Z" fill="#DEDEDE"/>
<path d="M14.9727 13.4163C20.6407 13.8225 25.6487 14.6858 29.8557 15.9866C29.9729 16.0217 30.094 16.0413 30.2112 16.0413C30.7229 16.0413 31.1994 15.7092 31.3557 15.1936C31.551 14.5608 31.1955 13.8889 30.5627 13.6936C26.1799 12.3381 20.9885 11.4397 15.1407 11.0217C14.4884 10.9827 13.9063 11.4709 13.8595 12.135C13.8126 12.7952 14.3126 13.3694 14.9728 13.4162L14.9727 13.4163Z" fill="#DEDEDE"/>
<path d="M30.5666 21.1659C26.1838 19.8104 20.9924 18.912 15.1446 18.494C14.4923 18.4588 13.9102 18.9432 13.8634 19.6073C13.8165 20.2674 14.3126 20.8417 14.9767 20.8885C20.6447 21.2947 25.6527 22.158 29.8597 23.4588C29.9769 23.4939 30.098 23.5135 30.2152 23.5135C30.7269 23.5135 31.2035 23.1814 31.3597 22.6658C31.555 22.033 31.1995 21.3611 30.5667 21.1658L30.5666 21.1659Z" fill="#DEDEDE"/>
<path d="M30.5666 28.6343C26.1838 27.2827 20.9924 26.3804 15.1446 25.9624C14.4923 25.9311 13.9102 26.4116 13.8634 27.0757C13.8165 27.7358 14.3126 28.3101 14.9767 28.3569C20.6447 28.7631 25.6527 29.6264 29.8597 30.9272C29.9769 30.9623 30.098 30.9819 30.2152 30.9819C30.7269 30.9819 31.2035 30.6498 31.3597 30.1342C31.555 29.5053 31.1995 28.8334 30.5667 28.6342L30.5666 28.6343Z" fill="#DEDEDE"/>
<path d="M30.5666 36.1038C26.1838 34.7522 20.9924 33.8499 15.1446 33.4319C14.4923 33.3928 13.9102 33.8811 13.8634 34.5452C13.8165 35.2053 14.3126 35.7796 14.9767 35.8264C20.6447 36.2326 25.6527 37.0959 29.8597 38.3967C29.9769 38.4318 30.098 38.4514 30.2152 38.4514C30.7269 38.4514 31.2035 38.1193 31.3597 37.6037C31.555 36.9709 31.1995 36.299 30.5667 36.1037L30.5666 36.1038Z" fill="#DEDEDE"/>
<path d="M43.3904 16.0447C43.5076 16.0447 43.6286 16.0291 43.7458 15.99C47.9567 14.6892 52.9646 13.8259 58.6288 13.4197C59.289 13.3728 59.789 12.7986 59.7421 12.1385C59.6953 11.4784 59.121 10.9901 58.4609 11.0252C52.6132 11.4432 47.4219 12.3416 43.0389 13.6971C42.4061 13.8924 42.0507 14.5643 42.246 15.1971C42.4022 15.7127 42.8788 16.0448 43.3905 16.0448L43.3904 16.0447Z" fill="#DEDEDE"/>
<path d="M43.3904 23.5131C43.5076 23.5131 43.6286 23.4975 43.7458 23.4584C47.9567 22.1576 52.9646 21.2943 58.6288 20.8881C59.289 20.8412 59.789 20.267 59.7421 19.6069C59.6953 18.9468 59.121 18.4624 58.4609 18.4936C52.6132 18.9116 47.4219 19.81 43.0389 21.1655C42.4061 21.3608 42.0507 22.0327 42.246 22.6655C42.4022 23.1811 42.8788 23.5132 43.3905 23.5132L43.3904 23.5131Z" fill="#DEDEDE"/>
<path d="M43.3904 30.9815C43.5076 30.9815 43.6286 30.9659 43.7458 30.9268C47.9567 29.626 52.9646 28.7627 58.6288 28.3565C59.289 28.3097 59.789 27.7355 59.7421 27.0753C59.6953 26.4152 59.121 25.9347 58.4609 25.962C52.6132 26.38 47.4219 27.2823 43.0389 28.6339C42.4061 28.8293 42.0507 29.5011 42.246 30.1339C42.4022 30.6535 42.8788 30.9816 43.3905 30.9816L43.3904 30.9815Z" fill="#DEDEDE"/>
<path d="M58.457 33.4357C52.6093 33.8537 47.418 34.756 43.035 36.1076C42.4022 36.3029 42.0467 36.9748 42.2421 37.6076C42.4022 38.1232 42.8749 38.4553 43.3866 38.4553C43.5037 38.4553 43.6248 38.4396 43.742 38.4006C47.9529 37.0998 52.9608 36.2365 58.625 35.8303C59.2852 35.7834 59.7852 35.2092 59.7383 34.5491C59.6915 33.885 59.1211 33.3968 58.4571 33.4358L58.457 33.4357Z" fill="#DEDEDE"/>
</svg>
