<svg width="33" height="25" viewBox="0 0 33 25" fill="none" xmlns="http://www.w3.org/2000/svg">
<path d="M19.3974 3.06249C19.3974 4.7545 18.027 6.12497 16.3349 6.12497C14.6429 6.12497 13.2725 4.7545 13.2725 3.06249C13.2725 1.37048 14.6429 0 16.3349 0C18.027 0 19.3974 1.37048 19.3974 3.06249Z" fill="#00FFD1"/>
<path d="M8.16697 6.12505C8.16697 7.81706 6.79649 9.18753 5.10448 9.18753C3.41438 9.18753 2.04199 7.81706 2.04199 6.12505C2.04199 4.43304 3.41438 3.06256 5.10448 3.06256C6.79649 3.06256 8.16697 4.43304 8.16697 6.12505Z" fill="#FF8552"/>
<path d="M30.6269 6.12505C30.6269 7.81706 29.2545 9.18753 27.5644 9.18753C25.8724 9.18753 24.502 7.81706 24.502 6.12505C24.502 4.43304 25.8724 3.06256 27.5644 3.06256C29.2545 3.06256 30.6269 4.43304 30.6269 6.12505Z" fill="#5278FF"/>
<path d="M27.5642 11.2294C26.6455 11.2294 25.8282 11.5356 25.0128 11.9433L16.3364 17.0481L7.66004 11.9433C6.84081 11.5356 6.02354 11.2294 5.1048 11.2294C2.24713 11.2294 0 13.4745 0 16.3342V24.5015H10.2076V18.1717L15.3124 21.2341C15.5172 21.3356 15.6187 21.4389 15.8235 21.4389C16.0283 21.4389 16.1297 21.5404 16.3346 21.5404C16.5394 21.5404 16.6408 21.5404 16.8456 21.4389C17.0504 21.4389 17.1519 21.3375 17.3567 21.2341L22.4615 18.1717L22.4596 24.4995H32.6672V16.3322C32.6672 13.4745 30.4221 11.2294 27.5644 11.2294H27.5642Z" fill="#9D9D9D"/>
<path d="M16.3336 14.6979L21.2336 11.8402C20.6211 9.79791 18.6821 8.26666 16.3336 8.26666C13.985 8.26666 12.1475 9.79791 11.4336 11.8402L16.3336 14.6979Z" fill="#9D9D9D"/>
</svg>
