<svg width="54" height="54" viewBox="0 0 54 54" fill="none" xmlns="http://www.w3.org/2000/svg">
<path d="M45.5622 37.1247C42.3496 37.1247 39.5866 38.9493 38.1604 41.5965L22.0765 32.8238C23.0574 31.1025 23.6248 29.1176 23.6248 26.9999C23.6248 24.8357 23.0299 22.8128 22.009 21.0664L32.2901 13.7235C33.8384 15.6304 36.1713 16.8749 38.8122 16.8749C43.4634 16.8749 47.2497 13.0886 47.2497 8.43745C47.2497 3.78629 43.4634 0 38.8122 0C34.161 0 30.3747 3.78629 30.3747 8.43745C30.3747 9.22422 30.5181 9.97309 30.7206 10.6966L19.906 18.4212C17.7903 16.4216 14.9448 15.1876 11.8125 15.1876C5.29902 15.1876 0 20.4863 0 27C0 33.5137 5.29875 38.8124 11.8125 38.8124C14.9766 38.8124 17.8497 37.5553 19.9714 35.5197L37.1904 44.9108C37.1735 45.1301 37.125 45.339 37.125 45.5625C37.125 50.2137 40.9113 54 45.5625 54C50.2137 54 54 50.2137 54 45.5625C54 40.9114 50.2137 37.1251 45.5625 37.1251L45.5622 37.1247ZM38.8122 3.37493C41.6029 3.37493 43.8747 5.64669 43.8747 8.4374C43.8747 11.2281 41.6029 13.4999 38.8122 13.4999C36.0215 13.4999 33.7497 11.2281 33.7497 8.4374C33.7497 5.64669 36.0215 3.37493 38.8122 3.37493ZM11.8122 35.4372C7.16099 35.4372 3.37467 31.6509 3.37467 26.9998C3.37467 22.3486 7.16099 18.5623 11.8122 18.5623C16.4634 18.5623 20.2497 22.3486 20.2497 26.9998C20.2497 31.6509 16.4634 35.4372 11.8122 35.4372ZM45.5622 50.6246C42.7715 50.6246 40.4997 48.3529 40.4997 45.5622C40.4997 42.7715 42.7715 40.4997 45.5622 40.4997C48.3529 40.4997 50.6247 42.7715 50.6247 45.5622C50.6247 48.3529 48.3529 50.6246 45.5622 50.6246Z" fill="#2A5EAC"/>
</svg>
