<svg width="1226" height="233" viewBox="0 0 1226 233" fill="none" xmlns="http://www.w3.org/2000/svg">
<path d="M843.233 29.2911C844.902 28.8968 846.166 27.5365 846.444 25.8447C846.718 24.1535 845.944 22.4616 844.486 21.5607C843.028 20.6598 841.169 20.7247 839.78 21.73C838.39 22.732 837.739 24.4713 838.134 26.1406C838.392 27.2362 839.075 28.1809 840.031 28.7716C840.987 29.3624 842.14 29.5492 843.233 29.2912L843.233 29.2911ZM841.541 22.1303C842.766 21.8411 844.046 22.3179 844.78 23.3387C845.515 24.3594 845.564 25.7223 844.902 26.794C844.243 27.8649 843.002 28.4303 841.758 28.2309C840.515 28.0276 839.517 27.0998 839.228 25.8752C839.037 25.0696 839.174 24.2239 839.611 23.522C840.044 22.8208 840.739 22.3199 841.541 22.1303L841.541 22.1303Z" fill="#C0C0C0"/>
<path d="M849.119 19.2494C849.431 20.5707 847.45 21.0389 847.137 19.7176C846.825 18.3962 848.807 17.9281 849.119 19.2494Z" fill="#C0C0C0"/>
<path d="M844.559 24.647C844.254 23.382 842.987 22.5993 841.723 22.8945L841.976 23.9677C842.659 23.8063 843.345 24.2297 843.506 24.9129C843.667 25.5961 843.244 26.2813 842.561 26.4427L842.814 27.5158C843.43 27.3705 843.958 26.9838 844.287 26.4467C844.615 25.9064 844.71 25.2579 844.559 24.6471L844.559 24.647Z" fill="#C0C0C0"/>
<line y1="189" x2="1226" y2="189" stroke="#D6D6D6" strokeWidth="2"/>
<path d="M291.158 136.264C290.553 136.264 289.948 135.782 289.948 135.054V127.315C289.948 126.71 290.43 126.105 291.158 126.105C291.763 126.105 292.367 126.587 292.367 127.315V135.054C292.367 135.777 291.763 136.264 291.158 136.264Z" fill="#C6C6C6"/>
<path d="M295.268 129.372C294.904 129.372 294.663 129.249 294.422 129.008C293.94 128.526 294.058 127.799 294.545 127.317C295.514 126.471 295.995 125.261 295.995 124.052C295.995 122.361 293.335 118.245 291.157 115.462C288.979 118.245 286.319 122.356 286.319 124.052C286.319 125.261 286.801 126.471 287.77 127.317C288.252 127.799 288.252 128.526 287.893 129.008C287.411 129.49 286.683 129.49 286.201 129.131C284.751 127.798 283.905 125.984 283.905 124.052C283.905 120.664 289.107 114.135 290.194 112.802L291.157 111.711L292.126 112.798C293.213 114.13 298.415 120.66 298.415 124.047C298.415 125.984 297.569 127.799 296.118 129.126C295.873 129.249 295.632 129.372 295.268 129.372H295.268Z" fill="#C6C6C6"/>
<path d="M296.724 206.053H285.475V156.703H296.724V206.053ZM287.894 203.757H294.423V159.123H287.894V203.757Z" fill="#C6C6C6"/>
<path d="M291.158 221.654C290.553 221.654 289.948 221.172 289.948 220.444V209.799C289.948 209.195 290.43 208.59 291.158 208.59C291.763 208.59 292.367 209.072 292.367 209.799V220.444C292.367 221.049 291.763 221.654 291.158 221.654Z" fill="#C6C6C6"/>
<path d="M291.158 222.143L286.197 217.182C285.715 216.7 285.715 215.972 286.197 215.49C286.679 215.008 287.406 215.008 287.888 215.49L291.276 218.878L294.664 215.49C295.145 215.008 295.873 215.008 296.355 215.49C296.837 215.972 296.837 216.7 296.355 217.182L291.158 222.143Z" fill="#C6C6C6"/>
<path d="M317.163 232.663C314.38 232.663 313.052 230.848 311.843 229.275C310.756 227.825 309.906 226.856 308.455 226.856C307.005 226.856 306.159 227.825 305.067 229.275C303.981 230.726 302.526 232.663 299.748 232.663C296.965 232.663 295.637 230.848 294.428 229.275C293.341 227.825 292.49 226.856 291.04 226.856C289.589 226.856 288.744 227.825 287.652 229.275C286.566 230.726 285.11 232.663 282.332 232.663C279.549 232.663 278.222 230.848 277.012 229.275C275.926 227.825 275.075 226.856 273.625 226.856C272.174 226.856 271.329 227.825 270.237 229.275C269.15 230.726 267.695 232.663 264.917 232.663C262.134 232.663 260.807 230.848 259.597 229.275C258.51 227.825 257.66 226.856 256.21 226.856C255.605 226.856 255 226.374 255 225.647C255 225.042 255.482 224.437 256.21 224.437C258.992 224.437 260.32 226.251 261.529 227.825C262.616 229.275 263.467 230.244 264.917 230.244C266.368 230.244 267.213 229.275 268.305 227.825C269.391 226.374 270.847 224.437 273.625 224.437C276.408 224.437 277.735 226.251 278.945 227.825C280.031 229.275 280.882 230.244 282.332 230.244C283.783 230.244 284.628 229.275 285.72 227.825C286.807 226.374 288.262 224.437 291.04 224.437C293.823 224.437 295.15 226.251 296.36 227.825C297.447 229.275 298.297 230.244 299.748 230.244C301.198 230.244 302.044 229.275 303.135 227.825C304.222 226.374 305.677 224.437 308.455 224.437C311.238 224.437 312.566 226.251 313.775 227.825C314.862 229.275 315.712 230.244 317.163 230.244C318.613 230.244 319.459 229.275 320.55 227.825C321.637 226.374 323.092 224.437 325.87 224.437C326.475 224.437 327.08 224.919 327.08 225.647C327.08 226.251 326.598 226.856 325.87 226.856C324.42 226.856 323.574 227.825 322.483 229.275C321.273 230.848 319.823 232.663 317.163 232.663Z" fill="#C6C6C6"/>
<path d="M273.256 188.517H273.133C272.528 188.394 272.046 187.789 272.164 187.185L278.212 147.03C278.576 144.852 280.508 143.16 282.686 143.16H299.86C302.038 143.16 303.971 144.852 304.335 147.03L310.382 187.185C310.505 187.789 310.018 188.394 309.414 188.517C308.809 188.64 308.204 188.153 308.081 187.548L302.034 147.394C301.911 146.307 300.947 145.579 299.855 145.579H282.568C281.481 145.579 280.631 146.425 280.39 147.394L274.342 187.548C274.347 188.153 273.742 188.517 273.255 188.517H273.256Z" fill="#C6C6C6"/>
<path d="M297.446 140.616C296.841 140.616 296.237 140.134 296.237 139.406V137.11C296.237 136.628 295.873 136.141 295.268 136.141H286.924C286.442 136.141 285.956 136.505 285.956 137.11V139.529C285.956 140.134 285.474 140.738 284.746 140.738C284.141 140.738 283.537 140.257 283.537 139.529V137.233C283.537 135.418 284.987 133.968 286.801 133.968H295.145C296.959 133.968 298.41 135.418 298.41 137.233L298.415 139.529C298.656 140.134 298.051 140.616 297.446 140.616L297.446 140.616Z" fill="#C6C6C6"/>
<path d="M291.158 159.121C290.553 159.121 289.948 158.639 289.948 157.911V144.366C289.948 143.761 290.43 143.156 291.158 143.156C291.763 143.156 292.367 143.638 292.367 144.366V157.794C292.367 158.517 291.763 159.122 291.158 159.122V159.121Z" fill="#C6C6C6"/>
<path d="M382.635 187.168L380.282 164.707C380.311 164.613 380.311 164.519 380.282 164.396L376.81 131.155V130.996L368.69 52.5012L366.18 28.446C366.244 28.3518 366.244 28.2285 366.244 28.1343C366.244 27.9748 366.18 27.8225 366.122 27.7283L366 26.6626C365.972 26.3146 365.656 26.0391 365.283 26.0391H363.052C362.715 26.0391 362.4 26.3146 362.371 26.6626L362.249 27.6993C362.156 27.8225 362.091 27.982 362.091 28.1415C362.091 28.2648 362.12 28.359 362.184 28.4533L357.192 76.5711C357.192 76.5711 357.192 76.6291 357.163 76.6291L348.147 163.837C348.053 163.961 347.989 164.113 347.989 164.272C347.989 164.396 348.017 164.49 348.046 164.62L345.722 187.363C345.658 187.74 345.937 188.081 346.339 188.146H346.432H346.49C346.705 188.146 346.927 188.052 347.049 187.864L364.222 165.375L381.301 187.741C381.422 187.995 381.638 188.147 381.953 188.147H381.982H382.011H382.039C382.161 188.118 382.29 188.082 382.384 187.988C382.635 187.792 382.728 187.451 382.635 187.168ZM360.103 62.2096L362.922 64.2105L359.637 66.5305L360.103 62.2096ZM359.329 69.6045L362.922 72.142L358.769 75.0854L359.329 69.6045ZM358.461 77.9998L362.922 81.1607L357.743 84.7928L358.461 77.9998ZM357.499 87.1202L362.764 90.2811L356.818 93.8843L357.499 87.1202ZM356.603 95.9506L362.836 99.7712L355.771 104.034L356.603 95.9506ZM355.52 106.535L362.865 111.016L354.53 116.025L355.52 106.535ZM354.279 118.469L362.836 123.732L353.102 129.59L354.279 118.469ZM352.851 132.193L362.858 138.333L351.481 145.163L352.851 132.193ZM351.237 147.758L362.829 154.834L349.652 162.787L351.237 147.758ZM347.364 185.132L349.315 166.21L356.072 173.728L347.364 185.132ZM356.94 172.568L350.125 164.984H362.736L356.94 172.568ZM363.453 163.549H351.18L363.453 156.125V163.549ZM363.453 153.551L351.99 146.533L363.453 139.61V153.551ZM363.453 137.014L353.597 130.968L363.453 124.987V137.014ZM363.453 122.449L355.118 117.345L363.453 112.299V122.449ZM363.453 109.733L356.323 105.347L363.453 101.055V109.733ZM363.453 98.4882L357.75 94.9793L363.453 91.5356V98.4882ZM363.453 89.0271L359.673 86.7724H363.453V89.0271ZM363.453 85.3296H359.486L363.453 82.5094V85.3296ZM363.453 79.7834L359.02 76.6515L363.453 73.5195V79.7834ZM363.453 70.7645L359.795 68.1981L363.453 65.6027V70.7645ZM363.453 62.8405L361.746 61.6225H363.453V62.8405ZM363.453 60.2087H360.326L361.036 53.2199H363.453L363.453 60.2087ZM363.453 51.7843H361.193V51.7553H363.453V51.7843ZM363.453 50.3126H361.315L362.033 43.5485H363.46L363.453 50.3126ZM363.453 42.0984H362.183L363.453 29.636V42.0984ZM378.667 162.859L365.555 154.84L377.118 147.852L378.667 162.859ZM376.838 145.191L365.583 138.333L375.504 132.351L376.838 145.191ZM375.231 129.625L365.562 123.739L374.083 118.569L375.231 129.625ZM373.832 116.061L365.591 111.015L372.871 106.629L373.832 116.061ZM372.591 104.062L365.555 99.7706L371.752 96.008L372.591 104.062ZM371.544 93.8836L365.562 90.2804L370.827 87.0832L371.544 93.8836ZM370.612 84.8285L365.404 81.16L369.894 77.9628L370.612 84.8285ZM369.586 75.0919L365.397 72.1486L369.027 69.5821L369.586 75.0919ZM368.718 66.5371L365.404 64.2171L368.259 62.1798L368.718 66.5371ZM364.873 29.6348L366.179 42.0973H364.873V29.6348ZM364.873 43.5474H366.329L367.011 50.3114H364.873L364.873 43.5474ZM364.873 51.747H367.169V51.776H364.873V51.747ZM364.873 53.2188H367.326L368.036 60.2076H364.873L364.873 53.2188ZM364.873 61.614H366.58L364.873 62.832V61.614ZM364.873 65.5942L368.56 68.1606L364.873 70.7632V65.5942ZM364.873 73.5182L369.306 76.6502L364.873 79.7821V73.5182ZM364.873 82.5443L368.84 85.3355H364.873V82.5443ZM364.873 86.7709H368.625L364.873 89.0256V86.7709ZM364.873 91.563L370.64 95.0358L364.873 98.5084V91.563ZM364.873 101.024L372.096 105.439L364.873 109.797V101.024ZM364.873 112.269L373.273 117.373L364.873 122.477V112.269ZM364.873 124.985L374.851 131.06L364.873 137.107V124.985ZM364.873 139.55L376.4 146.597L364.873 153.586V139.55ZM364.873 156.087L377.082 163.547H364.873V156.087ZM365.748 164.99H378.33L371.544 172.573L365.748 164.99ZM372.405 173.726L379.04 166.331L380.962 184.941L372.405 173.726Z" fill="#BDBDBD"/>
<path d="M383.812 10.8141C379.465 6.46693 373.475 4.69355 367.674 5.32377L367.78 6.81303C373.166 6.22774 378.709 7.87157 382.732 11.8943C386.755 15.917 388.398 21.4605 387.813 26.8466L389.303 26.9522C389.933 21.1511 388.159 15.1612 383.812 10.8141ZM379.492 15.1338C376.274 11.9157 371.848 10.5242 367.536 11.1581L367.707 12.6462C371.556 12.0805 375.51 13.3107 378.412 16.2134C381.315 19.1162 382.546 23.0696 381.98 26.9185L383.468 27.0904C384.102 22.7783 382.711 18.3521 379.492 15.1338ZM375.173 19.4535C373.045 17.3256 369.907 16.5861 367.102 17.2714L367.398 18.7324C369.693 18.171 372.35 18.7909 374.093 20.5331C375.835 22.2753 376.455 24.9327 375.893 27.2272L377.354 27.5239C378.04 24.7186 377.3 21.5808 375.172 19.453L375.173 19.4535Z" fill="#C2C2C2"/>
<path d="M454.486 156.227H413.833C413.317 156.227 412.908 156.638 412.908 157.166V183.449C412.908 183.973 413.314 184.389 413.833 184.389H420.392C420.818 186.529 422.682 188.144 424.92 188.144C427.154 188.144 429.022 186.529 429.448 184.389H438.871C439.297 186.529 441.161 188.144 443.399 188.144C445.634 188.144 447.501 186.529 447.927 184.389L454.486 184.385H461.044C461.47 186.525 463.334 188.141 465.572 188.141C467.807 188.141 469.674 186.525 470.1 184.385H476.658C477.175 184.385 477.583 183.973 477.583 183.445V168.426C477.583 168.106 477.434 167.824 477.178 167.638L466.092 160.13C465.939 160.035 465.756 159.979 465.572 159.979H455.411L455.407 157.163C455.407 156.638 455.002 156.227 454.486 156.227L454.486 156.227ZM424.92 186.261C423.385 186.261 422.148 185.004 422.148 183.445C422.148 181.886 423.385 180.629 424.92 180.629C426.454 180.629 427.691 181.886 427.691 183.445C427.691 185.004 426.454 186.261 424.92 186.261ZM443.399 186.261C441.864 186.261 440.628 185.004 440.628 183.445C440.628 181.886 441.864 180.629 443.399 180.629C444.934 180.629 446.171 181.886 446.171 183.445C446.171 185.004 444.931 186.261 443.399 186.261ZM453.561 160.918V182.505H447.924C447.924 182.488 447.907 182.467 447.907 182.467C447.851 182.203 447.758 181.942 447.667 181.678C447.629 181.583 447.574 181.509 447.539 181.414C447.467 181.245 447.373 181.076 447.279 180.925C447.224 180.83 447.151 180.738 447.096 180.661C446.985 180.531 446.891 180.379 446.763 180.267C446.69 180.193 446.597 180.098 446.524 180.024C446.396 179.911 446.264 179.799 446.136 179.704C446.043 179.63 445.953 179.573 445.859 179.517C445.71 179.422 445.565 179.348 445.398 179.274C445.305 179.218 445.215 179.179 445.104 179.144C444.92 179.07 444.733 179.014 444.549 178.975C444.456 178.957 444.366 178.919 444.272 178.901C443.995 178.845 443.701 178.806 443.385 178.806C443.07 178.806 442.793 178.845 442.498 178.901C442.405 178.919 442.315 178.957 442.221 178.975C442.038 179.031 441.851 179.07 441.667 179.144C441.556 179.183 441.463 179.239 441.372 179.274C441.224 179.348 441.057 179.425 440.912 179.517C440.818 179.573 440.728 179.647 440.635 179.704C440.506 179.799 440.375 179.911 440.247 180.024C440.153 180.098 440.08 180.175 440.007 180.267C439.897 180.397 439.786 180.531 439.675 180.661C439.602 180.756 439.547 180.83 439.491 180.925C439.398 181.076 439.308 181.245 439.231 181.414C439.193 181.509 439.138 181.583 439.103 181.678C439.01 181.921 438.92 182.185 438.864 182.467C438.864 182.484 438.847 182.505 438.847 182.505H429.423C429.423 182.488 429.406 182.467 429.406 182.467C429.351 182.203 429.257 181.942 429.167 181.678C429.129 181.583 429.074 181.509 429.039 181.414C428.966 181.245 428.873 181.076 428.779 180.925C428.724 180.83 428.651 180.738 428.595 180.661C428.485 180.531 428.391 180.379 428.263 180.267L428.024 180.024C427.896 179.911 427.764 179.799 427.636 179.704C427.542 179.63 427.452 179.573 427.359 179.517C427.21 179.422 427.064 179.348 426.898 179.274C426.804 179.218 426.714 179.179 426.603 179.144C426.42 179.07 426.233 179.014 426.049 178.975C425.956 178.957 425.865 178.919 425.772 178.901C425.495 178.845 425.2 178.806 424.885 178.806C424.57 178.806 424.293 178.845 423.998 178.901C423.905 178.919 423.814 178.957 423.721 178.975C423.537 179.031 423.35 179.07 423.167 179.144C423.056 179.183 422.962 179.239 422.872 179.274C422.723 179.348 422.557 179.425 422.411 179.517C422.318 179.573 422.228 179.647 422.134 179.704C422.006 179.799 421.874 179.911 421.746 180.024C421.653 180.098 421.58 180.175 421.507 180.267C421.396 180.397 421.285 180.531 421.175 180.661C421.102 180.756 421.046 180.83 420.991 180.925C420.897 181.076 420.807 181.245 420.731 181.414C420.693 181.509 420.638 181.583 420.603 181.678C420.509 181.921 420.419 182.185 420.364 182.467C420.364 182.484 420.347 182.505 420.347 182.505H414.758V158.103H453.561L453.561 160.918ZM465.572 186.261C464.037 186.261 462.8 185.004 462.8 183.445C462.8 181.886 464.037 180.629 465.572 180.629C467.107 180.629 468.344 181.886 468.344 183.445C468.344 185.004 467.103 186.261 465.572 186.261ZM465.295 161.858L475.734 168.937V182.508H470.097C470.097 182.491 470.08 182.47 470.08 182.47C470.024 182.206 469.931 181.945 469.841 181.681C469.803 181.586 469.747 181.512 469.712 181.417C469.64 181.248 469.546 181.079 469.453 180.928C469.397 180.833 469.324 180.742 469.269 180.664C469.158 180.534 469.065 180.383 468.936 180.27C468.864 180.196 468.77 180.101 468.697 180.027C468.569 179.914 468.438 179.802 468.309 179.707C468.216 179.633 468.126 179.576 468.032 179.52C467.883 179.425 467.738 179.351 467.571 179.277C467.478 179.221 467.388 179.182 467.277 179.147C467.093 179.073 466.906 179.017 466.723 178.978C466.629 178.961 466.539 178.922 466.445 178.904C466.168 178.848 465.874 178.809 465.559 178.809C465.243 178.809 464.966 178.848 464.672 178.904C464.578 178.922 464.488 178.961 464.394 178.978C464.211 179.034 464.024 179.073 463.84 179.147C463.729 179.186 463.636 179.242 463.546 179.277C463.397 179.351 463.23 179.429 463.085 179.52C462.991 179.576 462.901 179.65 462.808 179.707C462.68 179.802 462.548 179.914 462.42 180.027C462.326 180.101 462.253 180.178 462.181 180.27C462.07 180.4 461.959 180.534 461.848 180.664C461.775 180.759 461.72 180.833 461.664 180.928C461.571 181.079 461.481 181.248 461.405 181.417C461.367 181.512 461.311 181.586 461.276 181.681C461.183 181.924 461.093 182.188 461.037 182.47C461.037 182.487 461.02 182.508 461.02 182.508L455.408 182.505V161.854L465.295 161.858Z" fill="#BDBDBD"/>
<path d="M929.387 173.336H916.265C915.712 173.336 915.268 173.784 915.268 174.334V182.73C915.268 183.28 915.712 183.728 916.265 183.728H929.391C929.944 183.728 930.389 183.28 930.389 182.73L930.385 174.334C930.385 173.784 929.94 173.336 929.387 173.336H929.387ZM928.39 181.733H917.262V175.331H928.394L928.39 181.733Z" fill="#D2D2D2"/>
<path d="M978.062 173.336H964.936C964.383 173.336 963.939 173.784 963.939 174.334V182.73C963.939 183.28 964.383 183.728 964.936 183.728H978.062C978.616 183.728 979.06 183.28 979.06 182.73V174.334C979.06 173.784 978.616 173.336 978.062 173.336ZM977.065 181.733H965.934V175.331H977.065V181.733Z" fill="#D2D2D2"/>
<path d="M986.047 110H908.247C907.694 110 907.25 110.448 907.25 110.997V132.103C907.25 134.071 908.127 135.836 909.506 137.039L909.502 188.797C909.502 189.346 909.946 189.794 910.499 189.794H984.044C984.597 189.794 985.041 189.346 985.041 188.797V136.81C986.272 135.618 987.044 133.95 987.044 132.103L987.048 110.998C987.044 110.448 986.599 110 986.046 110L986.047 110ZM985.049 111.995V117.434H975.928L975.932 111.995H985.049ZM973.937 117.434H964.816V111.995H973.937V117.434ZM973.937 132.103C973.937 134.616 971.891 136.662 969.378 136.662C966.861 136.662 964.82 134.616 964.82 132.103L964.816 119.429H973.937L973.937 132.103ZM983.046 167.753H959.829V162.115H983.046V167.753ZM911.497 162.115H934.219V167.753H911.497V162.115ZM920.357 119.428H929.478V132.107C929.478 134.62 927.432 136.665 924.919 136.665C922.406 136.665 920.361 134.62 920.361 132.107L920.357 119.428ZM951.706 117.434H942.589V111.995H951.706V117.434ZM953.701 111.995H962.822V117.434H953.701V111.995ZM957.835 138.637V181.152L936.218 181.148V138.649C938.486 138.587 940.461 137.367 941.591 135.563C942.748 137.418 944.802 138.657 947.147 138.657C949.493 138.657 951.546 137.418 952.703 135.559C953.79 137.305 955.668 138.497 957.834 138.637L957.835 138.637ZM951.706 132.103C951.706 134.616 949.66 136.661 947.147 136.661C944.634 136.661 942.589 134.616 942.589 132.103V119.429H951.706V132.103ZM940.594 117.434H931.473V111.995H940.594V117.434ZM929.477 117.434H920.356V111.995H929.477V117.434ZM931.472 119.429H940.593V132.107C940.593 134.62 938.548 136.665 936.035 136.665C933.521 136.665 931.476 134.62 931.476 132.107L931.472 119.429ZM936.218 183.143H957.834V187.799H936.218V183.143ZM958.263 136.661C955.746 136.661 953.704 134.616 953.704 132.103L953.7 119.428H962.821V132.107C962.821 134.616 960.776 136.661 958.263 136.661L958.263 136.661ZM918.362 111.995V117.434H909.241L909.245 111.995H918.362ZM909.245 119.429H918.366V132.107C918.366 134.62 916.32 136.665 913.807 136.665C911.294 136.665 909.249 134.62 909.249 132.107L909.245 119.429ZM913.803 138.656C916.149 138.656 918.202 137.417 919.359 135.559C920.516 137.413 922.574 138.656 924.915 138.656C927.261 138.656 929.314 137.417 930.471 135.559C931.32 136.914 932.645 137.943 934.219 138.395L934.223 160.12H911.497V138.231C912.218 138.504 912.989 138.656 913.803 138.656L913.803 138.656ZM911.497 169.748H934.219L934.223 187.799H911.497L911.497 169.748ZM959.829 187.799V169.748H983.046V187.799H959.829ZM983.046 160.121H959.829V138.462C961.504 138.049 962.926 136.989 963.819 135.563C964.976 137.417 967.033 138.66 969.375 138.66C971.72 138.66 973.773 137.421 974.931 135.563C976.088 137.417 978.145 138.66 980.486 138.66C981.394 138.66 982.255 138.473 983.042 138.142L983.046 160.121ZM980.49 136.661C977.973 136.661 975.932 134.616 975.932 132.103V119.428H985.053V132.107C985.049 134.616 983.007 136.661 980.49 136.661V136.661Z" fill="#D2D2D2"/>
<path d="M952.749 163.266H941.544C940.99 163.266 940.546 163.714 940.546 164.263V174.159C940.546 174.709 940.99 175.157 941.544 175.157H952.745C953.298 175.157 953.742 174.709 953.742 174.159V164.263C953.746 163.71 953.298 163.266 952.749 163.266H952.749ZM951.751 173.162H942.544V165.26H951.751V173.162Z" fill="#D2D2D2"/>
<path d="M940.546 149.73V157.69C940.546 158.239 940.99 158.687 941.544 158.687H952.745C953.298 158.687 953.742 158.239 953.742 157.69L953.746 149.73C953.746 146.091 950.785 143.129 947.146 143.129C943.507 143.129 940.546 146.091 940.546 149.73H940.546ZM951.751 149.73V156.692H942.544L942.541 149.73C942.541 147.189 944.606 145.124 947.146 145.124C949.686 145.124 951.751 147.189 951.751 149.73H951.751Z" fill="#D2D2D2"/>
<path d="M872.903 4.48604L872.552 3.00038L852.504 7.7362L852.854 9.22186L862.352 6.97838L862.642 8.20623C860.889 8.89586 859.897 10.76 860.308 12.5991L820.501 22.0021C820.045 20.1705 818.32 18.9481 816.442 19.1196L816.152 17.8918L825.639 15.6506L825.288 14.165L805.25 18.8984L805.601 20.3841L815.088 18.143L815.378 19.3708C813.627 20.0636 812.638 21.927 813.044 23.7636L814.087 28.1787L831.23 26.4123L833.142 34.5044L838.833 33.16C836.535 35.5301 835.594 38.9097 836.344 42.1282L837.83 41.7772C836.959 37.4713 839.661 33.2535 843.934 32.2441C848.211 31.2339 852.515 33.7967 853.663 38.0372L855.149 37.6862L855.145 37.687C854.553 35.2103 853.003 33.0689 850.831 31.7378C850.218 31.362 849.561 31.0579 848.875 30.8321L854.602 29.4794L852.68 21.3454L868.801 15.2541L867.758 10.8391C867.3 9.01464 865.582 7.7908 863.705 7.95505L863.415 6.7272L872.903 4.48604ZM816.159 20.2854C817.606 19.9436 819.063 20.8244 819.43 22.2653L814.119 23.5199C813.81 22.0653 814.713 20.6305 816.159 20.2854L816.159 20.2854ZM867.009 14.3095L850.856 20.4084L852.725 28.3199L834.269 32.6796L832.398 24.7583L815.266 26.5256L814.891 24.94L866.643 12.7151L867.009 14.3095ZM866.678 11.1045L861.376 12.3568C861.03 10.8905 861.938 9.42039 863.405 9.07401C864.871 8.72763 866.341 9.63588 866.687 11.1022L866.678 11.1045Z" fill="#C0C0C0"/>
<path fillRule="evenodd" clipRule="evenodd" d="M833.923 148.369C842.463 148.369 846.6 158.296 846.6 165.59C846.6 172.706 842.726 182.285 834.625 182.811V188.785H858.658V182.811C852.934 182.459 848.359 177.715 848.359 172.003C848.359 165.942 853.29 161.108 859.276 161.108C865.261 161.108 870.193 165.939 870.193 172.003C870.193 177.715 865.614 182.46 859.894 182.811V188.785H881.728V179.296C873.54 178.857 868.434 169.895 872.308 162.602C871.78 155.66 873.275 138 882.432 138C891.587 138 893.084 155.659 892.557 162.602C896.343 169.895 891.237 178.854 883.05 179.296V188.785H921.698C922.49 188.785 922.403 190.014 921.61 189.927H827.501C826.709 190.014 826.621 188.785 827.413 188.785H833.312V182.811C825.212 182.285 821.25 172.707 821.25 165.59C821.25 158.297 825.389 148.369 833.926 148.369H833.923ZM839.996 163.831L834.625 169.543V181.494C840.524 181.055 845.277 174.113 845.277 165.59C845.277 156.805 840.171 149.686 833.921 149.686C827.67 149.686 822.564 156.802 822.564 165.59C822.564 174.113 827.318 181.052 833.303 181.494V175.52L827.932 169.808C827.405 169.282 828.285 168.491 828.812 169.017L833.3 173.848V162.34C833.213 161.462 834.62 161.462 834.62 162.34V167.875L839.108 163.043C839.636 162.427 840.518 163.218 839.988 163.834L839.996 163.831ZM856.725 174.287L858.662 176.572V169.456C858.574 168.578 859.894 168.578 859.894 169.456V181.494C864.912 181.142 868.874 177.014 868.874 172.005C868.874 166.645 864.56 162.43 859.279 162.43C853.998 162.43 849.685 166.648 849.685 172.005C849.685 177.014 853.646 181.142 858.665 181.494V178.418L855.848 175.078C855.321 174.462 856.201 173.671 856.728 174.287L856.725 174.287ZM876.356 158.121L881.727 163.834V177.979C874.332 177.54 869.931 169.281 873.717 162.865C873.013 156.627 874.422 139.319 882.433 139.319C890.443 139.319 891.853 156.627 891.148 162.865C894.844 169.278 890.53 177.537 883.048 177.979V172.005L888.419 166.383C888.946 165.767 888.066 164.976 887.539 165.592L883.051 170.337V153.381C883.051 152.503 881.731 152.503 881.731 153.468V162.166L877.243 157.422C876.716 156.805 875.833 157.596 876.363 158.125L876.356 158.121Z" fill="#D6D6D6" stroke="#D6D6D6" strokeWidth="0.5"/>
<path d="M689.656 171.733L677.844 175.207V179.707L677 180.551V182.801L680.938 185.895H704.282M689.656 171.733L696.969 169.582H702.313M689.656 171.733L692.469 175.207C692.469 175.207 714.407 175.207 715.251 175.207C716.094 175.207 718.204 172.676 718.204 172.676M718.204 172.676L710.188 169.582H702.313M718.204 172.676L726.22 175.77L728.188 179.707V183.926L726.22 185.895H704.282M702.313 169.582V182.801L704.282 185.895" stroke="#D0D0D0" strokeWidth="1.8"/>
<circle cx="690.219" cy="184.489" r="3.65631" fill="white" stroke="#D0D0D0" strokeWidth="1.8"/>
<circle cx="715.532" cy="184.489" r="3.65631" fill="white" stroke="#D0D0D0" strokeWidth="1.8"/>
<path d="M678.688 174.926L682.625 177.457L680.656 179.988H677.281" stroke="#D0D0D0" strokeWidth="1.8"/>
<rect x="695" y="178.02" width="2.25004" height="1.12502" fill="#C1C1C1"/>
<rect x="706.25" y="178.02" width="2.25004" height="1.12502" fill="#C1C1C1"/>
</svg>
