<svg width="375" height="147" viewBox="0 0 375 147" fill="none" xmlns="http://www.w3.org/2000/svg">
<line x1="-103" y1="118.895" x2="480.13" y2="118.895" stroke="#D6D6D6" strokeWidth="0.951273"/>
<path d="M40.9839 86.1498C40.6043 86.1498 40.2247 85.8473 40.2247 85.3906V80.5329C40.2247 80.1533 40.5272 79.7737 40.9839 79.7737C41.3635 79.7737 41.7431 80.0762 41.7431 80.5329V85.3906C41.7431 85.8443 41.3635 86.1498 40.9839 86.1498Z" fill="#C6C6C6"/>
<path d="M43.5629 81.8277C43.3346 81.8277 43.1833 81.7506 43.0321 81.5994C42.7296 81.2969 42.8037 80.8402 43.1092 80.5377C43.7171 80.0069 44.0196 79.2477 44.0196 78.4885C44.0196 77.4268 42.35 74.8437 40.9828 73.0969C39.6156 74.8437 37.946 77.4238 37.946 78.4885C37.946 79.2477 38.2485 80.0069 38.8564 80.5377C39.1589 80.8402 39.1589 81.2969 38.9335 81.5994C38.631 81.9019 38.1743 81.9019 37.8719 81.6765C36.9614 80.8402 36.4306 79.7013 36.4306 78.4884C36.4306 76.3621 39.6958 72.2636 40.3779 71.4272L40.9828 70.7422L41.5908 71.4243C42.2729 72.2606 45.5381 76.3591 45.5381 78.4855C45.5381 79.7014 45.0072 80.8402 44.0968 81.6735C43.9426 81.7506 43.7913 81.8277 43.563 81.8277H43.5629Z" fill="#C6C6C6"/>
<path d="M44.4777 129.957H37.4165V98.9812H44.4777V129.957ZM38.9349 128.516H43.0334V100.5H38.9349V128.516Z" fill="#C6C6C6"/>
<path d="M40.9839 139.751C40.6043 139.751 40.2247 139.448 40.2247 138.991V132.31C40.2247 131.93 40.5272 131.551 40.9839 131.551C41.3635 131.551 41.7431 131.853 41.7431 132.31V138.991C41.7431 139.371 41.3635 139.751 40.9839 139.751Z" fill="#C6C6C6"/>
<path d="M40.9829 140.055L37.869 136.941C37.5665 136.638 37.5665 136.182 37.869 135.879C38.1715 135.577 38.6282 135.577 38.9306 135.879L41.057 138.006L43.1834 135.879C43.4859 135.577 43.9426 135.577 44.2451 135.879C44.5475 136.182 44.5475 136.638 44.2451 136.941L40.9829 140.055Z" fill="#C6C6C6"/>
<path d="M57.3064 146.663C55.5596 146.663 54.7263 145.524 53.9671 144.537C53.285 143.626 52.7512 143.018 51.8407 143.018C50.9303 143.018 50.3995 143.626 49.7144 144.537C49.0323 145.447 48.1188 146.663 46.3751 146.663C44.6283 146.663 43.795 145.524 43.0358 144.537C42.3537 143.626 41.8199 143.018 40.9094 143.018C39.999 143.018 39.4682 143.626 38.7831 144.537C38.101 145.447 37.1875 146.663 35.4438 146.663C33.697 146.663 32.8637 145.524 32.1045 144.537C31.4224 143.626 30.8886 143.018 29.9781 143.018C29.0677 143.018 28.5368 143.626 27.8517 144.537C27.1696 145.447 26.2562 146.663 24.5125 146.663C22.7657 146.663 21.9324 145.524 21.1732 144.537C20.4911 143.626 19.9572 143.018 19.0468 143.018C18.6672 143.018 18.2876 142.716 18.2876 142.259C18.2876 141.879 18.5901 141.5 19.0468 141.5C20.7936 141.5 21.6269 142.639 22.3861 143.626C23.0682 144.537 23.602 145.145 24.5125 145.145C25.4229 145.145 25.9537 144.537 26.6388 143.626C27.3209 142.716 28.2344 141.5 29.9781 141.5C31.7249 141.5 32.5582 142.639 33.3174 143.626C33.9995 144.537 34.5333 145.145 35.4438 145.145C36.3542 145.145 36.885 144.537 37.5702 143.626C38.2523 142.716 39.1657 141.5 40.9094 141.5C42.6562 141.5 43.4895 142.639 44.2487 143.626C44.9308 144.537 45.4647 145.145 46.3751 145.145C47.2855 145.145 47.8164 144.537 48.5015 143.626C49.1836 142.716 50.097 141.5 51.8407 141.5C53.5875 141.5 54.4208 142.639 55.18 143.626C55.8621 144.537 56.396 145.145 57.3064 145.145C58.2168 145.145 58.7477 144.537 59.4328 143.626C60.1149 142.716 61.0283 141.5 62.7721 141.5C63.1517 141.5 63.5313 141.802 63.5313 142.259C63.5313 142.639 63.2288 143.018 62.7721 143.018C61.8616 143.018 61.3308 143.626 60.6457 144.537C59.8865 145.524 58.976 146.663 57.3064 146.663Z" fill="#C6C6C6"/>
<path d="M29.7461 118.954H29.669C29.2894 118.877 28.9869 118.498 29.0611 118.118L32.8571 92.9132C33.0854 91.546 34.2983 90.4844 35.6655 90.4844H46.4454C47.8126 90.4844 49.0255 91.546 49.2539 92.9132L53.0499 118.118C53.127 118.498 52.8216 118.877 52.442 118.954C52.0623 119.031 51.6828 118.726 51.6056 118.346L47.8096 93.1416C47.7325 92.4595 47.1275 92.0028 46.4424 92.0028H35.5911C34.909 92.0028 34.3752 92.5336 34.224 93.1416L30.4279 118.346C30.4309 118.726 30.0513 118.954 29.7458 118.954H29.7461Z" fill="#C6C6C6"/>
<path d="M44.9305 88.8835C44.5509 88.8835 44.1713 88.581 44.1713 88.1243V86.683C44.1713 86.3805 43.943 86.0751 43.5634 86.0751H38.3261C38.0236 86.0751 37.7181 86.3034 37.7181 86.683V88.2014C37.7181 88.5811 37.4156 88.9607 36.9589 88.9607C36.5793 88.9607 36.1997 88.6582 36.1997 88.2014V86.7602C36.1997 85.6214 37.1101 84.7109 38.2489 84.7109H43.4862C44.625 84.7109 45.5355 85.6214 45.5355 86.7602L45.5384 88.2014C45.6897 88.5811 45.3101 88.8835 44.9305 88.8835L44.9305 88.8835Z" fill="#C6C6C6"/>
<path d="M40.9839 100.501C40.6043 100.501 40.2247 100.199 40.2247 99.7422V91.2399C40.2247 90.8603 40.5272 90.4807 40.9839 90.4807C41.3635 90.4807 41.7431 90.7832 41.7431 91.2399V99.6686C41.7431 100.122 41.3635 100.502 40.9839 100.502V100.501Z" fill="#C6C6C6"/>
<path d="M98.4024 118.112L96.9256 104.013C96.9436 103.954 96.9436 103.895 96.9256 103.817L94.7465 82.9528V82.8527L89.6497 33.5826L88.0738 18.4835C88.1143 18.4243 88.1143 18.347 88.1143 18.2878C88.1143 18.1877 88.0738 18.0921 88.0378 18.033L87.9613 17.364C87.9433 17.1456 87.7451 16.9727 87.511 16.9727H86.1108C85.8992 16.9727 85.7011 17.1456 85.6831 17.364L85.6066 18.0148C85.548 18.0921 85.5075 18.1922 85.5075 18.2923C85.5075 18.3697 85.5255 18.4289 85.566 18.488L82.4323 48.691C82.4323 48.691 82.4323 48.7274 82.4143 48.7274L76.7547 103.467C76.6961 103.544 76.6556 103.64 76.6556 103.74C76.6556 103.817 76.6736 103.877 76.6916 103.958L75.2329 118.234C75.1923 118.471 75.3679 118.685 75.6201 118.725H75.6786H75.7146C75.8497 118.725 75.9893 118.666 76.0658 118.548L86.8447 104.432L97.565 118.471C97.6415 118.63 97.7766 118.726 97.9747 118.726H97.9927H98.0107H98.0288C98.1053 118.708 98.1863 118.685 98.2449 118.626C98.4025 118.503 98.4609 118.289 98.4024 118.112ZM84.2597 39.6765L86.0292 40.9324L83.967 42.3887L84.2597 39.6765ZM83.7734 44.3182L86.0291 45.9109L83.4222 47.7585L83.7734 44.3182ZM83.2286 49.5878L86.0291 51.5719L82.7784 53.8517L83.2286 49.5878ZM82.6253 55.3126L85.9301 57.2967L82.1975 59.5583L82.6253 55.3126ZM82.0625 60.8553L85.9751 63.2535L81.5401 65.9293L82.0625 60.8553ZM81.3826 67.4992L85.9931 70.3116L80.7612 73.4561L81.3826 67.4992ZM80.6037 74.9896L85.9752 78.2934L79.8653 81.9702L80.6037 74.9896ZM79.7077 83.604L85.9886 87.4584L78.8477 91.7451L79.7077 83.604ZM78.6947 93.3742L85.9706 97.8157L77.6996 102.808L78.6947 93.3742ZM76.2633 116.833L77.488 104.956L81.7293 109.675L76.2633 116.833ZM82.274 108.947L77.9968 104.187H85.912L82.274 108.947ZM86.3623 103.286H78.6586L86.3623 98.626V103.286ZM86.3623 97.0106L79.1674 92.6056L86.3623 88.2597V97.0106ZM86.3623 86.6305L80.1759 82.8352L86.3623 79.0809V86.6305ZM86.3623 77.4881L81.1304 74.2845L86.3623 71.1172V77.4881ZM86.3623 69.5062L81.8869 66.7531L86.3623 64.0591V69.5062ZM86.3623 62.4482L82.7828 60.2457L86.3623 58.0841V62.4482ZM86.3623 56.5095L83.9895 55.0943H86.3623V56.5095ZM86.3623 54.1886H83.8724L86.3623 52.4185V54.1886ZM86.3623 50.7074L83.5797 48.7415L86.3623 46.7756V50.7074ZM86.3623 45.0463L84.066 43.4354L86.3623 41.8063V45.0463ZM86.3623 40.0725L85.2907 39.308H86.3623V40.0725ZM86.3623 38.4205H84.3992L84.845 34.0337H86.3623L86.3623 38.4205ZM86.3623 33.1326H84.944V33.1144H86.3623V33.1326ZM86.3623 32.2088H85.0205L85.4707 27.9631H86.3667L86.3623 32.2088ZM86.3623 27.0529H85.5653L86.3623 19.2304V27.0529ZM95.912 102.853L87.6816 97.8198L94.9395 93.433L95.912 102.853ZM94.7639 91.7629L87.6995 87.458L93.9264 83.7036L94.7639 91.7629ZM93.7553 81.9926L87.6861 78.2975L93.0349 75.0528L93.7553 81.9926ZM92.8773 73.4784L87.704 70.311L92.2739 67.5579L92.8773 73.4784ZM92.0984 65.9471L87.6816 63.2531L91.5717 60.8913L92.0984 65.9471ZM91.4411 59.5579L87.686 57.2962L90.9908 55.2893L91.4411 59.5579ZM90.8557 53.8741L87.587 51.5714L90.4055 49.5646L90.8557 53.8741ZM90.2119 47.7626L87.5825 45.9151L89.8608 44.3041L90.2119 47.7626ZM89.6671 42.3928L87.587 40.9366L89.379 39.6578L89.6671 42.3928ZM87.2537 19.2297L88.0732 27.0522H87.2537V19.2297ZM87.2537 27.9624H88.1677L88.5955 32.2081H87.2537L87.2537 27.9624ZM87.2537 33.1092H88.6945V33.1275H87.2537V33.1092ZM87.2537 34.033H88.7935L89.2393 38.4198H87.2537L87.2537 34.033ZM87.2537 39.3027H88.3253L87.2537 40.0672V39.3027ZM87.2537 41.8009L89.568 43.4119L87.2537 45.0455V41.8009ZM87.2537 46.7748L90.0363 48.7407L87.2537 50.7065V46.7748ZM87.2537 52.4404L89.7436 54.1924H87.2537V52.4404ZM87.2537 55.0933H89.6086L87.2537 56.5086V55.0933ZM87.2537 58.1013L90.8737 60.2811L87.2537 62.4608V58.1013ZM87.2537 64.04L91.7877 66.8113L87.2537 69.5463V64.04ZM87.2537 71.098L92.5261 74.3017L87.2537 77.5054V71.098ZM87.2537 79.08L93.5166 82.8934L87.2537 86.6886V79.08ZM87.2537 88.2223L94.4891 92.6455L87.2537 97.0324V88.2223ZM87.2537 98.6024L94.9168 103.285H87.2537V98.6024ZM87.803 104.191H95.7003L91.4411 108.951L87.803 104.191ZM91.9813 109.674L96.1461 105.032L97.3527 116.714L91.9813 109.674Z" fill="#BDBDBD"/>
<path d="M99.1413 7.41287C96.4126 4.68422 92.6529 3.57109 89.0117 3.96667L89.078 4.90146C92.4588 4.53408 95.9384 5.56589 98.4634 8.09089C100.988 10.6159 102.02 14.0955 101.653 17.4763L102.588 17.5426C102.983 13.9013 101.87 10.1415 99.1413 7.41287ZM96.4298 10.1243C94.4099 8.10433 91.6313 7.23094 88.9247 7.62884L89.0326 8.56288C91.4485 8.20782 93.9299 8.97995 95.752 10.802C97.574 12.624 98.3463 15.1055 97.9911 17.5214L98.9251 17.6293C99.3232 14.9227 98.45 12.1444 96.4298 10.1243ZM93.7184 12.8357C92.3828 11.5001 90.4133 11.0359 88.6524 11.4661L88.8386 12.3831C90.2789 12.0307 91.9469 12.4198 93.0404 13.5134C94.134 14.6069 94.5231 16.2749 94.1707 17.7152L95.0877 17.9014C95.518 16.1406 95.0537 14.171 93.7181 12.8354L93.7184 12.8357Z" fill="#C2C2C2"/>
<path d="M143.502 98.6875H117.985C117.661 98.6875 117.404 98.946 117.404 99.2774V115.775C117.404 116.104 117.659 116.364 117.985 116.364H122.101C122.369 117.708 123.539 118.722 124.944 118.722C126.346 118.722 127.518 117.708 127.786 116.364H133.701C133.968 117.708 135.138 118.722 136.543 118.722C137.946 118.722 139.118 117.708 139.385 116.364L143.502 116.362H147.619C147.886 117.706 149.056 118.72 150.461 118.72C151.863 118.72 153.036 117.706 153.303 116.362H157.42C157.744 116.362 158 116.104 158 115.772V106.345C158 106.144 157.907 105.967 157.746 105.85L150.787 101.138C150.691 101.078 150.576 101.043 150.461 101.043H144.083L144.08 99.2752C144.08 98.946 143.826 98.6875 143.502 98.6875L143.502 98.6875ZM124.944 117.54C123.98 117.54 123.204 116.751 123.204 115.772C123.204 114.794 123.98 114.005 124.944 114.005C125.907 114.005 126.683 114.794 126.683 115.772C126.683 116.751 125.907 117.54 124.944 117.54ZM136.543 117.54C135.58 117.54 134.803 116.751 134.803 115.772C134.803 114.794 135.58 114.005 136.543 114.005C137.507 114.005 138.283 114.794 138.283 115.772C138.283 116.751 137.504 117.54 136.543 117.54ZM142.921 101.633V115.182H139.383C139.383 115.171 139.372 115.158 139.372 115.158C139.338 114.992 139.279 114.829 139.222 114.663C139.198 114.604 139.164 114.557 139.142 114.497C139.096 114.391 139.037 114.285 138.979 114.19C138.944 114.131 138.898 114.073 138.863 114.025C138.794 113.943 138.735 113.848 138.655 113.777C138.609 113.731 138.55 113.671 138.505 113.625C138.424 113.554 138.342 113.483 138.261 113.424C138.202 113.377 138.146 113.342 138.087 113.307C137.994 113.247 137.902 113.201 137.798 113.154C137.739 113.119 137.683 113.095 137.613 113.072C137.498 113.026 137.38 112.991 137.265 112.966C137.206 112.955 137.15 112.931 137.091 112.92C136.917 112.885 136.732 112.86 136.534 112.86C136.337 112.86 136.163 112.885 135.978 112.92C135.919 112.931 135.862 112.955 135.804 112.966C135.689 113.002 135.571 113.026 135.456 113.072C135.386 113.097 135.328 113.132 135.271 113.154C135.177 113.201 135.073 113.249 134.982 113.307C134.923 113.342 134.867 113.388 134.808 113.424C134.727 113.483 134.645 113.554 134.564 113.625C134.506 113.671 134.46 113.72 134.414 113.777C134.345 113.859 134.275 113.943 134.205 114.025C134.16 114.084 134.125 114.131 134.09 114.19C134.031 114.285 133.975 114.391 133.927 114.497C133.903 114.557 133.868 114.604 133.847 114.663C133.788 114.816 133.731 114.981 133.697 115.158C133.697 115.169 133.686 115.182 133.686 115.182H127.771C127.771 115.171 127.76 115.158 127.76 115.158C127.725 114.992 127.666 114.829 127.61 114.663C127.586 114.604 127.551 114.557 127.529 114.497C127.484 114.391 127.425 114.285 127.366 114.19C127.331 114.131 127.286 114.073 127.251 114.025C127.181 113.943 127.123 113.848 127.042 113.777L126.892 113.625C126.812 113.554 126.729 113.483 126.649 113.424C126.59 113.377 126.533 113.342 126.475 113.307C126.381 113.247 126.29 113.201 126.185 113.154C126.127 113.119 126.07 113.095 126.001 113.072C125.885 113.026 125.768 112.991 125.653 112.966C125.594 112.955 125.537 112.931 125.479 112.92C125.305 112.885 125.12 112.86 124.922 112.86C124.724 112.86 124.55 112.885 124.365 112.92C124.307 112.931 124.25 112.955 124.191 112.966C124.076 113.002 123.959 113.026 123.843 113.072C123.774 113.097 123.715 113.132 123.659 113.154C123.565 113.201 123.461 113.249 123.369 113.307C123.311 113.342 123.254 113.388 123.195 113.424C123.115 113.483 123.032 113.554 122.952 113.625C122.893 113.671 122.847 113.72 122.802 113.777C122.732 113.859 122.663 113.943 122.593 114.025C122.547 114.084 122.513 114.131 122.478 114.19C122.419 114.285 122.362 114.391 122.315 114.497C122.291 114.557 122.256 114.604 122.234 114.663C122.175 114.816 122.119 114.981 122.084 115.158C122.084 115.169 122.073 115.182 122.073 115.182H118.566V99.8651H142.921L142.921 101.633ZM150.461 117.54C149.497 117.54 148.721 116.751 148.721 115.772C148.721 114.794 149.497 114.005 150.461 114.005C151.424 114.005 152.2 114.794 152.2 115.772C152.2 116.751 151.422 117.54 150.461 117.54ZM150.287 102.222L156.839 106.665V115.184H153.301C153.301 115.173 153.29 115.16 153.29 115.16C153.255 114.994 153.197 114.831 153.14 114.665C153.116 114.606 153.081 114.559 153.06 114.499C153.014 114.393 152.955 114.287 152.897 114.192C152.862 114.133 152.816 114.075 152.781 114.027C152.712 113.945 152.653 113.85 152.573 113.779C152.527 113.733 152.468 113.673 152.423 113.627C152.342 113.556 152.259 113.485 152.179 113.426C152.12 113.379 152.064 113.344 152.005 113.309C151.911 113.249 151.82 113.203 151.716 113.156C151.657 113.121 151.601 113.097 151.531 113.074C151.416 113.028 151.298 112.993 151.183 112.968C151.124 112.957 151.068 112.933 151.009 112.922C150.835 112.887 150.65 112.862 150.452 112.862C150.254 112.862 150.08 112.887 149.896 112.922C149.837 112.933 149.78 112.957 149.722 112.968C149.606 113.004 149.489 113.028 149.374 113.074C149.304 113.099 149.245 113.134 149.189 113.156C149.095 113.203 148.991 113.251 148.9 113.309C148.841 113.344 148.784 113.39 148.726 113.426C148.645 113.485 148.563 113.556 148.482 113.627C148.423 113.673 148.378 113.722 148.332 113.779C148.262 113.861 148.193 113.945 148.123 114.027C148.078 114.086 148.043 114.133 148.008 114.192C147.949 114.287 147.893 114.393 147.845 114.499C147.821 114.559 147.786 114.606 147.764 114.665C147.706 114.818 147.649 114.983 147.614 115.16C147.614 115.171 147.604 115.184 147.604 115.184L144.081 115.182V102.22L150.287 102.222Z" fill="#BDBDBD"/>
<path d="M339.05 111.445H332.808C332.545 111.445 332.334 111.658 332.334 111.92V115.913C332.334 116.175 332.545 116.388 332.808 116.388H339.052C339.315 116.388 339.526 116.175 339.526 115.913L339.524 111.92C339.524 111.658 339.313 111.445 339.05 111.445H339.05ZM338.575 115.439H333.283V112.394H338.577L338.575 115.439Z" fill="#D2D2D2"/>
<path d="M362.202 111.445H355.959C355.696 111.445 355.484 111.658 355.484 111.92V115.913C355.484 116.175 355.696 116.388 355.959 116.388H362.202C362.465 116.388 362.676 116.175 362.676 115.913V111.92C362.676 111.658 362.465 111.445 362.202 111.445ZM361.728 115.439H356.433V112.394H361.728V115.439Z" fill="#D2D2D2"/>
<path d="M365.999 81.3203H328.995C328.732 81.3203 328.521 81.5334 328.521 81.7947V91.8333C328.521 92.7692 328.937 93.6086 329.593 94.1812L329.592 118.799C329.592 119.06 329.803 119.273 330.066 119.273H365.046C365.31 119.273 365.521 119.06 365.521 118.799V94.0721C366.106 93.5051 366.473 92.7119 366.473 91.8335L366.475 81.7949C366.473 81.5336 366.262 81.3205 365.999 81.3205L365.999 81.3203ZM365.525 82.2691V84.8562H361.186L361.188 82.2691H365.525ZM360.239 84.8562H355.901V82.2691H360.239V84.8562ZM360.239 91.8333C360.239 93.0286 359.266 94.0015 358.071 94.0015C356.874 94.0015 355.903 93.0286 355.903 91.8333L355.901 85.805H360.239L360.239 91.8333ZM364.572 108.79H353.529V106.108H364.572V108.79ZM330.54 106.108H341.348V108.79H330.54V106.108ZM334.755 85.8048H339.093V91.8351C339.093 93.0304 338.12 94.0033 336.925 94.0033C335.729 94.0033 334.756 93.0304 334.756 91.8351L334.755 85.8048ZM349.665 84.856H345.329V82.269H349.665V84.856ZM350.614 82.269H354.952V84.856H350.614V82.269ZM352.58 94.941V115.163L342.299 115.161V94.9468C343.377 94.9171 344.317 94.337 344.854 93.479C345.405 94.3611 346.381 94.9505 347.497 94.9505C348.613 94.9505 349.589 94.3611 350.14 93.4772C350.657 94.3074 351.55 94.8745 352.58 94.9412L352.58 94.941ZM349.665 91.8332C349.665 93.0285 348.692 94.0014 347.497 94.0014C346.302 94.0014 345.329 93.0285 345.329 91.8332V85.8049H349.665V91.8332ZM344.38 84.8561H340.042V82.269H344.38V84.8561ZM339.093 84.8561H334.754V82.269H339.093V84.8561ZM340.041 85.8049H344.38V91.8351C344.38 93.0304 343.407 94.0033 342.211 94.0033C341.016 94.0033 340.043 93.0304 340.043 91.8351L340.041 85.8049ZM342.299 116.11H352.58V118.324H342.299V116.11ZM352.784 94.0013C351.587 94.0013 350.616 93.0284 350.616 91.8331L350.614 85.8047H354.952V91.835C354.952 93.0284 353.979 94.0014 352.784 94.0014L352.784 94.0013ZM333.806 82.2691V84.8561H329.467L329.469 82.2691H333.806ZM329.469 85.8049H333.808V91.8352C333.808 93.0305 332.835 94.0034 331.639 94.0034C330.444 94.0034 329.471 93.0305 329.471 91.8352L329.469 85.8049ZM331.637 94.9502C332.753 94.9502 333.73 94.3609 334.28 93.4769C334.83 94.359 335.809 94.9502 336.923 94.9502C338.038 94.9502 339.015 94.3609 339.565 93.4769C339.969 94.1218 340.599 94.611 341.348 94.826L341.35 105.159H330.54V94.7482C330.883 94.8779 331.25 94.9502 331.637 94.9502L331.637 94.9502ZM330.54 109.739H341.348L341.35 118.324H330.54L330.54 109.739ZM353.529 118.324V109.739H364.572V118.324H353.529ZM364.572 105.16H353.529V94.8577C354.326 94.6612 355.002 94.1571 355.427 93.4789C355.977 94.3611 356.955 94.9522 358.069 94.9522C359.185 94.9522 360.161 94.3629 360.712 93.4789C361.262 94.3611 362.241 94.9522 363.354 94.9522C363.786 94.9522 364.196 94.8633 364.57 94.7057L364.572 105.16ZM363.356 94.0014C362.159 94.0014 361.188 93.0284 361.188 91.8331V85.8048H365.526V91.835C365.524 93.0285 364.553 94.0014 363.356 94.0014V94.0014Z" fill="#D2D2D2"/>
<path d="M350.161 106.656H344.832C344.569 106.656 344.357 106.869 344.357 107.131V111.838C344.357 112.099 344.569 112.312 344.832 112.312H350.159C350.423 112.312 350.634 112.099 350.634 111.838V107.131C350.636 106.868 350.423 106.656 350.161 106.656H350.161ZM349.687 111.363H345.308V107.605H349.687V111.363Z" fill="#D2D2D2"/>
<path d="M344.358 100.217V104.003C344.358 104.265 344.569 104.478 344.832 104.478H350.16C350.423 104.478 350.634 104.265 350.634 104.003L350.636 100.217C350.636 98.4866 349.228 97.0781 347.497 97.0781C345.766 97.0781 344.357 98.4866 344.357 100.217H344.358ZM349.687 100.217V103.529H345.308L345.306 100.217C345.306 99.0091 346.288 98.0269 347.497 98.0269C348.705 98.0269 349.687 99.0091 349.687 100.217H349.687Z" fill="#D2D2D2"/>
<path d="M311.26 46.2225L311.043 45.3044L298.654 48.231L298.871 49.1491L304.74 47.7627L304.919 48.5214C303.836 48.9476 303.223 50.0996 303.477 51.2361L278.878 57.0469C278.596 55.915 277.53 55.1596 276.369 55.2656L276.19 54.5068L282.053 53.1218L281.836 52.2037L269.453 55.1289L269.67 56.047L275.533 54.662L275.712 55.4208C274.629 55.849 274.018 57.0005 274.269 58.1355L274.914 60.8638L285.508 59.7723L286.689 64.7729L290.206 63.9422C288.786 65.4068 288.204 67.4953 288.668 69.4842L289.586 69.2674C289.048 66.6064 290.718 63.9999 293.359 63.3761C296.001 62.7519 298.661 64.3356 299.37 66.9561L300.289 66.7392L300.287 66.7397C299.921 65.2092 298.963 63.8858 297.62 63.0633C297.242 62.831 296.836 62.6431 296.412 62.5036L299.95 61.6676L298.763 56.641L308.726 52.8768L308.081 50.1484C307.798 49.021 306.736 48.2647 305.576 48.3662L305.397 47.6074L311.26 46.2225ZM276.194 55.986C277.088 55.7748 277.988 56.3191 278.216 57.2095L274.934 57.9848C274.742 57.0859 275.3 56.1993 276.194 55.986L276.194 55.986ZM307.618 52.2931L297.636 56.062L298.791 60.9511L287.385 63.6453L286.229 58.7501L275.642 59.8423L275.411 58.8624L307.392 51.3078L307.618 52.2931ZM307.413 50.3125L304.137 51.0864C303.923 50.1802 304.484 49.2717 305.391 49.0577C306.297 48.8436 307.205 49.4049 307.419 50.3111L307.413 50.3125Z" fill="#C0C0C0"/>
<path fillRule="evenodd" clipRule="evenodd" d="M275.547 91.0565C281.359 91.0565 284.174 97.8124 284.174 102.776C284.174 107.619 281.537 114.137 276.025 114.495V118.561H292.38V114.495C288.485 114.256 285.371 111.027 285.371 107.14C285.371 103.016 288.727 99.7257 292.8 99.7257C296.874 99.7257 300.23 103.014 300.23 107.14C300.23 111.028 297.114 114.256 293.221 114.495V118.561H308.08V112.104C302.508 111.805 299.033 105.706 301.669 100.742C301.31 96.0182 302.327 84 308.559 84C314.789 84 315.808 96.0177 315.449 100.742C318.026 105.706 314.551 111.803 308.979 112.104V118.561H335.281C335.82 118.561 335.76 119.397 335.221 119.338H271.176C270.637 119.397 270.578 118.561 271.117 118.561H275.131V114.495C269.619 114.137 266.923 107.619 266.923 102.776C266.923 97.8125 269.739 91.0565 275.549 91.0565H275.547ZM279.68 101.579L276.025 105.466V113.599C280.039 113.3 283.274 108.576 283.274 102.776C283.274 96.7974 279.799 91.9528 275.545 91.9528C271.292 91.9528 267.817 96.7956 267.817 102.776C267.817 108.576 271.052 113.298 275.125 113.599V109.534L271.47 105.646C271.111 105.288 271.71 104.75 272.069 105.108L275.123 108.396V100.564C275.064 99.9666 276.021 99.9666 276.021 100.564V104.331L279.076 101.043C279.435 100.623 280.035 101.161 279.674 101.581L279.68 101.579ZM291.064 108.695L292.382 110.25V105.407C292.323 104.809 293.221 104.809 293.221 105.407V113.599C296.636 113.359 299.332 110.55 299.332 107.142C299.332 103.494 296.396 100.626 292.803 100.626C289.209 100.626 286.273 103.496 286.273 107.142C286.273 110.55 288.969 113.359 292.385 113.599V111.506L290.468 109.233C290.109 108.813 290.708 108.275 291.066 108.695L291.064 108.695ZM304.424 97.6933L308.079 101.581V111.207C303.047 110.908 300.052 105.288 302.628 100.922C302.149 96.6764 303.108 84.8977 308.559 84.8977C314.01 84.8977 314.97 96.6763 314.49 100.922C317.006 105.286 314.07 110.906 308.978 111.207V107.142L312.633 103.316C312.992 102.896 312.393 102.358 312.035 102.778L308.98 106.006V94.467C308.98 93.8696 308.082 93.8696 308.082 94.5264V100.446L305.028 97.217C304.669 96.7977 304.068 97.3357 304.429 97.6958L304.424 97.6933Z" fill="#D6D6D6" stroke="#D6D6D6" strokeWidth="0.237818"/>
<path d="M217.064 106.732L208.604 109.22V112.442L208 113.047V114.658L210.82 116.874H227.538M217.064 106.732L222.301 105.191H226.128M217.064 106.732L219.078 109.22C219.078 109.22 234.789 109.22 235.393 109.22C235.997 109.22 237.508 107.407 237.508 107.407M237.508 107.407L231.767 105.191H226.128M237.508 107.407L243.248 109.623L244.658 112.442V115.464L243.248 116.874H227.538M226.128 105.191V114.658L227.538 116.874" stroke="#D0D0D0" strokeWidth="0.856146"/>
<circle cx="217.467" cy="115.868" r="2.61844" fill="white" stroke="#D0D0D0" strokeWidth="0.856146"/>
<circle cx="235.594" cy="115.868" r="2.61844" fill="white" stroke="#D0D0D0" strokeWidth="0.856146"/>
<path d="M209.21 109.017L212.03 110.829L210.62 112.642H208.203" stroke="#D0D0D0" strokeWidth="0.856146"/>
<rect x="220.891" y="111.23" width="1.61135" height="0.805675" fill="#C1C1C1"/>
<rect x="228.948" y="111.23" width="1.61135" height="0.805675" fill="#C1C1C1"/>
</svg>
