<svg width="270" height="243" viewBox="0 0 270 243" fill="none" xmlns="http://www.w3.org/2000/svg">
<path d="M165.724 196.091C164.159 196.054 162.929 196.016 161.811 195.942C159.352 195.867 157.6 195.793 154.134 195.793C148.469 195.793 143.401 195.942 138.668 196.203L138.705 196.91C143.438 196.65 148.469 196.501 154.134 196.501C157.6 196.501 159.352 196.575 161.811 196.65C162.929 196.687 164.159 196.724 165.724 196.799V196.091Z" fill="#5E5E5E"/>
<path d="M212.146 200.367L211.997 201.038C213.003 201.261 214.121 201.373 215.351 201.373C216.134 201.373 216.879 201.336 217.662 201.261C217.662 201.038 217.624 200.777 217.624 200.553C216.879 200.591 216.097 200.665 215.351 200.665C214.159 200.702 213.115 200.591 212.146 200.367Z" fill="#5E5E5E"/>
<path d="M179.429 185.555L179.28 186.225C180.286 186.449 181.405 186.56 182.634 186.56C183.417 186.56 184.162 186.523 184.945 186.449C184.945 186.225 184.908 185.964 184.908 185.741C184.162 185.778 183.38 185.853 182.634 185.853C181.442 185.89 180.398 185.778 179.429 185.555Z" fill="#5E5E5E"/>
<path d="M183.752 209.625L183.603 210.295C184.609 210.519 185.727 210.631 186.957 210.631C187.739 210.631 188.485 210.593 189.267 210.519C189.267 210.295 189.23 210.035 189.23 209.811C188.485 209.848 187.702 209.923 186.957 209.923C185.764 209.96 184.721 209.848 183.752 209.625Z" fill="#5E5E5E"/>
<path d="M217.665 203.211C216.472 203.248 215.354 203.285 214.497 203.434L214.609 204.142C215.391 204.03 216.472 203.956 217.628 203.956C217.628 203.695 217.665 203.434 217.665 203.211Z" fill="#5E5E5E"/>
<path d="M184.947 188.391C183.754 188.428 182.636 188.465 181.779 188.614L181.891 189.322C182.674 189.21 183.754 189.136 184.91 189.136C184.91 188.875 184.947 188.614 184.947 188.391Z" fill="#5E5E5E"/>
<path d="M189.266 212.465C188.074 212.502 186.956 212.539 186.099 212.688L186.21 213.396C186.993 213.284 188.074 213.21 189.229 213.21C189.229 212.949 189.266 212.688 189.266 212.465Z" fill="#5E5E5E"/>
<path d="M217.215 206.188C216.88 206.225 216.507 206.226 216.023 206.226L215.985 206.933C216.134 206.933 216.284 206.933 216.395 206.933C216.731 206.933 216.992 206.933 217.215 206.896C217.252 206.672 217.327 206.412 217.364 206.188C217.29 206.188 217.252 206.188 217.215 206.188Z" fill="#5E5E5E"/>
<path d="M184.5 191.367C184.165 191.404 183.792 191.404 183.308 191.404L183.271 192.112C183.42 192.112 183.569 192.112 183.68 192.112C184.016 192.112 184.277 192.112 184.5 192.075C184.538 191.851 184.612 191.591 184.649 191.367C184.575 191.367 184.538 191.367 184.5 191.367Z" fill="#5E5E5E"/>
<path d="M188.82 215.445C188.484 215.483 188.112 215.483 187.627 215.483L187.59 216.19C187.739 216.19 187.888 216.19 188 216.19C188.335 216.19 188.596 216.19 188.82 216.153C188.857 215.93 188.932 215.669 188.969 215.445C188.894 215.445 188.857 215.445 188.82 215.445Z" fill="#5E5E5E"/>
<path d="M209.39 198.105H217.291C217.253 197.882 217.216 197.621 217.142 197.397H209.353V198.105H209.39Z" fill="#5E5E5E"/>
<path d="M176.673 183.29H184.574C184.536 183.067 184.499 182.806 184.425 182.582H176.636V183.29H176.673Z" fill="#5E5E5E"/>
<path d="M180.994 207.359H188.895C188.858 207.136 188.821 206.875 188.746 206.652H180.957V207.359H180.994Z" fill="#5E5E5E"/>
<path d="M215.762 211.214C215.874 210.954 215.986 210.73 216.097 210.47C213.265 206.633 210.805 203.319 208.457 200.302C204.619 195.311 201.078 190.991 197.613 187.043L197.091 187.49C200.519 191.438 204.06 195.758 207.898 200.712C210.321 203.84 212.855 207.192 215.762 211.214Z" fill="#5E5E5E"/>
<path d="M183.046 196.394C183.158 196.133 183.27 195.91 183.382 195.649C180.549 191.813 178.09 188.498 175.742 185.482C171.903 180.491 168.363 176.171 164.897 172.223L164.375 172.67C167.804 176.617 171.344 180.938 175.183 185.891C177.605 189.02 180.139 192.372 183.046 196.394Z" fill="#5E5E5E"/>
<path d="M187.368 220.472C187.48 220.211 187.592 219.988 187.704 219.727C184.871 215.891 182.412 212.576 180.064 209.559C176.225 204.569 172.685 200.248 169.219 196.3L168.697 196.747C172.126 200.695 175.666 205.015 179.505 209.969C181.927 213.097 184.462 216.449 187.368 220.472Z" fill="#5E5E5E"/>
<path d="M213.115 212.437C211.4 210.65 209.649 208.564 207.599 205.957C206.555 204.616 205.549 203.238 204.506 201.86C203.5 200.482 202.456 199.104 201.413 197.763C199.363 195.119 197.611 193.033 195.86 191.245L195.338 191.73C197.052 193.517 198.804 195.603 200.854 198.21C201.897 199.551 202.903 200.929 203.947 202.307C204.953 203.685 205.996 205.063 207.04 206.404C209.09 209.048 210.841 211.134 212.593 212.921L213.115 212.437Z" fill="#5E5E5E"/>
<path d="M180.399 197.625C178.684 195.838 176.933 193.752 174.883 191.145C173.84 189.804 172.833 188.426 171.79 187.048C170.784 185.67 169.74 184.292 168.697 182.951C166.647 180.307 164.895 178.221 163.144 176.434L162.622 176.918C164.336 178.706 166.088 180.791 168.138 183.398C169.181 184.739 170.187 186.117 171.231 187.495C172.237 188.873 173.281 190.251 174.324 191.592C176.374 194.236 178.125 196.322 179.877 198.11L180.399 197.625Z" fill="#5E5E5E"/>
<path d="M184.719 221.696C183.005 219.909 181.253 217.823 179.203 215.216C178.16 213.875 177.154 212.497 176.11 211.119C175.104 209.741 174.061 208.363 173.017 207.022C170.967 204.378 169.216 202.292 167.464 200.504L166.942 200.989C168.657 202.776 170.408 204.862 172.458 207.469C173.501 208.81 174.508 210.188 175.551 211.566C176.557 212.944 177.601 214.322 178.644 215.663C180.694 218.307 182.446 220.393 184.197 222.18L184.719 221.696Z" fill="#5E5E5E"/>
<path d="M225.216 207.353C223.726 205.64 222.049 203.741 221.191 202.661C221.452 203.368 221.75 204.113 222.086 204.821C222.868 205.752 223.837 206.832 224.695 207.838C226.036 209.365 227.303 210.854 227.639 211.264C227.974 211.674 228.235 212.083 228.496 212.456L229.092 212.083C228.831 211.674 228.533 211.264 228.198 210.854C227.825 210.37 226.632 208.992 225.216 207.353Z" fill="#5E5E5E"/>
<path d="M192.5 192.536C191.01 190.823 189.333 188.924 188.476 187.844C188.736 188.551 189.035 189.296 189.37 190.004C190.153 190.935 191.122 192.015 191.979 193.021C193.32 194.548 194.587 196.037 194.923 196.447C195.258 196.857 195.519 197.266 195.78 197.639L196.376 197.266C196.115 196.857 195.817 196.447 195.482 196.037C195.109 195.553 193.917 194.175 192.5 192.536Z" fill="#5E5E5E"/>
<path d="M196.821 216.611C195.33 214.897 193.653 212.998 192.796 211.918C193.057 212.626 193.355 213.371 193.69 214.078C194.473 215.009 195.442 216.089 196.299 217.095C197.641 218.622 198.908 220.112 199.243 220.521C199.579 220.931 199.839 221.341 200.1 221.713L200.697 221.341C200.436 220.931 200.138 220.521 199.802 220.112C199.43 219.627 198.237 218.249 196.821 216.611Z" fill="#5E5E5E"/>
<path d="M219.029 210.883C219.253 211.218 219.514 211.628 219.924 212.112L220.483 211.665C220.11 211.181 219.849 210.809 219.625 210.473C219.215 209.877 218.88 209.393 218.172 208.723L217.688 209.244C218.321 209.84 218.619 210.287 219.029 210.883Z" fill="#5E5E5E"/>
<path d="M186.313 196.074C186.537 196.409 186.798 196.819 187.208 197.303L187.767 196.856C187.394 196.372 187.133 196 186.91 195.665C186.5 195.069 186.164 194.584 185.456 193.914L184.972 194.435C185.605 195.031 185.903 195.478 186.313 196.074Z" fill="#5E5E5E"/>
<path d="M190.635 220.148C190.858 220.484 191.119 220.893 191.529 221.377L192.088 220.931C191.715 220.446 191.454 220.074 191.231 219.739C190.821 219.143 190.486 218.659 189.777 217.988L189.293 218.51C189.927 219.106 190.225 219.552 190.635 220.148Z" fill="#5E5E5E"/>
<path d="M194.78 196.315C195.377 197.023 195.973 197.767 196.644 198.624C197.948 200.337 199.253 202.125 200.482 203.838C201.749 205.589 203.017 207.376 204.358 209.127C205.663 210.84 206.892 212.293 208.085 213.559L208.607 213.075C207.451 211.808 206.222 210.393 204.917 208.717C203.613 207.004 202.308 205.216 201.041 203.466C199.774 201.715 198.507 199.928 197.166 198.214C196.42 197.283 195.749 196.427 195.079 195.645L194.52 196.091L194.78 196.315Z" fill="#5E5E5E"/>
<path d="M162.065 181.503C162.661 182.211 163.257 182.955 163.928 183.812C165.232 185.525 166.537 187.313 167.767 189.026C169.034 190.777 170.301 192.564 171.642 194.315C172.947 196.028 174.177 197.481 175.369 198.747L175.891 198.263C174.736 196.996 173.506 195.581 172.201 193.905C170.897 192.192 169.593 190.404 168.326 188.654C167.058 186.903 165.791 185.116 164.45 183.402C163.704 182.471 163.034 181.615 162.363 180.833L161.804 181.279L162.065 181.503Z" fill="#5E5E5E"/>
<path d="M166.384 205.572C166.98 206.28 167.576 207.025 168.247 207.882C169.552 209.595 170.856 211.383 172.086 213.096C173.353 214.846 174.62 216.634 175.962 218.384C177.266 220.098 178.496 221.55 179.688 222.816L180.21 222.332C179.055 221.066 177.825 219.651 176.521 217.975C175.216 216.262 173.912 214.474 172.645 212.723C171.378 210.973 170.111 209.185 168.769 207.472C168.024 206.541 167.353 205.684 166.682 204.902L166.123 205.349L166.384 205.572Z" fill="#5E5E5E"/>
<path d="M193.156 200.024L192.596 200.457L203.053 213.986L203.613 213.553L193.156 200.024Z" fill="#5E5E5E"/>
<path d="M160.438 185.208L159.878 185.641L170.335 199.17L170.895 198.737L160.438 185.208Z" fill="#5E5E5E"/>
<path d="M164.761 209.282L164.2 209.715L174.657 223.244L175.217 222.811L164.761 209.282Z" fill="#5E5E5E"/>
<path d="M219.663 206.938C221.489 208.278 223.017 210.215 224.359 211.966C223.576 210.364 222.57 208.874 221.415 207.496C221.005 207.087 220.557 206.714 220.073 206.379L219.663 206.938Z" fill="#5E5E5E"/>
<path d="M186.945 192.126C188.771 193.466 190.299 195.403 191.641 197.154C190.858 195.552 189.852 194.062 188.697 192.684C188.287 192.275 187.84 191.902 187.355 191.567L186.945 192.126Z" fill="#5E5E5E"/>
<path d="M191.267 216.2C193.093 217.541 194.621 219.477 195.962 221.228C195.18 219.626 194.173 218.136 193.018 216.758C192.608 216.349 192.161 215.976 191.677 215.641L191.267 216.2Z" fill="#5E5E5E"/>
<path d="M151.237 141.051C155.455 143.829 163.274 150.927 160.805 157.1" stroke="#5E5E5E" strokeWidth="4.12398"/>
<path d="M118.817 199.059C119.04 198.836 119.264 198.575 119.487 198.352C115.984 198.426 112.705 198.538 109.574 198.724L109.612 199.432C112.518 199.245 115.574 199.134 118.817 199.059Z" fill="#5E5E5E"/>
<path d="M111.587 202.301L111.661 203.009C112.444 202.934 113.264 202.86 114.121 202.786C114.531 202.525 114.941 202.301 115.314 202.003C114.009 202.078 112.779 202.152 111.587 202.301Z" fill="#5E5E5E"/>
<path d="M109.761 204.874C108.01 202.751 106.295 200.702 104.618 198.766L104.097 199.213C105.736 201.075 107.376 203.011 109.053 205.097C109.277 205.023 109.538 204.948 109.761 204.874Z" fill="#5E5E5E"/>
<path d="M100.855 202.081C99.252 202.267 98.2458 202.193 97.0532 202.118C96.3451 202.081 95.5998 202.044 94.6308 202.044C93.0656 202.044 91.5376 202.006 90.0096 201.969C88.4444 201.932 86.9164 201.895 85.3511 201.895C82.9287 201.895 80.879 201.969 79.0156 202.118C79.4628 202.342 79.9101 202.528 80.3573 202.714C81.848 202.64 83.4878 202.565 85.3511 202.565C86.9164 202.565 88.4444 202.602 89.9724 202.64C91.5376 202.677 93.0656 202.714 94.6308 202.714C95.5625 202.714 96.3079 202.751 96.9787 202.789C98.1713 202.863 99.2147 202.938 100.892 202.751L100.855 202.081Z" fill="#5E5E5E"/>
<path d="M102.643 198.614C101.078 198.577 99.8482 198.54 98.7302 198.465C96.2705 198.391 94.5189 198.316 91.053 198.316C85.3883 198.316 80.3199 198.465 75.5869 198.726L75.6242 199.434C80.3572 199.173 85.3883 199.024 91.053 199.024C94.5189 199.024 96.2705 199.099 98.7302 199.173C99.8482 199.21 101.078 199.248 102.643 199.322V198.614Z" fill="#5E5E5E"/>
<path d="M165.724 196.091C164.159 196.054 162.929 196.016 161.811 195.942C159.352 195.867 157.6 195.793 154.134 195.793C148.469 195.793 143.401 195.942 138.668 196.203L138.705 196.91C143.438 196.65 148.469 196.501 154.134 196.501C157.6 196.501 159.352 196.575 161.811 196.65C162.929 196.687 164.159 196.724 165.724 196.799V196.091Z" fill="#5E5E5E"/>
<path d="M82.0408 161.52C80.4755 161.483 79.2457 161.446 78.1277 161.371C75.668 161.297 73.9164 161.222 70.4505 161.222C64.7858 161.222 59.7174 161.371 54.9844 161.632L55.0217 162.34C59.7547 162.079 64.7858 161.93 70.4505 161.93C73.9164 161.93 75.668 162.004 78.1277 162.079C79.2457 162.116 80.4755 162.153 82.0408 162.228V161.52Z" fill="#5E5E5E"/>
<path d="M77.7205 189.915C76.1552 189.878 74.9254 189.841 73.8073 189.766C71.3477 189.692 69.5961 189.617 66.1302 189.617C60.4655 189.617 55.3971 189.766 50.6641 190.027L50.7013 190.735C55.4343 190.474 60.4655 190.325 66.1302 190.325C69.5961 190.325 71.3477 190.399 73.8073 190.474C74.9254 190.511 76.1552 190.548 77.7205 190.623V189.915Z" fill="#5E5E5E"/>
<path d="M100.261 205.28C98.7329 205.429 97.0185 205.504 95.1179 205.504C93.18 205.504 91.1675 205.429 89.2296 205.355C88.5215 205.318 87.8507 205.318 87.1426 205.28C88.1861 205.578 89.2296 205.802 90.2731 205.988C90.4967 206.025 90.7203 206.062 90.9439 206.1C92.3228 206.137 93.739 206.174 95.1179 206.174C97.0558 206.174 98.7701 206.1 100.335 205.951L100.261 205.28Z" fill="#5E5E5E"/>
<path d="M102.906 202.978L102.384 203.462C103.129 204.244 103.912 205.1 104.694 206.032C104.955 205.994 105.253 205.957 105.514 205.883C104.62 204.84 103.763 203.871 102.906 202.978Z" fill="#5E5E5E"/>
<path d="M119.341 173.066C120.123 173.066 120.906 173.066 121.689 173.066C121.54 172.843 121.39 172.582 121.241 172.359C120.608 172.359 119.974 172.359 119.303 172.359C116.285 172.359 113.825 172.47 111.552 172.731L111.626 173.439C113.937 173.178 116.359 173.066 119.341 173.066Z" fill="#5E5E5E"/>
<path d="M119.151 182.516L119.002 183.187C120.008 183.41 121.126 183.522 122.356 183.522C123.139 183.522 123.884 183.484 124.667 183.41C124.667 183.187 124.629 182.926 124.629 182.702C123.884 182.74 123.101 182.814 122.356 182.814C121.163 182.851 120.12 182.74 119.151 182.516Z" fill="#5E5E5E"/>
<path d="M124.669 185.352C123.476 185.389 122.358 185.426 121.501 185.575L121.613 186.283C122.395 186.171 123.476 186.096 124.631 186.096C124.631 185.836 124.669 185.575 124.669 185.352Z" fill="#5E5E5E"/>
<path d="M124.22 188.336C123.885 188.373 123.512 188.373 123.028 188.373L122.99 189.081C123.139 189.081 123.288 189.081 123.4 189.081C123.736 189.081 123.996 189.081 124.22 189.044C124.257 188.82 124.332 188.559 124.369 188.336C124.295 188.336 124.257 188.336 124.22 188.336Z" fill="#5E5E5E"/>
<path d="M116.394 180.259H124.294C124.257 180.035 124.22 179.775 124.145 179.551H116.356V180.259H116.394Z" fill="#5E5E5E"/>
<path d="M117.29 175.593C116.209 175.593 115.24 175.63 114.309 175.668V176.375H114.607C115.427 176.338 116.321 176.338 117.29 176.338C119.228 176.338 121.203 176.412 123.141 176.487C123.178 176.487 123.216 176.487 123.29 176.487C123.216 176.263 123.104 176.003 123.029 175.779C121.129 175.668 119.191 175.593 117.29 175.593Z" fill="#5E5E5E"/>
<path d="M119.154 169.485C118.968 169.262 118.744 169.038 118.558 168.777C115.39 168.852 112.409 168.964 109.539 169.113L109.576 169.82C112.595 169.634 115.763 169.522 119.154 169.485Z" fill="#5E5E5E"/>
<path d="M122.768 193.363C122.88 193.102 122.991 192.879 123.103 192.618C120.271 188.782 117.811 185.467 115.463 182.45C111.625 177.46 108.084 173.139 104.618 169.191L104.097 169.638C107.525 173.586 111.066 177.907 114.904 182.86C117.327 185.989 119.861 189.341 122.768 193.363Z" fill="#5E5E5E"/>
<path d="M65.9168 182.189L65.3564 182.621L75.8132 196.15L76.3736 195.717L65.9168 182.189Z" fill="#5E5E5E"/>
<path d="M128.996 179.665L128.436 180.098L138.892 193.627L139.453 193.194L128.996 179.665Z" fill="#5E5E5E"/>
<path d="M124.676 208.063L124.115 208.496L134.572 222.025L135.132 221.592L124.676 208.063Z" fill="#5E5E5E"/>
<path d="M67.4666 206.208L66.9062 206.641L77.363 220.17L77.9234 219.737L67.4666 206.208Z" fill="#5E5E5E"/>
<path d="M91.9092 183.339C93.5117 183.191 95.226 183.079 96.6794 183.191L96.7167 182.483C95.226 182.371 93.4371 182.483 91.8346 182.632C90.7166 182.744 89.524 182.818 88.3687 182.818C87.1762 182.818 86.1327 182.706 85.1637 182.483L85.0146 183.153C86.0209 183.377 87.1389 183.488 88.3687 183.488C89.5613 183.526 90.7539 183.451 91.9092 183.339Z" fill="#5E5E5E"/>
<path d="M98.2082 196.604L98.8418 196.306C98.4318 195.412 97.0902 193.885 96.233 193.364L95.8604 193.96C96.643 194.407 97.8728 195.822 98.2082 196.604Z" fill="#5E5E5E"/>
<path d="M96.197 185.357C95.7871 185.357 95.3026 185.357 94.7809 185.357C92.4703 185.319 89.3398 185.319 87.5137 185.58L87.6255 186.288C89.4143 186.027 92.5075 186.064 94.7809 186.064C95.3026 186.064 95.7871 186.064 96.197 186.064V185.357Z" fill="#5E5E5E"/>
<path d="M97.9104 179.551H82.4443V180.259H97.9104V179.551Z" fill="#5E5E5E"/>
<path d="M100.258 175.668C98.7304 175.816 97.0161 175.891 95.1154 175.891C93.1775 175.891 91.1651 175.816 89.2271 175.742C87.2892 175.668 85.314 175.593 83.3388 175.593C82.2581 175.593 81.2891 175.63 80.3574 175.668V176.375H80.6556C81.4754 176.338 82.3699 176.338 83.3388 176.338C85.2768 176.338 87.2519 176.412 89.1899 176.487C91.1278 176.561 93.1403 176.636 95.1154 176.636C97.0534 176.636 98.7677 176.561 100.333 176.412L100.258 175.668Z" fill="#5E5E5E"/>
<path d="M93.2145 192.611C93.6245 192.611 93.9972 192.574 94.4444 192.611L94.4816 191.903C94.0344 191.866 93.6245 191.903 93.2145 191.903C92.8046 191.903 92.3946 191.941 91.9102 191.903C91.463 191.903 90.9785 191.903 90.5312 191.941L90.6058 192.648C90.9785 192.611 91.4629 192.611 91.8729 192.611C92.3574 192.648 92.8046 192.648 93.2145 192.611Z" fill="#5E5E5E"/>
<path d="M95.153 188.293C94.4077 188.33 91.8735 188.33 90.9791 188.293C90.7182 188.293 90.4946 188.293 90.2338 188.33C89.8983 188.367 89.5257 188.367 89.0412 188.367L89.0039 189.075C89.153 189.075 89.3021 189.075 89.4139 189.075C89.7493 189.075 90.0474 189.075 90.271 189.038C90.4946 189.038 90.7182 189.001 90.9418 189.001C91.8362 189.038 94.4077 189.038 95.153 189.001V188.293Z" fill="#5E5E5E"/>
<path d="M120.12 194.586C118.406 192.798 116.655 190.713 114.605 188.105C113.561 186.765 112.555 185.387 111.512 184.009C110.505 182.631 109.462 181.253 108.418 179.912C106.369 177.267 104.617 175.182 102.865 173.394L102.344 173.878C104.058 175.666 105.81 177.752 107.859 180.359C108.903 181.699 109.909 183.078 110.953 184.456C111.959 185.834 113.002 187.212 114.046 188.552C116.096 191.197 117.847 193.282 119.599 195.07L120.12 194.586Z" fill="#5E5E5E"/>
<path d="M91.2747 195.896C87.3988 190.57 84.2311 186.287 81.2124 182.45C77.3738 177.497 73.8333 173.139 70.3674 169.191L69.8457 169.638C73.2743 173.586 76.8148 177.907 80.6534 182.86C83.6348 186.733 86.8398 190.979 90.6784 196.305L91.2747 195.896Z" fill="#5E5E5E"/>
<path d="M154.356 193.372C150.48 188.046 147.312 183.763 144.293 179.927C140.455 174.973 136.914 170.616 133.448 166.668L132.927 167.115C136.355 171.063 139.896 175.383 143.734 180.337C146.716 184.21 149.921 188.456 153.759 193.782L154.356 193.372Z" fill="#5E5E5E"/>
<path d="M70.6731 158.802C66.7973 153.476 63.6295 149.193 60.6108 145.357C56.7722 140.403 53.2318 136.046 49.7659 132.098L49.2441 132.545C52.6728 136.492 56.2132 140.813 60.0518 145.766C63.0332 149.64 66.2382 153.886 70.0768 159.211L70.6731 158.802Z" fill="#5E5E5E"/>
<path d="M92.8264 219.915C88.9506 214.589 85.7828 210.306 82.7641 206.47C78.9256 201.516 75.3851 197.159 71.9192 193.211L71.3975 193.658C74.8261 197.606 78.3665 201.926 82.2051 206.88C85.1865 210.753 88.3916 214.999 92.2301 220.325L92.8264 219.915Z" fill="#5E5E5E"/>
<path d="M66.3518 187.196C62.476 181.87 59.3082 177.587 56.2895 173.751C52.4509 168.798 48.9105 164.44 45.4446 160.492L44.9229 160.939C48.3515 164.887 51.8919 169.207 55.7305 174.161C58.7119 178.034 61.917 182.28 65.7555 187.606L66.3518 187.196Z" fill="#5E5E5E"/>
<path d="M93.476 195.854C93.8859 195.854 94.2586 195.854 94.5567 195.779L94.3704 195.109C94.1095 195.183 93.8114 195.183 93.5132 195.183C93.2524 195.183 92.9915 195.146 92.6934 195.22L92.8052 195.928C93.0288 195.816 93.2524 195.854 93.476 195.854Z" fill="#5E5E5E"/>
<path d="M69.1411 192.029C67.6504 190.315 65.9734 188.416 65.1162 187.336C65.3771 188.044 65.6752 188.788 66.0106 189.496C66.7933 190.427 67.7622 191.507 68.6194 192.513C69.961 194.04 71.2281 195.53 71.5635 195.939C71.8989 196.349 72.1598 196.759 72.4206 197.131L73.0169 196.759C72.7561 196.349 72.4579 195.939 72.1225 195.53C71.7498 195.045 70.5573 193.667 69.1411 192.029Z" fill="#5E5E5E"/>
<path d="M132.222 189.502C130.731 187.789 129.054 185.89 128.197 184.81C128.458 185.517 128.756 186.262 129.092 186.97C129.874 187.901 130.843 188.981 131.7 189.986C133.042 191.513 134.309 193.003 134.645 193.413C134.98 193.823 135.241 194.232 135.502 194.605L136.098 194.232C135.837 193.823 135.539 193.413 135.204 193.003C134.831 192.519 133.638 191.141 132.222 189.502Z" fill="#5E5E5E"/>
<path d="M127.901 217.9C126.41 216.187 124.733 214.287 123.876 213.207C124.137 213.915 124.435 214.66 124.77 215.367C125.553 216.298 126.522 217.378 127.379 218.384C128.721 219.911 129.988 221.401 130.323 221.81C130.659 222.22 130.92 222.63 131.18 223.002L131.777 222.63C131.516 222.22 131.218 221.81 130.882 221.401C130.51 220.917 129.317 219.538 127.901 217.9Z" fill="#5E5E5E"/>
<path d="M70.6919 216.048C69.2012 214.335 67.5241 212.436 66.667 211.355C66.9279 212.063 67.226 212.808 67.5614 213.516C68.344 214.447 69.313 215.527 70.1702 216.532C71.5118 218.059 72.7789 219.549 73.1143 219.959C73.4497 220.368 73.7106 220.778 73.9714 221.151L74.5677 220.778C74.3069 220.369 74.0087 219.959 73.6733 219.549C73.3006 219.065 72.1081 217.687 70.6919 216.048Z" fill="#5E5E5E"/>
<path d="M62.9539 195.559C63.1776 195.894 63.4384 196.303 63.8484 196.788L64.4074 196.341C64.0347 195.857 63.7738 195.484 63.5502 195.149C63.1403 194.553 62.8049 194.069 62.0968 193.398L61.6123 193.92C62.2459 194.516 62.544 194.963 62.9539 195.559Z" fill="#5E5E5E"/>
<path d="M126.035 193.035C126.259 193.37 126.519 193.78 126.929 194.264L127.488 193.817C127.116 193.333 126.855 192.961 126.631 192.625C126.221 192.03 125.886 191.545 125.178 190.875L124.693 191.396C125.327 191.992 125.625 192.439 126.035 193.035Z" fill="#5E5E5E"/>
<path d="M121.714 221.43C121.937 221.765 122.198 222.175 122.608 222.659L123.167 222.212C122.794 221.728 122.534 221.355 122.31 221.02C121.9 220.424 121.565 219.94 120.857 219.27L120.372 219.791C121.006 220.387 121.304 220.834 121.714 221.43Z" fill="#5E5E5E"/>
<path d="M66.5299 175.672C65.2256 175.784 63.8094 175.858 62.2441 175.858C62.3559 176.082 62.505 176.342 62.6541 176.566C64.0703 176.528 65.3746 176.491 66.6045 176.379L66.5299 175.672Z" fill="#5E5E5E"/>
<path d="M103.239 196.453C102.232 195.15 100.705 193.399 99.3256 191.872C98.8039 191.276 98.3194 190.718 97.9095 190.233L97.3877 190.68C97.7976 191.164 98.2821 191.723 98.8039 192.319C100.146 193.846 101.673 195.559 102.68 196.863L103.239 196.453Z" fill="#5E5E5E"/>
<path d="M105.773 195.935C106.108 196.345 106.369 196.718 106.63 197.127L107.226 196.755C106.965 196.345 106.667 195.935 106.332 195.526C105.549 194.483 104.655 193.515 103.798 192.584C102.941 191.652 102.083 190.684 101.301 189.678C100.593 188.747 99.661 187.667 98.8411 186.773L98.3193 187.258C99.1765 188.151 100.034 189.194 100.742 190.125C101.524 191.168 102.419 192.137 103.276 193.068C104.133 193.962 104.99 194.93 105.773 195.935Z" fill="#5E5E5E"/>
<path d="M85.9095 194.586C84.1952 192.798 82.4436 190.713 80.3939 188.105C79.3504 186.765 78.3442 185.387 77.3007 184.009C76.2945 182.631 75.251 181.253 74.2075 179.912C72.1577 177.267 70.4062 175.182 68.6546 173.394L68.1328 173.878C69.8471 175.666 71.5987 177.752 73.6485 180.359C74.692 181.699 75.6982 183.078 76.7417 184.456C77.7479 185.834 78.7914 187.212 79.8349 188.552C81.8846 191.197 83.6362 193.282 85.3878 195.07L85.9095 194.586Z" fill="#5E5E5E"/>
<path d="M148.991 192.067C147.276 190.279 145.525 188.193 143.475 185.586C142.431 184.246 141.425 182.868 140.382 181.49C139.376 180.112 138.332 178.733 137.289 177.393C135.239 174.748 133.487 172.663 131.736 170.875L131.214 171.359C132.928 173.147 134.68 175.233 136.73 177.84C137.773 179.18 138.779 180.558 139.823 181.936C140.829 183.315 141.872 184.693 142.916 186.033C144.966 188.678 146.717 190.763 148.469 192.551L148.991 192.067Z" fill="#5E5E5E"/>
<path d="M65.308 157.497C63.5937 155.709 61.8421 153.623 59.7923 151.016C58.7488 149.675 57.7426 148.297 56.6991 146.919C55.6929 145.541 54.6494 144.163 53.6059 142.822C51.5562 140.178 49.8046 138.092 48.053 136.305L47.5312 136.789C49.2456 138.577 50.9972 140.662 53.0469 143.269C54.0904 144.61 55.0966 145.988 56.1401 147.366C57.1463 148.744 58.1898 150.122 59.2333 151.463C61.2831 154.107 63.0346 156.193 64.7862 157.981L65.308 157.497Z" fill="#5E5E5E"/>
<path d="M87.4603 218.61C85.746 216.822 83.9944 214.736 81.9447 212.129C80.9012 210.789 79.895 209.411 78.8515 208.033C77.8452 206.654 76.8018 205.276 75.7583 203.936C73.7085 201.291 71.9569 199.206 70.2054 197.418L69.6836 197.902C71.3979 199.69 73.1495 201.776 75.1992 204.383C76.2427 205.723 77.249 207.101 78.2925 208.479C79.2987 209.857 80.3422 211.236 81.3857 212.576C83.4354 215.221 85.187 217.306 86.9386 219.094L87.4603 218.61Z" fill="#5E5E5E"/>
<path d="M60.9867 185.895C59.2724 184.107 57.5208 182.021 55.4711 179.414C54.4276 178.073 53.4213 176.695 52.3778 175.317C51.3716 173.939 50.3281 172.561 49.2846 171.22C47.2349 168.576 45.4833 166.49 43.7317 164.703L43.21 165.187C44.9243 166.975 46.6759 169.06 48.7256 171.667C49.7691 173.008 50.7753 174.386 51.8188 175.764C52.8251 177.142 53.8685 178.52 54.912 179.861C56.9618 182.505 58.7134 184.591 60.4649 186.379L60.9867 185.895Z" fill="#5E5E5E"/>
<path d="M101.786 178.463C102.383 179.171 102.979 179.916 103.65 180.772C104.954 182.486 106.258 184.273 107.488 185.987C108.755 187.737 110.022 189.525 111.364 191.275C112.668 192.989 113.898 194.441 115.091 195.707L115.613 195.223C114.457 193.957 113.227 192.542 111.923 190.866C110.619 189.152 109.314 187.365 108.047 185.614C106.78 183.864 105.513 182.076 104.171 180.363C103.426 179.432 102.755 178.575 102.084 177.793L101.525 178.24L101.786 178.463Z" fill="#5E5E5E"/>
<path d="M100.16 182.173L99.5996 182.606L110.056 196.135L110.617 195.702L100.16 182.173Z" fill="#5E5E5E"/>
<path d="M68.9167 169.006C67.3514 168.969 66.1216 168.931 65.0035 168.857C63.4383 168.783 62.1339 168.745 60.4941 168.708C60.4941 168.931 60.4941 169.192 60.4941 169.416C62.1339 169.453 63.401 169.49 64.9663 169.565C66.0843 169.602 67.3141 169.639 68.8794 169.714L68.9167 169.006Z" fill="#5E5E5E"/>
<path d="M80.8419 195.672L81.3636 195.188C80.2083 193.922 79.0157 192.506 77.6741 190.83C76.3697 189.117 75.0653 187.329 73.7982 185.579C72.5311 183.829 71.264 182.041 69.9224 180.328C69.177 179.397 68.5062 178.54 67.8354 177.758L67.2764 178.205L67.4627 178.465C68.059 179.173 68.6553 179.918 69.3261 180.775C70.6305 182.488 71.9348 184.275 73.1647 185.989C74.4318 187.739 75.6989 189.527 77.0405 191.277C78.4567 192.953 79.6866 194.406 80.8419 195.672Z" fill="#5E5E5E"/>
<path d="M143.921 193.145L144.443 192.661C143.287 191.394 142.095 189.979 140.753 188.303C139.449 186.59 138.144 184.802 136.877 183.052C135.61 181.301 134.343 179.514 133.001 177.8C132.256 176.869 131.585 176.013 130.914 175.23L130.355 175.677L130.542 175.938C131.138 176.646 131.734 177.391 132.405 178.247C133.71 179.96 135.014 181.748 136.244 183.461C137.511 185.212 138.778 187 140.12 188.75C141.536 190.426 142.766 191.878 143.921 193.145Z" fill="#5E5E5E"/>
<path d="M60.2393 158.582L60.7611 158.098C59.6058 156.832 58.4132 155.417 57.0716 153.741C55.7672 152.027 54.4628 150.24 53.1957 148.489C51.9286 146.739 50.6615 144.951 49.3199 143.238C48.5745 142.307 47.9037 141.45 47.2328 140.668L46.6738 141.115L46.8602 141.376C47.4565 142.083 48.0527 142.828 48.7236 143.685C50.0279 145.398 51.3323 147.186 52.5621 148.899C53.8292 150.649 55.0964 152.437 56.438 154.187C57.8542 155.863 59.084 157.316 60.2393 158.582Z" fill="#5E5E5E"/>
<path d="M139.601 221.54L140.122 221.055C138.967 219.789 137.775 218.374 136.433 216.698C135.129 214.985 133.824 213.197 132.557 211.446C131.29 209.696 130.023 207.908 128.681 206.195C127.936 205.264 127.265 204.407 126.594 203.625L126.035 204.072L126.221 204.333C126.818 205.041 127.414 205.785 128.085 206.642C129.389 208.355 130.694 210.143 131.923 211.856C133.191 213.607 134.458 215.394 135.799 217.145C137.216 218.821 138.445 220.273 139.601 221.54Z" fill="#5E5E5E"/>
<path d="M82.3926 219.695L82.9144 219.211C81.7591 217.945 80.5665 216.53 79.2249 214.854C77.9205 213.14 76.6161 211.353 75.349 209.602C74.0819 207.852 72.8148 206.064 71.4732 204.351C70.7278 203.42 70.057 202.563 69.3862 201.781L68.8271 202.228L69.0135 202.489C69.6098 203.196 70.2061 203.941 70.8769 204.798C72.1813 206.511 73.4856 208.299 74.7155 210.012C75.9826 211.762 77.2497 213.55 78.5913 215.301C80.0075 216.976 81.2373 218.429 82.3926 219.695Z" fill="#5E5E5E"/>
<path d="M102.643 169.006C101.078 168.969 99.8482 168.931 98.7302 168.857C96.2705 168.783 94.5189 168.708 91.053 168.708C85.3883 168.708 80.3199 168.857 75.5869 169.118L75.6242 169.825C80.3572 169.565 85.3883 169.416 91.053 169.416C94.5189 169.416 96.2705 169.49 98.7302 169.565C99.8482 169.602 101.078 169.639 102.643 169.714V169.006Z" fill="#5E5E5E"/>
<path d="M97.0534 172.544C96.3453 172.507 95.6 172.47 94.631 172.47C93.0658 172.47 91.5378 172.433 90.0098 172.395C88.4445 172.358 86.9166 172.321 85.3513 172.321C82.3326 172.321 79.8729 172.433 77.5996 172.693L77.6741 173.401C79.9102 173.177 82.3326 173.066 85.3513 173.066C86.9166 173.066 88.4445 173.103 89.9725 173.14C91.5378 173.177 93.0658 173.215 94.631 173.215C95.5627 173.215 96.3081 173.252 96.9789 173.289C98.1714 173.364 99.2149 173.438 100.892 173.252L100.817 172.544C99.2522 172.656 98.246 172.619 97.0534 172.544Z" fill="#5E5E5E"/>
<path d="M63.5859 191.61C65.412 192.951 66.94 194.888 68.2816 196.638C67.499 195.037 66.4928 193.547 65.3375 192.169C64.9276 191.759 64.4803 191.387 63.9959 191.052L63.5859 191.61Z" fill="#5E5E5E"/>
<path d="M126.667 189.09C128.493 190.43 130.021 192.367 131.363 194.118C130.58 192.516 129.574 191.026 128.419 189.648C128.009 189.239 127.561 188.866 127.077 188.531L126.667 189.09Z" fill="#5E5E5E"/>
<path d="M122.347 217.484C124.173 218.825 125.701 220.762 127.042 222.512C126.26 220.911 125.254 219.421 124.098 218.043C123.688 217.633 123.241 217.261 122.757 216.926L122.347 217.484Z" fill="#5E5E5E"/>
<path d="M110.62 166.142L105.068 158.991C104.62 158.767 104.136 158.544 103.651 158.32L110.024 166.589L110.62 166.142Z" fill="#5E5E5E"/>
<path d="M105.774 166.327C106.109 166.737 106.37 167.109 106.631 167.519L107.227 167.146C106.966 166.737 106.668 166.327 106.333 165.917C105.55 164.875 104.656 163.906 103.799 162.975C102.942 162.044 102.084 161.076 101.302 160.07C100.594 159.139 99.662 158.059 98.8421 157.165L98.3203 157.649C99.1775 158.543 100.035 159.586 100.743 160.517C101.525 161.56 102.42 162.528 103.277 163.459C104.134 164.39 104.991 165.321 105.774 166.327Z" fill="#5E5E5E"/>
<path d="M115.463 165.724C114.681 165.053 113.898 164.42 113.078 163.824C113.749 164.644 114.42 165.389 115.091 166.096L115.463 165.724Z" fill="#5E5E5E"/>
<path d="M103.241 166.845C102.234 165.541 100.706 163.791 99.3276 162.264C98.8058 161.668 98.3213 161.109 97.9114 160.625L97.3896 161.072C97.7996 161.556 98.2841 162.115 98.8058 162.711C100.147 164.238 101.675 165.951 102.682 167.254L103.241 166.845Z" fill="#5E5E5E"/>
<path d="M61.6123 164.311C62.2459 164.907 62.544 165.354 62.9539 165.95C63.1776 166.285 63.4384 166.695 63.8484 167.179L64.4074 166.732C64.0347 166.248 63.7738 165.876 63.5502 165.54C63.1403 164.945 62.8049 164.46 62.0968 163.79L61.6123 164.311Z" fill="#5E5E5E"/>
<path d="M98.2082 166.994L98.8418 166.696C98.4318 165.802 97.0902 164.275 96.233 163.754L95.8604 164.35C96.643 164.834 97.8728 166.212 98.2082 166.994Z" fill="#5E5E5E"/>
<path d="M90.3439 153.879C88.6296 153.544 86.9153 153.246 85.1637 153.022L85.0146 153.618C86.0209 153.842 87.1389 153.954 88.3687 153.954C89.0395 153.954 89.6731 153.916 90.3439 153.879Z" fill="#5E5E5E"/>
<path d="M77.1524 161.669C78.4568 163.382 79.6866 164.835 80.8792 166.101L81.4009 165.617C80.2456 164.351 79.0531 162.935 77.7114 161.259C76.4071 159.546 75.1027 157.758 73.8356 156.008C73.2021 155.114 72.5312 154.183 71.8604 153.289C71.6368 153.364 71.3759 153.438 71.1523 153.513C71.8604 154.481 72.5685 155.449 73.2393 156.418C74.5064 158.131 75.8108 159.919 77.1524 161.669Z" fill="#5E5E5E"/>
<path d="M95.153 158.683C94.4077 158.72 91.8735 158.72 90.9791 158.683C90.7182 158.683 90.4946 158.683 90.2338 158.72C89.8983 158.757 89.5257 158.757 89.0412 158.757L89.0039 159.465C89.153 159.465 89.3021 159.465 89.4139 159.465C89.7493 159.465 90.0474 159.465 90.271 159.428C90.4946 159.428 90.7182 159.391 90.9418 159.391C91.8362 159.428 94.4077 159.428 95.153 159.391V158.683Z" fill="#5E5E5E"/>
<path d="M96.197 155.745C95.7871 155.745 95.3026 155.745 94.7809 155.745C92.4703 155.708 89.3398 155.708 87.5137 155.968L87.6255 156.676C89.4143 156.415 92.5075 156.453 94.7809 156.453C95.3026 156.453 95.7871 156.453 96.197 156.453V155.745Z" fill="#5E5E5E"/>
<path d="M72.4203 167.518L73.0166 167.146C72.7557 166.736 72.4576 166.326 72.1222 165.917C71.7868 165.47 70.5569 164.054 69.1407 162.453C67.5755 160.665 65.8239 158.654 65.004 157.648C64.8549 157.835 64.6686 157.984 64.5195 158.17C65.3767 159.213 67.091 161.187 68.619 162.9C69.9606 164.427 71.2277 165.917 71.5631 166.326C71.8613 166.736 72.1594 167.146 72.4203 167.518Z" fill="#5E5E5E"/>
<path d="M93.476 166.242C93.8859 166.242 94.2586 166.242 94.5567 166.167L94.3704 165.497C94.1095 165.572 93.8114 165.572 93.5132 165.572C93.2524 165.572 92.9915 165.534 92.6934 165.609L92.8052 166.316C93.0288 166.242 93.2524 166.242 93.476 166.242Z" fill="#5E5E5E"/>
<path d="M63.9959 161.441L63.5859 162C65.4866 163.378 67.0518 165.464 68.468 167.251L69.027 166.805C67.6108 164.98 65.9711 162.894 63.9959 161.441Z" fill="#5E5E5E"/>
<path d="M85.9125 164.979C84.1982 163.191 82.4466 161.105 80.3968 158.498C79.3533 157.157 78.3471 155.779 77.3036 154.401C76.8191 153.768 76.3347 153.098 75.8502 152.465C75.5893 152.502 75.2911 152.502 75.0303 152.539C75.5893 153.284 76.1483 154.066 76.7446 154.811C77.7508 156.189 78.7943 157.567 79.8378 158.908C81.8876 161.552 83.6391 163.638 85.3907 165.426L85.9125 164.979Z" fill="#5E5E5E"/>
<path d="M76.4039 166.132L67.9068 155.145C67.7205 155.256 67.5342 155.405 67.3105 155.554L75.8448 166.578L76.4039 166.132Z" fill="#5E5E5E"/>
<path d="M91.2773 166.287C87.4015 160.961 84.2337 156.678 81.215 152.842C81.1405 152.768 81.0659 152.656 80.9914 152.582C80.656 152.544 80.3579 152.544 80.0225 152.507C80.2088 152.768 80.4324 153.028 80.6187 153.289C83.6002 157.163 86.8052 161.408 90.6438 166.734L91.2773 166.287Z" fill="#5E5E5E"/>
<path d="M93.2116 163.048C93.6216 163.048 93.9942 163.011 94.4414 163.048L94.4787 162.341C94.0315 162.303 93.6216 162.341 93.2116 162.341C92.8017 162.341 92.3917 162.378 91.9072 162.341C91.46 162.341 90.9755 162.341 90.5283 162.378L90.6029 163.085C90.9755 163.048 91.46 163.048 91.87 163.048C92.3544 163.048 92.8017 163.048 93.2116 163.048Z" fill="#5E5E5E"/>
<g opacity="0.6673">
<path opacity="0.94" d="M77.898 156.223L76.9663 155.292C76.8172 155.143 76.8172 154.919 76.9663 154.808L77.898 153.877C78.0471 153.728 78.2707 153.728 78.3825 153.877L79.3142 154.808C79.4633 154.957 79.4633 155.18 79.3142 155.292L78.3825 156.223C78.2334 156.335 78.0098 156.335 77.898 156.223Z" fill="white"/>
</g>
<g opacity="0.9281">
<path opacity="0.94" d="M97.6128 163.747L96.6811 162.816C96.5321 162.667 96.5321 162.443 96.6811 162.331L97.6128 161.4C97.7619 161.251 97.9855 161.251 98.0973 161.4L99.029 162.331C99.1781 162.48 99.1781 162.704 99.029 162.816L98.0973 163.747C97.9483 163.896 97.7246 163.896 97.6128 163.747Z" fill="white"/>
</g>
<path d="M89.6118 176.53L90.0307 176.59L111.049 176.652L110.788 166.623C114.211 163.313 117.466 159.257 120.416 154.288C138.282 124.203 138.885 75.0763 121.762 44.561C118.933 39.5242 115.78 35.3891 112.438 31.9964L112.563 21.7197L91.9329 21.4675C79.9598 20.5982 67.7504 28.0542 58.4098 43.7859C40.5437 73.8711 39.9406 122.998 57.0636 153.513C66.0161 169.466 77.6214 177.106 89.6118 176.53Z" fill="black"/>
<path d="M91.9109 23.4564L110.546 23.6867L110.437 32.799L111.018 33.3923C114.399 36.8195 117.428 40.9058 120.026 45.5327C136.808 75.4444 136.216 123.772 118.702 153.269C118.288 153.965 117.846 154.625 117.412 155.294L86.319 105.602L46.6678 102.71C46.5069 94.2941 47.1171 85.8384 48.5479 77.6913L68.4451 79.5594L72.1093 63.6244L52.5462 61.7669C54.5686 55.6783 57.0747 49.942 60.1265 44.7988C68.6821 30.3927 80.2212 22.6147 91.9109 23.4564ZM112.806 167.434C116.275 163.969 119.411 159.892 122.133 155.305C140.295 124.717 140.907 74.6006 123.501 43.5829C120.883 38.9101 117.839 34.7459 114.444 31.1931L114.585 19.7479L92.078 19.4762C78.9488 18.5191 66.0509 27.0097 56.6987 42.7579C38.5373 73.3458 37.9211 123.463 55.3273 154.485C59.813 162.48 65.075 168.608 70.8394 172.68C76.6578 176.79 82.9901 178.801 89.5475 178.525L113.097 178.646L112.806 167.434Z" fill="white"/>
<path d="M142.619 154.559C124.755 184.642 96.3917 184.297 79.2688 153.781C62.1458 123.266 62.7489 74.1397 80.6167 44.0522C98.4788 13.9677 126.844 14.3143 143.967 44.8296C161.09 75.3449 160.487 124.471 142.619 154.559Z" fill="#1B1B1B"/>
<path d="M127.91 29.0012C123.083 25.5917 117.892 23.7738 112.542 23.7126C101.32 23.5744 90.5892 31.1597 82.3261 45.0717C64.8135 74.5616 64.2216 122.89 81.0057 152.803C88.922 166.908 99.4621 174.761 110.688 174.898C121.91 175.037 132.64 167.451 140.901 153.538C158.414 124.048 159.006 75.7196 142.221 45.8063C138.078 38.4185 133.214 32.7475 127.91 29.0012ZM93.0323 172.878C87.2374 168.785 81.9684 162.676 77.5285 154.755C60.1224 123.733 60.7345 73.617 78.8966 43.0332C87.9178 27.8434 99.8821 19.5629 112.593 19.7212C125.301 19.8739 137.059 28.446 145.699 43.8542C163.105 74.8758 162.493 124.992 144.331 155.576C135.313 170.765 123.345 179.046 110.636 178.89C104.462 178.813 98.5101 176.747 93.0323 172.878Z" fill="white"/>
<path d="M132.622 144.727C119.887 166.177 99.662 165.929 87.455 144.171C75.2487 122.417 75.6767 87.3909 88.4158 65.9405C101.151 44.4907 121.376 44.7383 133.58 66.4949C145.789 88.2509 145.361 123.277 132.622 144.727Z" fill="#060606"/>
<path d="M126.371 49.9749C123.024 47.6107 119.431 46.3513 115.74 46.3037C107.948 46.2085 100.476 51.5142 94.695 61.254C82.3012 82.1209 81.8835 116.32 93.7585 137.491C99.3002 147.366 106.642 152.858 114.431 152.952C122.218 153.048 129.692 147.736 135.475 137.997C147.867 117.133 148.283 82.9325 136.408 61.7648C133.495 56.5733 130.082 52.5964 126.371 49.9749ZM101.503 152.552C97.3031 149.586 93.4919 145.161 90.2813 139.443C77.781 117.168 78.2223 81.1763 91.2655 59.2154C97.8052 48.2019 106.514 42.2027 115.786 42.3154C125.059 42.4258 133.619 48.6408 139.885 59.8128C152.382 82.0887 151.946 118.077 138.903 140.038C132.365 151.049 123.657 157.053 114.385 156.94C109.858 156.883 105.503 155.378 101.503 152.552Z" fill="white"/>
<path d="M130.404 123.046C122.926 135.643 111.052 135.495 103.885 122.722C96.7182 109.949 96.971 89.3828 104.448 76.7884C111.927 64.1957 123.8 64.3394 130.969 77.114C138.135 89.8892 137.883 110.453 130.404 123.046Z" fill="black"/>
<path d="M123.582 71.4439C121.752 70.1514 119.8 69.4597 117.803 69.4362C113.537 69.3842 109.406 72.3567 106.167 77.8108C99.0235 89.8381 98.7819 109.546 105.626 121.749C108.728 127.278 112.791 130.348 117.054 130.409C121.321 130.459 125.454 127.484 128.688 122.033L128.691 122.028C135.833 110.003 136.076 90.2928 129.231 78.0959C127.582 75.1566 125.658 72.9106 123.582 71.4439ZM108.98 131.671C106.415 129.859 104.096 127.171 102.149 123.702C94.6794 110.395 94.9446 88.8936 102.737 75.7723C106.733 69.0428 112.099 65.3791 117.852 65.4496C123.606 65.5177 128.884 69.316 132.708 76.1438C140.177 89.4466 139.912 110.948 132.119 124.069L132.121 124.067C128.127 130.798 122.758 134.466 117.005 134.396C114.177 134.363 111.465 133.426 108.98 131.671Z" fill="white"/>
<path fillRule="evenodd" clipRule="evenodd" d="M150.621 141.113C145.559 148.4 142.997 164.601 173.248 171.111C174.811 171.375 176.591 171.576 178.481 171.653C178.7 171.926 178.969 172.17 179.288 172.374L215.406 195.428C216.953 196.415 219.011 195.949 219.978 194.391C224.197 187.59 226.057 184.254 228.141 178.46C228.669 176.99 228.057 175.365 226.699 174.593C220.708 171.189 209.503 165.018 201.182 160.435C201.051 160.363 200.921 160.292 200.792 160.221C202.198 156.234 202.405 150.959 200.769 144.035C193.938 115.119 170.864 121.829 162.243 126.811C160.586 127.768 158.299 127.669 157.013 126.252C149.826 118.329 136.687 103.831 135.678 102.683C134.241 101.049 126.552 100.995 129.435 110.973C132.208 120.568 146.534 136.552 150.23 140.677C150.378 140.841 150.509 140.987 150.621 141.113Z" fill="white"/>
<path d="M173.248 171.111L172.814 173.127L172.859 173.137L172.905 173.144L173.248 171.111ZM150.621 141.113L152.314 142.289L153.243 140.953L152.159 139.739L150.621 141.113ZM178.481 171.653L180.089 170.363L179.502 169.631L178.565 169.593L178.481 171.653ZM179.288 172.374L180.397 170.636L180.397 170.636L179.288 172.374ZM215.406 195.428L214.297 197.167L214.297 197.167L215.406 195.428ZM219.978 194.391L218.225 193.304L219.978 194.391ZM228.141 178.46L230.081 179.157L230.081 179.157L228.141 178.46ZM226.699 174.593L227.718 172.801L226.699 174.593ZM201.182 160.435L202.176 158.629L202.176 158.629L201.182 160.435ZM200.792 160.221L198.848 159.535L198.266 161.183L199.797 162.027L200.792 160.221ZM200.769 144.035L198.762 144.509L200.769 144.035ZM162.243 126.811L163.274 128.596L163.274 128.596L162.243 126.811ZM157.013 126.252L158.541 124.866L157.013 126.252ZM135.678 102.683L137.226 101.322L137.226 101.322L135.678 102.683ZM129.435 110.973L131.416 110.401L129.435 110.973ZM150.23 140.677L151.766 139.301L151.766 139.301L150.23 140.677ZM173.682 169.095C158.833 165.9 152.704 160.465 150.583 155.582C148.453 150.678 150.036 145.569 152.314 142.289L148.927 139.936C146.144 143.944 143.914 150.579 146.801 157.225C149.696 163.892 157.413 169.813 172.814 173.127L173.682 169.095ZM178.565 169.593C176.766 169.519 175.073 169.328 173.592 169.078L172.905 173.144C174.549 173.422 176.416 173.632 178.397 173.713L178.565 169.593ZM176.873 172.944C177.232 173.391 177.669 173.787 178.179 174.112L180.397 170.636C180.268 170.553 180.167 170.46 180.089 170.363L176.873 172.944ZM178.179 174.112L214.297 197.167L216.516 193.69L180.397 170.636L178.179 174.112ZM214.297 197.167C216.81 198.77 220.156 198.015 221.73 195.478L218.225 193.304C217.866 193.884 217.095 194.06 216.516 193.69L214.297 197.167ZM221.73 195.478C225.976 188.633 227.925 185.154 230.081 179.157L226.2 177.762C224.189 183.354 222.418 186.546 218.225 193.304L221.73 195.478ZM230.081 179.157C230.953 176.733 229.938 174.062 227.718 172.801L225.681 176.386C226.177 176.668 226.385 177.248 226.2 177.762L230.081 179.157ZM227.718 172.801C221.712 169.388 210.491 163.208 202.176 158.629L200.187 162.241C208.515 166.828 219.705 172.99 225.681 176.386L227.718 172.801ZM202.176 158.629C202.046 158.557 201.916 158.486 201.787 158.414L199.797 162.027C199.927 162.098 200.056 162.169 200.187 162.241L202.176 158.629ZM198.762 144.509C200.339 151.184 200.083 156.033 198.848 159.535L202.737 160.907C204.314 156.435 204.471 150.735 202.776 143.561L198.762 144.509ZM163.274 128.596C167.361 126.235 174.785 123.541 181.83 124.744C185.295 125.335 188.677 126.867 191.6 129.88C194.537 132.909 197.117 137.545 198.762 144.509L202.776 143.561C201.005 136.067 198.139 130.699 194.56 127.009C190.966 123.303 186.76 121.402 182.524 120.679C174.169 119.253 165.746 122.405 161.211 125.025L163.274 128.596ZM155.486 127.637C157.578 129.943 160.993 129.915 163.274 128.596L161.211 125.025C160.18 125.621 159.02 125.395 158.541 124.866L155.486 127.637ZM134.129 104.044C135.152 105.209 148.31 119.727 155.486 127.637L158.541 124.866C151.342 116.931 138.221 102.454 137.226 101.322L134.129 104.044ZM131.416 110.401C130.756 108.116 130.772 106.637 130.995 105.731C131.203 104.883 131.604 104.474 131.986 104.249C132.418 103.993 132.975 103.892 133.506 103.94C134.135 103.996 134.268 104.202 134.129 104.044L137.226 101.322C136.369 100.347 135.002 99.9335 133.875 99.8322C132.651 99.7221 131.196 99.9247 129.887 100.699C128.527 101.503 127.457 102.849 126.99 104.746C126.537 106.585 126.673 108.841 127.454 111.545L131.416 110.401ZM151.766 139.301C149.92 137.241 145.46 132.264 141.121 126.62C136.716 120.889 132.681 114.777 131.416 110.401L127.454 111.545C128.962 116.765 133.477 123.442 137.852 129.133C142.293 134.911 146.844 139.988 148.695 142.053L151.766 139.301ZM152.159 139.739C152.045 139.612 151.913 139.465 151.766 139.301L148.695 142.053C148.843 142.218 148.972 142.362 149.083 142.486L152.159 139.739Z" fill="#646464"/>
<path d="M150.104 140.742C153.952 144.013 160.849 152.011 157.647 157.837" stroke="#646464" strokeWidth="4.12398" stroke-linecap="round"/>
<path d="M146.126 115.679C144.891 117.044 144.769 116.855 142.381 118.549" stroke="#646464" strokeWidth="4.12398" stroke-linecap="round"/>
<path d="M136.834 112.636C134.875 110.567 132.122 105.589 130.991 103.358C133.188 101.631 135.623 102.321 136.131 102.857C136.576 103.327 140.777 108.36 142.925 110.785C141.711 112.265 138.794 114.706 136.834 112.636Z" fill="white" stroke="#646464" strokeWidth="4.12398"/>
<path d="M117.783 73.861C117.293 73.8908 116.938 74.6209 116.991 75.4926L117.247 79.6995C117.299 80.5712 117.74 81.2531 118.23 81.2233C118.721 81.1935 119.075 80.4634 119.022 79.5918L118.767 75.3848C118.714 74.5132 118.274 73.8313 117.783 73.861ZM109.787 80.5328C109.559 80.5466 109.34 80.713 109.186 81.0314C108.877 81.6684 108.937 82.6708 109.321 83.2657L111.176 86.1392C111.56 86.7341 112.124 86.6999 112.434 86.0629C112.743 85.426 112.682 84.4236 112.298 83.8287L110.443 80.9551C110.251 80.6577 110.014 80.519 109.787 80.5328ZM126.528 79.5168C126.301 79.5306 126.082 79.6969 125.928 80.0154L124.434 83.0922C124.125 83.7291 124.185 84.7315 124.569 85.3264C124.953 85.9213 125.518 85.8871 125.827 85.2501L127.321 82.1734C127.63 81.5364 127.569 80.534 127.185 79.9391C126.993 79.6417 126.756 79.503 126.528 79.5168ZM118.359 83.3283C114.29 83.5751 110.709 89.4396 111.192 97.4061C111.493 102.366 112.794 105.513 113.929 107.929C115.064 110.346 115.938 111.975 116.098 114.609L116.481 120.92C116.607 122.994 117.674 124.542 118.776 124.475L122.92 124.224C124.022 124.157 124.894 122.49 124.768 120.417L124.385 114.106C124.225 111.471 124.897 109.748 125.73 107.211C126.564 104.676 127.475 101.394 127.174 96.4347C126.69 88.4681 122.426 83.0812 118.357 83.3269L118.359 83.3283ZM118.55 86.4835C121.701 86.2923 125.028 90.4325 125.399 96.544C125.653 100.716 124.974 103.058 124.177 105.477C123.498 107.539 122.676 109.711 122.588 112.633L117.704 112.93C117.264 110.039 116.184 107.982 115.261 106.018C114.179 103.715 113.222 101.472 112.968 97.2985C112.597 91.1884 115.4 86.6764 118.55 86.4835L118.55 86.4835ZM117.249 88.1459C117.123 88.1448 116.989 88.185 116.856 88.2529C115.008 89.6598 113.749 92.7631 113.604 96.4681C113.573 97.2894 113.969 98.1519 114.438 98.2649C114.906 98.3778 115.364 97.726 115.395 96.9047C115.497 94.309 116.373 92.1417 117.664 91.1579C118.035 90.8788 118.238 90.082 118.122 89.3659C117.962 88.4891 117.63 88.1491 117.25 88.1489L117.249 88.1459ZM107.22 95.6177C106.729 95.6475 106.375 96.3776 106.428 97.2493C106.481 98.1209 106.921 98.8028 107.412 98.773L109.779 98.6293C110.27 98.5996 110.624 97.8694 110.571 96.9978C110.518 96.1262 110.078 95.4443 109.588 95.474L107.22 95.6177ZM128.53 94.3245C128.04 94.3542 127.685 95.0843 127.738 95.956C127.791 96.8276 128.231 97.5095 128.722 97.4797L131.089 97.3361C131.58 97.3063 131.934 96.5762 131.882 95.7045C131.829 94.8329 131.388 94.151 130.898 94.1808L128.53 94.3245ZM117.967 116.081L122.702 115.794L122.766 116.845L118.031 117.133L117.967 116.081ZM118.223 120.288L122.958 120.001L122.99 120.526C123.01 120.869 122.873 121.061 122.726 121.07L118.582 121.322C118.435 121.331 118.275 121.157 118.254 120.814L118.223 120.288Z" fill="white"/>
</svg>
