<svg width="60" height="61" viewBox="0 0 60 61" fill="none" xmlns="http://www.w3.org/2000/svg">
<path d="M58.1499 28.4302H54.3341C53.4784 16.1936 43.8092 6.52451 31.5726 5.66871L31.5752 1.92229C31.5752 0.935579 30.8505 0.210938 29.8638 0.210938C28.8771 0.210938 28.1525 0.935579 28.1525 1.92229V5.7381C15.9159 6.59378 6.24681 16.263 5.391 28.4996L1.71135 28.497C0.724641 28.497 0 29.2217 0 30.2084C0 31.1951 0.724641 31.9197 1.71135 31.9197H5.52717C6.38284 44.1563 16.0521 53.8254 28.2886 54.6812V58.497C28.2886 59.4837 29.0133 60.2084 30 60.2084C30.9867 60.2084 31.7114 59.4837 31.7114 58.497V54.6812C43.9479 53.8255 53.617 44.1563 54.4728 31.9197H58.2887C59.2754 31.9197 60 31.1951 60 30.2084C59.8612 29.1548 59.1366 28.4302 58.1499 28.4302V28.4302ZM45.3227 30.1415C45.3227 31.1283 46.0473 31.8529 47.034 31.8529H50.9809C50.1252 42.1134 41.9024 50.336 31.6426 51.1911V47.2443C31.6426 46.2576 30.918 45.5329 29.9313 45.5329C28.9445 45.5329 28.2199 46.2576 28.2199 47.2443V51.1911C17.9594 50.3355 9.73681 42.1127 8.88166 31.8529H12.8285C13.8152 31.8529 14.5399 31.1283 14.5399 30.1415C14.5399 29.1548 13.8152 28.4302 12.8285 28.4302H8.88166C9.73733 18.1697 17.9601 9.94709 28.2199 9.09194V13.0388C28.2199 14.0255 28.9445 14.7501 29.9313 14.7501C30.918 14.7501 31.6426 14.0255 31.6426 13.0388V9.09194C41.9031 9.94762 50.1257 18.1704 50.9809 28.4302H47.034C46.0473 28.4302 45.3227 29.1548 45.3227 30.1415Z" fill="#2A5EAC"/>
<path d="M29.9312 20.4719C24.6019 20.4719 20.2621 24.8145 20.2621 30.141C20.2621 35.4703 24.6021 39.8102 29.9312 39.8102C35.2603 39.8102 39.6003 35.4701 39.6003 30.141C39.6003 24.8119 35.2603 20.4719 29.9312 20.4719ZM35.1268 30.141C35.1268 33.0344 32.7577 35.3367 29.9312 35.3367C27.1021 35.3367 24.7356 32.9675 24.7356 30.141C24.7356 27.3119 27.1047 24.9454 29.9312 24.9454C32.7603 24.9454 35.1268 27.2477 35.1268 30.141Z" fill="#2A5EAC"/>
</svg>
